<?xml version="1.0" encoding="UTF-8" standalone="no"?>
<!-- Created with Inkscape (http://www.inkscape.org/) -->

<svg
   xmlns:dc="http://purl.org/dc/elements/1.1/"
   xmlns:cc="http://creativecommons.org/ns#"
   xmlns:rdf="http://www.w3.org/1999/02/22-rdf-syntax-ns#"
   xmlns:svg="http://www.w3.org/2000/svg"
   xmlns="http://www.w3.org/2000/svg"
   xmlns:sodipodi="http://sodipodi.sourceforge.net/DTD/sodipodi-0.dtd"
   xmlns:inkscape="http://www.inkscape.org/namespaces/inkscape"
   width="22.631374mm"
   height="6.2240834mm"
   viewBox="0 0 80.189909 22.053839"
   id="svg5597"
   version="1.1"
   inkscape:version="0.91 r13725"
   sodipodi:docname="acdc2.svg">
  <defs
     id="defs5599" />
  <sodipodi:namedview
     id="base"
     pagecolor="#ffffff"
     bordercolor="#666666"
     borderopacity="1.0"
     inkscape:pageopacity="0.0"
     inkscape:pageshadow="2"
     inkscape:zoom="0.35"
     inkscape:cx="-683.47647"
     inkscape:cy="28.169788"
     inkscape:document-units="px"
     inkscape:current-layer="layer1"
     showgrid="false"
     fit-margin-top="0"
     fit-margin-left="0"
     fit-margin-right="0"
     fit-margin-bottom="0"
     inkscape:window-width="1855"
     inkscape:window-height="1056"
     inkscape:window-x="65"
     inkscape:window-y="24"
     inkscape:window-maximized="1" />
  <metadata
     id="metadata5602">
    <rdf:RDF>
      <cc:Work
         rdf:about="">
        <dc:format>image/svg+xml</dc:format>
        <dc:type
           rdf:resource="http://purl.org/dc/dcmitype/StillImage" />
        <dc:title></dc:title>
      </cc:Work>
    </rdf:RDF>
  </metadata>
  <g
     inkscape:label="Layer 1"
     inkscape:groupmode="layer"
     id="layer1"
     transform="translate(-359.90504,-538.47815)">
    <path
       style="fill:#840000;fill-opacity:0;stroke:#840000;stroke-width:0.53999943;stroke-linecap:round;stroke-linejoin:round;stroke-opacity:1"
       inkscape:connector-curvature="0"
       id="path260"
       d="m 425.78497,554.05198 -0.27,0.27 -0.81,0.27 -0.54,0 -0.72,-0.27 -0.54,-0.45 -0.27,-0.54 -0.26999,-1.08 0,-0.72 0.26999,-1.08 0.27,-0.45 0.54,-0.54 0.72,-0.26999 0.54,0 0.81,0.26999 0.27,0.27" />
    <path
       style="fill:#840000;fill-opacity:0;stroke:#840000;stroke-width:0.53999943;stroke-linecap:round;stroke-linejoin:round;stroke-opacity:1"
       inkscape:connector-curvature="0"
       id="path262"
       d="m 428.03497,554.59198 0,-5.39999" />
    <path
       style="fill:#840000;fill-opacity:0;stroke:#840000;stroke-width:0.53999943;stroke-linecap:round;stroke-linejoin:round;stroke-opacity:1"
       inkscape:connector-curvature="0"
       id="path264"
       d="m 428.03497,551.80198 3.15,0" />
    <path
       style="fill:#840000;fill-opacity:0;stroke:#840000;stroke-width:0.53999943;stroke-linecap:round;stroke-linejoin:round;stroke-opacity:1"
       inkscape:connector-curvature="0"
       id="path266"
       d="m 431.18497,554.59198 0,-5.39999" />
    <path
       style="fill:#840000;fill-opacity:0;stroke:#840000;stroke-width:0.53999943;stroke-linecap:round;stroke-linejoin:round;stroke-opacity:1"
       inkscape:connector-curvature="0"
       id="path268"
       d="m 436.58496,554.59198 -3.15,0" />
    <path
       style="fill:#840000;fill-opacity:0;stroke:#840000;stroke-width:0.53999943;stroke-linecap:round;stroke-linejoin:round;stroke-opacity:1"
       inkscape:connector-curvature="0"
       id="path270"
       d="m 435.05496,554.59198 0,-5.39999 -0.54,0.80999 -0.54,0.45 -0.54,0.27" />
    <polyline
       transform="matrix(0.00899999,0,0,0.00899999,262.88515,417.16213)"
       style="fill:#840000;fill-opacity:0;stroke:#840000;stroke-width:100;stroke-linecap:round;stroke-linejoin:round;stroke-opacity:1"
       id="polyline274"
       points="17250,15000 17550,15540 19640,15540 19640,15000 19640,14460 17550,14460 17250,15000 " />
    <rect
       style="fill:#840000;fill-opacity:1;stroke:#840000;stroke-width:0.53999943;stroke-linecap:round;stroke-linejoin:round;stroke-opacity:1"
       id="rect280"
       rx="0"
       height="16.199982"
       width="0.89999902"
       y="544.06201"
       x="396.26501" />
    <rect
       style="fill:#840000;fill-opacity:1;stroke:#840000;stroke-width:0.53999943;stroke-linecap:round;stroke-linejoin:round;stroke-opacity:1"
       id="rect282"
       rx="0"
       height="16.199982"
       width="0.89999902"
       y="544.06201"
       x="391.13501" />
    <rect
       style="fill:#840000;fill-opacity:1;stroke:#840000;stroke-width:0.53999943;stroke-linecap:round;stroke-linejoin:round;stroke-opacity:1"
       id="rect284"
       rx="0"
       height="10.799988"
       width="1.799998"
       y="546.94202"
       x="398.33499" />
    <rect
       style="fill:#840000;fill-opacity:1;stroke:#840000;stroke-width:0.53999943;stroke-linecap:round;stroke-linejoin:round;stroke-opacity:1"
       id="rect286"
       rx="0"
       height="10.799988"
       width="1.799998"
       y="546.94202"
       x="393.20502" />
    <polyline
       transform="matrix(0.00899999,0,0,0.00899999,262.88515,417.16213)"
       style="fill:#840000;fill-opacity:0;stroke:#840000;stroke-width:100;stroke-linecap:round;stroke-linejoin:round;stroke-opacity:1"
       id="polyline290"
       points="13800,14800 13800,14400 " />
    <polyline
       transform="matrix(0.00899999,0,0,0.00899999,262.88515,417.16213)"
       style="fill:#840000;fill-opacity:0;stroke:#840000;stroke-width:100;stroke-linecap:round;stroke-linejoin:round;stroke-opacity:1"
       id="polyline292"
       points="13600,14600 14000,14600 " />
    <path
       style="fill:#840000;fill-opacity:0;stroke:#840000;stroke-width:0.53999943;stroke-linecap:round;stroke-linejoin:round;stroke-opacity:1"
       inkscape:connector-curvature="0"
       id="path296"
       d="m 391.13501,552.16198 -8.99999,0" />
    <path
       style="fill:#840000;fill-opacity:0;stroke:#840000;stroke-width:0.53999943;stroke-linecap:round;stroke-linejoin:round;stroke-opacity:1"
       inkscape:connector-curvature="0"
       id="path298"
       d="m 400.135,552.16198 8.99999,0" />
    <path
       style="fill:#008484;fill-opacity:0;stroke:#008484;stroke-width:0.53999943;stroke-linecap:round;stroke-linejoin:round;stroke-opacity:1"
       inkscape:connector-curvature="0"
       id="path302"
       d="m 385.64502,540.82199 0.63,0.27 0.17999,0.18 0.18,0.45 0,0.63 -0.18,0.45 -0.17999,0.18 -0.45,0.27 -1.71,0 0,-4.49999 1.53,0 0.36,0.18 0.27,0.18 0.17999,0.45 0,0.45 -0.17999,0.44999 -0.27,0.18 -0.36,0.18 -1.53,0" />
    <path
       style="fill:#008484;fill-opacity:0;stroke:#008484;stroke-width:0.53999943;stroke-linecap:round;stroke-linejoin:round;stroke-opacity:1"
       inkscape:connector-curvature="0"
       id="path304"
       d="m 390.50501,543.25199 0,-2.43 -0.18,-0.36 -0.45,-0.26999 -0.81,0 -0.45,0.26999" />
    <path
       style="fill:#008484;fill-opacity:0;stroke:#008484;stroke-width:0.53999943;stroke-linecap:round;stroke-linejoin:round;stroke-opacity:1"
       inkscape:connector-curvature="0"
       id="path306"
       d="m 390.50501,542.98199 -0.36,0.27 -1.08,0 -0.45,-0.27 -0.18,-0.45 0,-0.36 0.18,-0.45 0.45,-0.18 1.08,0 0.36,-0.27" />
    <path
       style="fill:#008484;fill-opacity:0;stroke:#008484;stroke-width:0.53999943;stroke-linecap:round;stroke-linejoin:round;stroke-opacity:1"
       inkscape:connector-curvature="0"
       id="path308"
       d="m 392.03501,540.192 1.71,0" />
    <path
       style="fill:#008484;fill-opacity:0;stroke:#008484;stroke-width:0.53999943;stroke-linecap:round;stroke-linejoin:round;stroke-opacity:1"
       inkscape:connector-curvature="0"
       id="path310"
       d="m 392.66501,538.752 0,3.77999 0.18,0.45 0.45,0.27 0.45,0" />
    <path
       style="fill:#008484;fill-opacity:0;stroke:#008484;stroke-width:0.53999943;stroke-linecap:round;stroke-linejoin:round;stroke-opacity:1"
       inkscape:connector-curvature="0"
       id="path312"
       d="m 394.64501,540.192 1.70999,0" />
    <path
       style="fill:#008484;fill-opacity:0;stroke:#008484;stroke-width:0.53999943;stroke-linecap:round;stroke-linejoin:round;stroke-opacity:1"
       inkscape:connector-curvature="0"
       id="path314"
       d="m 395.27501,538.752 0,3.77999 0.17999,0.45 0.45,0.27 0.45,0" />
    <path
       style="fill:#008484;fill-opacity:0;stroke:#008484;stroke-width:0.53999943;stroke-linecap:round;stroke-linejoin:round;stroke-opacity:1"
       inkscape:connector-curvature="0"
       id="path316"
       d="m 399.595,542.98199 -0.45,0.27 -0.81,0 -0.45,-0.27 -0.18,-0.45 0,-1.71 0.18,-0.36 0.45,-0.26999 0.81,0 0.45,0.26999 0.18,0.36 0,0.45 -2.07,0.45" />
    <path
       style="fill:#008484;fill-opacity:0;stroke:#008484;stroke-width:0.53999943;stroke-linecap:round;stroke-linejoin:round;stroke-opacity:1"
       inkscape:connector-curvature="0"
       id="path318"
       d="m 401.755,543.25199 0,-3.05999" />
    <path
       style="fill:#008484;fill-opacity:0;stroke:#008484;stroke-width:0.53999943;stroke-linecap:round;stroke-linejoin:round;stroke-opacity:1"
       inkscape:connector-curvature="0"
       id="path320"
       d="m 401.755,541.09199 0.18,-0.45 0.27,-0.18 0.36,-0.26999 0.45,0" />
    <path
       style="fill:#008484;fill-opacity:0;stroke:#008484;stroke-width:0.53999943;stroke-linecap:round;stroke-linejoin:round;stroke-opacity:1"
       inkscape:connector-curvature="0"
       id="path322"
       d="m 404.095,540.192 1.07999,3.05999" />
    <path
       style="fill:#008484;fill-opacity:0;stroke:#008484;stroke-width:0.53999943;stroke-linecap:round;stroke-linejoin:round;stroke-opacity:1"
       inkscape:connector-curvature="0"
       id="path324"
       d="m 406.25499,540.192 -1.08,3.05999 -0.45,1.08 -0.18,0.18 -0.44999,0.18" />
    <path
       style="fill:#008400;fill-opacity:0;stroke:#008400;stroke-width:0.53999943;stroke-linecap:round;stroke-linejoin:round;stroke-opacity:1"
       inkscape:connector-curvature="0"
       id="path328"
       d="m 409.13499,552.16198 8.99999,0" />
    <path
       style="fill:#840000;fill-opacity:0;stroke:#840000;stroke-width:0.53999943;stroke-linecap:round;stroke-linejoin:round;stroke-opacity:1"
       inkscape:connector-curvature="0"
       id="path332"
       d="m 366.56504,549.46198 -0.54,-0.26999 -0.81,0 -0.72,0.26999 -0.54,0.54 -0.27,0.45 -0.27,1.08 0,0.72 0.27,1.08 0.27,0.54 0.54,0.45 0.72,0.27 0.54,0 0.81,-0.27 0.27,-0.27 0,-1.8 -1.08,0" />
    <path
       style="fill:#840000;fill-opacity:0;stroke:#840000;stroke-width:0.53999943;stroke-linecap:round;stroke-linejoin:round;stroke-opacity:1"
       inkscape:connector-curvature="0"
       id="path334"
       d="m 369.08503,554.59198 0,-5.39999 3.15,5.39999 0,-5.39999" />
    <path
       style="fill:#840000;fill-opacity:0;stroke:#840000;stroke-width:0.53999943;stroke-linecap:round;stroke-linejoin:round;stroke-opacity:1"
       inkscape:connector-curvature="0"
       id="path336"
       d="m 374.75503,554.59198 0,-5.39999 1.35,0 0.72,0.26999 0.54,0.54 0.26999,0.45 0.27,1.08 0,0.72 -0.27,1.08 -0.26999,0.54 -0.54,0.45 -0.72,0.27 -1.35,0" />
    <polyline
       transform="matrix(0.00899999,0,0,0.00899999,262.88515,417.16213)"
       style="fill:#840000;fill-opacity:0;stroke:#840000;stroke-width:100;stroke-linecap:round;stroke-linejoin:round;stroke-opacity:1"
       id="polyline340"
       points="13250,15000 12950,14460 10830,14460 10830,15000 10830,15540 12950,15540 13250,15000 " />
  </g>
</svg>
