<?xml version="1.0" encoding="UTF-8" standalone="no"?>
<!-- Created with Inkscape (http://www.inkscape.org/) -->

<svg
   xmlns:dc="http://purl.org/dc/elements/1.1/"
   xmlns:cc="http://creativecommons.org/ns#"
   xmlns:rdf="http://www.w3.org/1999/02/22-rdf-syntax-ns#"
   xmlns:svg="http://www.w3.org/2000/svg"
   xmlns="http://www.w3.org/2000/svg"
   xmlns:sodipodi="http://sodipodi.sourceforge.net/DTD/sodipodi-0.dtd"
   xmlns:inkscape="http://www.inkscape.org/namespaces/inkscape"
   width="22.631374mm"
   height="6.3764782mm"
   viewBox="0 0 80.189909 22.59382"
   id="svg4922"
   version="1.1"
   inkscape:version="0.91 r13725"
   sodipodi:docname="acdc1.svg">
  <defs
     id="defs4924" />
  <sodipodi:namedview
     id="base"
     pagecolor="#ffffff"
     bordercolor="#666666"
     borderopacity="1.0"
     inkscape:pageopacity="0.0"
     inkscape:pageshadow="2"
     inkscape:zoom="0.35"
     inkscape:cx="1013.6664"
     inkscape:cy="-494.41738"
     inkscape:document-units="px"
     inkscape:current-layer="layer1"
     showgrid="false"
     fit-margin-top="0"
     fit-margin-left="0"
     fit-margin-right="0"
     fit-margin-bottom="0"
     inkscape:window-width="1855"
     inkscape:window-height="1056"
     inkscape:window-x="65"
     inkscape:window-y="24"
     inkscape:window-maximized="1" />
  <metadata
     id="metadata4927">
    <rdf:RDF>
      <cc:Work
         rdf:about="">
        <dc:format>image/svg+xml</dc:format>
        <dc:type
           rdf:resource="http://purl.org/dc/dcmitype/StillImage" />
        <dc:title></dc:title>
      </cc:Work>
    </rdf:RDF>
  </metadata>
  <g
     inkscape:label="Layer 1"
     inkscape:groupmode="layer"
     id="layer1"
     transform="translate(1337.2378,-15.351009)">
    <path
       style="fill:#840000;fill-opacity:0;stroke:#840000;stroke-width:0.53999943;stroke-linecap:round;stroke-linejoin:round;stroke-opacity:1"
       inkscape:connector-curvature="0"
       id="path176"
       d="m -1271.3579,31.464837 -0.27,0.269999 -0.81,0.27 -0.54,0 -0.72,-0.27 -0.54,-0.449999 -0.27,-0.54 -0.27,-1.079998 0,-0.72 0.27,-1.079998 0.27,-0.45 0.54,-0.539999 0.72,-0.27 0.54,0 0.81,0.27 0.27,0.269999" />
    <path
       style="fill:#840000;fill-opacity:0;stroke:#840000;stroke-width:0.53999943;stroke-linecap:round;stroke-linejoin:round;stroke-opacity:1"
       inkscape:connector-curvature="0"
       id="path178"
       d="m -1269.1079,32.004836 0,-5.399994" />
    <path
       style="fill:#840000;fill-opacity:0;stroke:#840000;stroke-width:0.53999943;stroke-linecap:round;stroke-linejoin:round;stroke-opacity:1"
       inkscape:connector-curvature="0"
       id="path180"
       d="m -1269.1079,29.214839 3.15,0" />
    <path
       style="fill:#840000;fill-opacity:0;stroke:#840000;stroke-width:0.53999943;stroke-linecap:round;stroke-linejoin:round;stroke-opacity:1"
       inkscape:connector-curvature="0"
       id="path182"
       d="m -1265.9579,32.004836 0,-5.399994" />
    <path
       style="fill:#840000;fill-opacity:0;stroke:#840000;stroke-width:0.53999943;stroke-linecap:round;stroke-linejoin:round;stroke-opacity:1"
       inkscape:connector-curvature="0"
       id="path184"
       d="m -1260.5579,32.004836 -3.15,0" />
    <path
       style="fill:#840000;fill-opacity:0;stroke:#840000;stroke-width:0.53999943;stroke-linecap:round;stroke-linejoin:round;stroke-opacity:1"
       inkscape:connector-curvature="0"
       id="path186"
       d="m -1262.0879,32.004836 0,-5.399994 -0.54,0.809999 -0.54,0.45 -0.54,0.269999" />
    <polyline
       transform="matrix(0.00899999,0,0,0.00899999,-1432.0077,-60.425061)"
       style="fill:#840000;fill-opacity:0;stroke:#840000;stroke-width:100;stroke-linecap:round;stroke-linejoin:round;stroke-opacity:1"
       id="polyline190"
       points="17000,10000 17300,10540 19390,10540 19390,10000 19390,9460 17300,9460 17000,10000 " />
    <rect
       style="fill:#840000;fill-opacity:1;stroke:#840000;stroke-width:0.53999943;stroke-linecap:round;stroke-linejoin:round;stroke-opacity:1"
       id="rect196"
       rx="0"
       height="16.199982"
       width="0.89999902"
       y="21.474848"
       x="-1303.0378" />
    <rect
       style="fill:#840000;fill-opacity:1;stroke:#840000;stroke-width:0.53999943;stroke-linecap:round;stroke-linejoin:round;stroke-opacity:1"
       id="rect198"
       rx="0"
       height="16.199982"
       width="0.89999902"
       y="21.474848"
       x="-1297.9078" />
    <rect
       style="fill:#840000;fill-opacity:1;stroke:#840000;stroke-width:0.53999943;stroke-linecap:round;stroke-linejoin:round;stroke-opacity:1"
       id="rect200"
       rx="0"
       height="10.799988"
       width="1.799998"
       y="23.994844"
       x="-1306.0078" />
    <rect
       style="fill:#840000;fill-opacity:1;stroke:#840000;stroke-width:0.53999943;stroke-linecap:round;stroke-linejoin:round;stroke-opacity:1"
       id="rect202"
       rx="0"
       height="10.799988"
       width="1.799998"
       y="23.994844"
       x="-1300.8778" />
    <polyline
       transform="matrix(0.00899999,0,0,0.00899999,-1432.0077,-60.425061)"
       style="fill:#840000;fill-opacity:0;stroke:#840000;stroke-width:100;stroke-linecap:round;stroke-linejoin:round;stroke-opacity:1"
       id="polyline206"
       points="15450,10200 15450,10600 " />
    <polyline
       transform="matrix(0.00899999,0,0,0.00899999,-1432.0077,-60.425061)"
       style="fill:#840000;fill-opacity:0;stroke:#840000;stroke-width:100;stroke-linecap:round;stroke-linejoin:round;stroke-opacity:1"
       id="polyline208"
       points="15650,10400 15250,10400 " />
    <path
       style="fill:#840000;fill-opacity:0;stroke:#840000;stroke-width:0.53999943;stroke-linecap:round;stroke-linejoin:round;stroke-opacity:1"
       inkscape:connector-curvature="0"
       id="path212"
       d="m -1297.0079,29.574839 9,0" />
    <path
       style="fill:#840000;fill-opacity:0;stroke:#840000;stroke-width:0.53999943;stroke-linecap:round;stroke-linejoin:round;stroke-opacity:1"
       inkscape:connector-curvature="0"
       id="path214"
       d="m -1306.0078,29.574839 -9,0" />
    <path
       style="fill:#008484;fill-opacity:0;stroke:#008484;stroke-width:0.53999943;stroke-linecap:round;stroke-linejoin:round;stroke-opacity:1"
       inkscape:connector-curvature="0"
       id="path218"
       d="m -1310.1478,17.694852 0.63,0.269999 0.18,0.18 0.18,0.45 0,0.629999 -0.18,0.45 -0.18,0.179999 -0.45,0.27 -1.71,0 0,-4.499995 1.53,0 0.36,0.18 0.27,0.18 0.18,0.449999 0,0.45 -0.18,0.449999 -0.27,0.18 -0.36,0.18 -1.53,0" />
    <path
       style="fill:#008484;fill-opacity:0;stroke:#008484;stroke-width:0.53999943;stroke-linecap:round;stroke-linejoin:round;stroke-opacity:1"
       inkscape:connector-curvature="0"
       id="path220"
       d="m -1305.2878,20.124849 0,-2.429997 -0.18,-0.36 -0.45,-0.27 -0.81,0 -0.45,0.27" />
    <path
       style="fill:#008484;fill-opacity:0;stroke:#008484;stroke-width:0.53999943;stroke-linecap:round;stroke-linejoin:round;stroke-opacity:1"
       inkscape:connector-curvature="0"
       id="path222"
       d="m -1305.2878,19.854849 -0.36,0.27 -1.08,0 -0.45,-0.27 -0.18,-0.449999 0,-0.36 0.18,-0.449999 0.45,-0.18 1.08,0 0.36,-0.27" />
    <path
       style="fill:#008484;fill-opacity:0;stroke:#008484;stroke-width:0.53999943;stroke-linecap:round;stroke-linejoin:round;stroke-opacity:1"
       inkscape:connector-curvature="0"
       id="path224"
       d="m -1303.7578,17.064852 1.7099,0" />
    <path
       style="fill:#008484;fill-opacity:0;stroke:#008484;stroke-width:0.53999943;stroke-linecap:round;stroke-linejoin:round;stroke-opacity:1"
       inkscape:connector-curvature="0"
       id="path226"
       d="m -1303.1279,15.624854 0,3.779996 0.18,0.449999 0.45,0.27 0.45,0" />
    <path
       style="fill:#008484;fill-opacity:0;stroke:#008484;stroke-width:0.53999943;stroke-linecap:round;stroke-linejoin:round;stroke-opacity:1"
       inkscape:connector-curvature="0"
       id="path228"
       d="m -1301.1479,17.064852 1.71,0" />
    <path
       style="fill:#008484;fill-opacity:0;stroke:#008484;stroke-width:0.53999943;stroke-linecap:round;stroke-linejoin:round;stroke-opacity:1"
       inkscape:connector-curvature="0"
       id="path230"
       d="m -1300.5179,15.624854 0,3.779996 0.18,0.449999 0.45,0.27 0.45,0" />
    <path
       style="fill:#008484;fill-opacity:0;stroke:#008484;stroke-width:0.53999943;stroke-linecap:round;stroke-linejoin:round;stroke-opacity:1"
       inkscape:connector-curvature="0"
       id="path232"
       d="m -1296.1979,19.854849 -0.45,0.27 -0.81,0 -0.45,-0.27 -0.18,-0.449999 0,-1.709998 0.18,-0.36 0.45,-0.27 0.81,0 0.45,0.27 0.18,0.36 0,0.449999 -2.07,0.45" />
    <path
       style="fill:#008484;fill-opacity:0;stroke:#008484;stroke-width:0.53999943;stroke-linecap:round;stroke-linejoin:round;stroke-opacity:1"
       inkscape:connector-curvature="0"
       id="path234"
       d="m -1294.0379,20.124849 0,-3.059997" />
    <path
       style="fill:#008484;fill-opacity:0;stroke:#008484;stroke-width:0.53999943;stroke-linecap:round;stroke-linejoin:round;stroke-opacity:1"
       inkscape:connector-curvature="0"
       id="path236"
       d="m -1294.0379,17.964851 0.18,-0.449999 0.27,-0.18 0.36,-0.27 0.45,0" />
    <path
       style="fill:#008484;fill-opacity:0;stroke:#008484;stroke-width:0.53999943;stroke-linecap:round;stroke-linejoin:round;stroke-opacity:1"
       inkscape:connector-curvature="0"
       id="path238"
       d="m -1291.6979,17.064852 1.08,3.059997" />
    <path
       style="fill:#008484;fill-opacity:0;stroke:#008484;stroke-width:0.53999943;stroke-linecap:round;stroke-linejoin:round;stroke-opacity:1"
       inkscape:connector-curvature="0"
       id="path240"
       d="m -1289.5379,17.064852 -1.08,3.059997 -0.45,1.079999 -0.18,0.18 -0.45,0.179999" />
    <path
       style="fill:#008400;fill-opacity:0;stroke:#008400;stroke-width:0.53999943;stroke-linecap:round;stroke-linejoin:round;stroke-opacity:1"
       inkscape:connector-curvature="0"
       id="path244"
       d="m -1288.0079,29.574839 9,0" />
    <path
       style="fill:#840000;fill-opacity:0;stroke:#840000;stroke-width:0.53999943;stroke-linecap:round;stroke-linejoin:round;stroke-opacity:1"
       inkscape:connector-curvature="0"
       id="path248"
       d="m -1330.5778,26.874842 -0.54,-0.27 -0.81,0 -0.72,0.27 -0.54,0.539999 -0.27,0.45 -0.27,1.079998 0,0.72 0.27,1.079998 0.27,0.54 0.54,0.449999 0.72,0.27 0.54,0 0.81,-0.27 0.27,-0.269999 0,-1.799998 -1.08,0" />
    <path
       style="fill:#840000;fill-opacity:0;stroke:#840000;stroke-width:0.53999943;stroke-linecap:round;stroke-linejoin:round;stroke-opacity:1"
       inkscape:connector-curvature="0"
       id="path250"
       d="m -1328.0578,32.004836 0,-5.399994 3.15,5.399994 0,-5.399994" />
    <path
       style="fill:#840000;fill-opacity:0;stroke:#840000;stroke-width:0.53999943;stroke-linecap:round;stroke-linejoin:round;stroke-opacity:1"
       inkscape:connector-curvature="0"
       id="path252"
       d="m -1322.3878,32.004836 0,-5.399994 1.35,0 0.72,0.27 0.54,0.539999 0.27,0.45 0.27,1.079998 0,0.72 -0.27,1.079998 -0.27,0.54 -0.54,0.449999 -0.72,0.27 -1.35,0" />
    <polyline
       transform="matrix(0.00899999,0,0,0.00899999,-1432.0077,-60.425061)"
       style="fill:#840000;fill-opacity:0;stroke:#840000;stroke-width:100;stroke-linecap:round;stroke-linejoin:round;stroke-opacity:1"
       id="polyline256"
       points="13000,10000 12700,9460 10580,9460 10580,10000 10580,10540 12700,10540 13000,10000 " />
  </g>
</svg>
