<?xml version="1.0" encoding="UTF-8" standalone="no"?>
<!-- Created with Inkscape (http://www.inkscape.org/) -->

<svg
   xmlns:dc="http://purl.org/dc/elements/1.1/"
   xmlns:cc="http://creativecommons.org/ns#"
   xmlns:rdf="http://www.w3.org/1999/02/22-rdf-syntax-ns#"
   xmlns:svg="http://www.w3.org/2000/svg"
   xmlns="http://www.w3.org/2000/svg"
   xmlns:sodipodi="http://sodipodi.sourceforge.net/DTD/sodipodi-0.dtd"
   xmlns:inkscape="http://www.inkscape.org/namespaces/inkscape"
   width="26.239256mm"
   height="5.0810785mm"
   viewBox="0 0 92.973741 18.003821"
   id="svg6266"
   version="1.1"
   inkscape:version="0.91 r13725"
   sodipodi:docname="acdc3.svg">
  <defs
     id="defs6268" />
  <sodipodi:namedview
     id="base"
     pagecolor="#ffffff"
     bordercolor="#666666"
     borderopacity="1.0"
     inkscape:pageopacity="0.0"
     inkscape:pageshadow="2"
     inkscape:zoom="0.35"
     inkscape:cx="-522.79884"
     inkscape:cy="-222.42666"
     inkscape:document-units="px"
     inkscape:current-layer="layer1"
     showgrid="false"
     fit-margin-top="0"
     fit-margin-left="0"
     fit-margin-right="0"
     fit-margin-bottom="0"
     inkscape:window-width="1855"
     inkscape:window-height="1056"
     inkscape:window-x="65"
     inkscape:window-y="24"
     inkscape:window-maximized="1" />
  <metadata
     id="metadata6271">
    <rdf:RDF>
      <cc:Work
         rdf:about="">
        <dc:format>image/svg+xml</dc:format>
        <dc:type
           rdf:resource="http://purl.org/dc/dcmitype/StillImage" />
        <dc:title></dc:title>
      </cc:Work>
    </rdf:RDF>
  </metadata>
  <g
     inkscape:label="Layer 1"
     inkscape:groupmode="layer"
     id="layer1"
     transform="translate(-199.22741,-291.93172)">
    <path
       style="fill:#840000;fill-opacity:0;stroke:#840000;stroke-width:0.53999943;stroke-linecap:round;stroke-linejoin:round;stroke-opacity:1"
       inkscape:connector-curvature="0"
       id="path14"
       d="m 210.39125,307.05555 0,-5.4 2.07,0 0.53999,0.27 0.27,0.27 0.27,0.54 0,0.72 -0.27,0.54 -0.27,0.27 -0.53999,0.27 -2.07,0" />
    <path
       style="fill:#840000;fill-opacity:0;stroke:#840000;stroke-width:0.53999943;stroke-linecap:round;stroke-linejoin:round;stroke-opacity:1"
       inkscape:connector-curvature="0"
       id="path16"
       d="m 215.07124,301.65555 1.8,5.4 1.8,-5.4" />
    <path
       style="fill:#840000;fill-opacity:0;stroke:#840000;stroke-width:0.53999943;stroke-linecap:round;stroke-linejoin:round;stroke-opacity:1"
       inkscape:connector-curvature="0"
       id="path18"
       d="m 223.26123,307.05555 -3.14999,0" />
    <path
       style="fill:#840000;fill-opacity:0;stroke:#840000;stroke-width:0.53999943;stroke-linecap:round;stroke-linejoin:round;stroke-opacity:1"
       inkscape:connector-curvature="0"
       id="path20"
       d="m 221.73123,307.05555 0,-5.4 -0.53999,0.81 -0.54,0.45 -0.54,0.27" />
    <polyline
       transform="matrix(0.00899999,0,0,0.00899999,105.99136,126.87575)"
       style="fill:#840000;fill-opacity:0;stroke:#840000;stroke-width:100;stroke-linecap:round;stroke-linejoin:round;stroke-opacity:1"
       id="polyline24"
       points="13500,19750 13200,19210 11230,19210 11230,19750 11230,20290 13200,20290 13500,19750 " />
    <path
       style="fill:#840000;fill-opacity:0;stroke:#840000;stroke-width:0.53999943;stroke-linecap:round;stroke-linejoin:round;stroke-opacity:1"
       inkscape:connector-curvature="0"
       id="path40"
       d="m 277.89117,306.51555 -0.27,0.27 -0.81,0.27 -0.54,0 -0.71999,-0.27 -0.54,-0.45 -0.27,-0.54 -0.27,-1.08 0,-0.72 0.27,-1.08 0.27,-0.45 0.54,-0.54 0.71999,-0.27 0.54,0 0.81,0.27 0.27,0.27" />
    <path
       style="fill:#840000;fill-opacity:0;stroke:#840000;stroke-width:0.53999943;stroke-linecap:round;stroke-linejoin:round;stroke-opacity:1"
       inkscape:connector-curvature="0"
       id="path42"
       d="m 280.14117,307.05555 0,-5.4" />
    <path
       style="fill:#840000;fill-opacity:0;stroke:#840000;stroke-width:0.53999943;stroke-linecap:round;stroke-linejoin:round;stroke-opacity:1"
       inkscape:connector-curvature="0"
       id="path44"
       d="m 280.14117,304.26555 3.15,0" />
    <path
       style="fill:#840000;fill-opacity:0;stroke:#840000;stroke-width:0.53999943;stroke-linecap:round;stroke-linejoin:round;stroke-opacity:1"
       inkscape:connector-curvature="0"
       id="path46"
       d="m 283.29117,307.05555 0,-5.4" />
    <path
       style="fill:#840000;fill-opacity:0;stroke:#840000;stroke-width:0.53999943;stroke-linecap:round;stroke-linejoin:round;stroke-opacity:1"
       inkscape:connector-curvature="0"
       id="path48"
       d="m 288.69116,307.05555 -3.15,0" />
    <path
       style="fill:#840000;fill-opacity:0;stroke:#840000;stroke-width:0.53999943;stroke-linecap:round;stroke-linejoin:round;stroke-opacity:1"
       inkscape:connector-curvature="0"
       id="path50"
       d="m 287.16116,307.05555 0,-5.4 -0.54,0.81 -0.54,0.45 -0.54,0.27" />
    <polyline
       transform="matrix(0.00899999,0,0,0.00899999,105.99136,126.87575)"
       style="fill:#840000;fill-opacity:0;stroke:#840000;stroke-width:100;stroke-linecap:round;stroke-linejoin:round;stroke-opacity:1"
       id="polyline54"
       points="18250,19750 18550,20290 20640,20290 20640,19750 20640,19210 18550,19210 18250,19750 " />
    <path
       style="fill:#008400;fill-opacity:0;stroke:#008400;stroke-width:0.53999943;stroke-linecap:round;stroke-linejoin:round;stroke-opacity:1"
       inkscape:connector-curvature="0"
       id="path78"
       d="m 227.49123,304.62555 42.74995,0" />
    <path
       style="fill:#0000c2;fill-opacity:0;stroke:#0000c2;stroke-width:0.53999943;stroke-linecap:round;stroke-linejoin:round;stroke-opacity:1"
       inkscape:connector-curvature="0"
       id="path82"
       d="m 199.50126,297.60556 0,-5.39999 1.35,0 0.72,0.26999 0.54,0.54 0.27,0.45 0.27,1.08 0,0.72 -0.27,1.08 -0.27,0.54 -0.54,0.45 -0.72,0.27 -1.35,0" />
    <path
       style="fill:#0000c2;fill-opacity:0;stroke:#0000c2;stroke-width:0.53999943;stroke-linecap:round;stroke-linejoin:round;stroke-opacity:1"
       inkscape:connector-curvature="0"
       id="path84"
       d="m 208.05125,297.06556 -0.27,0.27 -0.81,0.27 -0.54,0 -0.72,-0.27 -0.54,-0.45 -0.27,-0.54 -0.27,-1.08 0,-0.72 0.27,-1.08 0.27,-0.45 0.54,-0.54 0.72,-0.26999 0.54,0 0.81,0.26999 0.27,0.27" />
    <path
       style="fill:#0000c2;fill-opacity:0;stroke:#0000c2;stroke-width:0.53999943;stroke-linecap:round;stroke-linejoin:round;stroke-opacity:1"
       inkscape:connector-curvature="0"
       id="path86"
       d="m 215.25124,297.60556 -0.54,-0.27 -0.27,-0.27 -0.27,-0.45 0,-1.53 0.27,-0.54 0.27,-0.27 0.54,-0.27 0.72,0 0.54,0.27 0.27,0.27 0.27,0.54 0,1.53 -0.27,0.45 -0.27,0.27 -0.54,0.27 -0.72,0" />
    <path
       style="fill:#0000c2;fill-opacity:0;stroke:#0000c2;stroke-width:0.53999943;stroke-linecap:round;stroke-linejoin:round;stroke-opacity:1"
       inkscape:connector-curvature="0"
       id="path88"
       d="m 221.64124,294.00556 0,3.6" />
    <path
       style="fill:#0000c2;fill-opacity:0;stroke:#0000c2;stroke-width:0.53999943;stroke-linecap:round;stroke-linejoin:round;stroke-opacity:1"
       inkscape:connector-curvature="0"
       id="path90"
       d="m 219.30124,294.00556 0,2.88 0.27,0.45 0.54,0.27 0.72,0 0.54,-0.27 0.27,-0.27" />
    <path
       style="fill:#0000c2;fill-opacity:0;stroke:#0000c2;stroke-width:0.53999943;stroke-linecap:round;stroke-linejoin:round;stroke-opacity:1"
       inkscape:connector-curvature="0"
       id="path92"
       d="m 223.44123,294.00556 2.07,0" />
    <path
       style="fill:#0000c2;fill-opacity:0;stroke:#0000c2;stroke-width:0.53999943;stroke-linecap:round;stroke-linejoin:round;stroke-opacity:1"
       inkscape:connector-curvature="0"
       id="path94"
       d="m 224.16123,292.20557 0,4.67999 0.27,0.45 0.54,0.27 0.54,0" />
    <path
       style="fill:#0000c2;fill-opacity:0;stroke:#0000c2;stroke-width:0.53999943;stroke-linecap:round;stroke-linejoin:round;stroke-opacity:1"
       inkscape:connector-curvature="0"
       id="path96"
       d="m 227.22123,294.00556 0,5.4" />
    <path
       style="fill:#0000c2;fill-opacity:0;stroke:#0000c2;stroke-width:0.53999943;stroke-linecap:round;stroke-linejoin:round;stroke-opacity:1"
       inkscape:connector-curvature="0"
       id="path98"
       d="m 227.22123,294.27556 0.54,-0.27 0.99,0 0.54,0.27 0.27,0.27 0.27,0.54 0,1.53 -0.27,0.45 -0.27,0.27 -0.54,0.27 -0.99,0 -0.54,-0.27" />
    <path
       style="fill:#0000c2;fill-opacity:0;stroke:#0000c2;stroke-width:0.53999943;stroke-linecap:round;stroke-linejoin:round;stroke-opacity:1"
       inkscape:connector-curvature="0"
       id="path100"
       d="m 234.42122,294.00556 0,3.6" />
    <path
       style="fill:#0000c2;fill-opacity:0;stroke:#0000c2;stroke-width:0.53999943;stroke-linecap:round;stroke-linejoin:round;stroke-opacity:1"
       inkscape:connector-curvature="0"
       id="path102"
       d="m 232.08122,294.00556 0,2.88 0.27,0.45 0.54,0.27 0.72,0 0.54,-0.27 0.27,-0.27" />
    <path
       style="fill:#0000c2;fill-opacity:0;stroke:#0000c2;stroke-width:0.53999943;stroke-linecap:round;stroke-linejoin:round;stroke-opacity:1"
       inkscape:connector-curvature="0"
       id="path104"
       d="m 236.22122,294.00556 2.07,0" />
    <path
       style="fill:#0000c2;fill-opacity:0;stroke:#0000c2;stroke-width:0.53999943;stroke-linecap:round;stroke-linejoin:round;stroke-opacity:1"
       inkscape:connector-curvature="0"
       id="path106"
       d="m 236.94122,292.20557 0,4.67999 0.27,0.45 0.54,0.27 0.54,0" />
  </g>
</svg>
