<?xml version="1.0" encoding="UTF-8" standalone="no"?>
<!-- Created with Inkscape (http://www.inkscape.org/) -->

<svg
   xmlns:dc="http://purl.org/dc/elements/1.1/"
   xmlns:cc="http://creativecommons.org/ns#"
   xmlns:rdf="http://www.w3.org/1999/02/22-rdf-syntax-ns#"
   xmlns:svg="http://www.w3.org/2000/svg"
   xmlns="http://www.w3.org/2000/svg"
   xmlns:sodipodi="http://sodipodi.sourceforge.net/DTD/sodipodi-0.dtd"
   xmlns:inkscape="http://www.inkscape.org/namespaces/inkscape"
   width="29.134855mm"
   height="8.8910751mm"
   viewBox="0 0 103.23374 31.503809"
   id="svg7597"
   version="1.1"
   inkscape:version="0.92.3 (3ce5693, 2018-03-11)"
   sodipodi:docname="acdc5.svg">
  <defs
     id="defs7599" />
  <sodipodi:namedview
     id="base"
     pagecolor="#ffffff"
     bordercolor="#666666"
     borderopacity="1.0"
     inkscape:pageopacity="0.0"
     inkscape:pageshadow="2"
     inkscape:zoom="5.6"
     inkscape:cx="50.119852"
     inkscape:cy="7.0475867"
     inkscape:document-units="px"
     inkscape:current-layer="layer1"
     showgrid="false"
     fit-margin-top="0"
     fit-margin-left="0"
     fit-margin-right="0"
     fit-margin-bottom="0"
     inkscape:window-width="1299"
     inkscape:window-height="713"
     inkscape:window-x="67"
     inkscape:window-y="27"
     inkscape:window-maximized="1" />
  <metadata
     id="metadata7602">
    <rdf:RDF>
      <cc:Work
         rdf:about="">
        <dc:format>image/svg+xml</dc:format>
        <dc:type
           rdf:resource="http://purl.org/dc/dcmitype/StillImage" />
        <dc:title />
      </cc:Work>
    </rdf:RDF>
  </metadata>
  <g
     inkscape:label="Layer 1"
     inkscape:groupmode="layer"
     id="layer1"
     transform="translate(-311.24027,-550.89601)">
    <g
       id="g138">
      <path
         d="m 400.16402,578.97983 -0.27,0.27 -0.80999,0.27 -0.54,0 -0.72,-0.27 -0.54,-0.45 -0.27,-0.54 -0.27,-1.08 0,-0.72 0.27,-1.08 0.27,-0.45 0.54,-0.54 0.72,-0.27 0.54,0 0.80999,0.27 0.27,0.27"
         id="path484"
         inkscape:connector-curvature="0"
         style="fill:#840000;fill-opacity:0;stroke:#840000;stroke-width:0.53999943;stroke-linecap:round;stroke-linejoin:round;stroke-opacity:1" />
      <path
         d="m 402.41402,579.51983 0,-5.4"
         id="path486"
         inkscape:connector-curvature="0"
         style="fill:#840000;fill-opacity:0;stroke:#840000;stroke-width:0.53999943;stroke-linecap:round;stroke-linejoin:round;stroke-opacity:1" />
      <path
         d="m 402.41402,576.72983 3.15,0"
         id="path488"
         inkscape:connector-curvature="0"
         style="fill:#840000;fill-opacity:0;stroke:#840000;stroke-width:0.53999943;stroke-linecap:round;stroke-linejoin:round;stroke-opacity:1" />
      <path
         d="m 405.56402,579.51983 0,-5.4"
         id="path490"
         inkscape:connector-curvature="0"
         style="fill:#840000;fill-opacity:0;stroke:#840000;stroke-width:0.53999943;stroke-linecap:round;stroke-linejoin:round;stroke-opacity:1" />
      <path
         d="m 407.81402,574.65983 0.27,-0.27 0.53999,-0.27 1.26,0 0.54,0.27 0.27,0.27 0.27,0.54 0,0.45 -0.27,0.81 -3.05999,3.06 3.32999,0"
         id="path492"
         inkscape:connector-curvature="0"
         style="fill:#840000;fill-opacity:0;stroke:#840000;stroke-width:0.53999943;stroke-linecap:round;stroke-linejoin:round;stroke-opacity:1" />
      <polyline
         points="18500,29000 18800,29540 20890,29540 20890,29000 20890,28460 18800,28460 18500,29000 "
         id="polyline496"
         style="fill:#840000;fill-opacity:0;stroke:#840000;stroke-width:100;stroke-linecap:round;stroke-linejoin:round;stroke-opacity:1"
         transform="matrix(0.00899999,0,0,0.00899999,226.01422,316.09012)" />
      <path
         d="m 392.51403,577.08983 -42.74995,0"
         id="path502"
         inkscape:connector-curvature="0"
         style="fill:#008400;fill-opacity:0;stroke:#008400;stroke-width:0.53999943;stroke-linecap:round;stroke-linejoin:round;stroke-opacity:1" />
      <path
         d="M 349.76408,577.08983 H 311.51412"
         id="path506"
         inkscape:connector-curvature="0"
         style="fill:#008400;fill-opacity:0;stroke:#008400;stroke-width:0.53999943;stroke-linecap:round;stroke-linejoin:round;stroke-opacity:1" />
      <path
         d="m 334.37519,570.13012 h -2.61 v -5.39999"
         id="path512"
         inkscape:connector-curvature="0"
         style="fill:#0000c2;fill-opacity:0;stroke:#0000c2;stroke-width:0.53999943;stroke-linecap:round;stroke-linejoin:round;stroke-opacity:1" />
      <path
         d="m 336.98518,570.13012 -0.54,-0.27 -0.27,-0.27 -0.27,-0.45 v -1.53 l 0.27,-0.54 0.27,-0.27 0.54,-0.26999 h 0.72 l 0.54,0.26999 0.27,0.27 0.27,0.54 v 1.53 l -0.27,0.45 -0.27,0.27 -0.54,0.27 h -0.72"
         id="path514"
         inkscape:connector-curvature="0"
         style="fill:#0000c2;fill-opacity:0;stroke:#0000c2;stroke-width:0.53999943;stroke-linecap:round;stroke-linejoin:round;stroke-opacity:1" />
      <path
         d="m 341.03518,566.53013 v 3.59999"
         id="path516"
         inkscape:connector-curvature="0"
         style="fill:#0000c2;fill-opacity:0;stroke:#0000c2;stroke-width:0.53999943;stroke-linecap:round;stroke-linejoin:round;stroke-opacity:1" />
      <path
         d="m 341.03518,567.07012 0.27,-0.27 0.54,-0.26999 h 0.72 l 0.54,0.26999 0.27,0.54 v 2.79"
         id="path518"
         inkscape:connector-curvature="0"
         style="fill:#0000c2;fill-opacity:0;stroke:#0000c2;stroke-width:0.53999943;stroke-linecap:round;stroke-linejoin:round;stroke-opacity:1" />
      <path
         d="m 348.23517,566.53013 v 4.40999 l -0.27,0.45 -0.27,0.27 -0.45,0.27 h -0.81 l -0.54,-0.27"
         id="path520"
         inkscape:connector-curvature="0"
         style="fill:#0000c2;fill-opacity:0;stroke:#0000c2;stroke-width:0.53999943;stroke-linecap:round;stroke-linejoin:round;stroke-opacity:1" />
      <path
         d="m 348.23517,569.86012 -0.54,0.27 h -0.99 l -0.54,-0.27 -0.27,-0.27 -0.27,-0.45 v -1.53 l 0.27,-0.54 0.27,-0.27 0.54,-0.26999 h 0.99 l 0.54,0.26999"
         id="path522"
         inkscape:connector-curvature="0"
         style="fill:#0000c2;fill-opacity:0;stroke:#0000c2;stroke-width:0.53999943;stroke-linecap:round;stroke-linejoin:round;stroke-opacity:1" />
      <path
         d="m 354.44516,564.73013 1.26,5.39999 0.99,-3.86999 1.08,3.86999 1.26,-5.39999"
         id="path524"
         inkscape:connector-curvature="0"
         style="fill:#0000c2;fill-opacity:0;stroke:#0000c2;stroke-width:0.53999943;stroke-linecap:round;stroke-linejoin:round;stroke-opacity:1" />
      <path
         d="m 361.10516,570.13012 v -3.59999"
         id="path526"
         inkscape:connector-curvature="0"
         style="fill:#0000c2;fill-opacity:0;stroke:#0000c2;stroke-width:0.53999943;stroke-linecap:round;stroke-linejoin:round;stroke-opacity:1" />
      <path
         d="m 361.10516,564.73013 -0.27,0.27 0.27,0.27 0.27,-0.27 -0.27,-0.27 v 0.54"
         id="path528"
         inkscape:connector-curvature="0"
         style="fill:#0000c2;fill-opacity:0;stroke:#0000c2;stroke-width:0.53999943;stroke-linecap:round;stroke-linejoin:round;stroke-opacity:1" />
      <path
         d="m 363.71515,570.13012 v -3.59999"
         id="path530"
         inkscape:connector-curvature="0"
         style="fill:#0000c2;fill-opacity:0;stroke:#0000c2;stroke-width:0.53999943;stroke-linecap:round;stroke-linejoin:round;stroke-opacity:1" />
      <path
         d="m 363.71515,567.61012 0.27,-0.54 0.27,-0.27 0.54,-0.26999 h 0.45"
         id="path532"
         inkscape:connector-curvature="0"
         style="fill:#0000c2;fill-opacity:0;stroke:#0000c2;stroke-width:0.53999943;stroke-linecap:round;stroke-linejoin:round;stroke-opacity:1" />
      <path
         d="m 369.11515,569.86012 -0.54,0.27 h -0.99 l -0.54,-0.27 -0.27,-0.45 v -2.07 l 0.27,-0.54 0.54,-0.26999 h 0.99 l 0.54,0.26999 0.27,0.54 v 0.45 l -2.61,0.54"
         id="path534"
         inkscape:connector-curvature="0"
         style="fill:#0000c2;fill-opacity:0;stroke:#0000c2;stroke-width:0.53999943;stroke-linecap:round;stroke-linejoin:round;stroke-opacity:1" />
    </g>
  </g>
</svg>
