<?xml version="1.0" encoding="UTF-8" standalone="no"?>
<svg
   xmlns:dc="http://purl.org/dc/elements/1.1/"
   xmlns:cc="http://creativecommons.org/ns#"
   xmlns:rdf="http://www.w3.org/1999/02/22-rdf-syntax-ns#"
   xmlns:svg="http://www.w3.org/2000/svg"
   xmlns="http://www.w3.org/2000/svg"
   xmlns:sodipodi="http://sodipodi.sourceforge.net/DTD/sodipodi-0.dtd"
   xmlns:inkscape="http://www.inkscape.org/namespaces/inkscape"
   version="1.1"
   width="35mm"
   height="30.007mm"
   viewBox="0 0 13779.536 11813.791"
   id="svg722"
   sodipodi:docname="Clamper.svg"
   inkscape:version="0.92.2 (5c3e80d, 2017-08-06)">
  <metadata
     id="metadata728">
    <rdf:RDF>
      <cc:Work
         rdf:about="">
        <dc:format>image/svg+xml</dc:format>
        <dc:type
           rdf:resource="http://purl.org/dc/dcmitype/StillImage" />
        <dc:title>SVG Picture created as PSLAB.svg date 2018/02/17 17:13:33 </dc:title>
      </cc:Work>
    </rdf:RDF>
  </metadata>
  <defs
     id="defs726" />
  <sodipodi:namedview
     pagecolor="#ffffff"
     bordercolor="#666666"
     borderopacity="1"
     objecttolerance="10"
     gridtolerance="10"
     guidetolerance="10"
     inkscape:pageopacity="0"
     inkscape:pageshadow="2"
     inkscape:window-width="1920"
     inkscape:window-height="986"
     id="namedview724"
     showgrid="false"
     inkscape:zoom="2.3786509"
     inkscape:cx="96.613506"
     inkscape:cy="114.47061"
     inkscape:window-x="-11"
     inkscape:window-y="-11"
     inkscape:window-maximized="1"
     inkscape:current-layer="svg722"
     units="mm" />
  <title
     id="title2">SVG Picture created as PSLAB.svg date 2018/02/17 17:13:33 </title>
  <desc
     id="desc4">Picture generated by Eeschema-SVG </desc>
  <g
     style="fill:#000000;fill-opacity:1;stroke:#000000;stroke-linecap:round;stroke-linejoin:round;stroke-opacity:1"
     id="g6"
     transform="translate(0,-70866.202)" />
  <g
     style="fill:#000000;fill-opacity:0;stroke:#000000;stroke-width:-10;stroke-linecap:round;stroke-linejoin:round;stroke-opacity:1"
     id="g8"
     transform="translate(0,-70866.202)" />
  <g
     style="fill:#840000;fill-opacity:0;stroke:#840000;stroke-width:-10;stroke-linecap:round;stroke-linejoin:round;stroke-opacity:1"
     id="g10"
     transform="translate(0,-70866.202)" />
  <g
     style="fill:#840000;fill-opacity:0;stroke:#840000;stroke-width:100;stroke-linecap:round;stroke-linejoin:round;stroke-opacity:1"
     id="g12"
     transform="translate(0,-70866.202)" />
  <g
     style="fill:#840000;fill-opacity:0;stroke:#840000;stroke-width:100;stroke-linecap:round;stroke-linejoin:round;stroke-opacity:1"
     id="g18"
     transform="translate(0,-70866.202)" />
  <g
     style="fill:#840000;fill-opacity:0;stroke:#840000;stroke-width:100;stroke-linecap:round;stroke-linejoin:round;stroke-opacity:1"
     id="g24"
     transform="translate(0,-70866.202)" />
  <g
     style="fill:#840000;fill-opacity:0;stroke:#840000;stroke-width:100;stroke-linecap:round;stroke-linejoin:round;stroke-opacity:1"
     id="g30"
     transform="translate(0,-70866.202)" />
  <g
     style="fill:#840000;fill-opacity:0;stroke:#840000;stroke-width:100;stroke-linecap:round;stroke-linejoin:round;stroke-opacity:1"
     id="g36"
     transform="translate(0,-70866.202)" />
  <g
     style="fill:#840000;fill-opacity:0;stroke:#840000;stroke-width:100;stroke-linecap:round;stroke-linejoin:round;stroke-opacity:1"
     id="g42"
     transform="translate(0,-70866.202)" />
  <g
     style="fill:#840000;fill-opacity:0;stroke:#840000;stroke-width:100;stroke-linecap:round;stroke-linejoin:round;stroke-opacity:1"
     id="g48"
     transform="translate(0,-70866.202)" />
  <g
     style="fill:#840000;fill-opacity:0;stroke:#840000;stroke-width:100;stroke-linecap:round;stroke-linejoin:round;stroke-opacity:1"
     id="g54"
     transform="translate(0,-70866.202)" />
  <g
     style="fill:#840000;fill-opacity:0;stroke:#840000;stroke-width:100;stroke-linecap:round;stroke-linejoin:round;stroke-opacity:1"
     id="g60"
     transform="translate(0,-70866.202)" />
  <g
     style="fill:#840000;fill-opacity:0;stroke:#840000;stroke-width:100;stroke-linecap:round;stroke-linejoin:round;stroke-opacity:1"
     id="g68"
     transform="translate(0,-70866.202)" />
  <g
     style="fill:#840000;fill-opacity:0;stroke:#840000;stroke-width:100;stroke-linecap:round;stroke-linejoin:round;stroke-opacity:1"
     id="g74"
     transform="translate(0,-70866.202)" />
  <g
     style="fill:#840000;fill-opacity:0;stroke:#840000;stroke-width:100;stroke-linecap:round;stroke-linejoin:round;stroke-opacity:1"
     id="g80"
     transform="translate(0,-70866.202)" />
  <g
     style="fill:#840000;fill-opacity:0;stroke:#840000;stroke-width:100;stroke-linecap:round;stroke-linejoin:round;stroke-opacity:1"
     id="g88"
     transform="translate(0,-70866.202)" />
  <g
     style="fill:#840000;fill-opacity:0;stroke:#840000;stroke-width:100;stroke-linecap:round;stroke-linejoin:round;stroke-opacity:1"
     id="g94"
     transform="translate(0,-70866.202)" />
  <g
     style="fill:#840000;fill-opacity:0;stroke:#840000;stroke-width:100;stroke-linecap:round;stroke-linejoin:round;stroke-opacity:1"
     id="g100"
     transform="translate(0,-70866.202)" />
  <g
     style="fill:#840000;fill-opacity:0;stroke:#840000;stroke-width:100;stroke-linecap:round;stroke-linejoin:round;stroke-opacity:1"
     id="g106"
     transform="translate(0,-70866.202)" />
  <g
     style="fill:#840000;fill-opacity:0;stroke:#840000;stroke-width:100;stroke-linecap:round;stroke-linejoin:round;stroke-opacity:1"
     id="g112"
     transform="translate(0,-70866.202)" />
  <g
     style="fill:#840000;fill-opacity:0;stroke:#840000;stroke-width:100;stroke-linecap:round;stroke-linejoin:round;stroke-opacity:1"
     id="g118"
     transform="translate(0,-70866.202)" />
  <g
     style="fill:#840000;fill-opacity:0;stroke:#840000;stroke-width:100;stroke-linecap:round;stroke-linejoin:round;stroke-opacity:1"
     id="g124"
     transform="translate(0,-70866.202)" />
  <g
     style="fill:#840000;fill-opacity:0;stroke:#840000;stroke-width:100;stroke-linecap:round;stroke-linejoin:round;stroke-opacity:1"
     id="g130"
     transform="translate(0,-70866.202)" />
  <g
     style="fill:#840000;fill-opacity:0;stroke:#840000;stroke-width:100;stroke-linecap:round;stroke-linejoin:round;stroke-opacity:1"
     id="g138"
     transform="translate(0,-70866.202)" />
  <g
     style="fill:#840000;fill-opacity:0;stroke:#840000;stroke-width:100;stroke-linecap:round;stroke-linejoin:round;stroke-opacity:1"
     id="g144"
     transform="translate(0,-70866.202)" />
  <g
     style="fill:#840000;fill-opacity:0;stroke:#840000;stroke-width:100;stroke-linecap:round;stroke-linejoin:round;stroke-opacity:1"
     id="g150"
     transform="translate(0,-70866.202)" />
  <g
     style="fill:#840000;fill-opacity:0;stroke:#840000;stroke-width:100;stroke-linecap:round;stroke-linejoin:round;stroke-opacity:1"
     id="g158"
     transform="translate(0,-70866.202)" />
  <g
     style="fill:#840000;fill-opacity:0;stroke:#840000;stroke-width:100;stroke-linecap:round;stroke-linejoin:round;stroke-opacity:1"
     id="g164"
     transform="translate(0,-70866.202)" />
  <g
     style="fill:#840000;fill-opacity:0;stroke:#840000;stroke-width:100;stroke-linecap:round;stroke-linejoin:round;stroke-opacity:1"
     id="g170"
     transform="translate(0,-70866.202)" />
  <g
     style="fill:#840000;fill-opacity:0;stroke:#840000;stroke-width:100;stroke-linecap:round;stroke-linejoin:round;stroke-opacity:1"
     id="g176"
     transform="translate(0,-70866.202)" />
  <g
     style="fill:#840000;fill-opacity:0;stroke:#840000;stroke-width:100;stroke-linecap:round;stroke-linejoin:round;stroke-opacity:1"
     id="g182"
     transform="translate(0,-70866.202)" />
  <g
     style="fill:#840000;fill-opacity:0;stroke:#840000;stroke-width:100;stroke-linecap:round;stroke-linejoin:round;stroke-opacity:1"
     id="g188"
     transform="translate(0,-70866.202)" />
  <g
     style="fill:#840000;fill-opacity:0;stroke:#840000;stroke-width:100;stroke-linecap:round;stroke-linejoin:round;stroke-opacity:1"
     id="g196"
     transform="translate(0,-70866.202)" />
  <g
     style="fill:#840000;fill-opacity:0;stroke:#840000;stroke-width:100;stroke-linecap:round;stroke-linejoin:round;stroke-opacity:1"
     id="g202"
     transform="translate(0,-70866.202)" />
  <g
     style="fill:#840000;fill-opacity:0;stroke:#840000;stroke-width:100;stroke-linecap:round;stroke-linejoin:round;stroke-opacity:1"
     id="g208"
     transform="translate(0,-70866.202)" />
  <g
     style="fill:#840000;fill-opacity:0;stroke:#840000;stroke-width:100;stroke-linecap:round;stroke-linejoin:round;stroke-opacity:1"
     id="g214"
     transform="translate(0,-70866.202)" />
  <g
     style="fill:#840000;fill-opacity:0;stroke:#840000;stroke-width:100;stroke-linecap:round;stroke-linejoin:round;stroke-opacity:1"
     id="g220"
     transform="translate(0,-70866.202)" />
  <g
     style="fill:#840000;fill-opacity:0;stroke:#840000;stroke-width:100;stroke-linecap:round;stroke-linejoin:round;stroke-opacity:1"
     id="g226"
     transform="translate(0,-70866.202)" />
  <g
     style="fill:#840000;fill-opacity:0;stroke:#840000;stroke-width:100;stroke-linecap:round;stroke-linejoin:round;stroke-opacity:1"
     id="g232"
     transform="translate(0,-70866.202)" />
  <g
     style="fill:#840000;fill-opacity:0;stroke:#840000;stroke-width:100;stroke-linecap:round;stroke-linejoin:round;stroke-opacity:1"
     id="g240"
     transform="translate(0,-70866.202)" />
  <g
     style="fill:#840000;fill-opacity:0;stroke:#840000;stroke-width:100;stroke-linecap:round;stroke-linejoin:round;stroke-opacity:1"
     id="g246"
     transform="translate(0,-70866.202)" />
  <g
     style="fill:#840000;fill-opacity:0;stroke:#840000;stroke-width:100;stroke-linecap:round;stroke-linejoin:round;stroke-opacity:1"
     id="g252"
     transform="translate(0,-70866.202)" />
  <g
     style="fill:#840000;fill-opacity:0;stroke:#840000;stroke-width:100;stroke-linecap:round;stroke-linejoin:round;stroke-opacity:1"
     id="g258"
     transform="translate(0,-70866.202)" />
  <g
     style="fill:#840000;fill-opacity:0;stroke:#840000;stroke-width:100;stroke-linecap:round;stroke-linejoin:round;stroke-opacity:1"
     id="g278"
     transform="translate(0,-70866.202)" />
  <g
     style="fill:#840000;fill-opacity:0;stroke:#840000;stroke-width:100;stroke-linecap:round;stroke-linejoin:round;stroke-opacity:1"
     id="g284"
     transform="translate(0,-70866.202)" />
  <g
     style="fill:#840000;fill-opacity:0;stroke:#840000;stroke-width:100;stroke-linecap:round;stroke-linejoin:round;stroke-opacity:1"
     id="g356"
     transform="translate(0,-70866.202)" />
  <g
     style="fill:#840000;fill-opacity:0;stroke:#840000;stroke-width:100;stroke-linecap:round;stroke-linejoin:round;stroke-opacity:1"
     id="g362"
     transform="translate(0,-70866.202)" />
  <g
     style="fill:#840000;fill-opacity:0;stroke:#840000;stroke-width:100;stroke-linecap:round;stroke-linejoin:round;stroke-opacity:1"
     id="g378"
     transform="translate(0,-70866.202)" />
  <g
     style="fill:#840000;fill-opacity:0;stroke:#840000;stroke-width:100;stroke-linecap:round;stroke-linejoin:round;stroke-opacity:1"
     id="g404"
     transform="translate(0,-70866.202)" />
  <g
     style="fill:#840000;fill-opacity:0;stroke:#840000;stroke-width:100;stroke-linecap:round;stroke-linejoin:round;stroke-opacity:1"
     id="g428"
     transform="translate(0,-70866.202)" />
  <g
     style="fill:#840000;fill-opacity:0;stroke:#840000;stroke-width:100;stroke-linecap:round;stroke-linejoin:round;stroke-opacity:1"
     id="g434"
     transform="translate(0,-70866.202)" />
  <g
     style="fill:#840000;fill-opacity:0;stroke:#840000;stroke-width:100;stroke-linecap:round;stroke-linejoin:round;stroke-opacity:1"
     id="g458"
     transform="translate(0,-70866.202)" />
  <g
     style="fill:#840000;fill-opacity:0;stroke:#840000;stroke-width:100;stroke-linecap:round;stroke-linejoin:round;stroke-opacity:1"
     id="g500"
     transform="translate(0,-70866.202)" />
  <g
     style="fill:#840000;fill-opacity:0;stroke:#840000;stroke-width:100;stroke-linecap:round;stroke-linejoin:round;stroke-opacity:1"
     id="g506"
     transform="translate(0,-70866.202)" />
  <g
     style="fill:#840000;fill-opacity:0;stroke:#840000;stroke-width:100;stroke-linecap:round;stroke-linejoin:round;stroke-opacity:1"
     id="g530"
     transform="translate(0,-70866.202)" />
  <g
     style="fill:#840000;fill-opacity:0;stroke:#840000;stroke-width:100;stroke-linecap:round;stroke-linejoin:round;stroke-opacity:1"
     id="g536"
     transform="translate(0,-70866.202)" />
  <g
     style="fill:#840000;fill-opacity:0;stroke:#840000;stroke-width:0;stroke-linecap:round;stroke-linejoin:round;stroke-opacity:1"
     id="g552"
     transform="translate(0,-70866.202)" />
  <g
     style="fill:#840000;fill-opacity:0;stroke:#840000;stroke-width:0;stroke-linecap:round;stroke-linejoin:round;stroke-opacity:1"
     id="g626"
     transform="translate(0,-70866.202)" />
  <g
     style="fill:#008484;fill-opacity:0;stroke:#008484;stroke-width:0;stroke-linecap:round;stroke-linejoin:round;stroke-opacity:1"
     id="g654"
     transform="translate(0,-70866.202)" />
  <g
     style="fill:#840000;fill-opacity:0;stroke:#840000;stroke-width:0;stroke-linecap:round;stroke-linejoin:round;stroke-opacity:1"
     id="g656"
     transform="translate(0,-70866.202)" />
  <g
     style="fill:#840000;fill-opacity:0;stroke:#840000;stroke-width:60;stroke-linecap:round;stroke-linejoin:round;stroke-opacity:1"
     id="g700"
     transform="translate(0,-70866.202)" />
  <g
     style="fill:#008400;fill-opacity:0;stroke:#008400;stroke-width:0;stroke-linecap:round;stroke-linejoin:round;stroke-opacity:1"
     id="g710"
     transform="translate(0,-70866.202)" />
  <g
     style="fill:#008400;fill-opacity:1;stroke:#008400;stroke-width:0;stroke-linecap:round;stroke-linejoin:round;stroke-opacity:1"
     id="g716"
     transform="translate(0,-70866.202)" />
  <g
     id="g817"
     transform="translate(-21587.242,-11802.735)">
    <path
       d="m 22470,16670 140,600 110,-430 120,430 140,-600"
       id="path540"
       inkscape:connector-curvature="0"
       style="fill:#840000;fill-opacity:0;stroke:#840000;stroke-width:60;stroke-linecap:round;stroke-linejoin:round;stroke-opacity:1" />
    <path
       d="m 23530,17270 h -350"
       id="path542"
       inkscape:connector-curvature="0"
       style="fill:#840000;fill-opacity:0;stroke:#840000;stroke-width:60;stroke-linecap:round;stroke-linejoin:round;stroke-opacity:1" />
    <path
       d="m 23360,17270 v -600 l -60,90 -60,50 -60,30"
       id="path544"
       inkscape:connector-curvature="0"
       style="fill:#840000;fill-opacity:0;stroke:#840000;stroke-width:60;stroke-linecap:round;stroke-linejoin:round;stroke-opacity:1" />
    <g
       id="g550"
       style="fill:#840000;fill-opacity:0;stroke:#840000;stroke-width:100;stroke-linecap:round;stroke-linejoin:round;stroke-opacity:1">
      <polyline
         id="polyline548"
         points="24000,17000 23700,16460 22150,16460 22150,17000 22150,17540 23700,17540 24000,17000 "
         fill="none;" />
    </g>
    <g
       id="g556"
       style="fill:#840000;fill-opacity:0;stroke:#840000;stroke-width:100;stroke-linecap:round;stroke-linejoin:round;stroke-opacity:1">
      <rect
         id="rect554"
         rx="0"
         height="2000"
         width="800"
         y="17500"
         x="30600" />
    </g>
    <g
       id="g562"
       style="fill:#840000;fill-opacity:0;stroke:#840000;stroke-width:60;stroke-linecap:round;stroke-linejoin:round;stroke-opacity:1">
      <path
         id="path558"
         d="m 31000,17500 v -500"
         inkscape:connector-curvature="0" />
      <path
         id="path560"
         d="m 31000,19500 v 500"
         inkscape:connector-curvature="0" />
    </g>
    <g
       id="g578"
       style="fill:#008484;fill-opacity:0;stroke:#008484;stroke-width:60;stroke-linecap:round;stroke-linejoin:round;stroke-opacity:1">
      <path
         id="path564"
         d="m 31560,19110 v 240 l 230,20 -20,-20 -20,-50 v -120 l 20,-40 20,-30 50,-20 h 120 l 50,20 20,30 30,40 v 120 l -30,50 -20,20"
         inkscape:connector-curvature="0" />
      <path
         id="path566"
         d="m 31560,18780 v -50 l 20,-50 20,-20 50,-30 100,-20 h 120 l 90,20 50,30 20,20 30,50 v 50 l -30,40 -20,30 -50,20 -90,20 h -120 l -100,-20 -50,-20 -20,-30 -20,-40"
         inkscape:connector-curvature="0" />
      <path
         id="path568"
         d="m 31560,18300 v -50 l 20,-50 20,-20 50,-30 100,-20 h 120 l 90,20 50,30 20,20 30,50 v 50 l -30,40 -20,30 -50,20 -90,20 h -120 l -100,-20 -50,-20 -20,-30 -20,-40"
         inkscape:connector-curvature="0" />
      <path
         id="path570"
         d="m 32060,17630 -240,160"
         inkscape:connector-curvature="0" />
      <path
         id="path572"
         d="m 32060,17910 h -500 v -190 l 20,-50 20,-20 50,-20 h 70 l 50,20 20,20 30,50 v 190"
         inkscape:connector-curvature="0" />
      <path
         id="path574"
         d="m 31260,18350 -240,160"
         inkscape:connector-curvature="0" />
      <path
         id="path576"
         d="m 31260,18630 h -500 v -190 l 20,-50 20,-20 50,-20 h 70 l 50,20 20,20 30,50 v 190"
         inkscape:connector-curvature="0" />
    </g>
    <g
       id="g590"
       style="fill:#840000;fill-opacity:0;stroke:#840000;stroke-width:60;stroke-linecap:round;stroke-linejoin:round;stroke-opacity:1">
      <path
         id="path580"
         d="m 33350,17210 -30,30 -90,30 h -60 l -80,-30 -60,-50 -30,-60 -30,-120 v -80 l 30,-120 30,-50 60,-60 80,-30 h 60 l 90,30 30,30"
         inkscape:connector-curvature="0" />
      <path
         id="path582"
         d="m 33600,17270 v -600"
         inkscape:connector-curvature="0" />
      <path
         id="path584"
         d="m 33600,16960 h 350"
         inkscape:connector-curvature="0" />
      <path
         id="path586"
         d="m 33950,17270 v -600"
         inkscape:connector-curvature="0" />
      <path
         id="path588"
         d="m 34200,16730 30,-30 60,-30 h 140 l 60,30 30,30 30,60 v 50 l -30,90 -340,340 h 370"
         inkscape:connector-curvature="0" />
    </g>
    <g
       id="g594"
       style="fill:#840000;fill-opacity:0;stroke:#840000;stroke-width:100;stroke-linecap:round;stroke-linejoin:round;stroke-opacity:1">
      <polyline
         id="polyline592"
         points="32500,17000 32800,17540 34890,17540 34890,17000 34890,16460 32800,16460 32500,17000 "
         fill="none;" />
    </g>
    <g
       id="g608"
       style="fill:#840000;fill-opacity:0;stroke:#840000;stroke-width:60;stroke-linecap:round;stroke-linejoin:round;stroke-opacity:1">
      <path
         id="path596"
         d="m 25210,14650 30,30 30,90 v 60 l -30,80 -50,60 -60,30 -120,30 h -80 l -120,-30 -50,-30 -60,-60 -30,-80 v -60 l 30,-90 30,-30"
         inkscape:connector-curvature="0" />
      <path
         id="path598"
         d="m 25270,14400 h -600"
         inkscape:connector-curvature="0" />
      <path
         id="path600"
         d="m 24960,14400 v -350"
         inkscape:connector-curvature="0" />
      <path
         id="path602"
         d="m 25270,14050 h -600"
         inkscape:connector-curvature="0" />
      <path
         id="path604"
         d="m 25270,13450 v 350"
         inkscape:connector-curvature="0" />
      <path
         id="path606"
         d="m 25270,13620 h -600 l 90,60 50,60 30,60"
         inkscape:connector-curvature="0" />
    </g>
    <g
       id="g612"
       style="fill:#840000;fill-opacity:0;stroke:#840000;stroke-width:100;stroke-linecap:round;stroke-linejoin:round;stroke-opacity:1">
      <polyline
         id="polyline610"
         points="25000,15500 25540,15200 25540,13110 25000,13110 24460,13110 24460,15200 25000,15500 "
         fill="none;" />
    </g>
    <g
       id="g620"
       style="fill:#840000;fill-opacity:0;stroke:#840000;stroke-width:60;stroke-linecap:round;stroke-linejoin:round;stroke-opacity:1">
      <path
         id="path614"
         d="m 30700,21730 -30,60 v 90 l 30,80 60,60 50,30 120,30 h 80 l 120,-30 60,-30 50,-60 30,-80 v -60 l -30,-90 -30,-30 h -200 v 120"
         inkscape:connector-curvature="0" />
      <path
         id="path616"
         d="m 31270,21450 h -600 l 600,-350 h -600"
         inkscape:connector-curvature="0" />
      <path
         id="path618"
         d="m 31270,20820 h -600 v -150 l 30,-80 60,-60 50,-30 120,-30 h 80 l 120,30 60,30 50,60 30,80 v 150"
         inkscape:connector-curvature="0" />
    </g>
    <g
       id="g624"
       style="fill:#840000;fill-opacity:0;stroke:#840000;stroke-width:100;stroke-linecap:round;stroke-linejoin:round;stroke-opacity:1">
      <polyline
         id="polyline622"
         points="31000,20000 30460,20300 30460,22420 31000,22420 31540,22420 31540,20300 31000,20000 "
         fill="none;" />
    </g>
    <g
       id="g630"
       style="fill:#840000;fill-opacity:0;stroke:#840000;stroke-width:130;stroke-linecap:round;stroke-linejoin:round;stroke-opacity:1">
      <polyline
         id="polyline628"
         points="27300,16400 27300,17600 "
         fill="none;" />
    </g>
    <g
       id="g634"
       style="fill:#840000;fill-opacity:0;stroke:#840000;stroke-width:120;stroke-linecap:round;stroke-linejoin:round;stroke-opacity:1">
      <polyline
         id="polyline632"
         points="27700,16400 27700,17600 "
         fill="none;" />
    </g>
    <g
       id="g640"
       style="fill:#840000;fill-opacity:0;stroke:#840000;stroke-width:60;stroke-linecap:round;stroke-linejoin:round;stroke-opacity:1">
      <path
         id="path636"
         d="m 27700,17000 h 800"
         inkscape:connector-curvature="0" />
      <path
         id="path638"
         d="m 27300,17000 h -800"
         inkscape:connector-curvature="0" />
    </g>
    <g
       id="g652"
       style="fill:#008484;fill-opacity:0;stroke:#008484;stroke-width:60;stroke-linecap:round;stroke-linejoin:round;stroke-opacity:1">
      <path
         id="path642"
         d="m 28340,17200 20,20 30,70 v 50 l -30,70 -50,50 -40,20 -100,20 h -70 l -90,-20 -50,-20 -50,-50 -20,-70 v -50 l 20,-70 20,-20"
         inkscape:connector-curvature="0" />
      <path
         id="path644"
         d="m 26840,17980 20,20 30,70 v 50 l -30,70 -50,50 -40,20 -100,20 h -70 l -90,-20 -50,-20 -50,-50 -20,-70 v -50 l 20,-70 20,-20"
         inkscape:connector-curvature="0" />
      <path
         id="path646"
         d="m 26930,17880 v -380"
         inkscape:connector-curvature="0" />
      <path
         id="path648"
         d="m 26890,17430 -340,-260"
         inkscape:connector-curvature="0" />
      <path
         id="path650"
         d="m 26550,17430 340,-260"
         inkscape:connector-curvature="0" />
    </g>
    <g
       id="g660"
       style="fill:#840000;fill-opacity:0;stroke:#840000;stroke-width:80;stroke-linecap:round;stroke-linejoin:round;stroke-opacity:1">
      <polyline
         id="polyline658"
         points="29500,18000 28500,18000 "
         fill="none;" />
    </g>
    <g
       id="g664"
       style="fill:#840000;fill-opacity:0;stroke:#840000;stroke-width:60;stroke-linecap:round;stroke-linejoin:round;stroke-opacity:1">
      <polyline
         id="polyline662"
         points="29000,19000 29000,18000 "
         fill="none;" />
    </g>
    <g
       id="g668"
       style="fill:#840000;fill-opacity:0;stroke:#840000;stroke-width:80;stroke-linecap:round;stroke-linejoin:round;stroke-opacity:1">
      <polyline
         id="polyline666"
         points="29500,19000 28500,19000 29000,18000 29500,19000 "
         fill="none;" />
    </g>
    <g
       id="g674"
       style="fill:#840000;fill-opacity:0;stroke:#840000;stroke-width:60;stroke-linecap:round;stroke-linejoin:round;stroke-opacity:1">
      <path
         id="path670"
         d="M 29000,18000 V 17000"
         inkscape:connector-curvature="0" />
      <path
         id="path672"
         d="m 29000,19000 v 1000"
         inkscape:connector-curvature="0" />
    </g>
    <g
       id="g686"
       style="fill:#008484;fill-opacity:0;stroke:#008484;stroke-width:60;stroke-linecap:round;stroke-linejoin:round;stroke-opacity:1">
      <path
         id="path676"
         d="m 30190,18630 h -500 v -120 l 20,-70 50,-50 50,-20 90,-20 h 70 l 100,20 40,20 50,50 30,70 v 120"
         inkscape:connector-curvature="0" />
      <path
         id="path678"
         d="m 28190,19020 h -500 v -120 l 20,-70 50,-50 50,-20 90,-20 h 70 l 100,20 40,20 50,50 30,70 v 120"
         inkscape:connector-curvature="0" />
      <path
         id="path680"
         d="m 28230,18640 v -380"
         inkscape:connector-curvature="0" />
      <path
         id="path682"
         d="m 28190,18190 -340,-260"
         inkscape:connector-curvature="0" />
      <path
         id="path684"
         d="m 27850,18190 340,-260"
         inkscape:connector-curvature="0" />
    </g>
    <g
       id="g694"
       style="fill:#840000;fill-opacity:0;stroke:#840000;stroke-width:60;stroke-linecap:round;stroke-linejoin:round;stroke-opacity:1">
      <path
         id="path688"
         d="m 29270,21900 h -600 v -230 l 30,-60 30,-30 60,-30 h 80 l 60,30 30,30 30,60 v 230"
         inkscape:connector-curvature="0" />
      <path
         id="path690"
         d="m 28670,21380 600,-200 -600,-200"
         inkscape:connector-curvature="0" />
      <path
         id="path692"
         d="m 28670,20840 v -370 l 230,200 v -80 l 30,-60 30,-30 50,-30 h 150 l 50,30 30,30 30,60 v 170 l -30,60 -30,20"
         inkscape:connector-curvature="0" />
    </g>
    <g
       id="g698"
       style="fill:#840000;fill-opacity:0;stroke:#840000;stroke-width:100;stroke-linecap:round;stroke-linejoin:round;stroke-opacity:1">
      <polyline
         id="polyline696"
         points="29000,20000 28460,20300 28460,22270 29000,22270 29540,22270 29540,20300 29000,20000 "
         fill="none;" />
    </g>
    <g
       id="g708"
       style="fill:#008400;fill-opacity:0;stroke:#008400;stroke-width:60;stroke-linecap:round;stroke-linejoin:round;stroke-opacity:1">
      <path
         id="path702"
         d="m 24000,17000 h 2500"
         inkscape:connector-curvature="0" />
      <path
         id="path704"
         d="m 28500,17000 h 4000"
         inkscape:connector-curvature="0" />
      <path
         id="path706"
         d="m 25000,15500 v 1500"
         inkscape:connector-curvature="0" />
    </g>
    <g
       id="g714"
       style="fill:#008400;fill-opacity:1;stroke:#008400;stroke-width:100;stroke-linecap:round;stroke-linejoin:round;stroke-opacity:1">
      <circle
         id="circle712"
         r="200"
         cy="17000"
         cx="25000" />
    </g>
    <g
       id="g720"
       style="fill:#008400;fill-opacity:1;stroke:#008400;stroke-width:100;stroke-linecap:round;stroke-linejoin:round;stroke-opacity:1">
      <circle
         id="circle718"
         r="200"
         cy="17000"
         cx="29000" />
    </g>
  </g>
</svg>
