<?xml version="1.0" encoding="UTF-8" standalone="no"?>
<!-- Created with Inkscape (http://www.inkscape.org/) -->

<svg
   xmlns:dc="http://purl.org/dc/elements/1.1/"
   xmlns:cc="http://creativecommons.org/ns#"
   xmlns:rdf="http://www.w3.org/1999/02/22-rdf-syntax-ns#"
   xmlns:svg="http://www.w3.org/2000/svg"
   xmlns="http://www.w3.org/2000/svg"
   xmlns:sodipodi="http://sodipodi.sourceforge.net/DTD/sodipodi-0.dtd"
   xmlns:inkscape="http://www.inkscape.org/namespaces/inkscape"
   width="22.402775mm"
   height="15.165358mm"
   viewBox="0 0 79.379911 53.735519"
   id="svg10074"
   version="1.1"
   inkscape:version="0.91 r13725"
   sodipodi:docname="CParallel.svg">
  <defs
     id="defs10076" />
  <sodipodi:namedview
     id="base"
     pagecolor="#ffffff"
     bordercolor="#666666"
     borderopacity="1.0"
     inkscape:pageopacity="0.0"
     inkscape:pageshadow="2"
     inkscape:zoom="0.35"
     inkscape:cx="-595.31004"
     inkscape:cy="24.01062"
     inkscape:document-units="px"
     inkscape:current-layer="layer1"
     showgrid="false"
     fit-margin-top="0"
     fit-margin-left="0"
     fit-margin-right="0"
     fit-margin-bottom="0"
     inkscape:window-width="1855"
     inkscape:window-height="1056"
     inkscape:window-x="65"
     inkscape:window-y="24"
     inkscape:window-maximized="1" />
  <metadata
     id="metadata10079">
    <rdf:RDF>
      <cc:Work
         rdf:about="">
        <dc:format>image/svg+xml</dc:format>
        <dc:type
           rdf:resource="http://purl.org/dc/dcmitype/StillImage" />
        <dc:title></dc:title>
      </cc:Work>
    </rdf:RDF>
  </metadata>
  <g
     inkscape:label="Layer 1"
     inkscape:groupmode="layer"
     id="layer1"
     transform="translate(-271.73861,-502.63731)">
    <path
       style="fill:#840000;fill-opacity:0;stroke:#840000;stroke-width:0.53999943;stroke-linecap:round;stroke-linejoin:round;stroke-opacity:1"
       inkscape:connector-curvature="0"
       id="path2626"
       d="m 337.61854,532.249 -0.27,0.27 -0.81,0.27 -0.54,0 -0.72,-0.27 -0.54,-0.45 -0.27,-0.54 -0.27,-1.07999 0,-0.72 0.27,-1.08 0.27,-0.45 0.54,-0.54 0.72,-0.27 0.54,0 0.81,0.27 0.27,0.27" />
    <path
       style="fill:#840000;fill-opacity:0;stroke:#840000;stroke-width:0.53999943;stroke-linecap:round;stroke-linejoin:round;stroke-opacity:1"
       inkscape:connector-curvature="0"
       id="path2628"
       d="m 339.59854,531.259 2.60999,0" />
    <path
       style="fill:#840000;fill-opacity:0;stroke:#840000;stroke-width:0.53999943;stroke-linecap:round;stroke-linejoin:round;stroke-opacity:1"
       inkscape:connector-curvature="0"
       id="path2630"
       d="m 339.14854,532.789 1.79999,-5.39999 1.8,5.39999" />
    <path
       style="fill:#840000;fill-opacity:0;stroke:#840000;stroke-width:0.53999943;stroke-linecap:round;stroke-linejoin:round;stroke-opacity:1"
       inkscape:connector-curvature="0"
       id="path2632"
       d="m 344.45853,532.789 0,-5.39999 2.07,0 0.54,0.27 0.27,0.27 0.27,0.54 0,0.72 -0.27,0.54 -0.27,0.27 -0.54,0.27 -2.07,0" />
    <polyline
       transform="matrix(0.00899999,0,0,0.00899999,-237.03082,118.60946)"
       style="fill:#840000;fill-opacity:0;stroke:#840000;stroke-width:100;stroke-linecap:round;stroke-linejoin:round;stroke-opacity:1"
       id="polyline2636"
       points="63000,45750 63300,46290 65300,46290 65300,45750 65300,45210 63300,45210 63000,45750 " />
    <path
       style="fill:#840000;fill-opacity:0;stroke:#840000;stroke-width:0.53999943;stroke-linecap:round;stroke-linejoin:round;stroke-opacity:1"
       inkscape:connector-curvature="0"
       id="path2640"
       d="m 278.3986,527.65901 -0.54,-0.27 -0.81,0 -0.71999,0.27 -0.54,0.54 -0.27,0.45 -0.27,1.08 0,0.72 0.27,1.07999 0.27,0.54 0.54,0.45 0.71999,0.27 0.54,0 0.81,-0.27 0.27,-0.27 0,-1.79999 -1.08,0" />
    <path
       style="fill:#840000;fill-opacity:0;stroke:#840000;stroke-width:0.53999943;stroke-linecap:round;stroke-linejoin:round;stroke-opacity:1"
       inkscape:connector-curvature="0"
       id="path2642"
       d="m 280.9186,532.789 0,-5.39999 3.15,5.39999 0,-5.39999" />
    <path
       style="fill:#840000;fill-opacity:0;stroke:#840000;stroke-width:0.53999943;stroke-linecap:round;stroke-linejoin:round;stroke-opacity:1"
       inkscape:connector-curvature="0"
       id="path2644"
       d="m 286.58859,532.789 0,-5.39999 1.35,0 0.72,0.27 0.54,0.54 0.27,0.45 0.27,1.08 0,0.72 -0.27,1.07999 -0.27,0.54 -0.54,0.45 -0.72,0.27 -1.35,0" />
    <polyline
       transform="matrix(0.00899999,0,0,0.00899999,-237.03082,118.60946)"
       style="fill:#840000;fill-opacity:0;stroke:#840000;stroke-width:100;stroke-linecap:round;stroke-linejoin:round;stroke-opacity:1"
       id="polyline2648"
       points="59000,45750 58700,45210 56580,45210 56580,45750 56580,46290 58700,46290 59000,45750 " />
    <polyline
       transform="matrix(0.00899999,0,0,0.00899999,-237.03082,118.60946)"
       style="fill:#840000;fill-opacity:0;stroke:#840000;stroke-width:200;stroke-linecap:round;stroke-linejoin:round;stroke-opacity:1"
       id="polyline2810"
       points="60700,46200 60700,47800 " />
    <polyline
       transform="matrix(0.00899999,0,0,0.00899999,-237.03082,118.60946)"
       style="fill:#840000;fill-opacity:0;stroke:#840000;stroke-width:200;stroke-linecap:round;stroke-linejoin:round;stroke-opacity:1"
       id="polyline2812"
       points="61300,46200 61300,47800 " />
    <path
       style="fill:#840000;fill-opacity:0;stroke:#840000;stroke-width:0.53999943;stroke-linecap:round;stroke-linejoin:round;stroke-opacity:1"
       inkscape:connector-curvature="0"
       id="path2816"
       d="m 315.56856,541.60899 9.89999,0" />
    <path
       style="fill:#840000;fill-opacity:0;stroke:#840000;stroke-width:0.53999943;stroke-linecap:round;stroke-linejoin:round;stroke-opacity:1"
       inkscape:connector-curvature="0"
       id="path2818"
       d="m 308.36857,541.60899 -9.89999,0" />
    <path
       style="fill:#008484;fill-opacity:0;stroke:#008484;stroke-width:0.53999943;stroke-linecap:round;stroke-linejoin:round;stroke-opacity:1"
       inkscape:connector-curvature="0"
       id="path2822"
       d="m 302.06858,554.20898 -0.18,0.18 -0.63,0.27 -0.45,0 -0.63,-0.27 -0.45,-0.45 -0.18,-0.36 -0.18,-0.9 0,-0.63 0.18,-0.81 0.18,-0.45 0.45,-0.45 0.63,-0.18 0.45,0 0.63,0.18 0.18,0.18" />
    <path
       style="fill:#008484;fill-opacity:0;stroke:#008484;stroke-width:0.53999943;stroke-linecap:round;stroke-linejoin:round;stroke-opacity:1"
       inkscape:connector-curvature="0"
       id="path2824"
       d="m 303.86857,550.51898 0.18,-0.18 0.45,-0.18 1.08,0 0.36,0.18 0.27,0.18 0.18,0.45 0,0.45 -0.18,0.63 -2.60999,2.61 2.78999,0" />
    <path
       style="fill:#008484;fill-opacity:0;stroke:#008484;stroke-width:0.53999943;stroke-linecap:round;stroke-linejoin:round;stroke-opacity:1"
       inkscape:connector-curvature="0"
       id="path2826"
       d="m 319.88856,554.65898 -2.52,0" />
    <path
       style="fill:#008484;fill-opacity:0;stroke:#008484;stroke-width:0.53999943;stroke-linecap:round;stroke-linejoin:round;stroke-opacity:1"
       inkscape:connector-curvature="0"
       id="path2828"
       d="m 318.62856,554.65898 0,-4.5 -0.45,0.63 -0.45,0.45 -0.36,0.18" />
    <path
       style="fill:#008484;fill-opacity:0;stroke:#008484;stroke-width:0.53999943;stroke-linecap:round;stroke-linejoin:round;stroke-opacity:1"
       inkscape:connector-curvature="0"
       id="path2830"
       d="m 322.67855,550.15898 0.45,0 0.45,0.18 0.18,0.18 0.27,0.45 0.18,0.9 0,1.08 -0.18,0.81 -0.27,0.45 -0.18,0.18 -0.45,0.27 -0.45,0 -0.36,-0.27 -0.27,-0.18 -0.18,-0.45 -0.18,-0.81 0,-1.08 0.18,-0.9 0.18,-0.45 0.27,-0.18 0.36,-0.18" />
    <path
       style="fill:#008484;fill-opacity:0;stroke:#008484;stroke-width:0.53999943;stroke-linecap:round;stroke-linejoin:round;stroke-opacity:1"
       inkscape:connector-curvature="0"
       id="path2832"
       d="m 326.99855,550.15898 0.45,0 0.45,0.18 0.18,0.18 0.27,0.45 0.18,0.9 0,1.08 -0.18,0.81 -0.27,0.45 -0.18,0.18 -0.45,0.27 -0.45,0 -0.36,-0.27 -0.27,-0.18 -0.18,-0.45 -0.18,-0.81 0,-1.08 0.18,-0.9 0.18,-0.45 0.27,-0.18 0.36,-0.18" />
    <path
       style="fill:#008484;fill-opacity:0;stroke:#008484;stroke-width:0.53999943;stroke-linecap:round;stroke-linejoin:round;stroke-opacity:1"
       inkscape:connector-curvature="0"
       id="path2834"
       d="m 330.50855,551.59898 0,4.5" />
    <path
       style="fill:#008484;fill-opacity:0;stroke:#008484;stroke-width:0.53999943;stroke-linecap:round;stroke-linejoin:round;stroke-opacity:1"
       inkscape:connector-curvature="0"
       id="path2836"
       d="m 330.50855,551.86898 0.44999,-0.27 0.81,0 0.45,0.27 0.18,0.18 0.27,0.45 0,1.26 -0.27,0.45 -0.18,0.18 -0.45,0.27 -0.81,0 -0.44999,-0.27" />
    <path
       style="fill:#008484;fill-opacity:0;stroke:#008484;stroke-width:0.53999943;stroke-linecap:round;stroke-linejoin:round;stroke-opacity:1"
       inkscape:connector-curvature="0"
       id="path2838"
       d="m 336.08854,552.22898 -1.53,0" />
    <path
       style="fill:#008484;fill-opacity:0;stroke:#008484;stroke-width:0.53999943;stroke-linecap:round;stroke-linejoin:round;stroke-opacity:1"
       inkscape:connector-curvature="0"
       id="path2840"
       d="m 334.55854,554.65898 0,-4.5 2.16,0" />
    <polyline
       transform="matrix(0.00899999,0,0,0.00899999,-237.03082,118.60946)"
       style="fill:#840000;fill-opacity:0;stroke:#840000;stroke-width:200;stroke-linecap:round;stroke-linejoin:round;stroke-opacity:1"
       id="polyline2848"
       points="60700,43450 60700,45050 " />
    <polyline
       transform="matrix(0.00899999,0,0,0.00899999,-237.03082,118.60946)"
       style="fill:#840000;fill-opacity:0;stroke:#840000;stroke-width:200;stroke-linecap:round;stroke-linejoin:round;stroke-opacity:1"
       id="polyline2850"
       points="61300,43450 61300,45050 " />
    <path
       style="fill:#840000;fill-opacity:0;stroke:#840000;stroke-width:0.53999943;stroke-linecap:round;stroke-linejoin:round;stroke-opacity:1"
       inkscape:connector-curvature="0"
       id="path2854"
       d="m 315.56856,516.85902 9.89999,0" />
    <path
       style="fill:#840000;fill-opacity:0;stroke:#840000;stroke-width:0.53999943;stroke-linecap:round;stroke-linejoin:round;stroke-opacity:1"
       inkscape:connector-curvature="0"
       id="path2856"
       d="m 308.36857,516.85902 -9.89999,0" />
    <path
       style="fill:#008484;fill-opacity:0;stroke:#008484;stroke-width:0.53999943;stroke-linecap:round;stroke-linejoin:round;stroke-opacity:1"
       inkscape:connector-curvature="0"
       id="path2860"
       d="m 304.31857,506.95903 -0.18,0.18 -0.62999,0.27 -0.45,0 -0.63,-0.27 -0.45,-0.45 -0.18,-0.36 -0.18,-0.9 0,-0.63 0.18,-0.81 0.18,-0.44999 0.45,-0.45 0.63,-0.18 0.45,0 0.62999,0.18 0.18,0.18" />
    <path
       style="fill:#008484;fill-opacity:0;stroke:#008484;stroke-width:0.53999943;stroke-linecap:round;stroke-linejoin:round;stroke-opacity:1"
       inkscape:connector-curvature="0"
       id="path2862"
       d="m 308.63857,507.40903 -2.52,0" />
    <path
       style="fill:#008484;fill-opacity:0;stroke:#008484;stroke-width:0.53999943;stroke-linecap:round;stroke-linejoin:round;stroke-opacity:1"
       inkscape:connector-curvature="0"
       id="path2864"
       d="m 307.37857,507.40903 0,-4.49999 -0.45,0.63 -0.45,0.44999 -0.36,0.18" />
    <path
       style="fill:#008484;fill-opacity:0;stroke:#008484;stroke-width:0.53999943;stroke-linecap:round;stroke-linejoin:round;stroke-opacity:1"
       inkscape:connector-curvature="0"
       id="path2866"
       d="m 319.88856,507.40903 -2.52,0" />
    <path
       style="fill:#008484;fill-opacity:0;stroke:#008484;stroke-width:0.53999943;stroke-linecap:round;stroke-linejoin:round;stroke-opacity:1"
       inkscape:connector-curvature="0"
       id="path2868"
       d="m 318.62856,507.40903 0,-4.49999 -0.45,0.63 -0.45,0.44999 -0.36,0.18" />
    <path
       style="fill:#008484;fill-opacity:0;stroke:#008484;stroke-width:0.53999943;stroke-linecap:round;stroke-linejoin:round;stroke-opacity:1"
       inkscape:connector-curvature="0"
       id="path2870"
       d="m 322.67855,502.90904 0.45,0 0.45,0.18 0.18,0.18 0.27,0.45 0.18,0.89999 0,1.08 -0.18,0.81 -0.27,0.45 -0.18,0.18 -0.45,0.27 -0.45,0 -0.36,-0.27 -0.27,-0.18 -0.18,-0.45 -0.18,-0.81 0,-1.08 0.18,-0.89999 0.18,-0.45 0.27,-0.18 0.36,-0.18" />
    <path
       style="fill:#008484;fill-opacity:0;stroke:#008484;stroke-width:0.53999943;stroke-linecap:round;stroke-linejoin:round;stroke-opacity:1"
       inkscape:connector-curvature="0"
       id="path2872"
       d="m 326.99855,502.90904 0.45,0 0.45,0.18 0.18,0.18 0.27,0.45 0.18,0.89999 0,1.08 -0.18,0.81 -0.27,0.45 -0.18,0.18 -0.45,0.27 -0.45,0 -0.36,-0.27 -0.27,-0.18 -0.18,-0.45 -0.18,-0.81 0,-1.08 0.18,-0.89999 0.18,-0.45 0.27,-0.18 0.36,-0.18" />
    <path
       style="fill:#008484;fill-opacity:0;stroke:#008484;stroke-width:0.53999943;stroke-linecap:round;stroke-linejoin:round;stroke-opacity:1"
       inkscape:connector-curvature="0"
       id="path2874"
       d="m 330.50855,504.34903 0,4.5" />
    <path
       style="fill:#008484;fill-opacity:0;stroke:#008484;stroke-width:0.53999943;stroke-linecap:round;stroke-linejoin:round;stroke-opacity:1"
       inkscape:connector-curvature="0"
       id="path2876"
       d="m 330.50855,504.61903 0.44999,-0.27 0.81,0 0.45,0.27 0.18,0.18 0.27,0.45 0,1.26 -0.27,0.45 -0.18,0.18 -0.45,0.27 -0.81,0 -0.44999,-0.27" />
    <path
       style="fill:#008484;fill-opacity:0;stroke:#008484;stroke-width:0.53999943;stroke-linecap:round;stroke-linejoin:round;stroke-opacity:1"
       inkscape:connector-curvature="0"
       id="path2878"
       d="m 336.08854,504.97903 -1.53,0" />
    <path
       style="fill:#008484;fill-opacity:0;stroke:#008484;stroke-width:0.53999943;stroke-linecap:round;stroke-linejoin:round;stroke-opacity:1"
       inkscape:connector-curvature="0"
       id="path2880"
       d="m 334.55854,507.40903 0,-4.49999 2.16,0" />
    <path
       style="fill:#008400;fill-opacity:0;stroke:#008400;stroke-width:0.53999943;stroke-linecap:round;stroke-linejoin:round;stroke-opacity:1"
       inkscape:connector-curvature="0"
       id="path3160"
       d="m 329.96855,530.35901 -4.5,0" />
    <path
       style="fill:#008400;fill-opacity:0;stroke:#008400;stroke-width:0.53999943;stroke-linecap:round;stroke-linejoin:round;stroke-opacity:1"
       inkscape:connector-curvature="0"
       id="path3162"
       d="m 298.46858,530.35901 -4.49999,0" />
    <circle
       style="fill:#008400;fill-opacity:1;stroke:#008400;stroke-width:0.89999902;stroke-linecap:round;stroke-linejoin:round;stroke-opacity:1"
       id="circle3168"
       r="1.799998"
       cy="530.35901"
       cx="298.46857" />
    <path
       style="fill:#008400;fill-opacity:0;stroke:#008400;stroke-width:0.53999943;stroke-linecap:round;stroke-linejoin:round;stroke-opacity:1"
       inkscape:connector-curvature="0"
       id="path3176"
       d="m 298.46858,516.85902 0,24.74997" />
    <path
       style="fill:#008400;fill-opacity:0;stroke:#008400;stroke-width:0.53999943;stroke-linecap:round;stroke-linejoin:round;stroke-opacity:1"
       inkscape:connector-curvature="0"
       id="path3178"
       d="m 325.46855,516.85902 0,24.74997" />
    <circle
       style="fill:#008400;fill-opacity:1;stroke:#008400;stroke-width:0.89999902;stroke-linecap:round;stroke-linejoin:round;stroke-opacity:1"
       id="circle3184"
       r="1.799998"
       cy="530.35901"
       cx="325.46854" />
  </g>
</svg>
