<?xml version="1.0" encoding="UTF-8" standalone="no"?>
<svg
   xmlns:dc="http://purl.org/dc/elements/1.1/"
   xmlns:cc="http://creativecommons.org/ns#"
   xmlns:rdf="http://www.w3.org/1999/02/22-rdf-syntax-ns#"
   xmlns:svg="http://www.w3.org/2000/svg"
   xmlns="http://www.w3.org/2000/svg"
   xmlns:sodipodi="http://sodipodi.sourceforge.net/DTD/sodipodi-0.dtd"
   xmlns:inkscape="http://www.inkscape.org/namespaces/inkscape"
   version="1.1"
   width="2.278486cm"
   height="3.2542071cm"
   viewBox="0 0 8970.4237 12811.851"
   id="svg2"
   inkscape:version="0.92.3 (3ce5693, 2018-03-11)"
   sodipodi:docname="fullwave.svg">
  <metadata
     id="metadata1078">
    <rdf:RDF>
      <cc:Work
         rdf:about="">
        <dc:format>image/svg+xml</dc:format>
        <dc:type
           rdf:resource="http://purl.org/dc/dcmitype/StillImage" />
        <dc:title>SVG Picture created as diodes.sch.svg date 2016/06/16 13:12:25 </dc:title>
      </cc:Work>
    </rdf:RDF>
  </metadata>
  <defs
     id="defs1076" />
  <sodipodi:namedview
     pagecolor="#ffffff"
     bordercolor="#666666"
     borderopacity="1"
     objecttolerance="10"
     gridtolerance="10"
     guidetolerance="10"
     inkscape:pageopacity="0"
     inkscape:pageshadow="2"
     inkscape:window-width="1299"
     inkscape:window-height="713"
     id="namedview1074"
     showgrid="false"
     fit-margin-top="0"
     fit-margin-left="0"
     fit-margin-right="0"
     fit-margin-bottom="0"
     inkscape:zoom="4.5155252"
     inkscape:cx="35.215191"
     inkscape:cy="70.745328"
     inkscape:window-x="67"
     inkscape:window-y="27"
     inkscape:window-maximized="1"
     inkscape:current-layer="svg2" />
  <title
     id="title4">SVG Picture created as diodes.sch.svg date 2016/06/16 13:12:25 </title>
  <desc
     id="desc6">Picture generated by Eeschema-SVG </desc>
  <g
     id="g10738">
    <path
       d="m 1000.4069,3330.4273 140,600 110,-430 120,430 140,-600"
       id="path464"
       inkscape:connector-curvature="0"
       style="fill:#840000;fill-opacity:0;stroke:#840000;stroke-width:60;stroke-linecap:round;stroke-linejoin:round;stroke-opacity:1" />
    <path
       d="m 2060.4069,3930.4273 -350,0"
       id="path466"
       inkscape:connector-curvature="0"
       style="fill:#840000;fill-opacity:0;stroke:#840000;stroke-width:60;stroke-linecap:round;stroke-linejoin:round;stroke-opacity:1" />
    <path
       d="m 1890.4069,3930.4273 0,-600 -60,90 -60,50 -60,30"
       id="path468"
       inkscape:connector-curvature="0"
       style="fill:#840000;fill-opacity:0;stroke:#840000;stroke-width:60;stroke-linecap:round;stroke-linejoin:round;stroke-opacity:1" />
    <polyline
       transform="translate(-20219.593,-8089.5727)"
       points="22750,11750 22450,11210 20900,11210 20900,11750 20900,12290 22450,12290 22750,11750 "
       id="polyline472"
       style="fill:#840000;fill-opacity:0;stroke:#840000;stroke-width:100;stroke-linecap:round;stroke-linejoin:round;stroke-opacity:1" />
    <path
       d="m 7380.4069,3870.4273 -30,30 -90,30 -60,0 -80,-30 -60,-50 -30,-60 -30,-120 0,-80 30,-120 30,-50 60,-60 80,-30 60,0 90,30 30,30"
       id="path476"
       inkscape:connector-curvature="0"
       style="fill:#840000;fill-opacity:0;stroke:#840000;stroke-width:60;stroke-linecap:round;stroke-linejoin:round;stroke-opacity:1" />
    <path
       d="m 7630.4069,3930.4273 0,-600"
       id="path478"
       inkscape:connector-curvature="0"
       style="fill:#840000;fill-opacity:0;stroke:#840000;stroke-width:60;stroke-linecap:round;stroke-linejoin:round;stroke-opacity:1" />
    <path
       d="m 7630.4069,3620.4273 350,0"
       id="path480"
       inkscape:connector-curvature="0"
       style="fill:#840000;fill-opacity:0;stroke:#840000;stroke-width:60;stroke-linecap:round;stroke-linejoin:round;stroke-opacity:1" />
    <path
       d="m 7980.4069,3930.4273 0,-600"
       id="path482"
       inkscape:connector-curvature="0"
       style="fill:#840000;fill-opacity:0;stroke:#840000;stroke-width:60;stroke-linecap:round;stroke-linejoin:round;stroke-opacity:1" />
    <path
       d="m 8580.4069,3930.4273 -350,0"
       id="path484"
       inkscape:connector-curvature="0"
       style="fill:#840000;fill-opacity:0;stroke:#840000;stroke-width:60;stroke-linecap:round;stroke-linejoin:round;stroke-opacity:1" />
    <path
       d="m 8410.4069,3930.4273 0,-600 -60,90 -60,50 -60,30"
       id="path486"
       inkscape:connector-curvature="0"
       style="fill:#840000;fill-opacity:0;stroke:#840000;stroke-width:60;stroke-linecap:round;stroke-linejoin:round;stroke-opacity:1" />
    <polyline
       transform="translate(-20219.593,-8089.5727)"
       points="26750,11750 27050,12290 29140,12290 29140,11750 29140,11210 27050,11210 26750,11750 "
       id="polyline490"
       style="fill:#840000;fill-opacity:0;stroke:#840000;stroke-width:100;stroke-linecap:round;stroke-linejoin:round;stroke-opacity:1" />
    <path
       d="m 7380.4069,5620.4273 -30,30 -90,30 -60,0 -80,-30 -60,-50 -30,-60 -30,-120 0,-80 30,-120 30,-50 60,-60 80,-30 60,0 90,30 30,30"
       id="path494"
       inkscape:connector-curvature="0"
       style="fill:#840000;fill-opacity:0;stroke:#840000;stroke-width:60;stroke-linecap:round;stroke-linejoin:round;stroke-opacity:1" />
    <path
       d="m 7630.4069,5680.4273 0,-600"
       id="path496"
       inkscape:connector-curvature="0"
       style="fill:#840000;fill-opacity:0;stroke:#840000;stroke-width:60;stroke-linecap:round;stroke-linejoin:round;stroke-opacity:1" />
    <path
       d="m 7630.4069,5370.4273 350,0"
       id="path498"
       inkscape:connector-curvature="0"
       style="fill:#840000;fill-opacity:0;stroke:#840000;stroke-width:60;stroke-linecap:round;stroke-linejoin:round;stroke-opacity:1" />
    <path
       d="m 7980.4069,5680.4273 0,-600"
       id="path500"
       inkscape:connector-curvature="0"
       style="fill:#840000;fill-opacity:0;stroke:#840000;stroke-width:60;stroke-linecap:round;stroke-linejoin:round;stroke-opacity:1" />
    <path
       d="m 8230.4069,5140.4273 30,-30 60,-30 140,0 60,30 30,30 30,60 0,50 -30,90 -340,340 370,0"
       id="path502"
       inkscape:connector-curvature="0"
       style="fill:#840000;fill-opacity:0;stroke:#840000;stroke-width:60;stroke-linecap:round;stroke-linejoin:round;stroke-opacity:1" />
    <polyline
       transform="translate(-20219.593,-8089.5727)"
       points="26750,13500 27050,14040 29140,14040 29140,13500 29140,12960 27050,12960 26750,13500 "
       id="polyline506"
       style="fill:#840000;fill-opacity:0;stroke:#840000;stroke-width:100;stroke-linecap:round;stroke-linejoin:round;stroke-opacity:1" />
    <polyline
       transform="translate(-20219.593,-8089.5727)"
       points="25250,17000 25250,16000 "
       id="polyline512"
       style="fill:#840000;fill-opacity:0;stroke:#840000;stroke-width:60;stroke-linecap:round;stroke-linejoin:round;stroke-opacity:1" />
    <polyline
       transform="translate(-20219.593,-8089.5727)"
       style="fill:#840000;fill-opacity:1;fill-rule:evenodd;stroke:#840000;stroke-width:60;stroke-linecap:round;stroke-linejoin:round;stroke-opacity:1"
       points="24250,17000 25250,16500 24250,16000 "
       id="polyline516" />
    <path
       d="m 5030.4069,8410.4273 1000,0"
       id="path520"
       inkscape:connector-curvature="0"
       style="fill:#840000;fill-opacity:0;stroke:#840000;stroke-width:60;stroke-linecap:round;stroke-linejoin:round;stroke-opacity:1" />
    <path
       d="m 4030.4069,8410.4273 -1000,0"
       id="path522"
       inkscape:connector-curvature="0"
       style="fill:#840000;fill-opacity:0;stroke:#840000;stroke-width:60;stroke-linecap:round;stroke-linejoin:round;stroke-opacity:1" />
    <rect
       x="3530.407"
       y="9760.4277"
       width="2000"
       height="800"
       rx="0"
       id="rect528"
       style="fill:#840000;fill-opacity:0;stroke:#840000;stroke-width:100;stroke-linecap:round;stroke-linejoin:round;stroke-opacity:1" />
    <path
       d="m 5530.4069,10160.427 500,0"
       id="path532"
       inkscape:connector-curvature="0"
       style="fill:#840000;fill-opacity:0;stroke:#840000;stroke-width:60;stroke-linecap:round;stroke-linejoin:round;stroke-opacity:1" />
    <path
       d="m 3530.4069,10160.427 -500,0"
       id="path534"
       inkscape:connector-curvature="0"
       style="fill:#840000;fill-opacity:0;stroke:#840000;stroke-width:60;stroke-linecap:round;stroke-linejoin:round;stroke-opacity:1" />
    <path
       d="m 4180.4069,10360.427 -280,0"
       id="path538"
       inkscape:connector-curvature="0"
       style="fill:#008484;fill-opacity:0;stroke:#008484;stroke-width:60;stroke-linecap:round;stroke-linejoin:round;stroke-opacity:1" />
    <path
       d="m 4040.4069,10360.427 0,-499.9997 -50,70 -50,50 -40,19.9997"
       id="path540"
       inkscape:connector-curvature="0"
       style="fill:#008484;fill-opacity:0;stroke:#008484;stroke-width:60;stroke-linecap:round;stroke-linejoin:round;stroke-opacity:1" />
    <path
       d="m 4490.4069,9860.4273 50,0 50,20 20,20 30,50 20,99.9997 0,120 -20,90 -30,50 -20,20 -50,30 -50,0 -40,-30 -30,-20 -20,-50 -20,-90 0,-120 20,-99.9997 20,-50 30,-20 40,-20"
       id="path542"
       inkscape:connector-curvature="0"
       style="fill:#008484;fill-opacity:0;stroke:#008484;stroke-width:60;stroke-linecap:round;stroke-linejoin:round;stroke-opacity:1" />
    <path
       d="m 4880.4069,10360.427 0,-499.9997"
       id="path544"
       inkscape:connector-curvature="0"
       style="fill:#008484;fill-opacity:0;stroke:#008484;stroke-width:60;stroke-linecap:round;stroke-linejoin:round;stroke-opacity:1" />
    <path
       d="m 5160.4069,10360.427 -210,-290"
       id="path546"
       inkscape:connector-curvature="0"
       style="fill:#008484;fill-opacity:0;stroke:#008484;stroke-width:60;stroke-linecap:round;stroke-linejoin:round;stroke-opacity:1" />
    <path
       d="m 5160.4069,9860.4273 -280,279.9997"
       id="path548"
       inkscape:connector-curvature="0"
       style="fill:#008484;fill-opacity:0;stroke:#008484;stroke-width:60;stroke-linecap:round;stroke-linejoin:round;stroke-opacity:1" />
    <polyline
       transform="translate(-20219.593,-8089.5727)"
       points="24450,19200 24450,20800 "
       id="polyline556"
       style="fill:#840000;fill-opacity:0;stroke:#840000;stroke-width:200;stroke-linecap:round;stroke-linejoin:round;stroke-opacity:1" />
    <polyline
       transform="translate(-20219.593,-8089.5727)"
       points="25050,19200 25050,20800 "
       id="polyline558"
       style="fill:#840000;fill-opacity:0;stroke:#840000;stroke-width:200;stroke-linecap:round;stroke-linejoin:round;stroke-opacity:1" />
    <path
       d="m 4930.4069,11910.427 1100,0"
       id="path562"
       inkscape:connector-curvature="0"
       style="fill:#840000;fill-opacity:0;stroke:#840000;stroke-width:60;stroke-linecap:round;stroke-linejoin:round;stroke-opacity:1" />
    <path
       d="m 4130.4069,11910.427 -1100,0"
       id="path564"
       inkscape:connector-curvature="0"
       style="fill:#840000;fill-opacity:0;stroke:#840000;stroke-width:60;stroke-linecap:round;stroke-linejoin:round;stroke-opacity:1" />
    <path
       d="m 5410.4069,12610.427 -280,0"
       id="path568"
       inkscape:connector-curvature="0"
       style="fill:#008484;fill-opacity:0;stroke:#008484;stroke-width:60;stroke-linecap:round;stroke-linejoin:round;stroke-opacity:1" />
    <path
       d="m 5270.4069,12610.427 0,-500 -50,70 -50,50 -40,20"
       id="path570"
       inkscape:connector-curvature="0"
       style="fill:#008484;fill-opacity:0;stroke:#008484;stroke-width:60;stroke-linecap:round;stroke-linejoin:round;stroke-opacity:1" />
    <path
       d="m 5840.4069,12270.427 0,340"
       id="path572"
       inkscape:connector-curvature="0"
       style="fill:#008484;fill-opacity:0;stroke:#008484;stroke-width:60;stroke-linecap:round;stroke-linejoin:round;stroke-opacity:1" />
    <path
       d="m 5630.4069,12270.427 0,260 20,50 50,30 70,0 50,-30 20,-20"
       id="path574"
       inkscape:connector-curvature="0"
       style="fill:#008484;fill-opacity:0;stroke:#008484;stroke-width:60;stroke-linecap:round;stroke-linejoin:round;stroke-opacity:1" />
    <path
       d="m 6250.4069,12340.427 -170,0"
       id="path576"
       inkscape:connector-curvature="0"
       style="fill:#008484;fill-opacity:0;stroke:#008484;stroke-width:60;stroke-linecap:round;stroke-linejoin:round;stroke-opacity:1" />
    <path
       d="m 6080.4069,12610.427 0,-500 240,0"
       id="path578"
       inkscape:connector-curvature="0"
       style="fill:#008484;fill-opacity:0;stroke:#008484;stroke-width:60;stroke-linecap:round;stroke-linejoin:round;stroke-opacity:1" />
    <path
       d="m 1050.4069,9860.4273 -59.99997,-30 -90,0 -80,30 -60,60 -30,50 -30,119.9997 0,80 30,120 30,60 60,50 80,30 60,0 89.99997,-30 30,-30 0,-200 -119.99997,0"
       id="path582"
       inkscape:connector-curvature="0"
       style="fill:#840000;fill-opacity:0;stroke:#840000;stroke-width:60;stroke-linecap:round;stroke-linejoin:round;stroke-opacity:1" />
    <path
       d="m 1330.4069,10430.427 0,-599.9997 350,599.9997 0,-599.9997"
       id="path584"
       inkscape:connector-curvature="0"
       style="fill:#840000;fill-opacity:0;stroke:#840000;stroke-width:60;stroke-linecap:round;stroke-linejoin:round;stroke-opacity:1" />
    <path
       d="m 1960.4069,10430.427 0,-599.9997 150,0 80,30 60,60 30,50 30,119.9997 0,80 -30,120 -30,60 -60,50 -80,30 -150,0"
       id="path586"
       inkscape:connector-curvature="0"
       style="fill:#840000;fill-opacity:0;stroke:#840000;stroke-width:60;stroke-linecap:round;stroke-linejoin:round;stroke-opacity:1" />
    <polyline
       transform="translate(-20219.593,-8089.5727)"
       points="23000,18250 22700,17710 20580,17710 20580,18250 20580,18790 22700,18790 23000,18250 "
       id="polyline590"
       style="fill:#840000;fill-opacity:0;stroke:#840000;stroke-width:100;stroke-linecap:round;stroke-linejoin:round;stroke-opacity:1" />
    <path
       d="m 1050.4069,11610.427 -59.99997,-30 -90,0 -80,30 -60,60 -30,50 -30,120 0,80 30,120 30,60 60,50 80,30 60,0 89.99997,-30 30,-30 0,-200 -119.99997,0"
       id="path594"
       inkscape:connector-curvature="0"
       style="fill:#840000;fill-opacity:0;stroke:#840000;stroke-width:60;stroke-linecap:round;stroke-linejoin:round;stroke-opacity:1" />
    <path
       d="m 1330.4069,12180.427 0,-600 350,600 0,-600"
       id="path596"
       inkscape:connector-curvature="0"
       style="fill:#840000;fill-opacity:0;stroke:#840000;stroke-width:60;stroke-linecap:round;stroke-linejoin:round;stroke-opacity:1" />
    <path
       d="m 1960.4069,12180.427 0,-600 150,0 80,30 60,60 30,50 30,120 0,80 -30,120 -30,60 -60,50 -80,30 -150,0"
       id="path598"
       inkscape:connector-curvature="0"
       style="fill:#840000;fill-opacity:0;stroke:#840000;stroke-width:60;stroke-linecap:round;stroke-linejoin:round;stroke-opacity:1" />
    <polyline
       transform="translate(-20219.593,-8089.5727)"
       points="23000,20000 22700,19460 20580,19460 20580,20000 20580,20540 22700,20540 23000,20000 "
       id="polyline602"
       style="fill:#840000;fill-opacity:0;stroke:#840000;stroke-width:100;stroke-linecap:round;stroke-linejoin:round;stroke-opacity:1" />
    <path
       d="M 2155.3399,1108.8931 H 1837.0681"
       id="path608"
       inkscape:connector-curvature="0"
       style="fill:#0000c2;fill-opacity:0;stroke:#0000c2;stroke-width:99.84200287;stroke-linecap:round;stroke-linejoin:round;stroke-opacity:1" />
    <path
       d="M 1837.0681,1648.3011 V 604.28549 h 461.4942"
       id="path610"
       inkscape:connector-curvature="0"
       style="fill:#0000c2;fill-opacity:0;stroke:#0000c2;stroke-width:99.84200287;stroke-linecap:round;stroke-linejoin:round;stroke-opacity:1" />
    <path
       d="M 3062.4149,952.29069 V 1648.3011"
       id="path612"
       inkscape:connector-curvature="0"
       style="fill:#0000c2;fill-opacity:0;stroke:#0000c2;stroke-width:99.84200287;stroke-linecap:round;stroke-linejoin:round;stroke-opacity:1" />
    <path
       d="m 2648.6615,952.29069 v 556.80841 l 47.7407,87.0013 95.4816,52.2007 h 127.3088 l 95.4816,-52.2007 47.7407,-52.2009"
       id="path614"
       inkscape:connector-curvature="0"
       style="fill:#0000c2;fill-opacity:0;stroke:#0000c2;stroke-width:99.84200287;stroke-linecap:round;stroke-linejoin:round;stroke-opacity:1" />
    <path
       d="m 3651.218,1648.3011 -95.4815,-52.2007 -47.7409,-87.0013 V 604.28549"
       id="path616"
       inkscape:connector-curvature="0"
       style="fill:#0000c2;fill-opacity:0;stroke:#0000c2;stroke-width:99.84200287;stroke-linecap:round;stroke-linejoin:round;stroke-opacity:1" />
    <path
       d="m 4144.5395,1648.3011 -95.4816,-52.2007 -47.7408,-87.0013 V 604.28549"
       id="path618"
       inkscape:connector-curvature="0"
       style="fill:#0000c2;fill-opacity:0;stroke:#0000c2;stroke-width:99.84200287;stroke-linecap:round;stroke-linejoin:round;stroke-opacity:1" />
    <path
       d="m 4415.0706,952.29069 175.0495,696.01041 175.0495,-487.2073 190.9633,487.2073 175.0495,-696.01041"
       id="path620"
       inkscape:connector-curvature="0"
       style="fill:#0000c2;fill-opacity:0;stroke:#0000c2;stroke-width:99.84200287;stroke-linecap:round;stroke-linejoin:round;stroke-opacity:1" />
    <path
       d="m 5910.9486,1648.3011 v -539.408 l -47.7407,-104.4016 -95.4816,-52.20081 h -175.0496 l -95.4816,52.20081"
       id="path622"
       inkscape:connector-curvature="0"
       style="fill:#0000c2;fill-opacity:0;stroke:#0000c2;stroke-width:99.84200287;stroke-linecap:round;stroke-linejoin:round;stroke-opacity:1" />
    <path
       d="m 5910.9486,1596.1004 -95.4816,52.2007 h -222.7903 l -95.4816,-52.2007 -47.7407,-87.0013 v -104.4016 l 47.7407,-104.4015 95.4816,-52.2009 h 222.7903 l 95.4816,-52.2007"
       id="path624"
       inkscape:connector-curvature="0"
       style="fill:#0000c2;fill-opacity:0;stroke:#0000c2;stroke-width:99.84200287;stroke-linecap:round;stroke-linejoin:round;stroke-opacity:1" />
    <path
       d="M 6276.9614,952.29069 6499.7516,1648.3011 6722.542,952.29069"
       id="path626"
       inkscape:connector-curvature="0"
       style="fill:#0000c2;fill-opacity:0;stroke:#0000c2;stroke-width:99.84200287;stroke-linecap:round;stroke-linejoin:round;stroke-opacity:1" />
    <path
       d="m 7454.5674,1596.1004 -95.4815,52.2007 h -175.0497 l -95.4815,-52.2007 -47.7408,-87.0013 v -400.206 l 47.7408,-104.4016 95.4815,-52.20081 h 175.0497 l 95.4815,52.20081 47.7408,104.4016 v 87.0013 l -461.4943,104.4016"
       id="path628"
       inkscape:connector-curvature="0"
       style="fill:#0000c2;fill-opacity:0;stroke:#0000c2;stroke-width:99.84200287;stroke-linecap:round;stroke-linejoin:round;stroke-opacity:1" />
    <path
       d="m 1000.4069,5080.4273 140,600 110,-430 120,430 140,-600"
       id="path632"
       inkscape:connector-curvature="0"
       style="fill:#840000;fill-opacity:0;stroke:#840000;stroke-width:60;stroke-linecap:round;stroke-linejoin:round;stroke-opacity:1" />
    <polyline
       transform="translate(-20219.593,-8089.5727)"
       points="22750,13500 22450,12960 20900,12960 20900,13500 20900,14040 22450,14040 22750,13500 "
       id="polyline640"
       style="fill:#840000;fill-opacity:0;stroke:#840000;stroke-width:100;stroke-linecap:round;stroke-linejoin:round;stroke-opacity:1" />
    <path
       d="m 7380.4069,8120.4273 -30,30 -90,30 -60,0 -80,-30 -60,-50 -30,-60 -30,-120 0,-80 30,-120 30,-50 60,-60 80,-30 60,0 90,30 30,30"
       id="path644"
       inkscape:connector-curvature="0"
       style="fill:#840000;fill-opacity:0;stroke:#840000;stroke-width:60;stroke-linecap:round;stroke-linejoin:round;stroke-opacity:1" />
    <path
       d="m 7630.4069,8180.4273 0,-600"
       id="path646"
       inkscape:connector-curvature="0"
       style="fill:#840000;fill-opacity:0;stroke:#840000;stroke-width:60;stroke-linecap:round;stroke-linejoin:round;stroke-opacity:1" />
    <path
       d="m 7630.4069,7870.4273 350,0"
       id="path648"
       inkscape:connector-curvature="0"
       style="fill:#840000;fill-opacity:0;stroke:#840000;stroke-width:60;stroke-linecap:round;stroke-linejoin:round;stroke-opacity:1" />
    <path
       d="m 7980.4069,8180.4273 0,-600"
       id="path650"
       inkscape:connector-curvature="0"
       style="fill:#840000;fill-opacity:0;stroke:#840000;stroke-width:60;stroke-linecap:round;stroke-linejoin:round;stroke-opacity:1" />
    <path
       d="m 8210.4069,7580.4273 370,0 -200,230 80,0 60,30 30,30 30,50 0,150 -30,50 -30,30 -60,30 -170,0 -60,-30 -20,-30"
       id="path652"
       inkscape:connector-curvature="0"
       style="fill:#840000;fill-opacity:0;stroke:#840000;stroke-width:60;stroke-linecap:round;stroke-linejoin:round;stroke-opacity:1" />
    <polyline
       transform="translate(-20219.593,-8089.5727)"
       points="26750,16000 27050,16540 29140,16540 29140,16000 29140,15460 27050,15460 26750,16000 "
       id="polyline656"
       style="fill:#840000;fill-opacity:0;stroke:#840000;stroke-width:100;stroke-linecap:round;stroke-linejoin:round;stroke-opacity:1" />
    <polyline
       transform="translate(-20219.593,-8089.5727)"
       points="25250,15750 25250,14750 "
       id="polyline662"
       style="fill:#840000;fill-opacity:0;stroke:#840000;stroke-width:60;stroke-linecap:round;stroke-linejoin:round;stroke-opacity:1" />
    <polyline
       transform="translate(-20219.593,-8089.5727)"
       style="fill:#840000;fill-opacity:1;fill-rule:evenodd;stroke:#840000;stroke-width:60;stroke-linecap:round;stroke-linejoin:round;stroke-opacity:1"
       points="24250,15750 25250,15250 24250,14750 "
       id="polyline666" />
    <path
       d="m 5030.4069,7160.4273 1000,0"
       id="path670"
       inkscape:connector-curvature="0"
       style="fill:#840000;fill-opacity:0;stroke:#840000;stroke-width:60;stroke-linecap:round;stroke-linejoin:round;stroke-opacity:1" />
    <path
       d="m 4030.4069,7160.4273 -1000,0"
       id="path672"
       inkscape:connector-curvature="0"
       style="fill:#840000;fill-opacity:0;stroke:#840000;stroke-width:60;stroke-linecap:round;stroke-linejoin:round;stroke-opacity:1" />
    <path
       d="m 6530.4069,3660.4273 -4000,0"
       id="path770"
       inkscape:connector-curvature="0"
       style="fill:#008400;fill-opacity:0;stroke:#008400;stroke-width:60;stroke-linecap:round;stroke-linejoin:round;stroke-opacity:1" />
    <path
       d="m 2530.4069,5410.4273 4000,0"
       id="path772"
       inkscape:connector-curvature="0"
       style="fill:#008400;fill-opacity:0;stroke:#008400;stroke-width:60;stroke-linecap:round;stroke-linejoin:round;stroke-opacity:1" />
    <path
       d="m 3030.4069,10160.427 -250,0"
       id="path774"
       inkscape:connector-curvature="0"
       style="fill:#008400;fill-opacity:0;stroke:#008400;stroke-width:60;stroke-linecap:round;stroke-linejoin:round;stroke-opacity:1" />
    <circle
       cx="6030.4067"
       cy="10160.428"
       r="200"
       id="circle780"
       style="fill:#008400;fill-opacity:1;stroke:#008400;stroke-width:100;stroke-linecap:round;stroke-linejoin:round;stroke-opacity:1" />
    <path
       d="m 3030.4069,11910.427 -250,0"
       id="path786"
       inkscape:connector-curvature="0"
       style="fill:#008400;fill-opacity:0;stroke:#008400;stroke-width:60;stroke-linecap:round;stroke-linejoin:round;stroke-opacity:1" />
    <path
       d="m 6030.4069,10160.427 0,1750"
       id="path788"
       inkscape:connector-curvature="0"
       style="fill:#008400;fill-opacity:0;stroke:#008400;stroke-width:60;stroke-linecap:round;stroke-linejoin:round;stroke-opacity:1" />
    <path
       d="m 6030.4069,8410.4273 0,1749.9997"
       id="path794"
       inkscape:connector-curvature="0"
       style="fill:#0000c2;fill-opacity:0;stroke:#0000c2;stroke-width:60;stroke-linecap:round;stroke-linejoin:round;stroke-dasharray:136.85, 158.425;stroke-opacity:1" />
    <path
       d="m 3030.4069,3660.4273 0,-1250"
       id="path800"
       inkscape:connector-curvature="0"
       style="fill:#008400;fill-opacity:0;stroke:#008400;stroke-width:60;stroke-linecap:round;stroke-linejoin:round;stroke-opacity:1" />
    <path
       d="m 3030.4069,2410.4273 -2999.99997,0"
       id="path802"
       inkscape:connector-curvature="0"
       style="fill:#008400;fill-opacity:0;stroke:#008400;stroke-width:60;stroke-linecap:round;stroke-linejoin:round;stroke-opacity:1" />
    <path
       d="m 30.40693,2410.4273 0,6000"
       id="path804"
       inkscape:connector-curvature="0"
       style="fill:#008400;fill-opacity:0;stroke:#008400;stroke-width:60;stroke-linecap:round;stroke-linejoin:round;stroke-opacity:1" />
    <path
       d="m 30.40693,8410.4273 2999.99997,0"
       id="path806"
       inkscape:connector-curvature="0"
       style="fill:#008400;fill-opacity:0;stroke:#008400;stroke-width:60;stroke-linecap:round;stroke-linejoin:round;stroke-opacity:1" />
    <circle
       cx="3030.407"
       cy="3660.4272"
       r="200"
       id="circle812"
       style="fill:#008400;fill-opacity:1;stroke:#008400;stroke-width:100;stroke-linecap:round;stroke-linejoin:round;stroke-opacity:1" />
    <path
       d="m 3030.4069,7160.4273 0,-1750"
       id="path818"
       inkscape:connector-curvature="0"
       style="fill:#008400;fill-opacity:0;stroke:#008400;stroke-width:60;stroke-linecap:round;stroke-linejoin:round;stroke-opacity:1" />
    <circle
       cx="3030.407"
       cy="5410.4272"
       r="200"
       id="circle824"
       style="fill:#008400;fill-opacity:1;stroke:#008400;stroke-width:100;stroke-linecap:round;stroke-linejoin:round;stroke-opacity:1" />
    <path
       d="m 6530.4069,7910.4273 -500,0"
       id="path830"
       inkscape:connector-curvature="0"
       style="fill:#008400;fill-opacity:0;stroke:#008400;stroke-width:60;stroke-linecap:round;stroke-linejoin:round;stroke-opacity:1" />
    <path
       d="m 6030.4069,7160.4273 0,1250"
       id="path832"
       inkscape:connector-curvature="0"
       style="fill:#008400;fill-opacity:0;stroke:#008400;stroke-width:60;stroke-linecap:round;stroke-linejoin:round;stroke-opacity:1" />
    <circle
       cx="6030.4067"
       cy="7910.4272"
       r="200"
       id="circle838"
       style="fill:#008400;fill-opacity:1;stroke:#008400;stroke-width:100;stroke-linecap:round;stroke-linejoin:round;stroke-opacity:1" />
    <path
       d="m 1713.9201,5142.2994 30,-30 60,-30 139.9999,0 60,30 30,30 30,60 0,50 -30,90 -339.9999,339.9999 369.9999,0"
       id="path502-3"
       inkscape:connector-curvature="0"
       style="fill:#840000;fill-opacity:0;stroke:#840000;stroke-width:59.99998856;stroke-linecap:round;stroke-linejoin:round;stroke-opacity:1" />
  </g>
</svg>
