<?xml version="1.0" encoding="UTF-8" standalone="no"?>
<svg
   xmlns:dc="http://purl.org/dc/elements/1.1/"
   xmlns:cc="http://creativecommons.org/ns#"
   xmlns:rdf="http://www.w3.org/1999/02/22-rdf-syntax-ns#"
   xmlns:svg="http://www.w3.org/2000/svg"
   xmlns="http://www.w3.org/2000/svg"
   xmlns:sodipodi="http://sodipodi.sourceforge.net/DTD/sodipodi-0.dtd"
   xmlns:inkscape="http://www.inkscape.org/namespaces/inkscape"
   version="1.1"
   width="2.278486cm"
   height="3.2542071cm"
   viewBox="0 0 8970.4237 12811.851"
   id="svg2"
   inkscape:version="0.91 r13725"
   sodipodi:docname="fullwave.svg">
  <metadata
     id="metadata1078">
    <rdf:RDF>
      <cc:Work
         rdf:about="">
        <dc:format>image/svg+xml</dc:format>
        <dc:type
           rdf:resource="http://purl.org/dc/dcmitype/StillImage" />
        <dc:title>SVG Picture created as diodes.sch.svg date 2016/06/16 13:12:25 </dc:title>
      </cc:Work>
    </rdf:RDF>
  </metadata>
  <defs
     id="defs1076" />
  <sodipodi:namedview
     pagecolor="#ffffff"
     bordercolor="#666666"
     borderopacity="1"
     objecttolerance="10"
     gridtolerance="10"
     guidetolerance="10"
     inkscape:pageopacity="0"
     inkscape:pageshadow="2"
     inkscape:window-width="1855"
     inkscape:window-height="1056"
     id="namedview1074"
     showgrid="false"
     fit-margin-top="0"
     fit-margin-left="0"
     fit-margin-right="0"
     fit-margin-bottom="0"
     inkscape:zoom="4.5155252"
     inkscape:cx="35.215191"
     inkscape:cy="21.055182"
     inkscape:window-x="65"
     inkscape:window-y="24"
     inkscape:window-maximized="1"
     inkscape:current-layer="svg2" />
  <title
     id="title4">SVG Picture created as diodes.sch.svg date 2016/06/16 13:12:25 </title>
  <desc
     id="desc6">Picture generated by Eeschema-SVG </desc>
  <path
     style="fill:#840000;fill-opacity:0;stroke:#840000;stroke-width:60;stroke-linecap:round;stroke-linejoin:round;stroke-opacity:1"
     inkscape:connector-curvature="0"
     id="path464"
     d="m 1000.4069,3330.4273 140,600 110,-430 120,430 140,-600" />
  <path
     style="fill:#840000;fill-opacity:0;stroke:#840000;stroke-width:60;stroke-linecap:round;stroke-linejoin:round;stroke-opacity:1"
     inkscape:connector-curvature="0"
     id="path466"
     d="m 2060.4069,3930.4273 -350,0" />
  <path
     style="fill:#840000;fill-opacity:0;stroke:#840000;stroke-width:60;stroke-linecap:round;stroke-linejoin:round;stroke-opacity:1"
     inkscape:connector-curvature="0"
     id="path468"
     d="m 1890.4069,3930.4273 0,-600 -60,90 -60,50 -60,30" />
  <polyline
     style="fill:#840000;fill-opacity:0;stroke:#840000;stroke-width:100;stroke-linecap:round;stroke-linejoin:round;stroke-opacity:1"
     id="polyline472"
     points="22750,11750 22450,11210 20900,11210 20900,11750 20900,12290 22450,12290 22750,11750 "
     transform="translate(-20219.593,-8089.5727)" />
  <path
     style="fill:#840000;fill-opacity:0;stroke:#840000;stroke-width:60;stroke-linecap:round;stroke-linejoin:round;stroke-opacity:1"
     inkscape:connector-curvature="0"
     id="path476"
     d="m 7380.4069,3870.4273 -30,30 -90,30 -60,0 -80,-30 -60,-50 -30,-60 -30,-120 0,-80 30,-120 30,-50 60,-60 80,-30 60,0 90,30 30,30" />
  <path
     style="fill:#840000;fill-opacity:0;stroke:#840000;stroke-width:60;stroke-linecap:round;stroke-linejoin:round;stroke-opacity:1"
     inkscape:connector-curvature="0"
     id="path478"
     d="m 7630.4069,3930.4273 0,-600" />
  <path
     style="fill:#840000;fill-opacity:0;stroke:#840000;stroke-width:60;stroke-linecap:round;stroke-linejoin:round;stroke-opacity:1"
     inkscape:connector-curvature="0"
     id="path480"
     d="m 7630.4069,3620.4273 350,0" />
  <path
     style="fill:#840000;fill-opacity:0;stroke:#840000;stroke-width:60;stroke-linecap:round;stroke-linejoin:round;stroke-opacity:1"
     inkscape:connector-curvature="0"
     id="path482"
     d="m 7980.4069,3930.4273 0,-600" />
  <path
     style="fill:#840000;fill-opacity:0;stroke:#840000;stroke-width:60;stroke-linecap:round;stroke-linejoin:round;stroke-opacity:1"
     inkscape:connector-curvature="0"
     id="path484"
     d="m 8580.4069,3930.4273 -350,0" />
  <path
     style="fill:#840000;fill-opacity:0;stroke:#840000;stroke-width:60;stroke-linecap:round;stroke-linejoin:round;stroke-opacity:1"
     inkscape:connector-curvature="0"
     id="path486"
     d="m 8410.4069,3930.4273 0,-600 -60,90 -60,50 -60,30" />
  <polyline
     style="fill:#840000;fill-opacity:0;stroke:#840000;stroke-width:100;stroke-linecap:round;stroke-linejoin:round;stroke-opacity:1"
     id="polyline490"
     points="26750,11750 27050,12290 29140,12290 29140,11750 29140,11210 27050,11210 26750,11750 "
     transform="translate(-20219.593,-8089.5727)" />
  <path
     style="fill:#840000;fill-opacity:0;stroke:#840000;stroke-width:60;stroke-linecap:round;stroke-linejoin:round;stroke-opacity:1"
     inkscape:connector-curvature="0"
     id="path494"
     d="m 7380.4069,5620.4273 -30,30 -90,30 -60,0 -80,-30 -60,-50 -30,-60 -30,-120 0,-80 30,-120 30,-50 60,-60 80,-30 60,0 90,30 30,30" />
  <path
     style="fill:#840000;fill-opacity:0;stroke:#840000;stroke-width:60;stroke-linecap:round;stroke-linejoin:round;stroke-opacity:1"
     inkscape:connector-curvature="0"
     id="path496"
     d="m 7630.4069,5680.4273 0,-600" />
  <path
     style="fill:#840000;fill-opacity:0;stroke:#840000;stroke-width:60;stroke-linecap:round;stroke-linejoin:round;stroke-opacity:1"
     inkscape:connector-curvature="0"
     id="path498"
     d="m 7630.4069,5370.4273 350,0" />
  <path
     style="fill:#840000;fill-opacity:0;stroke:#840000;stroke-width:60;stroke-linecap:round;stroke-linejoin:round;stroke-opacity:1"
     inkscape:connector-curvature="0"
     id="path500"
     d="m 7980.4069,5680.4273 0,-600" />
  <path
     style="fill:#840000;fill-opacity:0;stroke:#840000;stroke-width:60;stroke-linecap:round;stroke-linejoin:round;stroke-opacity:1"
     inkscape:connector-curvature="0"
     id="path502"
     d="m 8230.4069,5140.4273 30,-30 60,-30 140,0 60,30 30,30 30,60 0,50 -30,90 -340,340 370,0" />
  <polyline
     style="fill:#840000;fill-opacity:0;stroke:#840000;stroke-width:100;stroke-linecap:round;stroke-linejoin:round;stroke-opacity:1"
     id="polyline506"
     points="26750,13500 27050,14040 29140,14040 29140,13500 29140,12960 27050,12960 26750,13500 "
     transform="translate(-20219.593,-8089.5727)" />
  <polyline
     style="fill:#840000;fill-opacity:0;stroke:#840000;stroke-width:60;stroke-linecap:round;stroke-linejoin:round;stroke-opacity:1"
     id="polyline512"
     points="25250,17000 25250,16000 "
     transform="translate(-20219.593,-8089.5727)" />
  <polyline
     id="polyline516"
     points="24250,17000 25250,16500 24250,16000 "
     style="fill:#840000;fill-opacity:1;fill-rule:evenodd;stroke:#840000;stroke-width:60;stroke-linecap:round;stroke-linejoin:round;stroke-opacity:1"
     transform="translate(-20219.593,-8089.5727)" />
  <path
     style="fill:#840000;fill-opacity:0;stroke:#840000;stroke-width:60;stroke-linecap:round;stroke-linejoin:round;stroke-opacity:1"
     inkscape:connector-curvature="0"
     id="path520"
     d="m 5030.4069,8410.4273 1000,0" />
  <path
     style="fill:#840000;fill-opacity:0;stroke:#840000;stroke-width:60;stroke-linecap:round;stroke-linejoin:round;stroke-opacity:1"
     inkscape:connector-curvature="0"
     id="path522"
     d="m 4030.4069,8410.4273 -1000,0" />
  <rect
     style="fill:#840000;fill-opacity:0;stroke:#840000;stroke-width:100;stroke-linecap:round;stroke-linejoin:round;stroke-opacity:1"
     id="rect528"
     rx="0"
     height="800"
     width="2000"
     y="9760.4277"
     x="3530.407" />
  <path
     style="fill:#840000;fill-opacity:0;stroke:#840000;stroke-width:60;stroke-linecap:round;stroke-linejoin:round;stroke-opacity:1"
     inkscape:connector-curvature="0"
     id="path532"
     d="m 5530.4069,10160.427 500,0" />
  <path
     style="fill:#840000;fill-opacity:0;stroke:#840000;stroke-width:60;stroke-linecap:round;stroke-linejoin:round;stroke-opacity:1"
     inkscape:connector-curvature="0"
     id="path534"
     d="m 3530.4069,10160.427 -500,0" />
  <path
     style="fill:#008484;fill-opacity:0;stroke:#008484;stroke-width:60;stroke-linecap:round;stroke-linejoin:round;stroke-opacity:1"
     inkscape:connector-curvature="0"
     id="path538"
     d="m 4180.4069,10360.427 -280,0" />
  <path
     style="fill:#008484;fill-opacity:0;stroke:#008484;stroke-width:60;stroke-linecap:round;stroke-linejoin:round;stroke-opacity:1"
     inkscape:connector-curvature="0"
     id="path540"
     d="m 4040.4069,10360.427 0,-499.9997 -50,70 -50,50 -40,19.9997" />
  <path
     style="fill:#008484;fill-opacity:0;stroke:#008484;stroke-width:60;stroke-linecap:round;stroke-linejoin:round;stroke-opacity:1"
     inkscape:connector-curvature="0"
     id="path542"
     d="m 4490.4069,9860.4273 50,0 50,20 20,20 30,50 20,99.9997 0,120 -20,90 -30,50 -20,20 -50,30 -50,0 -40,-30 -30,-20 -20,-50 -20,-90 0,-120 20,-99.9997 20,-50 30,-20 40,-20" />
  <path
     style="fill:#008484;fill-opacity:0;stroke:#008484;stroke-width:60;stroke-linecap:round;stroke-linejoin:round;stroke-opacity:1"
     inkscape:connector-curvature="0"
     id="path544"
     d="m 4880.4069,10360.427 0,-499.9997" />
  <path
     style="fill:#008484;fill-opacity:0;stroke:#008484;stroke-width:60;stroke-linecap:round;stroke-linejoin:round;stroke-opacity:1"
     inkscape:connector-curvature="0"
     id="path546"
     d="m 5160.4069,10360.427 -210,-290" />
  <path
     style="fill:#008484;fill-opacity:0;stroke:#008484;stroke-width:60;stroke-linecap:round;stroke-linejoin:round;stroke-opacity:1"
     inkscape:connector-curvature="0"
     id="path548"
     d="m 5160.4069,9860.4273 -280,279.9997" />
  <polyline
     style="fill:#840000;fill-opacity:0;stroke:#840000;stroke-width:200;stroke-linecap:round;stroke-linejoin:round;stroke-opacity:1"
     id="polyline556"
     points="24450,19200 24450,20800 "
     transform="translate(-20219.593,-8089.5727)" />
  <polyline
     style="fill:#840000;fill-opacity:0;stroke:#840000;stroke-width:200;stroke-linecap:round;stroke-linejoin:round;stroke-opacity:1"
     id="polyline558"
     points="25050,19200 25050,20800 "
     transform="translate(-20219.593,-8089.5727)" />
  <path
     style="fill:#840000;fill-opacity:0;stroke:#840000;stroke-width:60;stroke-linecap:round;stroke-linejoin:round;stroke-opacity:1"
     inkscape:connector-curvature="0"
     id="path562"
     d="m 4930.4069,11910.427 1100,0" />
  <path
     style="fill:#840000;fill-opacity:0;stroke:#840000;stroke-width:60;stroke-linecap:round;stroke-linejoin:round;stroke-opacity:1"
     inkscape:connector-curvature="0"
     id="path564"
     d="m 4130.4069,11910.427 -1100,0" />
  <path
     style="fill:#008484;fill-opacity:0;stroke:#008484;stroke-width:60;stroke-linecap:round;stroke-linejoin:round;stroke-opacity:1"
     inkscape:connector-curvature="0"
     id="path568"
     d="m 5410.4069,12610.427 -280,0" />
  <path
     style="fill:#008484;fill-opacity:0;stroke:#008484;stroke-width:60;stroke-linecap:round;stroke-linejoin:round;stroke-opacity:1"
     inkscape:connector-curvature="0"
     id="path570"
     d="m 5270.4069,12610.427 0,-500 -50,70 -50,50 -40,20" />
  <path
     style="fill:#008484;fill-opacity:0;stroke:#008484;stroke-width:60;stroke-linecap:round;stroke-linejoin:round;stroke-opacity:1"
     inkscape:connector-curvature="0"
     id="path572"
     d="m 5840.4069,12270.427 0,340" />
  <path
     style="fill:#008484;fill-opacity:0;stroke:#008484;stroke-width:60;stroke-linecap:round;stroke-linejoin:round;stroke-opacity:1"
     inkscape:connector-curvature="0"
     id="path574"
     d="m 5630.4069,12270.427 0,260 20,50 50,30 70,0 50,-30 20,-20" />
  <path
     style="fill:#008484;fill-opacity:0;stroke:#008484;stroke-width:60;stroke-linecap:round;stroke-linejoin:round;stroke-opacity:1"
     inkscape:connector-curvature="0"
     id="path576"
     d="m 6250.4069,12340.427 -170,0" />
  <path
     style="fill:#008484;fill-opacity:0;stroke:#008484;stroke-width:60;stroke-linecap:round;stroke-linejoin:round;stroke-opacity:1"
     inkscape:connector-curvature="0"
     id="path578"
     d="m 6080.4069,12610.427 0,-500 240,0" />
  <path
     style="fill:#840000;fill-opacity:0;stroke:#840000;stroke-width:60;stroke-linecap:round;stroke-linejoin:round;stroke-opacity:1"
     inkscape:connector-curvature="0"
     id="path582"
     d="m 1050.4069,9860.4273 -59.99997,-30 -90,0 -80,30 -60,60 -30,50 -30,119.9997 0,80 30,120 30,60 60,50 80,30 60,0 89.99997,-30 30,-30 0,-200 -119.99997,0" />
  <path
     style="fill:#840000;fill-opacity:0;stroke:#840000;stroke-width:60;stroke-linecap:round;stroke-linejoin:round;stroke-opacity:1"
     inkscape:connector-curvature="0"
     id="path584"
     d="m 1330.4069,10430.427 0,-599.9997 350,599.9997 0,-599.9997" />
  <path
     style="fill:#840000;fill-opacity:0;stroke:#840000;stroke-width:60;stroke-linecap:round;stroke-linejoin:round;stroke-opacity:1"
     inkscape:connector-curvature="0"
     id="path586"
     d="m 1960.4069,10430.427 0,-599.9997 150,0 80,30 60,60 30,50 30,119.9997 0,80 -30,120 -30,60 -60,50 -80,30 -150,0" />
  <polyline
     style="fill:#840000;fill-opacity:0;stroke:#840000;stroke-width:100;stroke-linecap:round;stroke-linejoin:round;stroke-opacity:1"
     id="polyline590"
     points="23000,18250 22700,17710 20580,17710 20580,18250 20580,18790 22700,18790 23000,18250 "
     transform="translate(-20219.593,-8089.5727)" />
  <path
     style="fill:#840000;fill-opacity:0;stroke:#840000;stroke-width:60;stroke-linecap:round;stroke-linejoin:round;stroke-opacity:1"
     inkscape:connector-curvature="0"
     id="path594"
     d="m 1050.4069,11610.427 -59.99997,-30 -90,0 -80,30 -60,60 -30,50 -30,120 0,80 30,120 30,60 60,50 80,30 60,0 89.99997,-30 30,-30 0,-200 -119.99997,0" />
  <path
     style="fill:#840000;fill-opacity:0;stroke:#840000;stroke-width:60;stroke-linecap:round;stroke-linejoin:round;stroke-opacity:1"
     inkscape:connector-curvature="0"
     id="path596"
     d="m 1330.4069,12180.427 0,-600 350,600 0,-600" />
  <path
     style="fill:#840000;fill-opacity:0;stroke:#840000;stroke-width:60;stroke-linecap:round;stroke-linejoin:round;stroke-opacity:1"
     inkscape:connector-curvature="0"
     id="path598"
     d="m 1960.4069,12180.427 0,-600 150,0 80,30 60,60 30,50 30,120 0,80 -30,120 -30,60 -60,50 -80,30 -150,0" />
  <polyline
     style="fill:#840000;fill-opacity:0;stroke:#840000;stroke-width:100;stroke-linecap:round;stroke-linejoin:round;stroke-opacity:1"
     id="polyline602"
     points="23000,20000 22700,19460 20580,19460 20580,20000 20580,20540 22700,20540 23000,20000 "
     transform="translate(-20219.593,-8089.5727)" />
  <path
     style="fill:#0000c2;fill-opacity:0;stroke:#0000c2;stroke-width:60;stroke-linecap:round;stroke-linejoin:round;stroke-opacity:1"
     inkscape:connector-curvature="0"
     id="path608"
     d="m 2870.4069,320.42727 -200,0" />
  <path
     style="fill:#0000c2;fill-opacity:0;stroke:#0000c2;stroke-width:60;stroke-linecap:round;stroke-linejoin:round;stroke-opacity:1"
     inkscape:connector-curvature="0"
     id="path610"
     d="m 2670.4069,630.42727 0,-599.999995 290,0" />
  <path
     style="fill:#0000c2;fill-opacity:0;stroke:#0000c2;stroke-width:60;stroke-linecap:round;stroke-linejoin:round;stroke-opacity:1"
     inkscape:connector-curvature="0"
     id="path612"
     d="m 3440.4069,230.42727 0,400" />
  <path
     style="fill:#0000c2;fill-opacity:0;stroke:#0000c2;stroke-width:60;stroke-linecap:round;stroke-linejoin:round;stroke-opacity:1"
     inkscape:connector-curvature="0"
     id="path614"
     d="m 3180.4069,230.42727 0,320 30,50 60,30 80,0 60,-30 30,-30" />
  <path
     style="fill:#0000c2;fill-opacity:0;stroke:#0000c2;stroke-width:60;stroke-linecap:round;stroke-linejoin:round;stroke-opacity:1"
     inkscape:connector-curvature="0"
     id="path616"
     d="m 3810.4069,630.42727 -60,-30 -30,-50 0,-519.999995" />
  <path
     style="fill:#0000c2;fill-opacity:0;stroke:#0000c2;stroke-width:60;stroke-linecap:round;stroke-linejoin:round;stroke-opacity:1"
     inkscape:connector-curvature="0"
     id="path618"
     d="m 4120.4069,630.42727 -60,-30 -30,-50 0,-519.999995" />
  <path
     style="fill:#0000c2;fill-opacity:0;stroke:#0000c2;stroke-width:60;stroke-linecap:round;stroke-linejoin:round;stroke-opacity:1"
     inkscape:connector-curvature="0"
     id="path620"
     d="m 4290.4069,230.42727 110,400 110,-280 120,280 110,-400" />
  <path
     style="fill:#0000c2;fill-opacity:0;stroke:#0000c2;stroke-width:60;stroke-linecap:round;stroke-linejoin:round;stroke-opacity:1"
     inkscape:connector-curvature="0"
     id="path622"
     d="m 5230.4069,630.42727 0,-310 -30,-60 -60,-30 -110,0 -60,30" />
  <path
     style="fill:#0000c2;fill-opacity:0;stroke:#0000c2;stroke-width:60;stroke-linecap:round;stroke-linejoin:round;stroke-opacity:1"
     inkscape:connector-curvature="0"
     id="path624"
     d="m 5230.4069,600.42727 -60,30 -140,0 -60,-30 -30,-50 0,-60 30,-60 60,-30 140,0 60,-30" />
  <path
     style="fill:#0000c2;fill-opacity:0;stroke:#0000c2;stroke-width:60;stroke-linecap:round;stroke-linejoin:round;stroke-opacity:1"
     inkscape:connector-curvature="0"
     id="path626"
     d="m 5460.4069,230.42727 140,400 140,-400" />
  <path
     style="fill:#0000c2;fill-opacity:0;stroke:#0000c2;stroke-width:60;stroke-linecap:round;stroke-linejoin:round;stroke-opacity:1"
     inkscape:connector-curvature="0"
     id="path628"
     d="m 6200.4069,600.42727 -60,30 -110,0 -60,-30 -30,-50 0,-230 30,-60 60,-30 110,0 60,30 30,60 0,50 -290,60" />
  <path
     style="fill:#840000;fill-opacity:0;stroke:#840000;stroke-width:60;stroke-linecap:round;stroke-linejoin:round;stroke-opacity:1"
     inkscape:connector-curvature="0"
     id="path632"
     d="m 1000.4069,5080.4273 140,600 110,-430 120,430 140,-600" />
  <polyline
     style="fill:#840000;fill-opacity:0;stroke:#840000;stroke-width:100;stroke-linecap:round;stroke-linejoin:round;stroke-opacity:1"
     id="polyline640"
     points="22750,13500 22450,12960 20900,12960 20900,13500 20900,14040 22450,14040 22750,13500 "
     transform="translate(-20219.593,-8089.5727)" />
  <path
     style="fill:#840000;fill-opacity:0;stroke:#840000;stroke-width:60;stroke-linecap:round;stroke-linejoin:round;stroke-opacity:1"
     inkscape:connector-curvature="0"
     id="path644"
     d="m 7380.4069,8120.4273 -30,30 -90,30 -60,0 -80,-30 -60,-50 -30,-60 -30,-120 0,-80 30,-120 30,-50 60,-60 80,-30 60,0 90,30 30,30" />
  <path
     style="fill:#840000;fill-opacity:0;stroke:#840000;stroke-width:60;stroke-linecap:round;stroke-linejoin:round;stroke-opacity:1"
     inkscape:connector-curvature="0"
     id="path646"
     d="m 7630.4069,8180.4273 0,-600" />
  <path
     style="fill:#840000;fill-opacity:0;stroke:#840000;stroke-width:60;stroke-linecap:round;stroke-linejoin:round;stroke-opacity:1"
     inkscape:connector-curvature="0"
     id="path648"
     d="m 7630.4069,7870.4273 350,0" />
  <path
     style="fill:#840000;fill-opacity:0;stroke:#840000;stroke-width:60;stroke-linecap:round;stroke-linejoin:round;stroke-opacity:1"
     inkscape:connector-curvature="0"
     id="path650"
     d="m 7980.4069,8180.4273 0,-600" />
  <path
     style="fill:#840000;fill-opacity:0;stroke:#840000;stroke-width:60;stroke-linecap:round;stroke-linejoin:round;stroke-opacity:1"
     inkscape:connector-curvature="0"
     id="path652"
     d="m 8210.4069,7580.4273 370,0 -200,230 80,0 60,30 30,30 30,50 0,150 -30,50 -30,30 -60,30 -170,0 -60,-30 -20,-30" />
  <polyline
     style="fill:#840000;fill-opacity:0;stroke:#840000;stroke-width:100;stroke-linecap:round;stroke-linejoin:round;stroke-opacity:1"
     id="polyline656"
     points="26750,16000 27050,16540 29140,16540 29140,16000 29140,15460 27050,15460 26750,16000 "
     transform="translate(-20219.593,-8089.5727)" />
  <polyline
     style="fill:#840000;fill-opacity:0;stroke:#840000;stroke-width:60;stroke-linecap:round;stroke-linejoin:round;stroke-opacity:1"
     id="polyline662"
     points="25250,15750 25250,14750 "
     transform="translate(-20219.593,-8089.5727)" />
  <polyline
     id="polyline666"
     points="24250,15750 25250,15250 24250,14750 "
     style="fill:#840000;fill-opacity:1;fill-rule:evenodd;stroke:#840000;stroke-width:60;stroke-linecap:round;stroke-linejoin:round;stroke-opacity:1"
     transform="translate(-20219.593,-8089.5727)" />
  <path
     style="fill:#840000;fill-opacity:0;stroke:#840000;stroke-width:60;stroke-linecap:round;stroke-linejoin:round;stroke-opacity:1"
     inkscape:connector-curvature="0"
     id="path670"
     d="m 5030.4069,7160.4273 1000,0" />
  <path
     style="fill:#840000;fill-opacity:0;stroke:#840000;stroke-width:60;stroke-linecap:round;stroke-linejoin:round;stroke-opacity:1"
     inkscape:connector-curvature="0"
     id="path672"
     d="m 4030.4069,7160.4273 -1000,0" />
  <path
     style="fill:#008400;fill-opacity:0;stroke:#008400;stroke-width:60;stroke-linecap:round;stroke-linejoin:round;stroke-opacity:1"
     inkscape:connector-curvature="0"
     id="path770"
     d="m 6530.4069,3660.4273 -4000,0" />
  <path
     style="fill:#008400;fill-opacity:0;stroke:#008400;stroke-width:60;stroke-linecap:round;stroke-linejoin:round;stroke-opacity:1"
     inkscape:connector-curvature="0"
     id="path772"
     d="m 2530.4069,5410.4273 4000,0" />
  <path
     style="fill:#008400;fill-opacity:0;stroke:#008400;stroke-width:60;stroke-linecap:round;stroke-linejoin:round;stroke-opacity:1"
     inkscape:connector-curvature="0"
     id="path774"
     d="m 3030.4069,10160.427 -250,0" />
  <circle
     style="fill:#008400;fill-opacity:1;stroke:#008400;stroke-width:100;stroke-linecap:round;stroke-linejoin:round;stroke-opacity:1"
     id="circle780"
     r="200"
     cy="10160.428"
     cx="6030.4067" />
  <path
     style="fill:#008400;fill-opacity:0;stroke:#008400;stroke-width:60;stroke-linecap:round;stroke-linejoin:round;stroke-opacity:1"
     inkscape:connector-curvature="0"
     id="path786"
     d="m 3030.4069,11910.427 -250,0" />
  <path
     style="fill:#008400;fill-opacity:0;stroke:#008400;stroke-width:60;stroke-linecap:round;stroke-linejoin:round;stroke-opacity:1"
     inkscape:connector-curvature="0"
     id="path788"
     d="m 6030.4069,10160.427 0,1750" />
  <path
     style="fill:#0000c2;fill-opacity:0;stroke:#0000c2;stroke-width:60;stroke-linecap:round;stroke-linejoin:round;stroke-dasharray:136.85, 158.425;stroke-opacity:1"
     inkscape:connector-curvature="0"
     id="path794"
     d="m 6030.4069,8410.4273 0,1749.9997" />
  <path
     style="fill:#008400;fill-opacity:0;stroke:#008400;stroke-width:60;stroke-linecap:round;stroke-linejoin:round;stroke-opacity:1"
     inkscape:connector-curvature="0"
     id="path800"
     d="m 3030.4069,3660.4273 0,-1250" />
  <path
     style="fill:#008400;fill-opacity:0;stroke:#008400;stroke-width:60;stroke-linecap:round;stroke-linejoin:round;stroke-opacity:1"
     inkscape:connector-curvature="0"
     id="path802"
     d="m 3030.4069,2410.4273 -2999.99997,0" />
  <path
     style="fill:#008400;fill-opacity:0;stroke:#008400;stroke-width:60;stroke-linecap:round;stroke-linejoin:round;stroke-opacity:1"
     inkscape:connector-curvature="0"
     id="path804"
     d="m 30.40693,2410.4273 0,6000" />
  <path
     style="fill:#008400;fill-opacity:0;stroke:#008400;stroke-width:60;stroke-linecap:round;stroke-linejoin:round;stroke-opacity:1"
     inkscape:connector-curvature="0"
     id="path806"
     d="m 30.40693,8410.4273 2999.99997,0" />
  <circle
     style="fill:#008400;fill-opacity:1;stroke:#008400;stroke-width:100;stroke-linecap:round;stroke-linejoin:round;stroke-opacity:1"
     id="circle812"
     r="200"
     cy="3660.4272"
     cx="3030.407" />
  <path
     style="fill:#008400;fill-opacity:0;stroke:#008400;stroke-width:60;stroke-linecap:round;stroke-linejoin:round;stroke-opacity:1"
     inkscape:connector-curvature="0"
     id="path818"
     d="m 3030.4069,7160.4273 0,-1750" />
  <circle
     style="fill:#008400;fill-opacity:1;stroke:#008400;stroke-width:100;stroke-linecap:round;stroke-linejoin:round;stroke-opacity:1"
     id="circle824"
     r="200"
     cy="5410.4272"
     cx="3030.407" />
  <path
     style="fill:#008400;fill-opacity:0;stroke:#008400;stroke-width:60;stroke-linecap:round;stroke-linejoin:round;stroke-opacity:1"
     inkscape:connector-curvature="0"
     id="path830"
     d="m 6530.4069,7910.4273 -500,0" />
  <path
     style="fill:#008400;fill-opacity:0;stroke:#008400;stroke-width:60;stroke-linecap:round;stroke-linejoin:round;stroke-opacity:1"
     inkscape:connector-curvature="0"
     id="path832"
     d="m 6030.4069,7160.4273 0,1250" />
  <circle
     style="fill:#008400;fill-opacity:1;stroke:#008400;stroke-width:100;stroke-linecap:round;stroke-linejoin:round;stroke-opacity:1"
     id="circle838"
     r="200"
     cy="7910.4272"
     cx="6030.4067" />
  <path
     style="fill:#840000;fill-opacity:0;stroke:#840000;stroke-width:59.99998856;stroke-linecap:round;stroke-linejoin:round;stroke-opacity:1"
     inkscape:connector-curvature="0"
     id="path502-3"
     d="m 1713.9201,5142.2994 30,-30 60,-30 139.9999,0 60,30 30,30 30,60 0,50 -30,90 -339.9999,339.9999 369.9999,0" />
</svg>
