<?xml version="1.0" encoding="UTF-8" standalone="no"?>
<svg
   xmlns:dc="http://purl.org/dc/elements/1.1/"
   xmlns:cc="http://creativecommons.org/ns#"
   xmlns:rdf="http://www.w3.org/1999/02/22-rdf-syntax-ns#"
   xmlns:svg="http://www.w3.org/2000/svg"
   xmlns="http://www.w3.org/2000/svg"
   xmlns:sodipodi="http://sodipodi.sourceforge.net/DTD/sodipodi-0.dtd"
   xmlns:inkscape="http://www.inkscape.org/namespaces/inkscape"
   version="1.1"
   width="3.2249455cm"
   height="2.4913173cm"
   viewBox="0 0 12696.645 9808.3451"
   id="svg2"
   inkscape:version="0.91 r13725"
   sodipodi:docname="halfwave.svg">
  <metadata
     id="metadata776">
    <rdf:RDF>
      <cc:Work
         rdf:about="">
        <dc:format>image/svg+xml</dc:format>
        <dc:type
           rdf:resource="http://purl.org/dc/dcmitype/StillImage" />
        <dc:title>SVG Picture created as halfwave.sch.svg date 2016/06/11 19:53:58 </dc:title>
      </cc:Work>
    </rdf:RDF>
  </metadata>
  <defs
     id="defs774" />
  <sodipodi:namedview
     pagecolor="#ffffff"
     bordercolor="#666666"
     borderopacity="1"
     objecttolerance="10"
     gridtolerance="10"
     guidetolerance="10"
     inkscape:pageopacity="0"
     inkscape:pageshadow="2"
     inkscape:window-width="1397"
     inkscape:window-height="760"
     id="namedview772"
     showgrid="false"
     fit-margin-top="0"
     fit-margin-left="0"
     fit-margin-right="0"
     fit-margin-bottom="0"
     inkscape:zoom="0.56444065"
     inkscape:cx="39.77568"
     inkscape:cy="-87.1126"
     inkscape:window-x="168"
     inkscape:window-y="90"
     inkscape:window-maximized="0"
     inkscape:current-layer="svg2"
     showguides="true"
     inkscape:guide-bbox="true" />
  <title
     id="title4">SVG Picture created as halfwave.sch.svg date 2016/06/11 19:53:58 </title>
  <desc
     id="desc6">Picture generated by Eeschema-SVG </desc>
  <g
     style="fill:#000000;fill-opacity:1;stroke:#000000;stroke-linecap:round;stroke-linejoin:round;stroke-opacity:1"
     id="g8"
     transform="translate(-23439.478,-20131.569)" />
  <g
     style="fill:#000000;fill-opacity:0;stroke:#000000;stroke-width:-10;stroke-linecap:round;stroke-linejoin:round;stroke-opacity:1"
     id="g10"
     transform="translate(-23439.478,-20131.569)" />
  <g
     style="fill:#840000;fill-opacity:0;stroke:#840000;stroke-width:-10;stroke-linecap:round;stroke-linejoin:round;stroke-opacity:1"
     id="g12"
     transform="translate(-23439.478,-20131.569)" />
  <g
     style="fill:#840000;fill-opacity:0;stroke:#840000;stroke-width:100;stroke-linecap:round;stroke-linejoin:round;stroke-opacity:1"
     id="g14"
     transform="translate(-23439.478,-20131.569)" />
  <g
     style="fill:#840000;fill-opacity:0;stroke:#840000;stroke-width:100;stroke-linecap:round;stroke-linejoin:round;stroke-opacity:1"
     id="g20"
     transform="translate(-23439.478,-20131.569)" />
  <g
     style="fill:#840000;fill-opacity:0;stroke:#840000;stroke-width:100;stroke-linecap:round;stroke-linejoin:round;stroke-opacity:1"
     id="g26"
     transform="translate(-23439.478,-20131.569)" />
  <g
     style="fill:#840000;fill-opacity:0;stroke:#840000;stroke-width:100;stroke-linecap:round;stroke-linejoin:round;stroke-opacity:1"
     id="g32"
     transform="translate(-23439.478,-20131.569)" />
  <g
     style="fill:#840000;fill-opacity:0;stroke:#840000;stroke-width:100;stroke-linecap:round;stroke-linejoin:round;stroke-opacity:1"
     id="g38"
     transform="translate(-23439.478,-20131.569)" />
  <g
     style="fill:#840000;fill-opacity:0;stroke:#840000;stroke-width:100;stroke-linecap:round;stroke-linejoin:round;stroke-opacity:1"
     id="g44"
     transform="translate(-23439.478,-20131.569)" />
  <g
     style="fill:#840000;fill-opacity:0;stroke:#840000;stroke-width:100;stroke-linecap:round;stroke-linejoin:round;stroke-opacity:1"
     id="g50"
     transform="translate(-23439.478,-20131.569)" />
  <g
     style="fill:#840000;fill-opacity:0;stroke:#840000;stroke-width:100;stroke-linecap:round;stroke-linejoin:round;stroke-opacity:1"
     id="g56"
     transform="translate(-23439.478,-20131.569)" />
  <g
     style="fill:#840000;fill-opacity:0;stroke:#840000;stroke-width:100;stroke-linecap:round;stroke-linejoin:round;stroke-opacity:1"
     id="g62"
     transform="translate(-23439.478,-20131.569)" />
  <g
     style="fill:#840000;fill-opacity:0;stroke:#840000;stroke-width:100;stroke-linecap:round;stroke-linejoin:round;stroke-opacity:1"
     id="g70"
     transform="translate(-23439.478,-20131.569)" />
  <g
     style="fill:#840000;fill-opacity:0;stroke:#840000;stroke-width:100;stroke-linecap:round;stroke-linejoin:round;stroke-opacity:1"
     id="g76"
     transform="translate(-23439.478,-20131.569)" />
  <g
     style="fill:#840000;fill-opacity:0;stroke:#840000;stroke-width:100;stroke-linecap:round;stroke-linejoin:round;stroke-opacity:1"
     id="g82"
     transform="translate(-23439.478,-20131.569)" />
  <g
     style="fill:#840000;fill-opacity:0;stroke:#840000;stroke-width:100;stroke-linecap:round;stroke-linejoin:round;stroke-opacity:1"
     id="g90"
     transform="translate(-23439.478,-20131.569)" />
  <g
     style="fill:#840000;fill-opacity:0;stroke:#840000;stroke-width:100;stroke-linecap:round;stroke-linejoin:round;stroke-opacity:1"
     id="g96"
     transform="translate(-23439.478,-20131.569)" />
  <g
     style="fill:#840000;fill-opacity:0;stroke:#840000;stroke-width:100;stroke-linecap:round;stroke-linejoin:round;stroke-opacity:1"
     id="g102"
     transform="translate(-23439.478,-20131.569)" />
  <g
     style="fill:#840000;fill-opacity:0;stroke:#840000;stroke-width:100;stroke-linecap:round;stroke-linejoin:round;stroke-opacity:1"
     id="g108"
     transform="translate(-23439.478,-20131.569)" />
  <g
     style="fill:#840000;fill-opacity:0;stroke:#840000;stroke-width:100;stroke-linecap:round;stroke-linejoin:round;stroke-opacity:1"
     id="g114"
     transform="translate(-23439.478,-20131.569)" />
  <g
     style="fill:#840000;fill-opacity:0;stroke:#840000;stroke-width:100;stroke-linecap:round;stroke-linejoin:round;stroke-opacity:1"
     id="g120"
     transform="translate(-23439.478,-20131.569)" />
  <g
     style="fill:#840000;fill-opacity:0;stroke:#840000;stroke-width:100;stroke-linecap:round;stroke-linejoin:round;stroke-opacity:1"
     id="g126"
     transform="translate(-23439.478,-20131.569)" />
  <g
     style="fill:#840000;fill-opacity:0;stroke:#840000;stroke-width:100;stroke-linecap:round;stroke-linejoin:round;stroke-opacity:1"
     id="g132"
     transform="translate(-23439.478,-20131.569)" />
  <g
     style="fill:#840000;fill-opacity:0;stroke:#840000;stroke-width:100;stroke-linecap:round;stroke-linejoin:round;stroke-opacity:1"
     id="g140"
     transform="translate(-23439.478,-20131.569)" />
  <g
     style="fill:#840000;fill-opacity:0;stroke:#840000;stroke-width:100;stroke-linecap:round;stroke-linejoin:round;stroke-opacity:1"
     id="g146"
     transform="translate(-23439.478,-20131.569)" />
  <g
     style="fill:#840000;fill-opacity:0;stroke:#840000;stroke-width:100;stroke-linecap:round;stroke-linejoin:round;stroke-opacity:1"
     id="g152"
     transform="translate(-23439.478,-20131.569)" />
  <g
     style="fill:#840000;fill-opacity:0;stroke:#840000;stroke-width:100;stroke-linecap:round;stroke-linejoin:round;stroke-opacity:1"
     id="g160"
     transform="translate(-23439.478,-20131.569)" />
  <g
     style="fill:#840000;fill-opacity:0;stroke:#840000;stroke-width:100;stroke-linecap:round;stroke-linejoin:round;stroke-opacity:1"
     id="g166"
     transform="translate(-23439.478,-20131.569)" />
  <g
     style="fill:#840000;fill-opacity:0;stroke:#840000;stroke-width:100;stroke-linecap:round;stroke-linejoin:round;stroke-opacity:1"
     id="g172"
     transform="translate(-23439.478,-20131.569)" />
  <g
     style="fill:#840000;fill-opacity:0;stroke:#840000;stroke-width:100;stroke-linecap:round;stroke-linejoin:round;stroke-opacity:1"
     id="g178"
     transform="translate(-23439.478,-20131.569)" />
  <g
     style="fill:#840000;fill-opacity:0;stroke:#840000;stroke-width:100;stroke-linecap:round;stroke-linejoin:round;stroke-opacity:1"
     id="g184"
     transform="translate(-23439.478,-20131.569)" />
  <g
     style="fill:#840000;fill-opacity:0;stroke:#840000;stroke-width:100;stroke-linecap:round;stroke-linejoin:round;stroke-opacity:1"
     id="g190"
     transform="translate(-23439.478,-20131.569)" />
  <g
     style="fill:#840000;fill-opacity:0;stroke:#840000;stroke-width:100;stroke-linecap:round;stroke-linejoin:round;stroke-opacity:1"
     id="g198"
     transform="translate(-23439.478,-20131.569)" />
  <g
     style="fill:#840000;fill-opacity:0;stroke:#840000;stroke-width:100;stroke-linecap:round;stroke-linejoin:round;stroke-opacity:1"
     id="g204"
     transform="translate(-23439.478,-20131.569)" />
  <g
     style="fill:#840000;fill-opacity:0;stroke:#840000;stroke-width:100;stroke-linecap:round;stroke-linejoin:round;stroke-opacity:1"
     id="g210"
     transform="translate(-23439.478,-20131.569)" />
  <g
     style="fill:#840000;fill-opacity:0;stroke:#840000;stroke-width:100;stroke-linecap:round;stroke-linejoin:round;stroke-opacity:1"
     id="g216"
     transform="translate(-23439.478,-20131.569)" />
  <g
     style="fill:#840000;fill-opacity:0;stroke:#840000;stroke-width:100;stroke-linecap:round;stroke-linejoin:round;stroke-opacity:1"
     id="g222"
     transform="translate(-23439.478,-20131.569)" />
  <g
     style="fill:#840000;fill-opacity:0;stroke:#840000;stroke-width:100;stroke-linecap:round;stroke-linejoin:round;stroke-opacity:1"
     id="g228"
     transform="translate(-23439.478,-20131.569)" />
  <g
     style="fill:#840000;fill-opacity:0;stroke:#840000;stroke-width:100;stroke-linecap:round;stroke-linejoin:round;stroke-opacity:1"
     id="g234"
     transform="translate(-23439.478,-20131.569)" />
  <g
     style="fill:#840000;fill-opacity:0;stroke:#840000;stroke-width:100;stroke-linecap:round;stroke-linejoin:round;stroke-opacity:1"
     id="g242"
     transform="translate(-23439.478,-20131.569)" />
  <g
     style="fill:#840000;fill-opacity:0;stroke:#840000;stroke-width:100;stroke-linecap:round;stroke-linejoin:round;stroke-opacity:1"
     id="g248"
     transform="translate(-23439.478,-20131.569)" />
  <g
     style="fill:#840000;fill-opacity:0;stroke:#840000;stroke-width:100;stroke-linecap:round;stroke-linejoin:round;stroke-opacity:1"
     id="g254"
     transform="translate(-23439.478,-20131.569)" />
  <g
     style="fill:#840000;fill-opacity:0;stroke:#840000;stroke-width:100;stroke-linecap:round;stroke-linejoin:round;stroke-opacity:1"
     id="g260"
     transform="translate(-23439.478,-20131.569)" />
  <g
     style="fill:#840000;fill-opacity:0;stroke:#840000;stroke-width:100;stroke-linecap:round;stroke-linejoin:round;stroke-opacity:1"
     id="g280"
     transform="translate(-23439.478,-20131.569)" />
  <g
     style="fill:#840000;fill-opacity:0;stroke:#840000;stroke-width:100;stroke-linecap:round;stroke-linejoin:round;stroke-opacity:1"
     id="g286"
     transform="translate(-23439.478,-20131.569)" />
  <g
     style="fill:#840000;fill-opacity:0;stroke:#840000;stroke-width:100;stroke-linecap:round;stroke-linejoin:round;stroke-opacity:1"
     id="g390"
     transform="translate(-23439.478,-20131.569)" />
  <g
     style="fill:#840000;fill-opacity:0;stroke:#840000;stroke-width:100;stroke-linecap:round;stroke-linejoin:round;stroke-opacity:1"
     id="g396"
     transform="translate(-23439.478,-20131.569)" />
  <g
     style="fill:#840000;fill-opacity:0;stroke:#840000;stroke-width:100;stroke-linecap:round;stroke-linejoin:round;stroke-opacity:1"
     id="g412"
     transform="translate(-23439.478,-20131.569)" />
  <g
     style="fill:#840000;fill-opacity:0;stroke:#840000;stroke-width:100;stroke-linecap:round;stroke-linejoin:round;stroke-opacity:1"
     id="g438"
     transform="translate(-23439.478,-20131.569)" />
  <g
     style="fill:#840000;fill-opacity:0;stroke:#840000;stroke-width:100;stroke-linecap:round;stroke-linejoin:round;stroke-opacity:1"
     id="g462"
     transform="translate(-23439.478,-20131.569)" />
  <g
     style="fill:#840000;fill-opacity:0;stroke:#840000;stroke-width:100;stroke-linecap:round;stroke-linejoin:round;stroke-opacity:1"
     id="g468"
     transform="translate(-23439.478,-20131.569)" />
  <g
     style="fill:#840000;fill-opacity:0;stroke:#840000;stroke-width:100;stroke-linecap:round;stroke-linejoin:round;stroke-opacity:1"
     id="g492"
     transform="translate(-23439.478,-20131.569)" />
  <g
     style="fill:#840000;fill-opacity:0;stroke:#840000;stroke-width:100;stroke-linecap:round;stroke-linejoin:round;stroke-opacity:1"
     id="g546"
     transform="translate(-23439.478,-20131.569)" />
  <g
     style="fill:#840000;fill-opacity:0;stroke:#840000;stroke-width:100;stroke-linecap:round;stroke-linejoin:round;stroke-opacity:1"
     id="g552"
     transform="translate(-23439.478,-20131.569)" />
  <g
     style="fill:#840000;fill-opacity:0;stroke:#840000;stroke-width:100;stroke-linecap:round;stroke-linejoin:round;stroke-opacity:1"
     id="g576"
     transform="translate(-23439.478,-20131.569)" />
  <g
     style="fill:#840000;fill-opacity:0;stroke:#840000;stroke-width:100;stroke-linecap:round;stroke-linejoin:round;stroke-opacity:1"
     id="g582"
     transform="translate(-23439.478,-20131.569)" />
  <g
     style="fill:#840000;fill-opacity:0;stroke:#840000;stroke-width:60;stroke-linecap:round;stroke-linejoin:round;stroke-opacity:1"
     id="g584"
     transform="translate(-23439.478,-20131.569)">
    <path
       d="m 102760,75400 0,2560"
       id="path586"
       inkscape:connector-curvature="0" />
    <path
       d="m 26220,21920 140,600 110,-430 120,430 140,-600"
       id="path588"
       inkscape:connector-curvature="0" />
    <path
       d="m 27280,22520 -350,0"
       id="path590"
       inkscape:connector-curvature="0" />
    <path
       d="m 27110,22520 0,-600 -60,90 -60,50 -60,30"
       id="path592"
       inkscape:connector-curvature="0" />
  </g>
  <g
     style="fill:#840000;fill-opacity:0;stroke:#840000;stroke-width:100;stroke-linecap:round;stroke-linejoin:round;stroke-opacity:1"
     id="g594"
     transform="translate(-23439.478,-20131.569)">
    <polyline
       fill="none;"
       points="27750,22250 27450,21710 25900,21710 25900,22250 25900,22790 27450,22790 27750,22250 "
       id="polyline596" />
  </g>
  <g
     style="fill:#840000;fill-opacity:0;stroke:#840000;stroke-width:60;stroke-linecap:round;stroke-linejoin:round;stroke-opacity:1"
     id="g598"
     transform="translate(-23439.478,-20131.569)">
    <path
       d="m 32600,22460 -30,30 -90,30 -60,0 -80,-30 -60,-50 -30,-60 -30,-120 0,-80 30,-120 30,-50 60,-60 80,-30 60,0 90,30 30,30"
       id="path600"
       inkscape:connector-curvature="0" />
    <path
       d="m 32850,22520 0,-600"
       id="path602"
       inkscape:connector-curvature="0" />
    <path
       d="m 32850,22210 350,0"
       id="path604"
       inkscape:connector-curvature="0" />
    <path
       d="m 33200,22520 0,-600"
       id="path606"
       inkscape:connector-curvature="0" />
    <path
       d="m 33800,22520 -350,0"
       id="path608"
       inkscape:connector-curvature="0" />
    <path
       d="m 33630,22520 0,-600 -60,90 -60,50 -60,30"
       id="path610"
       inkscape:connector-curvature="0" />
  </g>
  <g
     style="fill:#840000;fill-opacity:0;stroke:#840000;stroke-width:100;stroke-linecap:round;stroke-linejoin:round;stroke-opacity:1"
     id="g612"
     transform="translate(-23439.478,-20131.569)">
    <polyline
       fill="none;"
       points="31750,22250 32050,22790 34140,22790 34140,22250 34140,21710 32050,21710 31750,22250 "
       id="polyline614" />
  </g>
  <g
     style="fill:#840000;fill-opacity:0;stroke:#840000;stroke-width:60;stroke-linecap:round;stroke-linejoin:round;stroke-opacity:1"
     id="g616"
     transform="translate(-23439.478,-20131.569)">
    <path
       d="m 32600,24210 -30,30 -90,30 -60,0 -80,-30 -60,-50 -30,-60 -30,-120 0,-80 30,-120 30,-50 60,-60 80,-30 60,0 90,30 30,30"
       id="path618"
       inkscape:connector-curvature="0" />
    <path
       d="m 32850,24270 0,-600"
       id="path620"
       inkscape:connector-curvature="0" />
    <path
       d="m 32850,23960 350,0"
       id="path622"
       inkscape:connector-curvature="0" />
    <path
       d="m 33200,24270 0,-600"
       id="path624"
       inkscape:connector-curvature="0" />
    <path
       d="m 33450,23730 30,-30 60,-30 140,0 60,30 30,30 30,60 0,50 -30,90 -340,340 370,0"
       id="path626"
       inkscape:connector-curvature="0" />
  </g>
  <g
     style="fill:#840000;fill-opacity:0;stroke:#840000;stroke-width:100;stroke-linecap:round;stroke-linejoin:round;stroke-opacity:1"
     id="g628"
     transform="translate(-23439.478,-20131.569)">
    <polyline
       fill="none;"
       points="31750,24000 32050,24540 34140,24540 34140,24000 34140,23460 32050,23460 31750,24000 "
       id="polyline630" />
  </g>
  <g
     style="fill:#840000;fill-opacity:0;stroke:#840000;stroke-width:0;stroke-linecap:round;stroke-linejoin:round;stroke-opacity:1"
     id="g632"
     transform="translate(-23439.478,-20131.569)" />
  <g
     style="fill:#840000;fill-opacity:0;stroke:#840000;stroke-width:60;stroke-linecap:round;stroke-linejoin:round;stroke-opacity:1"
     id="g634"
     transform="translate(-23439.478,-20131.569)">
    <polyline
       fill="none;"
       points="29750,24500 29750,23500 "
       id="polyline636" />
  </g>
  <g
     style="fill:#840000;fill-opacity:1;stroke:#840000;stroke-width:60;stroke-linecap:round;stroke-linejoin:round;stroke-opacity:1"
     id="g638"
     transform="translate(-23439.478,-20131.569)">
    <polyline
       style="fill-rule:evenodd"
       points="28750,24500 29750,24000 28750,23500 "
       id="polyline640" />
  </g>
  <g
     style="fill:#840000;fill-opacity:0;stroke:#840000;stroke-width:60;stroke-linecap:round;stroke-linejoin:round;stroke-opacity:1"
     id="g642"
     transform="translate(-23439.478,-20131.569)">
    <path
       d="m 29750,24000 1000,0"
       id="path644"
       inkscape:connector-curvature="0" />
    <path
       d="m 28750,24000 -1000,0"
       id="path646"
       inkscape:connector-curvature="0" />
  </g>
  <g
     style="fill:#840000;fill-opacity:0;stroke:#840000;stroke-width:0;stroke-linecap:round;stroke-linejoin:round;stroke-opacity:1"
     id="g648"
     transform="translate(-23439.478,-20131.569)" />
  <g
     style="fill:#840000;fill-opacity:0;stroke:#840000;stroke-width:100;stroke-linecap:round;stroke-linejoin:round;stroke-opacity:1"
     id="g650"
     transform="translate(-23439.478,-20131.569)">
    <rect
       x="29000"
       y="25350"
       width="2000"
       height="800"
       rx="0"
       id="rect652" />
  </g>
  <g
     style="fill:#840000;fill-opacity:0;stroke:#840000;stroke-width:60;stroke-linecap:round;stroke-linejoin:round;stroke-opacity:1"
     id="g654"
     transform="translate(-23439.478,-20131.569)">
    <path
       d="m 31000,25750 500,0"
       id="path656"
       inkscape:connector-curvature="0" />
    <path
       d="m 29000,25750 -500,0"
       id="path658"
       inkscape:connector-curvature="0" />
  </g>
  <g
     style="fill:#008484;fill-opacity:0;stroke:#008484;stroke-width:60;stroke-linecap:round;stroke-linejoin:round;stroke-opacity:1"
     id="g660"
     transform="translate(-23439.478,-20131.569)">
    <path
       d="m 29650,25950 -280,0"
       id="path662"
       inkscape:connector-curvature="0" />
    <path
       d="m 29510,25950 0,-500 -50,70 -50,50 -40,20"
       id="path664"
       inkscape:connector-curvature="0" />
    <path
       d="m 29960,25450 50,0 50,20 20,20 30,50 20,100 0,120 -20,90 -30,50 -20,20 -50,30 -50,0 -40,-30 -30,-20 -20,-50 -20,-90 0,-120 20,-100 20,-50 30,-20 40,-20"
       id="path666"
       inkscape:connector-curvature="0" />
    <path
       d="m 30350,25950 0,-500"
       id="path668"
       inkscape:connector-curvature="0" />
    <path
       d="m 30630,25950 -210,-290"
       id="path670"
       inkscape:connector-curvature="0" />
    <path
       d="m 30630,25450 -280,280"
       id="path672"
       inkscape:connector-curvature="0" />
  </g>
  <g
     style="fill:#008484;fill-opacity:0;stroke:#008484;stroke-width:0;stroke-linecap:round;stroke-linejoin:round;stroke-opacity:1"
     id="g674"
     transform="translate(-23439.478,-20131.569)" />
  <g
     style="fill:#840000;fill-opacity:0;stroke:#840000;stroke-width:0;stroke-linecap:round;stroke-linejoin:round;stroke-opacity:1"
     id="g676"
     transform="translate(-23439.478,-20131.569)" />
  <g
     style="fill:#840000;fill-opacity:0;stroke:#840000;stroke-width:200;stroke-linecap:round;stroke-linejoin:round;stroke-opacity:1"
     id="g678"
     transform="translate(-23439.478,-20131.569)">
    <polyline
       fill="none;"
       points="29700,26700 29700,28300 "
       id="polyline680" />
    <polyline
       fill="none;"
       points="30300,26700 30300,28300 "
       id="polyline682" />
  </g>
  <g
     style="fill:#840000;fill-opacity:0;stroke:#840000;stroke-width:60;stroke-linecap:round;stroke-linejoin:round;stroke-opacity:1"
     id="g684"
     transform="translate(-23439.478,-20131.569)">
    <path
       d="m 30400,27500 1100,0"
       id="path686"
       inkscape:connector-curvature="0" />
    <path
       d="m 29600,27500 -1100,0"
       id="path688"
       inkscape:connector-curvature="0" />
  </g>
  <g
     style="fill:#008484;fill-opacity:0;stroke:#008484;stroke-width:60;stroke-linecap:round;stroke-linejoin:round;stroke-opacity:1"
     id="g690"
     transform="translate(-23439.478,-20131.569)">
    <path
       d="m 30880,28200 -280,0"
       id="path692"
       inkscape:connector-curvature="0" />
    <path
       d="m 30740,28200 0,-500 -50,70 -50,50 -40,20"
       id="path694"
       inkscape:connector-curvature="0" />
    <path
       d="m 31310,27860 0,340"
       id="path696"
       inkscape:connector-curvature="0" />
    <path
       d="m 31100,27860 0,260 20,50 50,30 70,0 50,-30 20,-20"
       id="path698"
       inkscape:connector-curvature="0" />
    <path
       d="m 31720,27930 -170,0"
       id="path700"
       inkscape:connector-curvature="0" />
    <path
       d="m 31550,28200 0,-500 240,0"
       id="path702"
       inkscape:connector-curvature="0" />
  </g>
  <g
     style="fill:#840000;fill-opacity:0;stroke:#840000;stroke-width:60;stroke-linecap:round;stroke-linejoin:round;stroke-opacity:1"
     id="g704"
     transform="translate(-23439.478,-20131.569)">
    <path
       d="m 26520,25450 -60,-30 -90,0 -80,30 -60,60 -30,50 -30,120 0,80 30,120 30,60 60,50 80,30 60,0 90,-30 30,-30 0,-200 -120,0"
       id="path706"
       inkscape:connector-curvature="0" />
    <path
       d="m 26800,26020 0,-600 350,600 0,-600"
       id="path708"
       inkscape:connector-curvature="0" />
    <path
       d="m 27430,26020 0,-600 150,0 80,30 60,60 30,50 30,120 0,80 -30,120 -30,60 -60,50 -80,30 -150,0"
       id="path710"
       inkscape:connector-curvature="0" />
  </g>
  <g
     style="fill:#840000;fill-opacity:0;stroke:#840000;stroke-width:100;stroke-linecap:round;stroke-linejoin:round;stroke-opacity:1"
     id="g712"
     transform="translate(-23439.478,-20131.569)">
    <polyline
       fill="none;"
       points="28250,25750 27950,25210 25830,25210 25830,25750 25830,26290 27950,26290 28250,25750 "
       id="polyline714" />
  </g>
  <g
     style="fill:#840000;fill-opacity:0;stroke:#840000;stroke-width:60;stroke-linecap:round;stroke-linejoin:round;stroke-opacity:1"
     id="g716"
     transform="translate(-23439.478,-20131.569)">
    <path
       d="m 26520,27200 -60,-30 -90,0 -80,30 -60,60 -30,50 -30,120 0,80 30,120 30,60 60,50 80,30 60,0 90,-30 30,-30 0,-200 -120,0"
       id="path718"
       inkscape:connector-curvature="0" />
    <path
       d="m 26800,27770 0,-600 350,600 0,-600"
       id="path720"
       inkscape:connector-curvature="0" />
    <path
       d="m 27430,27770 0,-600 150,0 80,30 60,60 30,50 30,120 0,80 -30,120 -30,60 -60,50 -80,30 -150,0"
       id="path722"
       inkscape:connector-curvature="0" />
  </g>
  <g
     style="fill:#840000;fill-opacity:0;stroke:#840000;stroke-width:100;stroke-linecap:round;stroke-linejoin:round;stroke-opacity:1"
     id="g724"
     transform="translate(-23439.478,-20131.569)">
    <polyline
       fill="none;"
       points="28250,27500 27950,26960 25830,26960 25830,27500 25830,28040 27950,28040 28250,27500 "
       id="polyline726" />
  </g>
  <g
     style="fill:#840000;fill-opacity:0;stroke:#840000;stroke-width:60;stroke-linecap:round;stroke-linejoin:round;stroke-opacity:1"
     id="g728"
     transform="translate(-23439.478,-20131.569)" />
  <g
     style="fill:#008400;fill-opacity:0;stroke:#008400;stroke-width:60;stroke-linecap:round;stroke-linejoin:round;stroke-opacity:1"
     id="g730"
     transform="translate(-23439.478,-20131.569)">
    <path
       d="m 31750,22250 -4000,0"
       id="path732"
       inkscape:connector-curvature="0" />
    <path
       d="m 27750,22250 0,1750"
       id="path734"
       inkscape:connector-curvature="0" />
    <path
       d="m 30750,24000 1000,0"
       id="path736"
       inkscape:connector-curvature="0" />
  </g>
  <g
     style="fill:#008400;fill-opacity:0;stroke:#008400;stroke-width:0;stroke-linecap:round;stroke-linejoin:round;stroke-opacity:1"
     id="g738"
     transform="translate(-23439.478,-20131.569)" />
  <g
     style="fill:#008400;fill-opacity:1;stroke:#008400;stroke-width:100;stroke-linecap:round;stroke-linejoin:round;stroke-opacity:1"
     id="g740"
     transform="translate(-23439.478,-20131.569)">
    <circle
       cx="31500"
       cy="24000"
       r="200"
       id="circle742" />
  </g>
  <g
     style="fill:#008400;fill-opacity:1;stroke:#008400;stroke-width:60;stroke-linecap:round;stroke-linejoin:round;stroke-opacity:1"
     id="g744"
     transform="translate(-23439.478,-20131.569)" />
  <g
     style="fill:#008400;fill-opacity:0;stroke:#008400;stroke-width:60;stroke-linecap:round;stroke-linejoin:round;stroke-opacity:1"
     id="g746"
     transform="translate(-23439.478,-20131.569)">
    <path
       d="m 28500,25750 -250,0"
       id="path748"
       inkscape:connector-curvature="0" />
  </g>
  <g
     style="fill:#008400;fill-opacity:0;stroke:#008400;stroke-width:0;stroke-linecap:round;stroke-linejoin:round;stroke-opacity:1"
     id="g750"
     transform="translate(-23439.478,-20131.569)" />
  <g
     style="fill:#008400;fill-opacity:1;stroke:#008400;stroke-width:100;stroke-linecap:round;stroke-linejoin:round;stroke-opacity:1"
     id="g752"
     transform="translate(-23439.478,-20131.569)">
    <circle
       cx="31500"
       cy="25750"
       r="200"
       id="circle754" />
  </g>
  <g
     style="fill:#008400;fill-opacity:1;stroke:#008400;stroke-width:60;stroke-linecap:round;stroke-linejoin:round;stroke-opacity:1"
     id="g756"
     transform="translate(-23439.478,-20131.569)" />
  <g
     style="fill:#008400;fill-opacity:0;stroke:#008400;stroke-width:60;stroke-linecap:round;stroke-linejoin:round;stroke-opacity:1"
     id="g758"
     transform="translate(-23439.478,-20131.569)">
    <path
       d="m 28500,27500 -250,0"
       id="path760"
       inkscape:connector-curvature="0" />
    <path
       d="m 31500,25750 0,1750"
       id="path762"
       inkscape:connector-curvature="0" />
  </g>
  <g
     style="fill:#0000c2;fill-opacity:0;stroke:#0000c2;stroke-width:60;stroke-linecap:round;stroke-linejoin:round;stroke-opacity:1"
     id="g764"
     transform="translate(-23439.478,-20131.569)" />
  <g
     style="fill:#0000c2;fill-opacity:0;stroke:#0000c2;stroke-width:60;stroke-linecap:round;stroke-linejoin:round;stroke-dasharray:136.85, 158.425;stroke-opacity:1"
     id="g766"
     transform="translate(-23439.478,-20131.569)">
    <path
       d="m 31500,24000 0,1750"
       id="path768"
       inkscape:connector-curvature="0" />
  </g>
  <g
     style="fill:#0000c2;fill-opacity:0;stroke:#0000c2;stroke-width:60;stroke-linecap:round;stroke-linejoin:round;stroke-opacity:1"
     id="g770"
     transform="translate(-23439.478,-20131.569)" />
</svg>
