<?xml version="1.0" encoding="UTF-8" standalone="no"?>
<svg
   xmlns:osb="http://www.openswatchbook.org/uri/2009/osb"
   xmlns:dc="http://purl.org/dc/elements/1.1/"
   xmlns:cc="http://creativecommons.org/ns#"
   xmlns:rdf="http://www.w3.org/1999/02/22-rdf-syntax-ns#"
   xmlns:svg="http://www.w3.org/2000/svg"
   xmlns="http://www.w3.org/2000/svg"
   xmlns:xlink="http://www.w3.org/1999/xlink"
   xmlns:sodipodi="http://sodipodi.sourceforge.net/DTD/sodipodi-0.dtd"
   xmlns:inkscape="http://www.inkscape.org/namespaces/inkscape"
   version="1.1"
   width="12.480226mm"
   height="15.976977mm"
   viewBox="0 0 4913.4782 6290.1548"
   id="svg2"
   inkscape:version="0.92.1 r15371"
   sodipodi:docname="LR.svg">
  <metadata
     id="metadata428">
    <rdf:RDF>
      <cc:Work
         rdf:about="">
        <dc:format>image/svg+xml</dc:format>
        <dc:type
           rdf:resource="http://purl.org/dc/dcmitype/StillImage" />
        <dc:title>SVG Picture created as halfwave.sch.svg date 2016/06/12 00:14:14 </dc:title>
      </cc:Work>
    </rdf:RDF>
  </metadata>
  <defs
     id="defs426">
    <linearGradient
       inkscape:collect="always"
       xlink:href="#linearGradient5932"
       id="linearGradient5934"
       x1="1"
       y1="151.14285"
       x2="684.17859"
       y2="151.14285"
       gradientUnits="userSpaceOnUse"
       gradientTransform="matrix(6.380506e-4,0.9317872,-0.60905867,0.00119528,2688.5383,3352.0152)" />
    <linearGradient
       id="linearGradient5932"
       osb:paint="solid">
      <stop
         style="stop-color:#840000;stop-opacity:1;"
         offset="0"
         id="stop5930" />
    </linearGradient>
  </defs>
  <sodipodi:namedview
     pagecolor="#ffffff"
     bordercolor="#666666"
     borderopacity="1"
     objecttolerance="10"
     gridtolerance="10"
     guidetolerance="10"
     inkscape:pageopacity="0"
     inkscape:pageshadow="2"
     inkscape:window-width="1920"
     inkscape:window-height="1001"
     id="namedview424"
     showgrid="false"
     fit-margin-top="2"
     fit-margin-left="2"
     fit-margin-right="2"
     fit-margin-bottom="2"
     inkscape:zoom="10.48"
     inkscape:cx="45.733353"
     inkscape:cy="27.022902"
     inkscape:window-x="-9"
     inkscape:window-y="-9"
     inkscape:window-maximized="1"
     inkscape:current-layer="svg2"
     units="mm"
     showguides="true"
     inkscape:guide-bbox="true"
     inkscape:snap-text-baseline="true" />
  <title
     id="title4">SVG Picture created as halfwave.sch.svg date 2016/06/12 00:14:14 </title>
  <desc
     id="desc6">Picture generated by Eeschema-SVG </desc>
  <g
     style="fill:#000000;fill-opacity:1;stroke:#000000;stroke-linecap:round;stroke-linejoin:round;stroke-opacity:1"
     id="g8"
     transform="translate(-54233.948,-19579.148)" />
  <g
     style="fill:#000000;fill-opacity:0;stroke:#000000;stroke-width:60;stroke-linecap:round;stroke-linejoin:round;stroke-opacity:1"
     id="g10"
     transform="translate(-54233.948,-19579.148)" />
  <g
     style="fill:#840000;fill-opacity:0;stroke:#840000;stroke-width:0;stroke-linecap:round;stroke-linejoin:round;stroke-opacity:1"
     id="g58"
     transform="translate(-54233.948,-19579.148)" />
  <g
     style="fill:#840000;fill-opacity:0;stroke:#840000;stroke-width:0;stroke-linecap:round;stroke-linejoin:round;stroke-opacity:1"
     id="g74"
     transform="translate(-54233.948,-19579.148)" />
  <g
     style="fill:#008484;fill-opacity:0;stroke:#008484;stroke-width:0;stroke-linecap:round;stroke-linejoin:round;stroke-opacity:1"
     id="g100"
     transform="translate(-54233.948,-19579.148)" />
  <g
     style="fill:#840000;fill-opacity:0;stroke:#840000;stroke-width:0;stroke-linecap:round;stroke-linejoin:round;stroke-opacity:1"
     id="g102"
     transform="translate(-54233.948,-19579.148)" />
  <g
     style="fill:#840000;fill-opacity:0;stroke:#840000;stroke-width:60;stroke-linecap:round;stroke-linejoin:round;stroke-opacity:1"
     id="g154"
     transform="translate(-54233.948,-19579.148)" />
  <g
     style="fill:#840000;fill-opacity:0;stroke:#840000;stroke-width:0;stroke-linecap:round;stroke-linejoin:round;stroke-opacity:1"
     id="g218"
     transform="translate(-54233.948,-19579.148)" />
  <g
     style="fill:#840000;fill-opacity:0;stroke:#840000;stroke-width:0;stroke-linecap:round;stroke-linejoin:round;stroke-opacity:1"
     id="g234"
     transform="translate(-54233.948,-19579.148)" />
  <g
     style="fill:#840000;fill-opacity:0;stroke:#840000;stroke-width:60;stroke-linecap:round;stroke-linejoin:round;stroke-opacity:1"
     id="g270"
     transform="translate(-54233.948,-19579.148)" />
  <g
     style="fill:#008400;fill-opacity:0;stroke:#008400;stroke-width:0;stroke-linecap:round;stroke-linejoin:round;stroke-opacity:1"
     id="g280"
     transform="translate(-54233.948,-19579.148)" />
  <g
     style="fill:#008400;fill-opacity:1;stroke:#008400;stroke-width:60;stroke-linecap:round;stroke-linejoin:round;stroke-opacity:1"
     id="g286"
     transform="translate(-54233.948,-19579.148)" />
  <g
     style="fill:#008400;fill-opacity:0;stroke:#008400;stroke-width:0;stroke-linecap:round;stroke-linejoin:round;stroke-opacity:1"
     id="g292"
     transform="translate(-54233.948,-19579.148)" />
  <g
     style="fill:#008400;fill-opacity:1;stroke:#008400;stroke-width:60;stroke-linecap:round;stroke-linejoin:round;stroke-opacity:1"
     id="g298"
     transform="translate(-54233.948,-19579.148)" />
  <g
     style="fill:#0000c2;fill-opacity:0;stroke:#0000c2;stroke-width:60;stroke-linecap:round;stroke-linejoin:round;stroke-opacity:1"
     id="g306"
     transform="translate(-54233.948,-19579.148)" />
  <g
     style="fill:#0000c2;fill-opacity:0;stroke:#0000c2;stroke-width:60;stroke-linecap:round;stroke-linejoin:round;stroke-opacity:1"
     id="g312"
     transform="translate(-54233.948,-19579.148)" />
  <g
     style="fill:#008400;fill-opacity:0;stroke:#008400;stroke-width:0;stroke-linecap:round;stroke-linejoin:round;stroke-opacity:1"
     id="g320"
     transform="translate(-54233.948,-19579.148)" />
  <g
     style="fill:#008400;fill-opacity:1;stroke:#008400;stroke-width:60;stroke-linecap:round;stroke-linejoin:round;stroke-opacity:1"
     id="g326"
     transform="translate(-54233.948,-19579.148)" />
  <g
     style="fill:#008400;fill-opacity:0;stroke:#008400;stroke-width:0;stroke-linecap:round;stroke-linejoin:round;stroke-opacity:1"
     id="g332"
     transform="translate(-54233.948,-19579.148)" />
  <g
     style="fill:#008400;fill-opacity:1;stroke:#008400;stroke-width:60;stroke-linecap:round;stroke-linejoin:round;stroke-opacity:1"
     id="g338"
     transform="translate(-54233.948,-19579.148)" />
  <g
     style="fill:#840000;fill-opacity:0;stroke:#840000;stroke-width:0;stroke-linecap:round;stroke-linejoin:round;stroke-opacity:1"
     id="g390"
     transform="translate(-54233.948,-19579.148)" />
  <path
     style="fill:#840000;fill-opacity:0;stroke:#840000;stroke-width:24.52499962;stroke-linecap:round;stroke-linejoin:round;stroke-opacity:1"
     inkscape:connector-curvature="0"
     id="path2816"
     d="m 2527.3031,4272.4881 -1.7117,-277.4394" />
  <path
     style="fill:#840000;fill-opacity:0;stroke:#840000;stroke-width:24.61085892;stroke-linecap:round;stroke-linejoin:round;stroke-opacity:1"
     inkscape:connector-curvature="0"
     id="path2818"
     d="m 2523.1806,3056.049 1.6088,297.2193" />
  <path
     style="fill:#840000;fill-opacity:0;stroke:#840000;stroke-width:25.95742989;stroke-linecap:round;stroke-linejoin:round;stroke-opacity:1"
     inkscape:connector-curvature="0"
     id="path2640"
     d="m 1791.6396,5095.5668 -24.4842,-13.743 h -36.7981 l -32.7309,13.743 -24.5947,27.4924 -12.3112,22.911 -12.3111,54.914 v 36.5899 l 12.3111,54.9139 12.3112,27.4925 24.5947,22.9112 32.7309,13.743 h 24.4842 l 36.7981,-13.743 12.3112,-13.7429 v -91.5373 h -49.0952" />
  <path
     style="fill:#840000;fill-opacity:0;stroke:#840000;stroke-width:25.95742989;stroke-linecap:round;stroke-linejoin:round;stroke-opacity:1"
     inkscape:connector-curvature="0"
     id="path2642"
     d="M 1906.1268,5356.4501 V 5081.835 l 143.1252,274.6151 V 5081.835" />
  <path
     style="fill:#840000;fill-opacity:0;stroke:#840000;stroke-width:25.95742989;stroke-linecap:round;stroke-linejoin:round;stroke-opacity:1"
     inkscape:connector-curvature="0"
     id="path2644"
     d="M 2163.7533,5356.4501 V 5081.835 h 61.3957 l 32.7337,13.743 24.4834,27.4859 12.3119,22.9111 12.3111,54.9142 v 36.59 l -12.3111,54.9075 -12.3119,27.4922 -24.4834,22.9112 -32.7337,13.743 h -61.3957" />
  <polyline
     transform="matrix(0.40892594,0,0,0.45769563,-21599.41,-15706.864)"
     style="fill:#840000;fill-opacity:0;stroke:#840000;stroke-width:100;stroke-linecap:round;stroke-linejoin:round;stroke-opacity:1"
     id="polyline2648"
     points="59000,45750 58700,45210 56580,45210 56580,45750 56580,46290 58700,46290 59000,45750 " />
  <path
     style="fill:#008400;fill-opacity:0;stroke:#008400;stroke-width:25.89776993;stroke-linecap:round;stroke-linejoin:round;stroke-opacity:1"
     inkscape:connector-curvature="0"
     id="path3178"
     d="m 2527.0019,4272.2012 v 960.6651" />
  <path
     style="fill:#840000;fill-opacity:0;stroke:#840000;stroke-width:28.84591103;stroke-linecap:round;stroke-linejoin:round;stroke-opacity:1"
     inkscape:connector-curvature="0"
     id="path464"
     d="m 986.4046,911.7233 67.7458,286.82 53.2631,-205.558 58.0243,205.558 67.7457,-286.82" />
  <path
     style="fill:#840000;fill-opacity:0;stroke:#840000;stroke-width:28.84591103;stroke-linecap:round;stroke-linejoin:round;stroke-opacity:1"
     inkscape:connector-curvature="0"
     id="path466"
     d="M 1498.9201,1198.5433 H 1329.6893" />
  <path
     style="fill:#840000;fill-opacity:0;stroke:#840000;stroke-width:28.84591103;stroke-linecap:round;stroke-linejoin:round;stroke-opacity:1"
     inkscape:connector-curvature="0"
     id="path468"
     d="m 1416.7172,1198.5433 v -286.82 l -29.0621,43.0087 -28.965,23.9269 -29.0593,14.3211" />
  <polyline
     style="fill:#840000;fill-opacity:0;stroke:#840000;stroke-width:100;stroke-linecap:round;stroke-linejoin:round;stroke-opacity:1"
     id="polyline472"
     points="22750,11750 22450,11210 20900,11210 20900,11750 20900,12290 22450,12290 22750,11750 "
     transform="matrix(0.48350088,0,0,0.47803695,-9273.6066,-4547.4901)" />
  <path
     style="fill:#008400;fill-opacity:0;stroke:#008400;stroke-width:23.91199493;stroke-linecap:round;stroke-linejoin:round;stroke-opacity:1"
     inkscape:connector-curvature="0"
     id="path3178-4"
     d="m 1727.0689,1069.4754 h 791.2265" />
  <rect
     style="fill:#840000;fill-opacity:0;stroke:#840000;stroke-width:57.25537491;stroke-linecap:round;stroke-linejoin:round;stroke-opacity:1"
     id="rect528"
     rx="0"
     height="501.27386"
     width="1046.3497"
     y="2249.8115"
     x="-2510.46"
     transform="matrix(-0.00900627,-0.99995944,0.99995344,-0.00964941,0,0)" />
  <path
     style="fill:#840000;fill-opacity:0;stroke:#840000;stroke-width:34.35321045;stroke-linecap:round;stroke-linejoin:round;stroke-opacity:1"
     inkscape:connector-curvature="0"
     id="path532"
     d="m 2520.6329,1427.7779 -1.941,-261.5789" />
  <path
     style="fill:#840000;fill-opacity:0;stroke:#840000;stroke-width:34.35321045;stroke-linecap:round;stroke-linejoin:round;stroke-opacity:1"
     inkscape:connector-curvature="0"
     id="path534"
     d="m 2537.7107,2522.29 1.9411,261.579" />
  <path
     style="fill:#008484;fill-opacity:0;stroke:#008484;stroke-width:34.35321045;stroke-linecap:round;stroke-linejoin:round;stroke-opacity:1"
     inkscape:connector-curvature="0"
     id="path538"
     d="m 2645.1803,2144.9674 1.1092,146.4835" />
  <path
     style="fill:#008484;fill-opacity:0;stroke:#008484;stroke-width:34.35321045;stroke-linecap:round;stroke-linejoin:round;stroke-opacity:1"
     inkscape:connector-curvature="0"
     id="path540"
     d="m 2645.8479,2218.2077 -313.2709,3.2144 44.0376,25.7064 31.5441,25.8338 12.6992,20.8108" />
  <path
     style="fill:#008484;fill-opacity:0;stroke:#008484;stroke-width:34.35321045;stroke-linecap:round;stroke-linejoin:round;stroke-opacity:1"
     inkscape:connector-curvature="0"
     id="path542"
     d="m 2330.4472,1985.8104 -0.2494,-26.1494 12.3943,-26.2898 12.5055,-10.5633 31.2419,-15.9653 62.5882,-11.0697 75.1824,-0.5824 56.5354,9.9267 31.4412,15.3979 12.6161,10.3696 19.1605,25.9636 0.2492,26.1493 -18.661,21.1317 -12.5056,15.7718 -31.244,10.762 -56.3361,11.0061 -75.1851,0.5824 -62.7826,-9.8683 -31.3469,-10.1707 -12.6992,-15.5862 -12.6991,-20.8107" />
  <path
     style="fill:#008484;fill-opacity:0;stroke:#008484;stroke-width:34.35321045;stroke-linecap:round;stroke-linejoin:round;stroke-opacity:1"
     inkscape:connector-curvature="0"
     id="path544"
     d="m 2641.8912,1778.756 -313.2794,3.2144" />
  <path
     style="fill:#008484;fill-opacity:0;stroke:#008484;stroke-width:34.35321045;stroke-linecap:round;stroke-linejoin:round;stroke-opacity:1"
     inkscape:connector-curvature="0"
     id="path546"
     d="m 2640.5601,1632.272 -180.6968,111.6215" />
  <path
     style="fill:#008484;fill-opacity:0;stroke:#008484;stroke-width:34.35321045;stroke-linecap:round;stroke-linejoin:round;stroke-opacity:1"
     inkscape:connector-curvature="0"
     id="path548"
     d="m 2327.2919,1635.2962 176.7485,144.7912" />
  <path
     style="fill:#008400;fill-opacity:0;stroke:#008400;stroke-width:17.56769371;stroke-linecap:round;stroke-linejoin:round;stroke-opacity:1"
     inkscape:connector-curvature="0"
     id="path3178-4-5-3"
     d="m 2540.0729,2783.869 -6.9316,111.028 -9.9271,161.3917"
     sodipodi:nodetypes="ccc" />
  <path
     style="fill:#840000;fill-opacity:0;stroke:#840000;stroke-width:1.34349108;stroke-linecap:round;stroke-linejoin:round;stroke-opacity:1"
     inkscape:connector-curvature="0"
     id="path476"
     d="m 3141.7356,823.8238 -0.5578,0.5835 -1.941,0.5834 h -1.1094 l -1.9417,-0.5834 -1.1093,-1.2996 -0.557,-1.2994 -0.5579,-3.2144 v -1.8564 l 0.5579,-3.2143 0.557,-1.2996 1.1093,-1.2994 1.9417,-0.5834 h 1.1094 l 1.941,0.5834 0.5578,0.5835" />
  <path
     style="fill:#840000;fill-opacity:0;stroke:#840000;stroke-width:1.34349108;stroke-linecap:round;stroke-linejoin:round;stroke-opacity:1"
     inkscape:connector-curvature="0"
     id="path478"
     d="M 3146.8763,825.2878 V 810.6616" />
  <path
     style="fill:#840000;fill-opacity:0;stroke:#840000;stroke-width:1.34349108;stroke-linecap:round;stroke-linejoin:round;stroke-opacity:1"
     inkscape:connector-curvature="0"
     id="path480"
     d="m 3146.8763,817.7142 h 6.9323" />
  <path
     style="fill:#840000;fill-opacity:0;stroke:#840000;stroke-width:1.34349108;stroke-linecap:round;stroke-linejoin:round;stroke-opacity:1"
     inkscape:connector-curvature="0"
     id="path482"
     d="M 3154.0439,825.2878 V 810.6616" />
  <path
     style="fill:#840000;fill-opacity:0;stroke:#840000;stroke-width:1.34349108;stroke-linecap:round;stroke-linejoin:round;stroke-opacity:1"
     inkscape:connector-curvature="0"
     id="path484"
     d="m 3166.3635,825.2878 h -6.9317" />
  <path
     style="fill:#840000;fill-opacity:0;stroke:#840000;stroke-width:1.34349108;stroke-linecap:round;stroke-linejoin:round;stroke-opacity:1"
     inkscape:connector-curvature="0"
     id="path486"
     d="m 3162.8836,825.2878 v -14.6262 l -1.1093,1.8565 -1.1093,1.2995 -1.1093,0.5834" />
  <polyline
     style="fill:#840000;fill-opacity:0;stroke:#840000;stroke-width:100;stroke-linecap:round;stroke-linejoin:round;stroke-opacity:1"
     id="polyline490"
     points="26750,11750 27050,12290 29140,12290 29140,11750 29140,11210 27050,11210 26750,11750 "
     transform="matrix(0.36620437,0,0,0.45009211,-6653.9569,-4219.1325)" />
  <path
     style="fill:#840000;fill-opacity:0;stroke:#840000;stroke-width:26.56622505;stroke-linecap:round;stroke-linejoin:round;stroke-opacity:1"
     inkscape:connector-curvature="0"
     id="path476-1"
     d="m 3463.9216,1197.2001 -12.09,14.581 -36.2045,14.5625 h -24.096 l -32.2372,-14.5625 -24.0955,-24.3698 -12.0899,-29.2015 -12.1168,-58.4089 v -38.9422 l 12.1168,-58.409 12.0899,-24.3698 24.0955,-29.2144 32.2372,-14.642 h 24.096 l 36.2045,14.642 12.09,14.5811" />
  <path
     style="fill:#840000;fill-opacity:0;stroke:#840000;stroke-width:26.56622505;stroke-linecap:round;stroke-linejoin:round;stroke-opacity:1"
     inkscape:connector-curvature="0"
     id="path478-0"
     d="M 3564.6052,1226.4061 V 934.3553" />
  <path
     style="fill:#840000;fill-opacity:0;stroke:#840000;stroke-width:26.56622505;stroke-linecap:round;stroke-linejoin:round;stroke-opacity:1"
     inkscape:connector-curvature="0"
     id="path480-6"
     d="m 3564.6052,1075.5137 h 140.9624" />
  <path
     style="fill:#840000;fill-opacity:0;stroke:#840000;stroke-width:26.56622505;stroke-linecap:round;stroke-linejoin:round;stroke-opacity:1"
     inkscape:connector-curvature="0"
     id="path482-8"
     d="M 3705.5676,1226.4061 V 934.3553" />
  <path
     style="fill:#840000;fill-opacity:0;stroke:#840000;stroke-width:26.56622505;stroke-linecap:round;stroke-linejoin:round;stroke-opacity:1"
     inkscape:connector-curvature="0"
     id="path486-2"
     d="M 3878.767,1226.4061 V 934.3553 l -24.0961,43.7728 -24.0955,24.3698 -24.096,14.6235" />
  <path
     style="fill:#840000;fill-opacity:0;stroke:#840000;stroke-width:26.06564903;stroke-linecap:round;stroke-linejoin:round;stroke-opacity:1"
     inkscape:connector-curvature="0"
     id="path494"
     d="m 3514.9803,2995.1152 -11.5906,14.7003 -34.5163,14.7561 h -23.0142 l -30.7504,-14.7561 -23.1257,-24.5686 -11.618,-29.4646 -11.5906,-58.9297 v -39.2563 l 11.5906,-58.9167 11.618,-24.5554 23.1257,-29.4646 30.7504,-14.7004 h 23.0142 l 34.5163,14.7004 11.5906,14.7003" />
  <path
     style="fill:#840000;fill-opacity:0;stroke:#840000;stroke-width:26.06564903;stroke-linecap:round;stroke-linejoin:round;stroke-opacity:1"
     inkscape:connector-curvature="0"
     id="path496"
     d="M 3611.0726,3024.5831 V 2729.9523" />
  <path
     style="fill:#840000;fill-opacity:0;stroke:#840000;stroke-width:26.06564903;stroke-linecap:round;stroke-linejoin:round;stroke-opacity:1"
     inkscape:connector-curvature="0"
     id="path498"
     d="m 3611.0726,2872.3587 h 134.5181" />
  <path
     style="fill:#840000;fill-opacity:0;stroke:#840000;stroke-width:26.06564903;stroke-linecap:round;stroke-linejoin:round;stroke-opacity:1"
     inkscape:connector-curvature="0"
     id="path500"
     d="M 3745.5907,3024.5831 V 2729.9523" />
  <path
     style="fill:#840000;fill-opacity:0;stroke:#840000;stroke-width:26.06564903;stroke-linecap:round;stroke-linejoin:round;stroke-opacity:1"
     inkscape:connector-curvature="0"
     id="path502"
     d="m 3841.6802,2759.415 11.618,-14.7003 23.0151,-14.7003 h 53.8562 l 23.0144,14.7003 11.5906,14.7003 11.5906,29.4648 v 24.5686 l -11.5906,44.1651 -130.6747,166.9598 h 142.204" />
  <polyline
     style="fill:#840000;fill-opacity:0;stroke:#840000;stroke-width:100;stroke-linecap:round;stroke-linejoin:round;stroke-opacity:1"
     id="polyline506"
     points="26750,13500 27050,14040 29140,14040 29140,13500 29140,12960 27050,12960 26750,13500 "
     transform="matrix(0.38433932,0,0,0.49104211,-7092.7881,-3737.0819)" />
  <path
     style="fill:#008400;fill-opacity:0;stroke:#008400;stroke-width:21.27220917;stroke-linecap:round;stroke-linejoin:round;stroke-opacity:1"
     inkscape:connector-curvature="0"
     id="path3178-4-4"
     d="M 2518.2954,1069.4754 H 3144.483" />
  <ellipse
     style="fill:#008400;fill-opacity:1;stroke:#008400;stroke-width:38.74859238;stroke-linecap:round;stroke-linejoin:round;stroke-opacity:1"
     id="circle812"
     cy="1081.7891"
     cx="2513.3105"
     rx="76.172234"
     ry="78.845245" />
  <path
     style="fill:#008400;fill-opacity:0;stroke:#008400;stroke-width:21.8439312;stroke-linecap:round;stroke-linejoin:round;stroke-opacity:1"
     inkscape:connector-curvature="0"
     id="path3178-4-4-6"
     d="m 2519.6927,2892.0011 h 668.6096" />
  <ellipse
     style="fill:#008400;fill-opacity:1;stroke:#008400;stroke-width:38.74859238;stroke-linecap:round;stroke-linejoin:round;stroke-opacity:1"
     id="circle812-3"
     cy="2904.5828"
     cx="2525.45"
     rx="76.172234"
     ry="78.845245" />
  <path
     style="fill:none;fill-opacity:0.75;fill-rule:evenodd;stroke:url(#linearGradient5934);stroke-width:23.03672218px;stroke-linecap:butt;stroke-linejoin:miter;stroke-opacity:0.98431373"
     d="m 2524.7894,3353.2683 0.057,81.4227 c 0,0 143.3897,-0.2816 143.4304,58.9349 0.041,59.2166 -143.3494,59.498 -143.3494,59.498 0,0 143.3901,-0.2814 143.4305,58.9349 0.041,59.2164 -143.3494,59.4979 -143.3494,59.4979 0,0 143.39,-0.2815 143.4305,58.9351 0.041,59.2163 -143.3493,59.4979 -143.3493,59.4979 0,0 143.39,-0.2816 143.4304,58.9348 0.041,59.2167 -143.349,59.4983 -143.349,59.4983 l 0.057,81.4223"
     id="path1318"
     sodipodi:nodetypes="ccscscscscc"
     inkscape:connector-curvature="0" />
  <text
     xml:space="preserve"
     style="font-style:normal;font-weight:normal;font-size:368.22070313px;line-height:1.25;font-family:sans-serif;letter-spacing:0px;word-spacing:0px;fill:#008484;fill-opacity:1;stroke:#008484;stroke-width:9.20551968;stroke-opacity:1"
     x="1163.3"
     y="2719.5647"
     id="text937"
     transform="scale(0.7134894,1.4015625)"><tspan
       sodipodi:role="line"
       id="tspan935"
       x="1163.3"
       y="2719.5647"
       style="fill:#008484;fill-opacity:1;stroke:#008484;stroke-width:9.20551968;stroke-opacity:1">L1 100mH</tspan></text>
</svg>
