<?xml version="1.0" encoding="UTF-8" standalone="no"?>
<svg
   xmlns:dc="http://purl.org/dc/elements/1.1/"
   xmlns:cc="http://creativecommons.org/ns#"
   xmlns:rdf="http://www.w3.org/1999/02/22-rdf-syntax-ns#"
   xmlns:svg="http://www.w3.org/2000/svg"
   xmlns="http://www.w3.org/2000/svg"
   xmlns:sodipodi="http://sodipodi.sourceforge.net/DTD/sodipodi-0.dtd"
   xmlns:inkscape="http://www.inkscape.org/namespaces/inkscape"
   version="1.1"
   width="6.0856619cm"
   height="2.9606407cm"
   viewBox="0 0 23959.316 11656.077"
   id="svg2"
   inkscape:version="0.91 r13725"
   sodipodi:docname="multiple-feedback1.svg">
  <metadata
     id="metadata422">
    <rdf:RDF>
      <cc:Work
         rdf:about="">
        <dc:format>image/svg+xml</dc:format>
        <dc:type
           rdf:resource="http://purl.org/dc/dcmitype/StillImage" />
        <dc:title>SVG Picture created as filter.sch.svg date 2016/06/12 18:19:15 </dc:title>
      </cc:Work>
    </rdf:RDF>
  </metadata>
  <defs
     id="defs420" />
  <sodipodi:namedview
     pagecolor="#ffffff"
     bordercolor="#666666"
     borderopacity="1"
     objecttolerance="10"
     gridtolerance="10"
     guidetolerance="10"
     inkscape:pageopacity="0"
     inkscape:pageshadow="2"
     inkscape:window-width="1855"
     inkscape:window-height="1056"
     id="namedview418"
     showgrid="false"
     fit-margin-top="0"
     fit-margin-left="0"
     fit-margin-right="0"
     fit-margin-bottom="0"
     inkscape:zoom="6.385917"
     inkscape:cx="97.881613"
     inkscape:cy="61.613943"
     inkscape:window-x="65"
     inkscape:window-y="24"
     inkscape:window-maximized="1"
     inkscape:current-layer="svg2" />
  <title
     id="title4">SVG Picture created as filter.sch.svg date 2016/06/12 18:19:15 </title>
  <desc
     id="desc6">Picture generated by Eeschema-SVG </desc>
  <g
     style="fill:#000000;fill-opacity:1;stroke:#000000;stroke-linecap:round;stroke-linejoin:round;stroke-opacity:1"
     id="g8"
     transform="translate(-4900.3905,-9036.481)" />
  <g
     style="fill:#000000;fill-opacity:0;stroke:#000000;stroke-width:60;stroke-linecap:round;stroke-linejoin:round;stroke-opacity:1"
     id="g10"
     transform="translate(-4900.3905,-9036.481)" />
  <g
     style="fill:#840000;fill-opacity:0;stroke:#840000;stroke-width:60;stroke-linecap:round;stroke-linejoin:round;stroke-opacity:1"
     id="g12"
     transform="translate(-4882.9911,-15004.48)">
    <path
       d="m 21170,18170 200,600 200,-600"
       id="path14"
       inkscape:connector-curvature="0" />
    <path
       d="m 21760,18540 460,0"
       id="path16"
       inkscape:connector-curvature="0" />
  </g>
  <g
     style="fill:#840000;fill-opacity:0;stroke:#840000;stroke-width:100;stroke-linecap:round;stroke-linejoin:round;stroke-opacity:1"
     id="g18"
     transform="translate(-4900.3905,-9036.481)">
    <polyline
       fill="none;"
       points="20750,18500 21050,19040 22590,19040 22590,18500 22590,17960 21050,17960 20750,18500 "
       id="polyline20" />
  </g>
  <g
     style="fill:#840000;fill-opacity:0;stroke:#840000;stroke-width:60;stroke-linecap:round;stroke-linejoin:round;stroke-opacity:1"
     id="g22"
     transform="translate(-4848.1923,-2998.884)">
    <path
       d="m 21170,12170 200,600 200,-600"
       id="path24"
       inkscape:connector-curvature="0" />
    <path
       d="m 21760,12540 460,0"
       id="path26"
       inkscape:connector-curvature="0" />
    <path
       d="m 21990,12770 0,-460"
       id="path28"
       inkscape:connector-curvature="0" />
  </g>
  <g
     style="fill:#840000;fill-opacity:0;stroke:#840000;stroke-width:100;stroke-linecap:round;stroke-linejoin:round;stroke-opacity:1"
     id="g30"
     transform="translate(-4900.3905,-9036.481)">
    <polyline
       fill="none;"
       points="20750,12500 21050,13040 22590,13040 22590,12500 22590,11960 21050,11960 20750,12500 "
       id="polyline32" />
  </g>
  <g
     style="fill:#840000;fill-opacity:0;stroke:#840000;stroke-width:0;stroke-linecap:round;stroke-linejoin:round;stroke-opacity:1"
     id="g34"
     transform="translate(-4900.3905,-9036.481)" />
  <g
     style="fill:#840000;fill-opacity:0;stroke:#840000;stroke-width:100;stroke-linecap:round;stroke-linejoin:round;stroke-opacity:1"
     id="g36"
     transform="translate(-4900.3905,-9036.481)">
    <rect
       x="12100"
       y="15000"
       width="800"
       height="2000"
       rx="0"
       id="rect38" />
  </g>
  <g
     style="fill:#840000;fill-opacity:0;stroke:#840000;stroke-width:60;stroke-linecap:round;stroke-linejoin:round;stroke-opacity:1"
     id="g40"
     transform="translate(-4900.3905,-9036.481)">
    <path
       d="m 12500,15000 0,-500"
       id="path42"
       inkscape:connector-curvature="0" />
    <path
       d="m 12500,17000 0,500"
       id="path44"
       inkscape:connector-curvature="0" />
  </g>
  <g
     style="fill:#008484;fill-opacity:0;stroke:#008484;stroke-width:60;stroke-linecap:round;stroke-linejoin:round;stroke-opacity:1"
     id="g46"
     transform="translate(-4900.3905,-9036.481)">
    <path
       d="m 12700,16110 0,280"
       id="path48"
       inkscape:connector-curvature="0" />
    <path
       d="m 12700,16250 -500,0 70,50 50,50 20,40"
       id="path50"
       inkscape:connector-curvature="0" />
    <path
       d="m 12700,15890 -500,0"
       id="path52"
       inkscape:connector-curvature="0" />
    <path
       d="m 12700,15610 -290,210"
       id="path54"
       inkscape:connector-curvature="0" />
    <path
       d="m 12200,15610 280,280"
       id="path56"
       inkscape:connector-curvature="0" />
  </g>
  <g
     style="fill:#840000;fill-opacity:0;stroke:#840000;stroke-width:60;stroke-linecap:round;stroke-linejoin:round;stroke-opacity:1"
     id="g58"
     transform="translate(-4900.3905,-9036.481)">
    <path
       d="m 7470,14170 140,600 110,-430 120,430 140,-600"
       id="path60"
       inkscape:connector-curvature="0" />
    <path
       d="m 8530,14770 -350,0"
       id="path62"
       inkscape:connector-curvature="0" />
    <path
       d="m 8360,14770 0,-600 -60,90 -60,50 -60,30"
       id="path64"
       inkscape:connector-curvature="0" />
  </g>
  <g
     style="fill:#840000;fill-opacity:0;stroke:#840000;stroke-width:100;stroke-linecap:round;stroke-linejoin:round;stroke-opacity:1"
     id="g66"
     transform="translate(-4900.3905,-9036.481)">
    <polyline
       fill="none;"
       points="9000,14500 8700,13960 7150,13960 7150,14500 7150,15040 8700,15040 9000,14500 "
       id="polyline68" />
  </g>
  <g
     style="fill:#840000;fill-opacity:0;stroke:#840000;stroke-width:60;stroke-linecap:round;stroke-linejoin:round;stroke-opacity:1"
     id="g70"
     transform="translate(-4900.3905,-9036.481)">
    <path
       d="m 7770,17200 -60,-30 -90,0 -80,30 -60,60 -30,50 -30,120 0,80 30,120 30,60 60,50 80,30 60,0 90,-30 30,-30 0,-200 -120,0"
       id="path72"
       inkscape:connector-curvature="0" />
    <path
       d="m 8050,17770 0,-600 350,600 0,-600"
       id="path74"
       inkscape:connector-curvature="0" />
    <path
       d="m 8680,17770 0,-600 150,0 80,30 60,60 30,50 30,120 0,80 -30,120 -30,60 -60,50 -80,30 -150,0"
       id="path76"
       inkscape:connector-curvature="0" />
  </g>
  <g
     style="fill:#840000;fill-opacity:0;stroke:#840000;stroke-width:100;stroke-linecap:round;stroke-linejoin:round;stroke-opacity:1"
     id="g78"
     transform="translate(-4900.3905,-9036.481)">
    <polyline
       fill="none;"
       points="9500,17500 9200,16960 7080,16960 7080,17500 7080,18040 9200,18040 9500,17500 "
       id="polyline80" />
  </g>
  <g
     style="fill:#840000;fill-opacity:0;stroke:#840000;stroke-width:60;stroke-linecap:round;stroke-linejoin:round;stroke-opacity:1"
     id="g82"
     transform="translate(-4900.3905,-9036.481)">
    <path
       d="m 26600,15710 -30,30 -90,30 -60,0 -80,-30 -60,-50 -30,-60 -30,-120 0,-80 30,-120 30,-50 60,-60 80,-30 60,0 90,30 30,30"
       id="path84"
       inkscape:connector-curvature="0" />
    <path
       d="m 26850,15770 0,-600"
       id="path86"
       inkscape:connector-curvature="0" />
    <path
       d="m 26850,15460 350,0"
       id="path88"
       inkscape:connector-curvature="0" />
    <path
       d="m 27200,15770 0,-600"
       id="path90"
       inkscape:connector-curvature="0" />
    <path
       d="m 27450,15230 30,-30 60,-30 140,0 60,30 30,30 30,60 0,50 -30,90 -340,340 370,0"
       id="path92"
       inkscape:connector-curvature="0" />
  </g>
  <g
     style="fill:#840000;fill-opacity:0;stroke:#840000;stroke-width:100;stroke-linecap:round;stroke-linejoin:round;stroke-opacity:1"
     id="g94"
     transform="translate(-4900.3905,-9036.481)">
    <polyline
       fill="none;"
       points="25750,15500 26050,16040 28140,16040 28140,15500 28140,14960 26050,14960 25750,15500 "
       id="polyline96" />
  </g>
  <g
     style="fill:#840000;fill-opacity:0;stroke:#840000;stroke-width:0;stroke-linecap:round;stroke-linejoin:round;stroke-opacity:1"
     id="g98"
     transform="translate(-4900.3905,-9036.481)" />
  <g
     style="fill:#840000;fill-opacity:0;stroke:#840000;stroke-width:100;stroke-linecap:round;stroke-linejoin:round;stroke-opacity:1"
     id="g100"
     transform="translate(-4900.3905,-9036.481)">
    <rect
       x="16100"
       y="12000"
       width="800"
       height="2000"
       rx="0"
       id="rect102" />
  </g>
  <g
     style="fill:#840000;fill-opacity:0;stroke:#840000;stroke-width:60;stroke-linecap:round;stroke-linejoin:round;stroke-opacity:1"
     id="g104"
     transform="translate(-4900.3905,-9036.481)">
    <path
       d="m 16500,12000 0,-500"
       id="path106"
       inkscape:connector-curvature="0" />
    <path
       d="m 16500,14000 0,500"
       id="path108"
       inkscape:connector-curvature="0" />
  </g>
  <g
     style="fill:#008484;fill-opacity:0;stroke:#008484;stroke-width:60;stroke-linecap:round;stroke-linejoin:round;stroke-opacity:1"
     id="g110"
     transform="translate(-4900.3905,-9036.481)">
    <path
       d="m 16200,13540 0,90 20,50 20,20 80,50 90,20 190,0 50,-20 20,-20 30,-50 0,-100 -30,-40 -20,-30 -50,-20 -120,0 -50,20 -20,30 -20,40 0,100 20,50 20,20 50,20"
       id="path112"
       inkscape:connector-curvature="0" />
    <path
       d="m 16650,13270 20,-20 30,20 -30,20 -20,-20 50,0"
       id="path114"
       inkscape:connector-curvature="0" />
    <path
       d="m 16410,12960 -20,50 -30,20 -40,20 -30,0 -50,-20 -20,-20 -20,-50 0,-100 20,-40 20,-30 50,-20 30,0 40,20 30,30 20,40 0,100 20,50 30,20 50,20 90,0 50,-20 20,-20 30,-50 0,-100 -30,-40 -20,-30 -50,-20 -90,0 -50,20 -30,30 -20,40"
       id="path116"
       inkscape:connector-curvature="0" />
    <path
       d="m 16700,12550 -500,0 350,-170 -350,-160 500,0"
       id="path118"
       inkscape:connector-curvature="0" />
  </g>
  <g
     style="fill:#008484;fill-opacity:0;stroke:#008484;stroke-width:0;stroke-linecap:round;stroke-linejoin:round;stroke-opacity:1"
     id="g120"
     transform="translate(-4900.3905,-9036.481)" />
  <g
     style="fill:#840000;fill-opacity:0;stroke:#840000;stroke-width:0;stroke-linecap:round;stroke-linejoin:round;stroke-opacity:1"
     id="g122"
     transform="translate(-4900.3905,-9036.481)" />
  <g
     style="fill:#840000;fill-opacity:0;stroke:#840000;stroke-width:100;stroke-linecap:round;stroke-linejoin:round;stroke-opacity:1"
     id="g124"
     transform="translate(-4900.3905,-9036.481)">
    <rect
       x="9500"
       y="14100"
       width="2000"
       height="800"
       rx="0"
       id="rect126" />
  </g>
  <g
     style="fill:#840000;fill-opacity:0;stroke:#840000;stroke-width:60;stroke-linecap:round;stroke-linejoin:round;stroke-opacity:1"
     id="g128"
     transform="translate(-4900.3905,-9036.481)">
    <path
       d="m 9500,14500 -500,0"
       id="path130"
       inkscape:connector-curvature="0" />
    <path
       d="m 11500,14500 500,0"
       id="path132"
       inkscape:connector-curvature="0" />
  </g>
  <g
     style="fill:#008484;fill-opacity:0;stroke:#008484;stroke-width:60;stroke-linecap:round;stroke-linejoin:round;stroke-opacity:1"
     id="g134"
     transform="translate(-4900.3905,-9036.481)">
    <path
       d="m 10350,14760 -280,0"
       id="path136"
       inkscape:connector-curvature="0" />
    <path
       d="m 10210,14760 0,-500 -50,70 -50,50 -40,20"
       id="path138"
       inkscape:connector-curvature="0" />
    <path
       d="m 10570,14760 0,-500 170,350 160,-350 0,500"
       id="path140"
       inkscape:connector-curvature="0" />
  </g>
  <g
     style="fill:#008400;fill-opacity:0;stroke:#008400;stroke-width:60;stroke-linecap:round;stroke-linejoin:round;stroke-opacity:1"
     id="g142"
     transform="translate(-4900.3905,-9036.481)">
    <path
       d="m 20750,18500 -1000,0"
       id="path144"
       inkscape:connector-curvature="0" />
    <path
       d="m 20750,12500 -1000,0"
       id="path146"
       inkscape:connector-curvature="0" />
    <path
       d="m 16000,14500 1250,0"
       id="path148"
       inkscape:connector-curvature="0" />
    <path
       d="m 24250,15500 1500,0"
       id="path150"
       inkscape:connector-curvature="0" />
  </g>
  <g
     style="fill:#008400;fill-opacity:0;stroke:#008400;stroke-width:0;stroke-linecap:round;stroke-linejoin:round;stroke-opacity:1"
     id="g152"
     transform="translate(-4900.3905,-9036.481)" />
  <g
     style="fill:#840000;fill-opacity:0;stroke:#840000;stroke-width:0;stroke-linecap:round;stroke-linejoin:round;stroke-opacity:1"
     id="g154"
     transform="translate(-4900.3905,-9036.481)" />
  <g
     style="fill:#ffffc2;fill-opacity:0;stroke:#ffffc2;stroke-width:0;stroke-linecap:round;stroke-linejoin:round;stroke-opacity:1"
     id="g156"
     transform="translate(-4900.3905,-9036.481)" />
  <g
     style="fill:#ffffc2;fill-opacity:0.6;stroke:#ffffc2;stroke-width:0;stroke-linecap:round;stroke-linejoin:round;stroke-opacity:1"
     id="g158"
     transform="translate(-4900.3905,-9036.481)">
    <polyline
       style="fill-rule:evenodd"
       points="18750,17500 22750,15500 18750,13500 18750,17500 "
       id="polyline160" />
  </g>
  <g
     style="fill:#840000;fill-opacity:0.6;stroke:#840000;stroke-width:0;stroke-linecap:round;stroke-linejoin:round;stroke-opacity:1"
     id="g162"
     transform="translate(-4900.3905,-9036.481)" />
  <g
     style="fill:#840000;fill-opacity:0;stroke:#840000;stroke-width:60;stroke-linecap:round;stroke-linejoin:round;stroke-opacity:1"
     id="g164"
     transform="translate(-4900.3905,-9036.481)">
    <polyline
       fill="none;"
       points="18750,17500 22750,15500 18750,13500 18750,17500 "
       id="polyline166" />
    <path
       d="m 19750,14000 0,-1500"
       id="path168"
       inkscape:connector-curvature="0" />
  </g>
  <g
     style="fill:#008484;fill-opacity:0;stroke:#008484;stroke-width:60;stroke-linecap:round;stroke-linejoin:round;stroke-opacity:1"
     id="g170"
     transform="translate(-4900.3905,-9036.481)">
    <path
       d="m 19530,14900 400,-130 -400,-130"
       id="path172"
       inkscape:connector-curvature="0" />
    <path
       d="m 19780,14500 0,-300"
       id="path174"
       inkscape:connector-curvature="0" />
  </g>
  <g
     style="fill:#840000;fill-opacity:0;stroke:#840000;stroke-width:60;stroke-linecap:round;stroke-linejoin:round;stroke-opacity:1"
     id="g176"
     transform="translate(-4900.3905,-9036.481)">
    <path
       d="m 19360,13170 270,0"
       id="path178"
       inkscape:connector-curvature="0" />
    <path
       d="m 19210,13270 290,90 0,-240"
       id="path180"
       inkscape:connector-curvature="0" />
    <path
       d="m 19750,17000 0,1500"
       id="path182"
       inkscape:connector-curvature="0" />
  </g>
  <g
     style="fill:#008484;fill-opacity:0;stroke:#008484;stroke-width:60;stroke-linecap:round;stroke-linejoin:round;stroke-opacity:1"
     id="g184"
     transform="translate(-4900.3905,-9036.481)">
    <path
       d="m 19530,16860 400,-130 -400,-130"
       id="path186"
       inkscape:connector-curvature="0" />
    <path
       d="m 19780,16460 0,-300"
       id="path188"
       inkscape:connector-curvature="0" />
    <path
       d="m 19930,16310 -300,0"
       id="path190"
       inkscape:connector-curvature="0" />
  </g>
  <g
     style="fill:#840000;fill-opacity:0;stroke:#840000;stroke-width:60;stroke-linecap:round;stroke-linejoin:round;stroke-opacity:1"
     id="g192"
     transform="translate(-4900.3905,-9036.481)">
    <path
       d="m 19230,17880 0,-260 400,170"
       id="path194"
       inkscape:connector-curvature="0" />
    <path
       d="m 18750,14500 -1500,0"
       id="path196"
       inkscape:connector-curvature="0" />
  </g>
  <g
     style="fill:#008484;fill-opacity:0;stroke:#008484;stroke-width:60;stroke-linecap:round;stroke-linejoin:round;stroke-opacity:1"
     id="g198"
     transform="translate(-4900.3905,-9036.481)">
    <path
       d="m 18950,14530 300,0"
       id="path200"
       inkscape:connector-curvature="0" />
  </g>
  <g
     style="fill:#840000;fill-opacity:0;stroke:#840000;stroke-width:60;stroke-linecap:round;stroke-linejoin:round;stroke-opacity:1"
     id="g202"
     transform="translate(-4900.3905,-9036.481)">
    <path
       d="m 17890,14020 20,-20 30,-20 100,0 40,20 20,20 10,40 0,40 -10,50 -230,230 240,0"
       id="path204"
       inkscape:connector-curvature="0" />
    <path
       d="m 18750,16500 -1500,0"
       id="path206"
       inkscape:connector-curvature="0" />
  </g>
  <g
     style="fill:#008484;fill-opacity:0;stroke:#008484;stroke-width:60;stroke-linecap:round;stroke-linejoin:round;stroke-opacity:1"
     id="g208"
     transform="translate(-4900.3905,-9036.481)">
    <path
       d="m 18950,16530 300,0"
       id="path210"
       inkscape:connector-curvature="0" />
    <path
       d="m 19100,16680 0,-300"
       id="path212"
       inkscape:connector-curvature="0" />
  </g>
  <g
     style="fill:#840000;fill-opacity:0;stroke:#840000;stroke-width:60;stroke-linecap:round;stroke-linejoin:round;stroke-opacity:1"
     id="g214"
     transform="translate(-4900.3905,-9036.481)">
    <path
       d="m 17870,15980 240,0 -130,150 60,0 40,20 20,20 10,40 0,90 -10,40 -20,20 -40,20 -120,0 -30,-20 -20,-20"
       id="path216"
       inkscape:connector-curvature="0" />
    <path
       d="m 22750,15500 1500,0"
       id="path218"
       inkscape:connector-curvature="0" />
    <path
       d="m 23580,14980 -80,0 -40,20 -20,20 -30,60 -20,70 0,150 20,40 10,20 40,20 80,0 40,-20 20,-20 10,-40 0,-90 -10,-40 -20,-20 -40,-20 -80,0 -40,20 -10,20 -20,40"
       id="path220"
       inkscape:connector-curvature="0" />
  </g>
  <g
     style="fill:#008400;fill-opacity:0;stroke:#008400;stroke-width:60;stroke-linecap:round;stroke-linejoin:round;stroke-opacity:1"
     id="g276"
     transform="translate(-4900.3905,-9036.481)">
    <path
       d="m 24500,11500 0,4000"
       id="path278"
       inkscape:connector-curvature="0" />
  </g>
  <g
     style="fill:#008400;fill-opacity:0;stroke:#008400;stroke-width:0;stroke-linecap:round;stroke-linejoin:round;stroke-opacity:1"
     id="g280"
     transform="translate(-4900.3905,-9036.481)" />
  <g
     style="fill:#008400;fill-opacity:1;stroke:#008400;stroke-width:100;stroke-linecap:round;stroke-linejoin:round;stroke-opacity:1"
     id="g282"
     transform="translate(-4900.3905,-9036.481)">
    <circle
       cx="24500"
       cy="15500"
       r="200"
       id="circle284" />
  </g>
  <g
     style="fill:#008400;fill-opacity:1;stroke:#008400;stroke-width:0;stroke-linecap:round;stroke-linejoin:round;stroke-opacity:1"
     id="g286"
     transform="translate(-4900.3905,-9036.481)" />
  <g
     style="fill:#840000;fill-opacity:1;stroke:#840000;stroke-width:0;stroke-linecap:round;stroke-linejoin:round;stroke-opacity:1"
     id="g288"
     transform="translate(-4900.3905,-9036.481)" />
  <g
     style="fill:#840000;fill-opacity:0;stroke:#840000;stroke-width:200;stroke-linecap:round;stroke-linejoin:round;stroke-opacity:1"
     id="g290"
     transform="translate(-4900.3905,-9036.481)">
    <polyline
       fill="none;"
       points="11700,13300 13300,13300 "
       id="polyline292" />
    <polyline
       fill="none;"
       points="11700,12700 13300,12700 "
       id="polyline294" />
  </g>
  <g
     style="fill:#840000;fill-opacity:0;stroke:#840000;stroke-width:60;stroke-linecap:round;stroke-linejoin:round;stroke-opacity:1"
     id="g296"
     transform="translate(-4900.3905,-9036.481)">
    <path
       d="m 12500,12600 0,-1100"
       id="path298"
       inkscape:connector-curvature="0" />
    <path
       d="m 12500,13400 0,1100"
       id="path300"
       inkscape:connector-curvature="0" />
  </g>
  <g
     style="fill:#008484;fill-opacity:0;stroke:#008484;stroke-width:60;stroke-linecap:round;stroke-linejoin:round;stroke-opacity:1"
     id="g302"
     transform="translate(-4900.3905,-9036.481)">
    <path
       d="m 11740,12150 -20,-20 -20,-50 0,-120 20,-40 20,-30 50,-20 50,0 70,20 290,290 0,-310"
       id="path304"
       inkscape:connector-curvature="0" />
    <path
       d="m 12150,11650 20,-20 30,20 -30,20 -20,-20 50,0"
       id="path306"
       inkscape:connector-curvature="0" />
    <path
       d="m 11740,11430 -20,-20 -20,-50 0,-120 20,-40 20,-30 50,-20 50,0 70,20 290,290 0,-310"
       id="path308"
       inkscape:connector-curvature="0" />
    <path
       d="m 11860,10930 340,0"
       id="path310"
       inkscape:connector-curvature="0" />
    <path
       d="m 11910,10930 -20,-20 -30,-50 0,-70 30,-50 40,-20 270,0"
       id="path312"
       inkscape:connector-curvature="0" />
    <path
       d="m 11930,10310 0,170"
       id="path314"
       inkscape:connector-curvature="0" />
    <path
       d="m 12200,10480 -500,0 0,-240"
       id="path316"
       inkscape:connector-curvature="0" />
  </g>
  <g
     style="fill:#008484;fill-opacity:0;stroke:#008484;stroke-width:0;stroke-linecap:round;stroke-linejoin:round;stroke-opacity:1"
     id="g318"
     transform="translate(-4900.3905,-9036.481)" />
  <g
     style="fill:#840000;fill-opacity:0;stroke:#840000;stroke-width:0;stroke-linecap:round;stroke-linejoin:round;stroke-opacity:1"
     id="g320"
     transform="translate(-4900.3905,-9036.481)" />
  <g
     style="fill:#840000;fill-opacity:0;stroke:#840000;stroke-width:200;stroke-linecap:round;stroke-linejoin:round;stroke-opacity:1"
     id="g322"
     transform="translate(-4900.3905,-9036.481)">
    <polyline
       fill="none;"
       points="14200,13700 14200,15300 "
       id="polyline324" />
    <polyline
       fill="none;"
       points="14800,13700 14800,15300 "
       id="polyline326" />
  </g>
  <g
     style="fill:#840000;fill-opacity:0;stroke:#840000;stroke-width:60;stroke-linecap:round;stroke-linejoin:round;stroke-opacity:1"
     id="g328"
     transform="translate(-4900.3905,-9036.481)">
    <path
       d="m 14900,14500 1100,0"
       id="path330"
       inkscape:connector-curvature="0" />
    <path
       d="m 14100,14500 -1100,0"
       id="path332"
       inkscape:connector-curvature="0" />
  </g>
  <g
     style="fill:#008484;fill-opacity:0;stroke:#008484;stroke-width:60;stroke-linecap:round;stroke-linejoin:round;stroke-opacity:1"
     id="g334"
     transform="translate(-4900.3905,-9036.481)">
    <path
       d="m 14080,15700 -90,0 -50,20 -20,20 -50,80 -20,90 0,190 20,50 20,20 50,30 100,0 40,-30 30,-20 20,-50 0,-120 -20,-50 -30,-20 -40,-20 -100,0 -50,20 -20,20 -20,50"
       id="path336"
       inkscape:connector-curvature="0" />
    <path
       d="m 14420,15910 -50,-20 -20,-30 -20,-40 0,-30 20,-50 20,-20 50,-20 100,0 40,20 30,20 20,50 0,30 -20,40 -30,30 -40,20 -100,0 -50,20 -20,30 -20,50 0,90 20,50 20,20 50,30 100,0 40,-30 30,-20 20,-50 0,-90 -20,-50 -30,-30 -40,-20"
       id="path338"
       inkscape:connector-curvature="0" />
    <path
       d="m 14920,15700 50,0 50,20 20,20 30,50 20,100 0,120 -20,90 -30,50 -20,20 -50,30 -50,0 -40,-30 -30,-20 -20,-50 -20,-90 0,-120 20,-100 20,-50 30,-20 40,-20"
       id="path340"
       inkscape:connector-curvature="0" />
    <path
       d="m 15310,15860 0,500"
       id="path342"
       inkscape:connector-curvature="0" />
    <path
       d="m 15310,15890 50,-30 90,0 50,30 20,20 30,50 0,140 -30,50 -20,20 -50,30 -90,0 -50,-30"
       id="path344"
       inkscape:connector-curvature="0" />
    <path
       d="m 15930,15930 -170,0"
       id="path346"
       inkscape:connector-curvature="0" />
    <path
       d="m 15760,16200 0,-500 240,0"
       id="path348"
       inkscape:connector-curvature="0" />
  </g>
  <g
     style="fill:#008400;fill-opacity:0;stroke:#008400;stroke-width:60;stroke-linecap:round;stroke-linejoin:round;stroke-opacity:1"
     id="g350"
     transform="translate(-4900.3905,-9036.481)">
    <path
       d="m 12000,14500 1000,0"
       id="path352"
       inkscape:connector-curvature="0" />
  </g>
  <g
     style="fill:#008400;fill-opacity:0;stroke:#008400;stroke-width:0;stroke-linecap:round;stroke-linejoin:round;stroke-opacity:1"
     id="g354"
     transform="translate(-4900.3905,-9036.481)" />
  <g
     style="fill:#008400;fill-opacity:1;stroke:#008400;stroke-width:100;stroke-linecap:round;stroke-linejoin:round;stroke-opacity:1"
     id="g356"
     transform="translate(-4900.3905,-9036.481)">
    <circle
       cx="16500"
       cy="14500"
       r="200"
       id="circle358" />
  </g>
  <g
     style="fill:#008400;fill-opacity:1;stroke:#008400;stroke-width:0;stroke-linecap:round;stroke-linejoin:round;stroke-opacity:1"
     id="g360"
     transform="translate(-4900.3905,-9036.481)" />
  <g
     style="fill:#008400;fill-opacity:1;stroke:#008400;stroke-width:100;stroke-linecap:round;stroke-linejoin:round;stroke-opacity:1"
     id="g362"
     transform="translate(-4900.3905,-9036.481)">
    <circle
       cx="12500"
       cy="14500"
       r="200"
       id="circle364" />
  </g>
  <g
     style="fill:#008400;fill-opacity:1;stroke:#008400;stroke-width:60;stroke-linecap:round;stroke-linejoin:round;stroke-opacity:1"
     id="g366"
     transform="translate(-4900.3905,-9036.481)" />
  <g
     style="fill:#008400;fill-opacity:0;stroke:#008400;stroke-width:60;stroke-linecap:round;stroke-linejoin:round;stroke-opacity:1"
     id="g368"
     transform="translate(-4900.3905,-9036.481)">
    <path
       d="m 12500,11500 12000,0"
       id="path370"
       inkscape:connector-curvature="0" />
  </g>
  <g
     style="fill:#008400;fill-opacity:0;stroke:#008400;stroke-width:0;stroke-linecap:round;stroke-linejoin:round;stroke-opacity:1"
     id="g372"
     transform="translate(-4900.3905,-9036.481)" />
  <g
     style="fill:#008400;fill-opacity:1;stroke:#008400;stroke-width:100;stroke-linecap:round;stroke-linejoin:round;stroke-opacity:1"
     id="g374"
     transform="translate(-4900.3905,-9036.481)">
    <circle
       cx="16500"
       cy="11500"
       r="200"
       id="circle376" />
  </g>
  <g
     style="fill:#008400;fill-opacity:1;stroke:#008400;stroke-width:60;stroke-linecap:round;stroke-linejoin:round;stroke-opacity:1"
     id="g378"
     transform="translate(-4900.3905,-9036.481)" />
  <g
     style="fill:#008400;fill-opacity:0;stroke:#008400;stroke-width:60;stroke-linecap:round;stroke-linejoin:round;stroke-opacity:1"
     id="g380"
     transform="translate(-4900.3905,-9036.481)">
    <path
       d="m 17250,17500 0,-1000"
       id="path382"
       inkscape:connector-curvature="0" />
    <path
       d="m 9500,17500 7750,0"
       id="path384"
       inkscape:connector-curvature="0" />
  </g>
  <g
     style="fill:#008400;fill-opacity:0;stroke:#008400;stroke-width:0;stroke-linecap:round;stroke-linejoin:round;stroke-opacity:1"
     id="g386"
     transform="translate(-4900.3905,-9036.481)" />
  <g
     style="fill:#008400;fill-opacity:1;stroke:#008400;stroke-width:100;stroke-linecap:round;stroke-linejoin:round;stroke-opacity:1"
     id="g388"
     transform="translate(-4900.3905,-9036.481)">
    <circle
       cx="12500"
       cy="17500"
       r="200"
       id="circle390" />
  </g>
  <g
     style="fill:#008400;fill-opacity:1;stroke:#008400;stroke-width:60;stroke-linecap:round;stroke-linejoin:round;stroke-opacity:1"
     id="g392"
     transform="translate(-4900.3905,-9036.481)" />
  <g
     style="fill:#840000;fill-opacity:0;stroke:#840000;stroke-width:60;stroke-linecap:round;stroke-linejoin:round;stroke-opacity:1"
     id="g394"
     transform="translate(-4900.3905,-9036.481)">
    <path
       d="m 7330,12460 -30,30 -90,30 -60,0 -80,-30 -60,-50 -30,-60 -30,-120 0,-80 30,-120 30,-50 60,-60 80,-30 60,0 90,30 30,30"
       id="path396"
       inkscape:connector-curvature="0" />
    <path
       d="m 7580,12520 0,-600"
       id="path398"
       inkscape:connector-curvature="0" />
    <path
       d="m 7580,12210 350,0"
       id="path400"
       inkscape:connector-curvature="0" />
    <path
       d="m 7930,12520 0,-600"
       id="path402"
       inkscape:connector-curvature="0" />
    <path
       d="m 8530,12520 -350,0"
       id="path404"
       inkscape:connector-curvature="0" />
    <path
       d="m 8360,12520 0,-600 -60,90 -60,50 -60,30"
       id="path406"
       inkscape:connector-curvature="0" />
  </g>
  <g
     style="fill:#840000;fill-opacity:0;stroke:#840000;stroke-width:100;stroke-linecap:round;stroke-linejoin:round;stroke-opacity:1"
     id="g408"
     transform="translate(-4900.3905,-9036.481)">
    <polyline
       fill="none;"
       points="9000,12250 8700,11710 6610,11710 6610,12250 6610,12790 8700,12790 9000,12250 "
       id="polyline410" />
  </g>
  <g
     style="fill:#840000;fill-opacity:0;stroke:#840000;stroke-width:60;stroke-linecap:round;stroke-linejoin:round;stroke-opacity:1"
     id="g412"
     transform="translate(-4900.3905,-9036.481)" />
  <g
     style="fill:#008400;fill-opacity:0;stroke:#008400;stroke-width:60;stroke-linecap:round;stroke-linejoin:round;stroke-opacity:1"
     id="g414"
     transform="translate(-4900.3905,-9036.481)">
    <path
       d="m 9000,12250 0,2250"
       id="path416"
       inkscape:connector-curvature="0" />
  </g>
</svg>
