<?xml version="1.0" encoding="UTF-8" standalone="no"?>
<!-- Created with Inkscape (http://www.inkscape.org/) -->

<svg
   xmlns:dc="http://purl.org/dc/elements/1.1/"
   xmlns:cc="http://creativecommons.org/ns#"
   xmlns:rdf="http://www.w3.org/1999/02/22-rdf-syntax-ns#"
   xmlns:svg="http://www.w3.org/2000/svg"
   xmlns="http://www.w3.org/2000/svg"
   xmlns:sodipodi="http://sodipodi.sourceforge.net/DTD/sodipodi-0.dtd"
   xmlns:inkscape="http://www.inkscape.org/namespaces/inkscape"
   width="31.597565mm"
   height="16.96718mm"
   viewBox="0 0 111.95987 60.11993"
   id="svg8600"
   version="1.1"
   inkscape:version="0.91 r13725"
   sodipodi:docname="mutual.svg">
  <defs
     id="defs8602" />
  <sodipodi:namedview
     id="base"
     pagecolor="#ffffff"
     bordercolor="#666666"
     borderopacity="1.0"
     inkscape:pageopacity="0.0"
     inkscape:pageshadow="2"
     inkscape:zoom="0.35"
     inkscape:cx="-513.30578"
     inkscape:cy="-178.51146"
     inkscape:document-units="px"
     inkscape:current-layer="layer1"
     showgrid="false"
     fit-margin-top="0"
     fit-margin-left="0"
     fit-margin-right="0"
     fit-margin-bottom="0"
     inkscape:window-width="1855"
     inkscape:window-height="1056"
     inkscape:window-x="65"
     inkscape:window-y="24"
     inkscape:window-maximized="1" />
  <metadata
     id="metadata8605">
    <rdf:RDF>
      <cc:Work
         rdf:about="">
        <dc:format>image/svg+xml</dc:format>
        <dc:type
           rdf:resource="http://purl.org/dc/dcmitype/StillImage" />
        <dc:title></dc:title>
      </cc:Work>
    </rdf:RDF>
  </metadata>
  <g
     inkscape:label="Layer 1"
     inkscape:groupmode="layer"
     id="layer1"
     transform="translate(-189.73435,-293.73081)">
    <g
       transform="matrix(0.00899999,0,0,0.00899999,-190.78523,220.29089)"
       style="fill:#840000;fill-opacity:0;stroke:#840000;stroke-width:60;stroke-linecap:round;stroke-linejoin:round;stroke-opacity:1"
       id="g996">
      <path
         inkscape:connector-curvature="0"
         d="m 53100,8960 -30,30 -90,30 -60,0 -80,-30 -60,-50 -30,-60 -30,-120 0,-80 30,-120 30,-50 60,-60 80,-30 60,0 90,30 30,30"
         id="path998" />
      <path
         inkscape:connector-curvature="0"
         d="m 53350,9020 0,-600"
         id="path1000" />
      <path
         inkscape:connector-curvature="0"
         d="m 53350,8710 350,0"
         id="path1002" />
      <path
         inkscape:connector-curvature="0"
         d="m 53700,9020 0,-600"
         id="path1004" />
      <path
         inkscape:connector-curvature="0"
         d="m 53950,8480 30,-30 60,-30 140,0 60,30 30,30 30,60 0,50 -30,90 -340,340 370,0"
         id="path1006" />
    </g>
    <g
       transform="matrix(0.00899999,0,0,0.00899999,-190.78523,220.29089)"
       style="fill:#840000;fill-opacity:0;stroke:#840000;stroke-width:100;stroke-linecap:round;stroke-linejoin:round;stroke-opacity:1"
       id="g1008">
      <polyline
         fill="none;"
         points="52250,8750 52550,9290 54640,9290 54640,8750 54640,8210 52550,8210 52250,8750 "
         id="polyline1010" />
    </g>
    <g
       transform="matrix(0.00899999,0,0,0.00899999,-190.78523,220.29089)"
       style="fill:#840000;fill-opacity:0;stroke:#840000;stroke-width:60;stroke-linecap:round;stroke-linejoin:round;stroke-opacity:1"
       id="g1012">
      <path
         inkscape:connector-curvature="0"
         d="m 43020,13950 -60,-30 -90,0 -80,30 -60,60 -30,50 -30,120 0,80 30,120 30,60 60,50 80,30 60,0 90,-30 30,-30 0,-200 -120,0"
         id="path1014" />
      <path
         inkscape:connector-curvature="0"
         d="m 43300,14520 0,-600 350,600 0,-600"
         id="path1016" />
      <path
         inkscape:connector-curvature="0"
         d="m 43930,14520 0,-600 150,0 80,30 60,60 30,50 30,120 0,80 -30,120 -30,60 -60,50 -80,30 -150,0"
         id="path1018" />
    </g>
    <g
       transform="matrix(0.00899999,0,0,0.00899999,-190.78523,220.29089)"
       style="fill:#840000;fill-opacity:0;stroke:#840000;stroke-width:100;stroke-linecap:round;stroke-linejoin:round;stroke-opacity:1"
       id="g1020">
      <polyline
         fill="none;"
         points="44750,14250 44450,13710 42330,13710 42330,14250 42330,14790 44450,14790 44750,14250 "
         id="polyline1022" />
    </g>
    <g
       transform="matrix(0.00899999,0,0,0.00899999,-190.78523,220.29089)"
       style="fill:#840000;fill-opacity:0;stroke:#840000;stroke-width:60;stroke-linecap:round;stroke-linejoin:round;stroke-opacity:1"
       id="g1024">
      <path
         inkscape:connector-curvature="0"
         d="m 42720,8420 140,600 110,-430 120,430 140,-600"
         id="path1026" />
      <path
         inkscape:connector-curvature="0"
         d="m 43780,9020 -350,0"
         id="path1028" />
      <path
         inkscape:connector-curvature="0"
         d="m 43610,9020 0,-600 -60,90 -60,50 -60,30"
         id="path1030" />
    </g>
    <g
       transform="matrix(0.00899999,0,0,0.00899999,-190.78523,220.29089)"
       style="fill:#840000;fill-opacity:0;stroke:#840000;stroke-width:100;stroke-linecap:round;stroke-linejoin:round;stroke-opacity:1"
       id="g1032">
      <polyline
         fill="none;"
         points="44250,8750 43950,8210 42400,8210 42400,8750 42400,9290 43950,9290 44250,8750 "
         id="polyline1034" />
    </g>
    <g
       transform="matrix(0.00899999,0,0,0.00899999,-190.78523,220.29089)"
       style="fill:#840000;fill-opacity:0;stroke:#840000;stroke-width:60;stroke-linecap:round;stroke-linejoin:round;stroke-opacity:1"
       id="g1036">
      <path
         inkscape:connector-curvature="0"
         d="m 43080,10210 -30,30 -90,30 -60,0 -80,-30 -60,-50 -30,-60 -30,-120 0,-80 30,-120 30,-50 60,-60 80,-30 60,0 90,30 30,30"
         id="path1038" />
      <path
         inkscape:connector-curvature="0"
         d="m 43330,10270 0,-600"
         id="path1040" />
      <path
         inkscape:connector-curvature="0"
         d="m 43330,9960 350,0"
         id="path1042" />
      <path
         inkscape:connector-curvature="0"
         d="m 43680,10270 0,-600"
         id="path1044" />
      <path
         inkscape:connector-curvature="0"
         d="m 44280,10270 -350,0"
         id="path1046" />
      <path
         inkscape:connector-curvature="0"
         d="m 44110,10270 0,-600 -60,90 -60,50 -60,30"
         id="path1048" />
    </g>
    <g
       transform="matrix(0.00899999,0,0,0.00899999,-190.78523,220.29089)"
       style="fill:#840000;fill-opacity:0;stroke:#840000;stroke-width:100;stroke-linecap:round;stroke-linejoin:round;stroke-opacity:1"
       id="g1050">
      <polyline
         fill="none;"
         points="44750,10000 44450,9460 42360,9460 42360,10000 42360,10540 44450,10540 44750,10000 "
         id="polyline1052" />
    </g>
    <g
       transform="matrix(0.00899999,0,0,0.00899999,-190.78523,220.29089)"
       style="fill:#008400;fill-opacity:0;stroke:#008400;stroke-width:60;stroke-linecap:round;stroke-linejoin:round;stroke-opacity:1"
       id="g1110">
      <path
         inkscape:connector-curvature="0"
         d="m 49750,8750 2500,0"
         id="path1112" />
      <path
         inkscape:connector-curvature="0"
         d="m 44250,8750 2750,0"
         id="path1114" />
      <path
         inkscape:connector-curvature="0"
         d="m 44750,14250 0,500"
         id="path1116" />
      <path
         inkscape:connector-curvature="0"
         d="m 44750,14750 2250,0"
         id="path1118" />
    </g>
    <g
       transform="matrix(0.00899999,0,0,0.00899999,-190.78523,220.29089)"
       style="fill:#840000;fill-opacity:0;stroke:#840000;stroke-width:60;stroke-linecap:round;stroke-linejoin:round;stroke-opacity:1"
       id="g1124">
      <path
         inkscape:connector-curvature="0"
         d="m 49740.4,9750.09 a 500,500 0 0 0 0,999.81"
         id="path1126" />
      <path
         inkscape:connector-curvature="0"
         d="m 49740.2,10750.1 a 510,510 0 0 0 0,1019.8"
         id="path1128" />
      <path
         inkscape:connector-curvature="0"
         d="m 49740.2,11750.1 a 510,510 0 0 0 0,1019.8"
         id="path1130" />
      <path
         inkscape:connector-curvature="0"
         d="m 49740.8,12750.1 a 480,480 0 0 0 0,959.8"
         id="path1132" />
      <polyline
         fill="none;"
         points="48750,9750 48750,13750 "
         id="polyline1134" />
      <path
         inkscape:connector-curvature="0"
         d="m 49750,13750 0,1000"
         id="path1136" />
      <path
         inkscape:connector-curvature="0"
         d="m 49750,9750 0,-1000"
         id="path1138" />
    </g>
    <g
       transform="matrix(0.00899999,0,0,0.00899999,-190.78523,220.29089)"
       style="fill:#008484;fill-opacity:0;stroke:#008484;stroke-width:60;stroke-linecap:round;stroke-linejoin:round;stroke-opacity:1"
       id="g1140">
      <path
         inkscape:connector-curvature="0"
         d="m 50510,12680 0,280"
         id="path1142" />
      <path
         inkscape:connector-curvature="0"
         d="m 50510,12820 -500,0 70,50 50,50 20,40"
         id="path1144" />
      <path
         inkscape:connector-curvature="0"
         d="m 50050,12480 -20,-20 -20,-50 0,-120 20,-40 20,-30 50,-20 50,0 70,20 290,290 0,-310"
         id="path1146" />
      <path
         inkscape:connector-curvature="0"
         d="m 50010,11740 0,240 230,20 -20,-20 -20,-50 0,-120 20,-40 20,-30 50,-20 120,0 50,20 20,30 30,40 0,120 -30,50 -20,20"
         id="path1148" />
      <path
         inkscape:connector-curvature="0"
         d="m 50510,11500 -340,0"
         id="path1150" />
      <path
         inkscape:connector-curvature="0"
         d="m 50220,11500 -20,-20 -30,-50 0,-70 30,-50 40,-20 270,0"
         id="path1152" />
      <path
         inkscape:connector-curvature="0"
         d="m 50240,11290 -40,-30 -30,-40 0,-80 30,-40 40,-30 270,0"
         id="path1154" />
      <path
         inkscape:connector-curvature="0"
         d="m 50510,10830 -500,0"
         id="path1156" />
      <path
         inkscape:connector-curvature="0"
         d="m 50240,10830 0,-280"
         id="path1158" />
      <path
         inkscape:connector-curvature="0"
         d="m 50510,10550 -500,0"
         id="path1160" />
    </g>
    <g
       transform="matrix(0.00899999,0,0,0.00899999,-190.78523,220.29089)"
       style="fill:#840000;fill-opacity:0;stroke:#840000;stroke-width:60;stroke-linecap:round;stroke-linejoin:round;stroke-opacity:1"
       id="g1162">
      <path
         inkscape:connector-curvature="0"
         d="m 53070,13700 -60,-30 -90,0 -80,30 -60,60 -30,50 -30,120 0,80 30,120 30,60 60,50 80,30 60,0 90,-30 30,-30 0,-200 -120,0"
         id="path1164" />
      <path
         inkscape:connector-curvature="0"
         d="m 53350,14270 0,-600 350,600 0,-600"
         id="path1166" />
      <path
         inkscape:connector-curvature="0"
         d="m 53980,14270 0,-600 150,0 80,30 60,60 30,50 30,120 0,80 -30,120 -30,60 -60,50 -80,30 -150,0"
         id="path1168" />
    </g>
    <g
       transform="matrix(0.00899999,0,0,0.00899999,-190.78523,220.29089)"
       style="fill:#840000;fill-opacity:0;stroke:#840000;stroke-width:100;stroke-linecap:round;stroke-linejoin:round;stroke-opacity:1"
       id="g1170">
      <polyline
         fill="none;"
         points="52250,14000 52550,14540 54670,14540 54670,14000 54670,13460 52550,13460 52250,14000 "
         id="polyline1172" />
    </g>
    <g
       transform="matrix(0.00899999,0,0,0.00899999,-190.78523,220.29089)"
       style="fill:#008400;fill-opacity:0;stroke:#008400;stroke-width:60;stroke-linecap:round;stroke-linejoin:round;stroke-opacity:1"
       id="g1176">
      <path
         inkscape:connector-curvature="0"
         d="m 52250,14000 0,750"
         id="path1178" />
      <path
         inkscape:connector-curvature="0"
         d="m 52250,14750 -2500,0"
         id="path1180" />
      <path
         inkscape:connector-curvature="0"
         d="m 44750,10000 250,0"
         id="path1182" />
      <path
         inkscape:connector-curvature="0"
         d="m 45000,10000 0,-1250"
         id="path1184" />
    </g>
    <g
       transform="matrix(0.00899999,0,0,0.00899999,-190.78523,220.29089)"
       style="fill:#008400;fill-opacity:1;stroke:#008400;stroke-width:100;stroke-linecap:round;stroke-linejoin:round;stroke-opacity:1"
       id="g1188">
      <circle
         cx="45000"
         cy="8750"
         r="200"
         id="circle1190" />
    </g>
    <g
       transform="matrix(0.00899999,0,0,0.00899999,-190.78523,220.29089)"
       style="fill:#840000;fill-opacity:0;stroke:#840000;stroke-width:60;stroke-linecap:round;stroke-linejoin:round;stroke-opacity:1"
       id="g1196">
      <path
         inkscape:connector-curvature="0"
         d="m 47009.6,13749.9 a 500,500 0 0 0 0,-999.8"
         id="path1198" />
      <path
         inkscape:connector-curvature="0"
         d="m 47009.8,12749.9 a 510,510 0 0 0 0,-1019.8"
         id="path1200" />
      <path
         inkscape:connector-curvature="0"
         d="m 47009.8,11749.9 a 510,510 0 0 0 0,-1019.8"
         id="path1202" />
      <path
         inkscape:connector-curvature="0"
         d="m 47009.2,10749.9 a 480,480 0 0 0 0,-959.81"
         id="path1204" />
      <polyline
         fill="none;"
         points="48000,13750 48000,9750 "
         id="polyline1206" />
      <path
         inkscape:connector-curvature="0"
         d="m 47000,9750 0,-1000"
         id="path1208" />
      <path
         inkscape:connector-curvature="0"
         d="m 47000,13750 0,1000"
         id="path1210" />
    </g>
    <g
       transform="matrix(0.00899999,0,0,0.00899999,-190.78523,220.29089)"
       style="fill:#008484;fill-opacity:0;stroke:#008484;stroke-width:60;stroke-linecap:round;stroke-linejoin:round;stroke-opacity:1"
       id="g1212">
      <path
         inkscape:connector-curvature="0"
         d="m 46700,12670 0,280"
         id="path1214" />
      <path
         inkscape:connector-curvature="0"
         d="m 46700,12810 -500,0 70,50 50,50 20,40"
         id="path1216" />
      <path
         inkscape:connector-curvature="0"
         d="m 46240,12470 -20,-20 -20,-50 0,-120 20,-40 20,-30 50,-20 50,0 70,20 290,290 0,-310"
         id="path1218" />
      <path
         inkscape:connector-curvature="0"
         d="m 46200,11730 0,240 230,20 -20,-20 -20,-50 0,-120 20,-40 20,-30 50,-20 120,0 50,20 20,30 30,40 0,120 -30,50 -20,20"
         id="path1220" />
      <path
         inkscape:connector-curvature="0"
         d="m 46700,11490 -340,0"
         id="path1222" />
      <path
         inkscape:connector-curvature="0"
         d="m 46410,11490 -20,-20 -30,-50 0,-70 30,-50 40,-20 270,0"
         id="path1224" />
      <path
         inkscape:connector-curvature="0"
         d="m 46430,11280 -40,-30 -30,-40 0,-80 30,-40 40,-30 270,0"
         id="path1226" />
      <path
         inkscape:connector-curvature="0"
         d="m 46700,10820 -500,0"
         id="path1228" />
      <path
         inkscape:connector-curvature="0"
         d="m 46430,10820 0,-280"
         id="path1230" />
      <path
         inkscape:connector-curvature="0"
         d="m 46700,10540 -500,0"
         id="path1232" />
    </g>
  </g>
</svg>
