<?xml version="1.0" encoding="UTF-8" standalone="no"?>
<svg
   xmlns:dc="http://purl.org/dc/elements/1.1/"
   xmlns:cc="http://creativecommons.org/ns#"
   xmlns:rdf="http://www.w3.org/1999/02/22-rdf-syntax-ns#"
   xmlns:svg="http://www.w3.org/2000/svg"
   xmlns="http://www.w3.org/2000/svg"
   xmlns:sodipodi="http://sodipodi.sourceforge.net/DTD/sodipodi-0.dtd"
   xmlns:inkscape="http://www.inkscape.org/namespaces/inkscape"
   version="1.1"
   width="26.555178mm"
   height="11.442192mm"
   viewBox="0 0 10454.802 4504.8045"
   id="svg2"
   inkscape:version="0.91 r13725"
   sodipodi:docname="ohms.svg">
  <metadata
     id="metadata428">
    <rdf:RDF>
      <cc:Work
         rdf:about="">
        <dc:format>image/svg+xml</dc:format>
        <dc:type
           rdf:resource="http://purl.org/dc/dcmitype/StillImage" />
        <dc:title>SVG Picture created as halfwave.sch.svg date 2016/06/12 00:14:14 </dc:title>
      </cc:Work>
    </rdf:RDF>
  </metadata>
  <defs
     id="defs426" />
  <sodipodi:namedview
     pagecolor="#ffffff"
     bordercolor="#666666"
     borderopacity="1"
     objecttolerance="10"
     gridtolerance="10"
     guidetolerance="10"
     inkscape:pageopacity="0"
     inkscape:pageshadow="2"
     inkscape:window-width="1855"
     inkscape:window-height="1056"
     id="namedview424"
     showgrid="false"
     fit-margin-top="2"
     fit-margin-left="2"
     fit-margin-right="2"
     fit-margin-bottom="2"
     inkscape:zoom="3.1929586"
     inkscape:cx="-36.374295"
     inkscape:cy="57.687212"
     inkscape:window-x="65"
     inkscape:window-y="24"
     inkscape:window-maximized="1"
     inkscape:current-layer="svg2"
     units="mm" />
  <title
     id="title4">SVG Picture created as halfwave.sch.svg date 2016/06/12 00:14:14 </title>
  <desc
     id="desc6">Picture generated by Eeschema-SVG </desc>
  <g
     style="fill:#000000;fill-opacity:1;stroke:#000000;stroke-linecap:round;stroke-linejoin:round;stroke-opacity:1"
     id="g8"
     transform="translate(-52302.601,-20372.598)" />
  <g
     style="fill:#000000;fill-opacity:0;stroke:#000000;stroke-width:60;stroke-linecap:round;stroke-linejoin:round;stroke-opacity:1"
     id="g10"
     transform="translate(-52302.601,-20372.598)" />
  <g
     style="fill:#840000;fill-opacity:0;stroke:#840000;stroke-width:0;stroke-linecap:round;stroke-linejoin:round;stroke-opacity:1"
     id="g58"
     transform="translate(-52302.601,-20372.598)" />
  <g
     style="fill:#840000;fill-opacity:0;stroke:#840000;stroke-width:0;stroke-linecap:round;stroke-linejoin:round;stroke-opacity:1"
     id="g74"
     transform="translate(-52302.601,-20372.598)" />
  <g
     style="fill:#008484;fill-opacity:0;stroke:#008484;stroke-width:0;stroke-linecap:round;stroke-linejoin:round;stroke-opacity:1"
     id="g100"
     transform="translate(-52302.601,-20372.598)" />
  <g
     style="fill:#840000;fill-opacity:0;stroke:#840000;stroke-width:0;stroke-linecap:round;stroke-linejoin:round;stroke-opacity:1"
     id="g102"
     transform="translate(-52302.601,-20372.598)" />
  <g
     style="fill:#840000;fill-opacity:0;stroke:#840000;stroke-width:60;stroke-linecap:round;stroke-linejoin:round;stroke-opacity:1"
     id="g154"
     transform="translate(-52302.601,-20372.598)" />
  <g
     style="fill:#840000;fill-opacity:0;stroke:#840000;stroke-width:0;stroke-linecap:round;stroke-linejoin:round;stroke-opacity:1"
     id="g218"
     transform="translate(-52302.601,-20372.598)" />
  <g
     style="fill:#840000;fill-opacity:0;stroke:#840000;stroke-width:0;stroke-linecap:round;stroke-linejoin:round;stroke-opacity:1"
     id="g234"
     transform="translate(-52302.601,-20372.598)" />
  <g
     style="fill:#840000;fill-opacity:0;stroke:#840000;stroke-width:60;stroke-linecap:round;stroke-linejoin:round;stroke-opacity:1"
     id="g270"
     transform="translate(-52302.601,-20372.598)" />
  <g
     style="fill:#008400;fill-opacity:0;stroke:#008400;stroke-width:0;stroke-linecap:round;stroke-linejoin:round;stroke-opacity:1"
     id="g280"
     transform="translate(-52302.601,-20372.598)" />
  <g
     style="fill:#008400;fill-opacity:1;stroke:#008400;stroke-width:60;stroke-linecap:round;stroke-linejoin:round;stroke-opacity:1"
     id="g286"
     transform="translate(-52302.601,-20372.598)" />
  <g
     style="fill:#008400;fill-opacity:0;stroke:#008400;stroke-width:0;stroke-linecap:round;stroke-linejoin:round;stroke-opacity:1"
     id="g292"
     transform="translate(-52302.601,-20372.598)" />
  <g
     style="fill:#008400;fill-opacity:1;stroke:#008400;stroke-width:60;stroke-linecap:round;stroke-linejoin:round;stroke-opacity:1"
     id="g298"
     transform="translate(-52302.601,-20372.598)" />
  <g
     style="fill:#0000c2;fill-opacity:0;stroke:#0000c2;stroke-width:60;stroke-linecap:round;stroke-linejoin:round;stroke-opacity:1"
     id="g306"
     transform="translate(-52302.601,-20372.598)" />
  <g
     style="fill:#0000c2;fill-opacity:0;stroke:#0000c2;stroke-width:60;stroke-linecap:round;stroke-linejoin:round;stroke-opacity:1"
     id="g312"
     transform="translate(-52302.601,-20372.598)" />
  <g
     style="fill:#008400;fill-opacity:0;stroke:#008400;stroke-width:0;stroke-linecap:round;stroke-linejoin:round;stroke-opacity:1"
     id="g320"
     transform="translate(-52302.601,-20372.598)" />
  <g
     style="fill:#008400;fill-opacity:1;stroke:#008400;stroke-width:60;stroke-linecap:round;stroke-linejoin:round;stroke-opacity:1"
     id="g326"
     transform="translate(-52302.601,-20372.598)" />
  <g
     style="fill:#008400;fill-opacity:0;stroke:#008400;stroke-width:0;stroke-linecap:round;stroke-linejoin:round;stroke-opacity:1"
     id="g332"
     transform="translate(-52302.601,-20372.598)" />
  <g
     style="fill:#008400;fill-opacity:1;stroke:#008400;stroke-width:60;stroke-linecap:round;stroke-linejoin:round;stroke-opacity:1"
     id="g338"
     transform="translate(-52302.601,-20372.598)" />
  <g
     style="fill:#840000;fill-opacity:0;stroke:#840000;stroke-width:60;stroke-linecap:round;stroke-linejoin:round;stroke-opacity:1"
     id="g348"
     transform="translate(-52302.601,-20372.598)">
    <path
       d="m 53510,22020 0,-600 230,0 60,30 30,30 30,60 0,80 -30,60 -30,30 -60,30 -230,0"
       id="path350"
       inkscape:connector-curvature="0" />
    <path
       d="m 54460,21960 -30,30 -90,30 -60,0 -80,-30 -60,-50 -30,-60 -30,-120 0,-80 30,-120 30,-50 60,-60 80,-30 60,0 90,30 30,30"
       id="path352"
       inkscape:connector-curvature="0" />
    <path
       d="m 54680,21990 90,30 140,0 60,-30 30,-30 30,-50 0,-60 -30,-60 -30,-30 -60,-20 -110,-30 -60,-30 -30,-30 -30,-60 0,-50 30,-60 30,-30 60,-30 140,0 90,30"
       id="path354"
       inkscape:connector-curvature="0" />
  </g>
  <g
     style="fill:#840000;fill-opacity:0;stroke:#840000;stroke-width:100;stroke-linecap:round;stroke-linejoin:round;stroke-opacity:1"
     id="g356"
     transform="translate(-52302.601,-20372.598)">
    <polyline
       fill="none;"
       points="55500,21750 55200,21210 53140,21210 53140,21750 53140,22290 55200,22290 55500,21750 "
       id="polyline358" />
  </g>
  <g
     style="fill:#840000;fill-opacity:0;stroke:#840000;stroke-width:60;stroke-linecap:round;stroke-linejoin:round;stroke-opacity:1"
     id="g360"
     transform="translate(-52302.601,-20372.598)">
    <path
       d="m 60350,21960 -30,30 -90,30 -60,0 -80,-30 -60,-50 -30,-60 -30,-120 0,-80 30,-120 30,-50 60,-60 80,-30 60,0 90,30 30,30"
       id="path362"
       inkscape:connector-curvature="0" />
    <path
       d="m 60600,22020 0,-600"
       id="path364"
       inkscape:connector-curvature="0" />
    <path
       d="m 60600,21710 350,0"
       id="path366"
       inkscape:connector-curvature="0" />
    <path
       d="m 60950,22020 0,-600"
       id="path368"
       inkscape:connector-curvature="0" />
    <path
       d="m 61550,22020 -350,0"
       id="path370"
       inkscape:connector-curvature="0" />
    <path
       d="m 61380,22020 0,-600 -60,90 -60,50 -60,30"
       id="path372"
       inkscape:connector-curvature="0" />
  </g>
  <g
     style="fill:#840000;fill-opacity:0;stroke:#840000;stroke-width:100;stroke-linecap:round;stroke-linejoin:round;stroke-opacity:1"
     id="g374"
     transform="translate(-52302.601,-20372.598)">
    <polyline
       fill="none;"
       points="59500,21750 59800,22290 61890,22290 61890,21750 61890,21210 59800,21210 59500,21750 "
       id="polyline376" />
  </g>
  <g
     style="fill:#840000;fill-opacity:0;stroke:#840000;stroke-width:60;stroke-linecap:round;stroke-linejoin:round;stroke-opacity:1"
     id="g378"
     transform="translate(-52302.601,-20372.598)">
    <path
       d="m 60320,23200 -60,-30 -90,0 -80,30 -60,60 -30,50 -30,120 0,80 30,120 30,60 60,50 80,30 60,0 90,-30 30,-30 0,-200 -120,0"
       id="path380"
       inkscape:connector-curvature="0" />
    <path
       d="m 60600,23770 0,-600 350,600 0,-600"
       id="path382"
       inkscape:connector-curvature="0" />
    <path
       d="m 61230,23770 0,-600 150,0 80,30 60,60 30,50 30,120 0,80 -30,120 -30,60 -60,50 -80,30 -150,0"
       id="path384"
       inkscape:connector-curvature="0" />
  </g>
  <g
     style="fill:#840000;fill-opacity:0;stroke:#840000;stroke-width:100;stroke-linecap:round;stroke-linejoin:round;stroke-opacity:1"
     id="g386"
     transform="translate(-52302.601,-20372.598)">
    <polyline
       fill="none;"
       points="59500,23500 59800,24040 61920,24040 61920,23500 61920,22960 59800,22960 59500,23500 "
       id="polyline388" />
  </g>
  <g
     style="fill:#840000;fill-opacity:0;stroke:#840000;stroke-width:0;stroke-linecap:round;stroke-linejoin:round;stroke-opacity:1"
     id="g390"
     transform="translate(-52302.601,-20372.598)" />
  <g
     style="fill:#840000;fill-opacity:0;stroke:#840000;stroke-width:100;stroke-linecap:round;stroke-linejoin:round;stroke-opacity:1"
     id="g392"
     transform="translate(-52302.601,-20372.598)">
    <rect
       x="56000"
       y="23100"
       width="2000"
       height="800"
       rx="0"
       id="rect394" />
  </g>
  <g
     style="fill:#840000;fill-opacity:0;stroke:#840000;stroke-width:60;stroke-linecap:round;stroke-linejoin:round;stroke-opacity:1"
     id="g396"
     transform="translate(-52302.601,-20372.598)">
    <path
       d="m 58000,23500 500,0"
       id="path398"
       inkscape:connector-curvature="0" />
    <path
       d="m 56000,23500 -500,0"
       id="path400"
       inkscape:connector-curvature="0" />
  </g>
  <g
     style="fill:#008484;fill-opacity:0;stroke:#008484;stroke-width:60;stroke-linecap:round;stroke-linejoin:round;stroke-opacity:1"
     id="g402"
     transform="translate(-52302.601,-20372.598)">
    <path
       d="m 56410,23700 -280,0"
       id="path404"
       inkscape:connector-curvature="0" />
    <path
       d="m 56270,23700 0,-500 -50,70 -50,50 -40,20"
       id="path406"
       inkscape:connector-curvature="0" />
    <path
       d="m 56720,23200 50,0 50,20 20,20 30,50 20,100 0,120 -20,90 -30,50 -20,20 -50,30 -50,0 -40,-30 -30,-20 -20,-50 -20,-90 0,-120 20,-100 20,-50 30,-20 40,-20"
       id="path408"
       inkscape:connector-curvature="0" />
    <path
       d="m 57200,23200 50,0 50,20 20,20 30,50 20,100 0,120 -20,90 -30,50 -20,20 -50,30 -50,0 -40,-30 -30,-20 -20,-50 -20,-90 0,-120 20,-100 20,-50 30,-20 40,-20"
       id="path410"
       inkscape:connector-curvature="0" />
    <path
       d="m 57870,23700 -160,-240"
       id="path412"
       inkscape:connector-curvature="0" />
    <path
       d="m 57590,23700 0,-500 190,0 50,20 20,20 20,50 0,70 -20,50 -20,20 -50,30 -190,0"
       id="path414"
       inkscape:connector-curvature="0" />
  </g>
  <g
     style="fill:#008400;fill-opacity:0;stroke:#008400;stroke-width:60;stroke-linecap:round;stroke-linejoin:round;stroke-opacity:1"
     id="g416"
     transform="translate(-52302.601,-20372.598)">
    <path
       d="m 55500,21750 0,1750"
       id="path418"
       inkscape:connector-curvature="0" />
    <path
       d="m 58500,23500 1000,0"
       id="path420"
       inkscape:connector-curvature="0" />
    <path
       d="m 59500,21750 -4000,0"
       id="path422"
       inkscape:connector-curvature="0" />
  </g>
</svg>
