<?xml version="1.0" encoding="UTF-8" standalone="no"?>
<svg
   xmlns:dc="http://purl.org/dc/elements/1.1/"
   xmlns:cc="http://creativecommons.org/ns#"
   xmlns:rdf="http://www.w3.org/1999/02/22-rdf-syntax-ns#"
   xmlns:svg="http://www.w3.org/2000/svg"
   xmlns="http://www.w3.org/2000/svg"
   xmlns:sodipodi="http://sodipodi.sourceforge.net/DTD/sodipodi-0.dtd"
   xmlns:inkscape="http://www.inkscape.org/namespaces/inkscape"
   version="1.1"
   width="4.2006998cm"
   height="5.7002001cm"
   viewBox="0 0 16538.199 22441.753"
   id="svg1014"
   sodipodi:docname="Phase Shift Oscillator.svg"
   inkscape:version="0.92.2 (5c3e80d, 2017-08-06)">
  <metadata
     id="metadata1020">
    <rdf:RDF>
      <cc:Work
         rdf:about="">
        <dc:format>image/svg+xml</dc:format>
        <dc:type
           rdf:resource="http://purl.org/dc/dcmitype/StillImage" />
        <dc:title>SVG Picture created as PSLAB.svg date 2018/02/28 16:42:21 </dc:title>
      </cc:Work>
    </rdf:RDF>
  </metadata>
  <defs
     id="defs1018" />
  <sodipodi:namedview
     pagecolor="#ffffff"
     bordercolor="#666666"
     borderopacity="1"
     objecttolerance="10"
     gridtolerance="10"
     guidetolerance="10"
     inkscape:pageopacity="0"
     inkscape:pageshadow="2"
     inkscape:window-width="1920"
     inkscape:window-height="986"
     id="namedview1016"
     showgrid="false"
     height="6.7002cm"
     inkscape:zoom="2.3786509"
     inkscape:cx="134.05493"
     inkscape:cy="82.124729"
     inkscape:window-x="-11"
     inkscape:window-y="-11"
     inkscape:window-maximized="1"
     inkscape:current-layer="svg1014" />
  <title
     id="title2">SVG Picture created as PSLAB.svg date 2018/02/28 16:42:21 </title>
  <desc
     id="desc4">Picture generated by Eeschema-SVG </desc>
  <g
     style="fill:#000000;fill-opacity:1;stroke:#000000;stroke-linecap:round;stroke-linejoin:round;stroke-opacity:1"
     id="g6"
     transform="translate(0,-60238.239)" />
  <g
     style="fill:#000000;fill-opacity:0;stroke:#000000;stroke-width:-10;stroke-linecap:round;stroke-linejoin:round;stroke-opacity:1"
     id="g8"
     transform="translate(0,-60238.239)" />
  <g
     style="fill:#840000;fill-opacity:0;stroke:#840000;stroke-width:-10;stroke-linecap:round;stroke-linejoin:round;stroke-opacity:1"
     id="g10"
     transform="translate(0,-60238.239)" />
  <g
     style="fill:#840000;fill-opacity:0;stroke:#840000;stroke-width:100;stroke-linecap:round;stroke-linejoin:round;stroke-opacity:1"
     id="g12"
     transform="translate(0,-60238.239)" />
  <g
     style="fill:#840000;fill-opacity:0;stroke:#840000;stroke-width:100;stroke-linecap:round;stroke-linejoin:round;stroke-opacity:1"
     id="g18"
     transform="translate(0,-60238.239)" />
  <g
     style="fill:#840000;fill-opacity:0;stroke:#840000;stroke-width:100;stroke-linecap:round;stroke-linejoin:round;stroke-opacity:1"
     id="g24"
     transform="translate(0,-60238.239)" />
  <g
     style="fill:#840000;fill-opacity:0;stroke:#840000;stroke-width:100;stroke-linecap:round;stroke-linejoin:round;stroke-opacity:1"
     id="g30"
     transform="translate(0,-60238.239)" />
  <g
     style="fill:#840000;fill-opacity:0;stroke:#840000;stroke-width:100;stroke-linecap:round;stroke-linejoin:round;stroke-opacity:1"
     id="g36"
     transform="translate(0,-60238.239)" />
  <g
     style="fill:#840000;fill-opacity:0;stroke:#840000;stroke-width:100;stroke-linecap:round;stroke-linejoin:round;stroke-opacity:1"
     id="g42"
     transform="translate(0,-60238.239)" />
  <g
     style="fill:#840000;fill-opacity:0;stroke:#840000;stroke-width:100;stroke-linecap:round;stroke-linejoin:round;stroke-opacity:1"
     id="g48"
     transform="translate(0,-60238.239)" />
  <g
     style="fill:#840000;fill-opacity:0;stroke:#840000;stroke-width:100;stroke-linecap:round;stroke-linejoin:round;stroke-opacity:1"
     id="g54"
     transform="translate(0,-60238.239)" />
  <g
     style="fill:#840000;fill-opacity:0;stroke:#840000;stroke-width:100;stroke-linecap:round;stroke-linejoin:round;stroke-opacity:1"
     id="g60"
     transform="translate(0,-60238.239)" />
  <g
     style="fill:#840000;fill-opacity:0;stroke:#840000;stroke-width:100;stroke-linecap:round;stroke-linejoin:round;stroke-opacity:1"
     id="g68"
     transform="translate(0,-60238.239)" />
  <g
     style="fill:#840000;fill-opacity:0;stroke:#840000;stroke-width:100;stroke-linecap:round;stroke-linejoin:round;stroke-opacity:1"
     id="g74"
     transform="translate(0,-60238.239)" />
  <g
     style="fill:#840000;fill-opacity:0;stroke:#840000;stroke-width:100;stroke-linecap:round;stroke-linejoin:round;stroke-opacity:1"
     id="g80"
     transform="translate(0,-60238.239)" />
  <g
     style="fill:#840000;fill-opacity:0;stroke:#840000;stroke-width:100;stroke-linecap:round;stroke-linejoin:round;stroke-opacity:1"
     id="g88"
     transform="translate(0,-60238.239)" />
  <g
     style="fill:#840000;fill-opacity:0;stroke:#840000;stroke-width:100;stroke-linecap:round;stroke-linejoin:round;stroke-opacity:1"
     id="g94"
     transform="translate(0,-60238.239)" />
  <g
     style="fill:#840000;fill-opacity:0;stroke:#840000;stroke-width:100;stroke-linecap:round;stroke-linejoin:round;stroke-opacity:1"
     id="g100"
     transform="translate(0,-60238.239)" />
  <g
     style="fill:#840000;fill-opacity:0;stroke:#840000;stroke-width:100;stroke-linecap:round;stroke-linejoin:round;stroke-opacity:1"
     id="g106"
     transform="translate(0,-60238.239)" />
  <g
     style="fill:#840000;fill-opacity:0;stroke:#840000;stroke-width:100;stroke-linecap:round;stroke-linejoin:round;stroke-opacity:1"
     id="g112"
     transform="translate(0,-60238.239)" />
  <g
     style="fill:#840000;fill-opacity:0;stroke:#840000;stroke-width:100;stroke-linecap:round;stroke-linejoin:round;stroke-opacity:1"
     id="g118"
     transform="translate(0,-60238.239)" />
  <g
     style="fill:#840000;fill-opacity:0;stroke:#840000;stroke-width:100;stroke-linecap:round;stroke-linejoin:round;stroke-opacity:1"
     id="g124"
     transform="translate(0,-60238.239)" />
  <g
     style="fill:#840000;fill-opacity:0;stroke:#840000;stroke-width:100;stroke-linecap:round;stroke-linejoin:round;stroke-opacity:1"
     id="g130"
     transform="translate(0,-60238.239)" />
  <g
     style="fill:#840000;fill-opacity:0;stroke:#840000;stroke-width:100;stroke-linecap:round;stroke-linejoin:round;stroke-opacity:1"
     id="g138"
     transform="translate(0,-60238.239)" />
  <g
     style="fill:#840000;fill-opacity:0;stroke:#840000;stroke-width:100;stroke-linecap:round;stroke-linejoin:round;stroke-opacity:1"
     id="g144"
     transform="translate(0,-60238.239)" />
  <g
     style="fill:#840000;fill-opacity:0;stroke:#840000;stroke-width:100;stroke-linecap:round;stroke-linejoin:round;stroke-opacity:1"
     id="g150"
     transform="translate(0,-60238.239)" />
  <g
     style="fill:#840000;fill-opacity:0;stroke:#840000;stroke-width:100;stroke-linecap:round;stroke-linejoin:round;stroke-opacity:1"
     id="g158"
     transform="translate(0,-60238.239)" />
  <g
     style="fill:#840000;fill-opacity:0;stroke:#840000;stroke-width:100;stroke-linecap:round;stroke-linejoin:round;stroke-opacity:1"
     id="g164"
     transform="translate(0,-60238.239)" />
  <g
     style="fill:#840000;fill-opacity:0;stroke:#840000;stroke-width:100;stroke-linecap:round;stroke-linejoin:round;stroke-opacity:1"
     id="g170"
     transform="translate(0,-60238.239)" />
  <g
     style="fill:#840000;fill-opacity:0;stroke:#840000;stroke-width:100;stroke-linecap:round;stroke-linejoin:round;stroke-opacity:1"
     id="g176"
     transform="translate(0,-60238.239)" />
  <g
     style="fill:#840000;fill-opacity:0;stroke:#840000;stroke-width:100;stroke-linecap:round;stroke-linejoin:round;stroke-opacity:1"
     id="g182"
     transform="translate(0,-60238.239)" />
  <g
     style="fill:#840000;fill-opacity:0;stroke:#840000;stroke-width:100;stroke-linecap:round;stroke-linejoin:round;stroke-opacity:1"
     id="g188"
     transform="translate(0,-60238.239)" />
  <g
     style="fill:#840000;fill-opacity:0;stroke:#840000;stroke-width:100;stroke-linecap:round;stroke-linejoin:round;stroke-opacity:1"
     id="g196"
     transform="translate(0,-60238.239)" />
  <g
     style="fill:#840000;fill-opacity:0;stroke:#840000;stroke-width:100;stroke-linecap:round;stroke-linejoin:round;stroke-opacity:1"
     id="g202"
     transform="translate(0,-60238.239)" />
  <g
     style="fill:#840000;fill-opacity:0;stroke:#840000;stroke-width:100;stroke-linecap:round;stroke-linejoin:round;stroke-opacity:1"
     id="g208"
     transform="translate(0,-60238.239)" />
  <g
     style="fill:#840000;fill-opacity:0;stroke:#840000;stroke-width:100;stroke-linecap:round;stroke-linejoin:round;stroke-opacity:1"
     id="g214"
     transform="translate(0,-60238.239)" />
  <g
     style="fill:#840000;fill-opacity:0;stroke:#840000;stroke-width:100;stroke-linecap:round;stroke-linejoin:round;stroke-opacity:1"
     id="g220"
     transform="translate(0,-60238.239)" />
  <g
     style="fill:#840000;fill-opacity:0;stroke:#840000;stroke-width:100;stroke-linecap:round;stroke-linejoin:round;stroke-opacity:1"
     id="g226"
     transform="translate(0,-60238.239)" />
  <g
     style="fill:#840000;fill-opacity:0;stroke:#840000;stroke-width:100;stroke-linecap:round;stroke-linejoin:round;stroke-opacity:1"
     id="g232"
     transform="translate(0,-60238.239)" />
  <g
     style="fill:#840000;fill-opacity:0;stroke:#840000;stroke-width:100;stroke-linecap:round;stroke-linejoin:round;stroke-opacity:1"
     id="g240"
     transform="translate(0,-60238.239)" />
  <g
     style="fill:#840000;fill-opacity:0;stroke:#840000;stroke-width:100;stroke-linecap:round;stroke-linejoin:round;stroke-opacity:1"
     id="g246"
     transform="translate(0,-60238.239)" />
  <g
     style="fill:#840000;fill-opacity:0;stroke:#840000;stroke-width:100;stroke-linecap:round;stroke-linejoin:round;stroke-opacity:1"
     id="g252"
     transform="translate(0,-60238.239)" />
  <g
     style="fill:#840000;fill-opacity:0;stroke:#840000;stroke-width:100;stroke-linecap:round;stroke-linejoin:round;stroke-opacity:1"
     id="g258"
     transform="translate(0,-60238.239)" />
  <g
     style="fill:#840000;fill-opacity:0;stroke:#840000;stroke-width:100;stroke-linecap:round;stroke-linejoin:round;stroke-opacity:1"
     id="g278"
     transform="translate(0,-60238.239)" />
  <g
     style="fill:#840000;fill-opacity:0;stroke:#840000;stroke-width:100;stroke-linecap:round;stroke-linejoin:round;stroke-opacity:1"
     id="g284"
     transform="translate(0,-60238.239)" />
  <g
     style="fill:#840000;fill-opacity:0;stroke:#840000;stroke-width:100;stroke-linecap:round;stroke-linejoin:round;stroke-opacity:1"
     id="g356"
     transform="translate(0,-60238.239)" />
  <g
     style="fill:#840000;fill-opacity:0;stroke:#840000;stroke-width:100;stroke-linecap:round;stroke-linejoin:round;stroke-opacity:1"
     id="g362"
     transform="translate(0,-60238.239)" />
  <g
     style="fill:#840000;fill-opacity:0;stroke:#840000;stroke-width:100;stroke-linecap:round;stroke-linejoin:round;stroke-opacity:1"
     id="g378"
     transform="translate(0,-60238.239)" />
  <g
     style="fill:#840000;fill-opacity:0;stroke:#840000;stroke-width:100;stroke-linecap:round;stroke-linejoin:round;stroke-opacity:1"
     id="g404"
     transform="translate(0,-60238.239)" />
  <g
     style="fill:#840000;fill-opacity:0;stroke:#840000;stroke-width:100;stroke-linecap:round;stroke-linejoin:round;stroke-opacity:1"
     id="g428"
     transform="translate(0,-60238.239)" />
  <g
     style="fill:#840000;fill-opacity:0;stroke:#840000;stroke-width:100;stroke-linecap:round;stroke-linejoin:round;stroke-opacity:1"
     id="g434"
     transform="translate(0,-60238.239)" />
  <g
     style="fill:#840000;fill-opacity:0;stroke:#840000;stroke-width:100;stroke-linecap:round;stroke-linejoin:round;stroke-opacity:1"
     id="g458"
     transform="translate(0,-60238.239)" />
  <g
     style="fill:#840000;fill-opacity:0;stroke:#840000;stroke-width:100;stroke-linecap:round;stroke-linejoin:round;stroke-opacity:1"
     id="g500"
     transform="translate(0,-60238.239)" />
  <g
     style="fill:#840000;fill-opacity:0;stroke:#840000;stroke-width:100;stroke-linecap:round;stroke-linejoin:round;stroke-opacity:1"
     id="g506"
     transform="translate(0,-60238.239)" />
  <g
     style="fill:#840000;fill-opacity:0;stroke:#840000;stroke-width:100;stroke-linecap:round;stroke-linejoin:round;stroke-opacity:1"
     id="g530"
     transform="translate(0,-60238.239)" />
  <g
     style="fill:#840000;fill-opacity:0;stroke:#840000;stroke-width:100;stroke-linecap:round;stroke-linejoin:round;stroke-opacity:1"
     id="g536"
     transform="translate(0,-60238.239)" />
  <g
     style="fill:#840000;fill-opacity:0;stroke:#840000;stroke-width:0;stroke-linecap:round;stroke-linejoin:round;stroke-opacity:1"
     id="g542"
     transform="translate(0,-60238.239)" />
  <g
     style="fill:#ffffc2;fill-opacity:0;stroke:#ffffc2;stroke-width:0;stroke-linecap:round;stroke-linejoin:round;stroke-opacity:1"
     id="g544"
     transform="translate(0,-60238.239)" />
  <g
     style="fill:#840000;fill-opacity:0.6;stroke:#840000;stroke-width:0;stroke-linecap:round;stroke-linejoin:round;stroke-opacity:1"
     id="g550"
     transform="translate(0,-60238.239)" />
  <g
     style="fill:#840000;fill-opacity:0;stroke:#840000;stroke-width:0;stroke-linecap:round;stroke-linejoin:round;stroke-opacity:1"
     id="g666"
     transform="translate(0,-60238.239)" />
  <g
     style="fill:#008400;fill-opacity:0;stroke:#008400;stroke-width:0;stroke-linecap:round;stroke-linejoin:round;stroke-opacity:1"
     id="g710"
     transform="translate(0,-60238.239)" />
  <g
     style="fill:#840000;fill-opacity:0;stroke:#840000;stroke-width:0;stroke-linecap:round;stroke-linejoin:round;stroke-opacity:1"
     id="g712"
     transform="translate(0,-60238.239)" />
  <g
     style="fill:#008484;fill-opacity:0;stroke:#008484;stroke-width:0;stroke-linecap:round;stroke-linejoin:round;stroke-opacity:1"
     id="g746"
     transform="translate(0,-60238.239)" />
  <g
     style="fill:#840000;fill-opacity:0;stroke:#840000;stroke-width:0;stroke-linecap:round;stroke-linejoin:round;stroke-opacity:1"
     id="g748"
     transform="translate(0,-60238.239)" />
  <g
     style="fill:#008484;fill-opacity:0;stroke:#008484;stroke-width:0;stroke-linecap:round;stroke-linejoin:round;stroke-opacity:1"
     id="g780"
     transform="translate(0,-60238.239)" />
  <g
     style="fill:#840000;fill-opacity:0;stroke:#840000;stroke-width:0;stroke-linecap:round;stroke-linejoin:round;stroke-opacity:1"
     id="g782"
     transform="translate(0,-60238.239)" />
  <g
     style="fill:#840000;fill-opacity:0;stroke:#840000;stroke-width:60;stroke-linecap:round;stroke-linejoin:round;stroke-opacity:1"
     id="g844"
     transform="translate(0,-60238.239)" />
  <g
     style="fill:#008400;fill-opacity:0;stroke:#008400;stroke-width:0;stroke-linecap:round;stroke-linejoin:round;stroke-opacity:1"
     id="g850"
     transform="translate(0,-60238.239)" />
  <g
     style="fill:#840000;fill-opacity:0;stroke:#840000;stroke-width:0;stroke-linecap:round;stroke-linejoin:round;stroke-opacity:1"
     id="g852"
     transform="translate(0,-60238.239)" />
  <g
     style="fill:#008400;fill-opacity:0;stroke:#008400;stroke-width:0;stroke-linecap:round;stroke-linejoin:round;stroke-opacity:1"
     id="g896"
     transform="translate(0,-60238.239)" />
  <g
     style="fill:#008400;fill-opacity:1;stroke:#008400;stroke-width:0;stroke-linecap:round;stroke-linejoin:round;stroke-opacity:1"
     id="g902"
     transform="translate(0,-60238.239)" />
  <g
     style="fill:#840000;fill-opacity:1;stroke:#840000;stroke-width:0;stroke-linecap:round;stroke-linejoin:round;stroke-opacity:1"
     id="g904"
     transform="translate(0,-60238.239)" />
  <g
     style="fill:#008484;fill-opacity:0;stroke:#008484;stroke-width:0;stroke-linecap:round;stroke-linejoin:round;stroke-opacity:1"
     id="g930"
     transform="translate(0,-60238.239)" />
  <g
     style="fill:#840000;fill-opacity:0;stroke:#840000;stroke-width:0;stroke-linecap:round;stroke-linejoin:round;stroke-opacity:1"
     id="g932"
     transform="translate(0,-60238.239)" />
  <g
     style="fill:#008400;fill-opacity:0;stroke:#008400;stroke-width:0;stroke-linecap:round;stroke-linejoin:round;stroke-opacity:1"
     id="g962"
     transform="translate(0,-60238.239)" />
  <g
     style="fill:#008400;fill-opacity:1;stroke:#008400;stroke-width:60;stroke-linecap:round;stroke-linejoin:round;stroke-opacity:1"
     id="g968"
     transform="translate(0,-60238.239)" />
  <g
     style="fill:#008400;fill-opacity:0;stroke:#008400;stroke-width:0;stroke-linecap:round;stroke-linejoin:round;stroke-opacity:1"
     id="g974"
     transform="translate(0,-60238.239)" />
  <g
     style="fill:#008400;fill-opacity:1;stroke:#008400;stroke-width:60;stroke-linecap:round;stroke-linejoin:round;stroke-opacity:1"
     id="g980"
     transform="translate(0,-60238.239)" />
  <g
     style="fill:#840000;fill-opacity:0;stroke:#840000;stroke-width:60;stroke-linecap:round;stroke-linejoin:round;stroke-opacity:1"
     id="g1006"
     transform="translate(0,-60238.239)" />
  <g
     id="g1220"
     transform="translate(-30153.679,-7768.3929)">
    <g
       id="g548"
       style="fill:#ffffc2;fill-opacity:0.6;stroke:#ffffc2;stroke-width:0;stroke-linecap:round;stroke-linejoin:round;stroke-opacity:1">
      <polyline
         id="polyline546"
         points="36500,20500 40500,22500 36500,24500 36500,20500 "
         style="fill-rule:evenodd" />
    </g>
    <g
       id="g554"
       style="fill:#840000;fill-opacity:0;stroke:#840000;stroke-width:100;stroke-linecap:round;stroke-linejoin:round;stroke-opacity:1">
      <polyline
         id="polyline552"
         points="36500,20500 40500,22500 36500,24500 36500,20500 "
         fill="none;" />
    </g>
    <g
       id="g558"
       style="fill:#840000;fill-opacity:0;stroke:#840000;stroke-width:60;stroke-linecap:round;stroke-linejoin:round;stroke-opacity:1">
      <path
         id="path556"
         d="M 37500,21000 V 19500"
         inkscape:connector-curvature="0" />
    </g>
    <g
       id="g566"
       style="fill:#008484;fill-opacity:0;stroke:#008484;stroke-width:60;stroke-linecap:round;stroke-linejoin:round;stroke-opacity:1">
      <path
         id="path560"
         d="m 37230,22200 500,-160 -500,-170"
         inkscape:connector-curvature="0" />
      <path
         id="path562"
         d="m 37540,21700 v -380"
         inkscape:connector-curvature="0" />
      <path
         id="path564"
         d="m 37730,21510 h -380"
         inkscape:connector-curvature="0" />
    </g>
    <g
       id="g572"
       style="fill:#840000;fill-opacity:0;stroke:#840000;stroke-width:60;stroke-linecap:round;stroke-linejoin:round;stroke-opacity:1">
      <path
         id="path568"
         d="m 36920,20390 -20,-20 -20,-50 v -120 l 20,-40 20,-30 50,-20 h 50 l 70,20 290,290 v -310"
         inkscape:connector-curvature="0" />
      <path
         id="path570"
         d="m 37500,24000 v 1500"
         inkscape:connector-curvature="0" />
    </g>
    <g
       id="g578"
       style="fill:#008484;fill-opacity:0;stroke:#008484;stroke-width:60;stroke-linecap:round;stroke-linejoin:round;stroke-opacity:1">
      <path
         id="path574"
         d="m 37230,23750 500,-160 -500,-170"
         inkscape:connector-curvature="0" />
      <path
         id="path576"
         d="m 37540,23250 v -380"
         inkscape:connector-curvature="0" />
    </g>
    <g
       id="g590"
       style="fill:#840000;fill-opacity:0;stroke:#840000;stroke-width:60;stroke-linecap:round;stroke-linejoin:round;stroke-opacity:1">
      <path
         id="path580"
         d="m 36880,24630 v 240 l 230,20 -20,-20 -20,-50 v -120 l 20,-40 20,-30 50,-20 h 120 l 50,20 20,30 30,40 v 120 l -30,50 -20,20"
         inkscape:connector-curvature="0" />
      <path
         id="path582"
         d="m 40500,22500 h 1000"
         inkscape:connector-curvature="0" />
      <path
         id="path584"
         d="m 41140,22380 h -280"
         inkscape:connector-curvature="0" />
      <path
         id="path586"
         d="m 41000,22380 v -500 l -50,70 -50,50 -40,20"
         inkscape:connector-curvature="0" />
      <path
         id="path588"
         d="M 36500,21500 H 35500"
         inkscape:connector-curvature="0" />
    </g>
    <g
       id="g596"
       style="fill:#008484;fill-opacity:0;stroke:#008484;stroke-width:60;stroke-linecap:round;stroke-linejoin:round;stroke-opacity:1">
      <path
         id="path592"
         d="m 36820,21540 h 380"
         inkscape:connector-curvature="0" />
      <path
         id="path594"
         d="m 37010,21730 v -380"
         inkscape:connector-curvature="0" />
    </g>
    <g
       id="g602"
       style="fill:#840000;fill-opacity:0;stroke:#840000;stroke-width:60;stroke-linecap:round;stroke-linejoin:round;stroke-opacity:1">
      <path
         id="path598"
         d="m 35830,20880 h 310 l -170,190 h 80 l 40,20 30,20 20,50 v 120 l -20,50 -30,20 -40,30 h -150 l -40,-30 -30,-20"
         inkscape:connector-curvature="0" />
      <path
         id="path600"
         d="M 36500,23500 H 35500"
         inkscape:connector-curvature="0" />
    </g>
    <g
       id="g606"
       style="fill:#008484;fill-opacity:0;stroke:#008484;stroke-width:60;stroke-linecap:round;stroke-linejoin:round;stroke-opacity:1">
      <path
         id="path604"
         d="m 36820,23540 h 380"
         inkscape:connector-curvature="0" />
    </g>
    <g
       id="g612"
       style="fill:#840000;fill-opacity:0;stroke:#840000;stroke-width:60;stroke-linecap:round;stroke-linejoin:round;stroke-opacity:1">
      <path
         id="path608"
         d="m 36090,23040 v 340"
         inkscape:connector-curvature="0" />
      <path
         id="path610"
         d="m 35970,22850 -110,360 h 300"
         inkscape:connector-curvature="0" />
    </g>
    <g
       id="g648"
       style="fill:#840000;fill-opacity:0;stroke:#840000;stroke-width:60;stroke-linecap:round;stroke-linejoin:round;stroke-opacity:1">
      <path
         id="path644"
         d="m 37170,27050 600,-200 -600,-200"
         inkscape:connector-curvature="0" />
      <path
         id="path646"
         d="m 37540,26460 v -460"
         inkscape:connector-curvature="0" />
    </g>
    <g
       id="g652"
       style="fill:#840000;fill-opacity:0;stroke:#840000;stroke-width:100;stroke-linecap:round;stroke-linejoin:round;stroke-opacity:1">
      <polyline
         id="polyline650"
         points="37500,25500 36960,25800 36960,27340 37500,27340 38040,27340 38040,25800 37500,25500 "
         fill="none;" />
    </g>
    <g
       id="g660"
       style="fill:#840000;fill-opacity:0;stroke:#840000;stroke-width:60;stroke-linecap:round;stroke-linejoin:round;stroke-opacity:1">
      <path
         id="path654"
         d="m 37170,19080 600,-200 -600,-200"
         inkscape:connector-curvature="0" />
      <path
         id="path656"
         d="m 37540,18490 v -460"
         inkscape:connector-curvature="0" />
      <path
         id="path658"
         d="m 37770,18260 h -460"
         inkscape:connector-curvature="0" />
    </g>
    <g
       id="g664"
       style="fill:#840000;fill-opacity:0;stroke:#840000;stroke-width:100;stroke-linecap:round;stroke-linejoin:round;stroke-opacity:1">
      <polyline
         id="polyline662"
         points="37500,19500 38040,19200 38040,17660 37500,17660 36960,17660 36960,19200 37500,19500 "
         fill="none;" />
    </g>
    <g
       id="g670"
       style="fill:#840000;fill-opacity:0;stroke:#840000;stroke-width:100;stroke-linecap:round;stroke-linejoin:round;stroke-opacity:1">
      <rect
         id="rect668"
         rx="0"
         height="800"
         width="2000"
         y="28100"
         x="36500" />
    </g>
    <g
       id="g676"
       style="fill:#840000;fill-opacity:0;stroke:#840000;stroke-width:60;stroke-linecap:round;stroke-linejoin:round;stroke-opacity:1">
      <path
         id="path672"
         d="m 38500,28500 h 500"
         inkscape:connector-curvature="0" />
      <path
         id="path674"
         d="m 36500,28500 h -500"
         inkscape:connector-curvature="0" />
    </g>
    <g
       id="g698"
       style="fill:#008484;fill-opacity:0;stroke:#008484;stroke-width:60;stroke-linecap:round;stroke-linejoin:round;stroke-opacity:1">
      <path
         id="path678"
         d="m 37510,29560 -160,-240"
         inkscape:connector-curvature="0" />
      <path
         id="path680"
         d="m 37230,29560 v -500 h 190 l 50,20 20,20 20,50 v 70 l -20,50 -20,20 -50,30 h -190"
         inkscape:connector-curvature="0" />
      <path
         id="path682"
         d="m 37660,29220 h 190"
         inkscape:connector-curvature="0" />
      <path
         id="path684"
         d="m 37730,29560 v -430 l 20,-50 50,-20 h 50"
         inkscape:connector-curvature="0" />
      <path
         id="path686"
         d="m 37150,28760 h -280"
         inkscape:connector-curvature="0" />
      <path
         id="path688"
         d="m 37010,28760 v -500 l -50,70 -50,50 -40,20"
         inkscape:connector-curvature="0" />
      <path
         id="path690"
         d="m 37390,28760 h 100 l 50,-30 20,-20 50,-70 20,-100 v -190 l -20,-50 -30,-20 -40,-20 h -100 l -50,20 -20,20 -20,50 v 120 l 20,50 20,20 50,30 h 100 l 40,-30 30,-20 20,-50"
         inkscape:connector-curvature="0" />
      <path
         id="path692"
         d="m 37850,28760 v -500"
         inkscape:connector-curvature="0" />
      <path
         id="path694"
         d="m 38130,28760 -210,-290"
         inkscape:connector-curvature="0" />
      <path
         id="path696"
         d="m 38130,28260 -280,280"
         inkscape:connector-curvature="0" />
    </g>
    <g
       id="g708"
       style="fill:#008400;fill-opacity:0;stroke:#008400;stroke-width:60;stroke-linecap:round;stroke-linejoin:round;stroke-opacity:1">
      <path
         id="path700"
         d="m 35500,23500 v 5000"
         inkscape:connector-curvature="0" />
      <path
         id="path702"
         d="m 35500,28500 h 500"
         inkscape:connector-curvature="0" />
      <path
         id="path704"
         d="m 39000,28500 h 2500"
         inkscape:connector-curvature="0" />
      <path
         id="path706"
         d="M 41500,28500 V 22500"
         inkscape:connector-curvature="0" />
    </g>
    <g
       id="g718"
       style="fill:#840000;fill-opacity:0;stroke:#840000;stroke-width:200;stroke-linecap:round;stroke-linejoin:round;stroke-opacity:1">
      <polyline
         id="polyline714"
         points="32700,15200 32700,16800 "
         fill="none;" />
      <polyline
         id="polyline716"
         points="33300,15200 33300,16800 "
         fill="none;" />
    </g>
    <g
       id="g724"
       style="fill:#840000;fill-opacity:0;stroke:#840000;stroke-width:60;stroke-linecap:round;stroke-linejoin:round;stroke-opacity:1">
      <path
         id="path720"
         d="m 33400,16000 h 1100"
         inkscape:connector-curvature="0" />
      <path
         id="path722"
         d="M 32600,16000 H 31500"
         inkscape:connector-curvature="0" />
    </g>
    <g
       id="g744"
       style="fill:#008484;fill-opacity:0;stroke:#008484;stroke-width:60;stroke-linecap:round;stroke-linejoin:round;stroke-opacity:1">
      <path
         id="path726"
         d="m 34140,16830 20,20 30,70 v 50 l -30,70 -50,50 -40,20 -100,20 h -70 l -90,-20 -50,-20 -50,-50 -20,-70 v -50 l 20,-70 20,-20"
         inkscape:connector-curvature="0" />
      <path
         id="path728"
         d="m 34190,16350 v 280"
         inkscape:connector-curvature="0" />
      <path
         id="path730"
         d="m 34190,16490 h -500 l 70,50 50,50 20,40"
         inkscape:connector-curvature="0" />
      <path
         id="path732"
         d="m 32190,17230 v 280"
         inkscape:connector-curvature="0" />
      <path
         id="path734"
         d="m 32190,17370 h -500 l 70,50 50,50 20,40"
         inkscape:connector-curvature="0" />
      <path
         id="path736"
         d="m 31850,16800 h 340"
         inkscape:connector-curvature="0" />
      <path
         id="path738"
         d="m 31850,17010 h 260 l 50,-20 30,-50 v -70 l -30,-50 -20,-20"
         inkscape:connector-curvature="0" />
      <path
         id="path740"
         d="m 31920,16390 v 170"
         inkscape:connector-curvature="0" />
      <path
         id="path742"
         d="m 32190,16560 h -500 v -240"
         inkscape:connector-curvature="0" />
    </g>
    <g
       id="g754"
       style="fill:#840000;fill-opacity:0;stroke:#840000;stroke-width:200;stroke-linecap:round;stroke-linejoin:round;stroke-opacity:1">
      <polyline
         id="polyline750"
         points="37200,15200 37200,16800 "
         fill="none;" />
      <polyline
         id="polyline752"
         points="37800,15200 37800,16800 "
         fill="none;" />
    </g>
    <g
       id="g760"
       style="fill:#840000;fill-opacity:0;stroke:#840000;stroke-width:60;stroke-linecap:round;stroke-linejoin:round;stroke-opacity:1">
      <path
         id="path756"
         d="m 37900,16000 h 1100"
         inkscape:connector-curvature="0" />
      <path
         id="path758"
         d="M 37100,16000 H 36000"
         inkscape:connector-curvature="0" />
    </g>
    <g
       id="g778"
       style="fill:#008484;fill-opacity:0;stroke:#008484;stroke-width:60;stroke-linecap:round;stroke-linejoin:round;stroke-opacity:1">
      <path
         id="path762"
         d="m 38640,16830 20,20 30,70 v 50 l -30,70 -50,50 -40,20 -100,20 h -70 l -90,-20 -50,-20 -50,-50 -20,-70 v -50 l 20,-70 20,-20"
         inkscape:connector-curvature="0" />
      <path
         id="path764"
         d="m 38230,16630 -20,-20 -20,-50 v -120 l 20,-40 20,-30 50,-20 h 50 l 70,20 290,290 v -310"
         inkscape:connector-curvature="0" />
      <path
         id="path766"
         d="m 36690,17230 v 280"
         inkscape:connector-curvature="0" />
      <path
         id="path768"
         d="m 36690,17370 h -500 l 70,50 50,50 20,40"
         inkscape:connector-curvature="0" />
      <path
         id="path770"
         d="m 36350,16800 h 340"
         inkscape:connector-curvature="0" />
      <path
         id="path772"
         d="m 36350,17010 h 260 l 50,-20 30,-50 v -70 l -30,-50 -20,-20"
         inkscape:connector-curvature="0" />
      <path
         id="path774"
         d="m 36420,16390 v 170"
         inkscape:connector-curvature="0" />
      <path
         id="path776"
         d="m 36690,16560 h -500 v -240"
         inkscape:connector-curvature="0" />
    </g>
    <g
       id="g788"
       style="fill:#840000;fill-opacity:0;stroke:#840000;stroke-width:200;stroke-linecap:round;stroke-linejoin:round;stroke-opacity:1">
      <polyline
         id="polyline784"
         points="41200,15200 41200,16800 "
         fill="none;" />
      <polyline
         id="polyline786"
         points="41800,15200 41800,16800 "
         fill="none;" />
    </g>
    <g
       id="g794"
       style="fill:#840000;fill-opacity:0;stroke:#840000;stroke-width:60;stroke-linecap:round;stroke-linejoin:round;stroke-opacity:1">
      <path
         id="path790"
         d="m 41900,16000 h 1100"
         inkscape:connector-curvature="0" />
      <path
         id="path792"
         d="M 41100,16000 H 40000"
         inkscape:connector-curvature="0" />
    </g>
    <g
       id="g812"
       style="fill:#008484;fill-opacity:0;stroke:#008484;stroke-width:60;stroke-linecap:round;stroke-linejoin:round;stroke-opacity:1">
      <path
         id="path796"
         d="m 42640,16830 20,20 30,70 v 50 l -30,70 -50,50 -40,20 -100,20 h -70 l -90,-20 -50,-20 -50,-50 -20,-70 v -50 l 20,-70 20,-20"
         inkscape:connector-curvature="0" />
      <path
         id="path798"
         d="m 42190,16660 v -310 l 190,170 v -80 l 20,-40 20,-30 50,-20 h 120 l 50,20 20,30 30,40 v 150 l -30,40 -20,30"
         inkscape:connector-curvature="0" />
      <path
         id="path800"
         d="m 40690,17230 v 280"
         inkscape:connector-curvature="0" />
      <path
         id="path802"
         d="m 40690,17370 h -500 l 70,50 50,50 20,40"
         inkscape:connector-curvature="0" />
      <path
         id="path804"
         d="m 40350,16800 h 340"
         inkscape:connector-curvature="0" />
      <path
         id="path806"
         d="m 40350,17010 h 260 l 50,-20 30,-50 v -70 l -30,-50 -20,-20"
         inkscape:connector-curvature="0" />
      <path
         id="path808"
         d="m 40420,16390 v 170"
         inkscape:connector-curvature="0" />
      <path
         id="path810"
         d="m 40690,16560 h -500 v -240"
         inkscape:connector-curvature="0" />
    </g>
    <g
       id="g820"
       style="fill:#840000;fill-opacity:0;stroke:#840000;stroke-width:60;stroke-linecap:round;stroke-linejoin:round;stroke-opacity:1">
      <path
         id="path814"
         d="m 33770,21200 -60,-30 h -90 l -80,30 -60,60 -30,50 -30,120 v 80 l 30,120 30,60 60,50 80,30 h 60 l 90,-30 30,-30 v -200 h -120"
         inkscape:connector-curvature="0" />
      <path
         id="path816"
         d="m 34050,21770 v -600 l 350,600 v -600"
         inkscape:connector-curvature="0" />
      <path
         id="path818"
         d="m 34680,21770 v -600 h 150 l 80,30 60,60 30,50 30,120 v 80 l -30,120 -30,60 -60,50 -80,30 h -150"
         inkscape:connector-curvature="0" />
    </g>
    <g
       id="g824"
       style="fill:#840000;fill-opacity:0;stroke:#840000;stroke-width:100;stroke-linecap:round;stroke-linejoin:round;stroke-opacity:1">
      <polyline
         id="polyline822"
         points="35500,21500 35200,20960 33080,20960 33080,21500 33080,22040 35200,22040 35500,21500 "
         fill="none;" />
    </g>
    <g
       id="g838"
       style="fill:#840000;fill-opacity:0;stroke:#840000;stroke-width:60;stroke-linecap:round;stroke-linejoin:round;stroke-opacity:1">
      <path
         id="path826"
         d="m 44850,22710 -30,30 -90,30 h -60 l -80,-30 -60,-50 -30,-60 -30,-120 v -80 l 30,-120 30,-50 60,-60 80,-30 h 60 l 90,30 30,30"
         inkscape:connector-curvature="0" />
      <path
         id="path828"
         d="m 45100,22770 v -600"
         inkscape:connector-curvature="0" />
      <path
         id="path830"
         d="m 45100,22460 h 350"
         inkscape:connector-curvature="0" />
      <path
         id="path832"
         d="m 45450,22770 v -600"
         inkscape:connector-curvature="0" />
      <path
         id="path834"
         d="m 46050,22770 h -350"
         inkscape:connector-curvature="0" />
      <path
         id="path836"
         d="m 45880,22770 v -600 l -60,90 -60,50 -60,30"
         inkscape:connector-curvature="0" />
    </g>
    <g
       id="g842"
       style="fill:#840000;fill-opacity:0;stroke:#840000;stroke-width:100;stroke-linecap:round;stroke-linejoin:round;stroke-opacity:1">
      <polyline
         id="polyline840"
         points="44000,22500 44300,23040 46390,23040 46390,22500 46390,21960 44300,21960 44000,22500 "
         fill="none;" />
    </g>
    <g
       id="g848"
       style="fill:#008400;fill-opacity:0;stroke:#008400;stroke-width:60;stroke-linecap:round;stroke-linejoin:round;stroke-opacity:1">
      <path
         id="path846"
         d="m 41500,22500 h 2500"
         inkscape:connector-curvature="0" />
    </g>
    <g
       id="g856"
       style="fill:#840000;fill-opacity:0;stroke:#840000;stroke-width:100;stroke-linecap:round;stroke-linejoin:round;stroke-opacity:1">
      <rect
         id="rect854"
         rx="0"
         height="2000"
         width="800"
         y="20500"
         x="30600" />
    </g>
    <g
       id="g862"
       style="fill:#840000;fill-opacity:0;stroke:#840000;stroke-width:60;stroke-linecap:round;stroke-linejoin:round;stroke-opacity:1">
      <path
         id="path858"
         d="m 31000,20500 v -500"
         inkscape:connector-curvature="0" />
      <path
         id="path860"
         d="m 31000,22500 v 500"
         inkscape:connector-curvature="0" />
    </g>
    <g
       id="g878"
       style="fill:#008484;fill-opacity:0;stroke:#008484;stroke-width:60;stroke-linecap:round;stroke-linejoin:round;stroke-opacity:1">
      <path
         id="path864"
         d="m 32060,21590 -240,160"
         inkscape:connector-curvature="0" />
      <path
         id="path866"
         d="m 32060,21870 h -500 v -190 l 20,-50 20,-20 50,-20 h 70 l 50,20 20,20 30,50 v 190"
         inkscape:connector-curvature="0" />
      <path
         id="path868"
         d="m 32060,21110 v 280"
         inkscape:connector-curvature="0" />
      <path
         id="path870"
         d="m 32060,21250 h -500 l 70,50 50,50 20,40"
         inkscape:connector-curvature="0" />
      <path
         id="path872"
         d="m 30760,21890 v 90 l 20,50 20,20 80,50 90,20 h 190 l 50,-20 20,-20 30,-50 v -100 l -30,-40 -20,-30 -50,-20 h -120 l -50,20 -20,30 -20,40 v 100 l 20,50 20,20 50,20"
         inkscape:connector-curvature="0" />
      <path
         id="path874"
         d="m 30760,21380 v 240 l 230,20 -20,-20 -20,-50 v -120 l 20,-40 20,-30 50,-20 h 120 l 50,20 20,30 30,40 v 120 l -30,50 -20,20"
         inkscape:connector-curvature="0" />
      <path
         id="path876"
         d="m 30760,21050 v -50 l 20,-50 20,-20 50,-30 100,-20 h 120 l 90,20 50,30 20,20 30,50 v 50 l -30,40 -20,30 -50,20 -90,20 h -120 l -100,-20 -50,-20 -20,-30 -20,-40"
         inkscape:connector-curvature="0" />
    </g>
    <g
       id="g894"
       style="fill:#008400;fill-opacity:0;stroke:#008400;stroke-width:60;stroke-linecap:round;stroke-linejoin:round;stroke-opacity:1">
      <path
         id="path880"
         d="M 35500,23500 H 31000"
         inkscape:connector-curvature="0" />
      <path
         id="path882"
         d="m 31000,23500 v -500"
         inkscape:connector-curvature="0" />
      <path
         id="path884"
         d="M 31000,20000 V 16000"
         inkscape:connector-curvature="0" />
      <path
         id="path886"
         d="m 31000,16000 h 500"
         inkscape:connector-curvature="0" />
      <path
         id="path888"
         d="m 34500,16000 h 1500"
         inkscape:connector-curvature="0" />
      <path
         id="path890"
         d="m 39000,16000 h 1000"
         inkscape:connector-curvature="0" />
      <path
         id="path892"
         d="M 43000,22500 V 16000"
         inkscape:connector-curvature="0" />
    </g>
    <g
       id="g900"
       style="fill:#008400;fill-opacity:1;stroke:#008400;stroke-width:100;stroke-linecap:round;stroke-linejoin:round;stroke-opacity:1">
      <circle
         id="circle898"
         r="200"
         cy="22500"
         cx="43000" />
    </g>
    <g
       id="g908"
       style="fill:#840000;fill-opacity:0;stroke:#840000;stroke-width:100;stroke-linecap:round;stroke-linejoin:round;stroke-opacity:1">
      <rect
         id="rect906"
         rx="0"
         height="2000"
         width="800"
         y="12500"
         x="34600" />
    </g>
    <g
       id="g914"
       style="fill:#840000;fill-opacity:0;stroke:#840000;stroke-width:60;stroke-linecap:round;stroke-linejoin:round;stroke-opacity:1">
      <path
         id="path910"
         d="m 35000,12500 v -500"
         inkscape:connector-curvature="0" />
      <path
         id="path912"
         d="m 35000,14500 v 500"
         inkscape:connector-curvature="0" />
    </g>
    <g
       id="g928"
       style="fill:#008484;fill-opacity:0;stroke:#008484;stroke-width:60;stroke-linecap:round;stroke-linejoin:round;stroke-opacity:1">
      <path
         id="path916"
         d="m 36060,13590 -240,160"
         inkscape:connector-curvature="0" />
      <path
         id="path918"
         d="m 36060,13870 h -500 v -190 l 20,-50 20,-20 50,-20 h 70 l 50,20 20,20 30,50 v 190"
         inkscape:connector-curvature="0" />
      <path
         id="path920"
         d="m 35600,13390 -20,-20 -20,-50 v -120 l 20,-40 20,-30 50,-20 h 50 l 70,20 290,290 v -310"
         inkscape:connector-curvature="0" />
      <path
         id="path922"
         d="m 34760,13890 v 90 l 20,50 20,20 80,50 90,20 h 190 l 50,-20 20,-20 30,-50 v -100 l -30,-40 -20,-30 -50,-20 h -120 l -50,20 -20,30 -20,40 v 100 l 20,50 20,20 50,20"
         inkscape:connector-curvature="0" />
      <path
         id="path924"
         d="m 34760,13380 v 240 l 230,20 -20,-20 -20,-50 v -120 l 20,-40 20,-30 50,-20 h 120 l 50,20 20,30 30,40 v 120 l -30,50 -20,20"
         inkscape:connector-curvature="0" />
      <path
         id="path926"
         d="m 34760,13050 v -50 l 20,-50 20,-20 50,-30 100,-20 h 120 l 90,20 50,30 20,20 30,50 v 50 l -30,40 -20,30 -50,20 -90,20 h -120 l -100,-20 -50,-20 -20,-30 -20,-40"
         inkscape:connector-curvature="0" />
    </g>
    <g
       id="g936"
       style="fill:#840000;fill-opacity:0;stroke:#840000;stroke-width:100;stroke-linecap:round;stroke-linejoin:round;stroke-opacity:1">
      <rect
         id="rect934"
         rx="0"
         height="2000"
         width="800"
         y="12500"
         x="39100" />
    </g>
    <g
       id="g942"
       style="fill:#840000;fill-opacity:0;stroke:#840000;stroke-width:60;stroke-linecap:round;stroke-linejoin:round;stroke-opacity:1">
      <path
         id="path938"
         d="m 39500,12500 v -500"
         inkscape:connector-curvature="0" />
      <path
         id="path940"
         d="m 39500,14500 v 500"
         inkscape:connector-curvature="0" />
    </g>
    <g
       id="g956"
       style="fill:#008484;fill-opacity:0;stroke:#008484;stroke-width:60;stroke-linecap:round;stroke-linejoin:round;stroke-opacity:1">
      <path
         id="path944"
         d="m 40560,13590 -240,160"
         inkscape:connector-curvature="0" />
      <path
         id="path946"
         d="m 40560,13870 h -500 v -190 l 20,-50 20,-20 50,-20 h 70 l 50,20 20,20 30,50 v 190"
         inkscape:connector-curvature="0" />
      <path
         id="path948"
         d="m 40060,13420 v -310 l 190,170 v -80 l 20,-40 20,-30 50,-20 h 120 l 50,20 20,30 30,40 v 150 l -30,40 -20,30"
         inkscape:connector-curvature="0" />
      <path
         id="path950"
         d="m 39260,13890 v 90 l 20,50 20,20 80,50 90,20 h 190 l 50,-20 20,-20 30,-50 v -100 l -30,-40 -20,-30 -50,-20 h -120 l -50,20 -20,30 -20,40 v 100 l 20,50 20,20 50,20"
         inkscape:connector-curvature="0" />
      <path
         id="path952"
         d="m 39260,13380 v 240 l 230,20 -20,-20 -20,-50 v -120 l 20,-40 20,-30 50,-20 h 120 l 50,20 20,30 30,40 v 120 l -30,50 -20,20"
         inkscape:connector-curvature="0" />
      <path
         id="path954"
         d="m 39260,13050 v -50 l 20,-50 20,-20 50,-30 100,-20 h 120 l 90,20 50,30 20,20 30,50 v 50 l -30,40 -20,30 -50,20 -90,20 h -120 l -100,-20 -50,-20 -20,-30 -20,-40"
         inkscape:connector-curvature="0" />
    </g>
    <g
       id="g960"
       style="fill:#008400;fill-opacity:0;stroke:#008400;stroke-width:60;stroke-linecap:round;stroke-linejoin:round;stroke-opacity:1">
      <path
         id="path958"
         d="m 35000,15000 v 1000"
         inkscape:connector-curvature="0" />
    </g>
    <g
       id="g966"
       style="fill:#008400;fill-opacity:1;stroke:#008400;stroke-width:100;stroke-linecap:round;stroke-linejoin:round;stroke-opacity:1">
      <circle
         id="circle964"
         r="200"
         cy="16000"
         cx="35000" />
    </g>
    <g
       id="g972"
       style="fill:#008400;fill-opacity:0;stroke:#008400;stroke-width:60;stroke-linecap:round;stroke-linejoin:round;stroke-opacity:1">
      <path
         id="path970"
         d="m 39500,15000 v 1000"
         inkscape:connector-curvature="0" />
    </g>
    <g
       id="g978"
       style="fill:#008400;fill-opacity:1;stroke:#008400;stroke-width:100;stroke-linecap:round;stroke-linejoin:round;stroke-opacity:1">
      <circle
         id="circle976"
         r="200"
         cy="16000"
         cx="39500" />
    </g>
    <g
       id="g988"
       style="fill:#840000;fill-opacity:0;stroke:#840000;stroke-width:60;stroke-linecap:round;stroke-linejoin:round;stroke-opacity:1">
      <path
         id="path982"
         d="m 39200,10180 -30,60 v 90 l 30,80 60,60 50,30 120,30 h 80 l 120,-30 60,-30 50,-60 30,-80 v -60 l -30,-90 -30,-30 h -200 v 120"
         inkscape:connector-curvature="0" />
      <path
         id="path984"
         d="m 39770,9900 h -600 l 600,-350 h -600"
         inkscape:connector-curvature="0" />
      <path
         id="path986"
         d="m 39770,9270 h -600 v -150 l 30,-80 60,-60 50,-30 120,-30 h 80 l 120,30 60,30 50,60 30,80 v 150"
         inkscape:connector-curvature="0" />
    </g>
    <g
       id="g992"
       style="fill:#840000;fill-opacity:0;stroke:#840000;stroke-width:100;stroke-linecap:round;stroke-linejoin:round;stroke-opacity:1">
      <polyline
         id="polyline990"
         points="39500,11000 40040,10700 40040,8580 39500,8580 38960,8580 38960,10700 39500,11000 "
         fill="none;" />
    </g>
    <g
       id="g1000"
       style="fill:#840000;fill-opacity:0;stroke:#840000;stroke-width:60;stroke-linecap:round;stroke-linejoin:round;stroke-opacity:1">
      <path
         id="path994"
         d="m 34700,10180 -30,60 v 90 l 30,80 60,60 50,30 120,30 h 80 l 120,-30 60,-30 50,-60 30,-80 v -60 l -30,-90 -30,-30 h -200 v 120"
         inkscape:connector-curvature="0" />
      <path
         id="path996"
         d="m 35270,9900 h -600 l 600,-350 h -600"
         inkscape:connector-curvature="0" />
      <path
         id="path998"
         d="m 35270,9270 h -600 v -150 l 30,-80 60,-60 50,-30 120,-30 h 80 l 120,30 60,30 50,60 30,80 v 150"
         inkscape:connector-curvature="0" />
    </g>
    <g
       id="g1004"
       style="fill:#840000;fill-opacity:0;stroke:#840000;stroke-width:100;stroke-linecap:round;stroke-linejoin:round;stroke-opacity:1">
      <polyline
         id="polyline1002"
         points="35000,11000 35540,10700 35540,8580 35000,8580 34460,8580 34460,10700 35000,11000 "
         fill="none;" />
    </g>
    <g
       id="g1012"
       style="fill:#008400;fill-opacity:0;stroke:#008400;stroke-width:60;stroke-linecap:round;stroke-linejoin:round;stroke-opacity:1">
      <path
         id="path1008"
         d="m 39500,11000 v 1000"
         inkscape:connector-curvature="0" />
      <path
         id="path1010"
         d="m 35000,11000 v 1000"
         inkscape:connector-curvature="0" />
    </g>
  </g>
</svg>
