<?xml version="1.0" encoding="UTF-8" standalone="no"?>
<!-- Created with Inkscape (http://www.inkscape.org/) -->

<svg
   xmlns:dc="http://purl.org/dc/elements/1.1/"
   xmlns:cc="http://creativecommons.org/ns#"
   xmlns:rdf="http://www.w3.org/1999/02/22-rdf-syntax-ns#"
   xmlns:svg="http://www.w3.org/2000/svg"
   xmlns="http://www.w3.org/2000/svg"
   xmlns:sodipodi="http://sodipodi.sourceforge.net/DTD/sodipodi-0.dtd"
   xmlns:inkscape="http://www.inkscape.org/namespaces/inkscape"
   width="18.643579mm"
   height="2.9971967mm"
   viewBox="0 0 66.059927 10.619988"
   id="svg9226"
   version="1.1"
   inkscape:version="0.91 r13725"
   sodipodi:docname="PlotAC.svg">
  <defs
     id="defs9228" />
  <sodipodi:namedview
     id="base"
     pagecolor="#ffffff"
     bordercolor="#666666"
     borderopacity="1.0"
     inkscape:pageopacity="0.0"
     inkscape:pageshadow="2"
     inkscape:zoom="5.6"
     inkscape:cx="16.137978"
     inkscape:cy="-0.25242483"
     inkscape:document-units="px"
     inkscape:current-layer="layer1"
     showgrid="false"
     fit-margin-top="0"
     fit-margin-left="0"
     fit-margin-right="0"
     fit-margin-bottom="0"
     inkscape:window-width="1855"
     inkscape:window-height="1056"
     inkscape:window-x="65"
     inkscape:window-y="24"
     inkscape:window-maximized="1" />
  <metadata
     id="metadata9231">
    <rdf:RDF>
      <cc:Work
         rdf:about="">
        <dc:format>image/svg+xml</dc:format>
        <dc:type
           rdf:resource="http://purl.org/dc/dcmitype/StillImage" />
        <dc:title></dc:title>
      </cc:Work>
    </rdf:RDF>
  </metadata>
  <g
     inkscape:label="Layer 1"
     inkscape:groupmode="layer"
     id="layer1"
     transform="translate(-272.68432,-507.05221)">
    <g
       transform="matrix(0.00899999,0,0,0.00899999,-31.965339,339.1124)"
       style="fill:#840000;fill-opacity:0;stroke:#840000;stroke-width:60;stroke-linecap:round;stroke-linejoin:round;stroke-opacity:1"
       id="g580">
      <path
         inkscape:connector-curvature="0"
         d="m 34220,18920 140,600 110,-430 120,430 140,-600"
         id="path582" />
      <path
         inkscape:connector-curvature="0"
         d="m 35280,19520 -350,0"
         id="path584" />
      <path
         inkscape:connector-curvature="0"
         d="m 35110,19520 0,-600 -60,90 -60,50 -60,30"
         id="path586" />
    </g>
    <g
       transform="matrix(0.00899999,0,0,0.00899999,-31.965339,339.1124)"
       style="fill:#840000;fill-opacity:0;stroke:#840000;stroke-width:100;stroke-linecap:round;stroke-linejoin:round;stroke-opacity:1"
       id="g588">
      <polyline
         fill="none;"
         points="35750,19250 35450,18710 33900,18710 33900,19250 33900,19790 35450,19790 35750,19250 "
         id="polyline590" />
    </g>
    <g
       transform="matrix(0.00899999,0,0,0.00899999,-31.965339,339.1124)"
       style="fill:#840000;fill-opacity:0;stroke:#840000;stroke-width:60;stroke-linecap:round;stroke-linejoin:round;stroke-opacity:1"
       id="g592">
      <path
         inkscape:connector-curvature="0"
         d="m 39600,19460 -30,30 -90,30 -60,0 -80,-30 -60,-50 -30,-60 -30,-120 0,-80 30,-120 30,-50 60,-60 80,-30 60,0 90,30 30,30"
         id="path594" />
      <path
         inkscape:connector-curvature="0"
         d="m 39850,19520 0,-600"
         id="path596" />
      <path
         inkscape:connector-curvature="0"
         d="m 39850,19210 350,0"
         id="path598" />
      <path
         inkscape:connector-curvature="0"
         d="m 40200,19520 0,-600"
         id="path600" />
      <path
         inkscape:connector-curvature="0"
         d="m 40800,19520 -350,0"
         id="path602" />
      <path
         inkscape:connector-curvature="0"
         d="m 40630,19520 0,-600 -60,90 -60,50 -60,30"
         id="path604" />
    </g>
    <g
       transform="matrix(0.00899999,0,0,0.00899999,-31.965339,339.1124)"
       style="fill:#840000;fill-opacity:0;stroke:#840000;stroke-width:100;stroke-linecap:round;stroke-linejoin:round;stroke-opacity:1"
       id="g606">
      <polyline
         fill="none;"
         points="38750,19250 39050,19790 41140,19790 41140,19250 41140,18710 39050,18710 38750,19250 "
         id="polyline608" />
    </g>
    <path
       inkscape:connector-curvature="0"
       style="fill:#008400;fill-opacity:0;stroke:#008400;stroke-width:0.53999943;stroke-linecap:round;stroke-linejoin:round;stroke-opacity:1"
       d="m 289.7843,512.3622 26.99997,0"
       id="path1012" />
  </g>
</svg>
