<?xml version="1.0" encoding="UTF-8" standalone="no"?>
<svg
   xmlns:dc="http://purl.org/dc/elements/1.1/"
   xmlns:cc="http://creativecommons.org/ns#"
   xmlns:rdf="http://www.w3.org/1999/02/22-rdf-syntax-ns#"
   xmlns:svg="http://www.w3.org/2000/svg"
   xmlns="http://www.w3.org/2000/svg"
   xmlns:sodipodi="http://sodipodi.sourceforge.net/DTD/sodipodi-0.dtd"
   xmlns:inkscape="http://www.inkscape.org/namespaces/inkscape"
   version="1.1"
   width="4.859015cm"
   height="3.1395454cm"
   viewBox="0 0 19129.994 12360.427"
   id="svg2"
   inkscape:version="0.91 r13725"
   sodipodi:docname="opamps.sch.svg">
  <metadata
     id="metadata2444">
    <rdf:RDF>
      <cc:Work
         rdf:about="">
        <dc:format>image/svg+xml</dc:format>
        <dc:type
           rdf:resource="http://purl.org/dc/dcmitype/StillImage" />
        <dc:title>SVG Picture created as opamps.sch.svg date 2016/06/16 11:35:15 </dc:title>
      </cc:Work>
    </rdf:RDF>
  </metadata>
  <defs
     id="defs2442" />
  <sodipodi:namedview
     pagecolor="#ffffff"
     bordercolor="#666666"
     borderopacity="1"
     objecttolerance="10"
     gridtolerance="10"
     guidetolerance="10"
     inkscape:pageopacity="0"
     inkscape:pageshadow="2"
     inkscape:window-width="1855"
     inkscape:window-height="1056"
     id="namedview2440"
     showgrid="false"
     fit-margin-top="0"
     fit-margin-left="0"
     fit-margin-right="0"
     fit-margin-bottom="0"
     inkscape:zoom="0.79823964"
     inkscape:cx="-298.88437"
     inkscape:cy="-233.92862"
     inkscape:window-x="65"
     inkscape:window-y="24"
     inkscape:window-maximized="1"
     inkscape:current-layer="g2258" />
  <title
     id="title4">SVG Picture created as opamps.sch.svg date 2016/06/16 11:35:15 </title>
  <desc
     id="desc6">Picture generated by Eeschema-SVG </desc>
  <g
     style="fill:#000000;fill-opacity:1;stroke:#000000;stroke-linecap:round;stroke-linejoin:round;stroke-opacity:1"
     id="g8"
     transform="translate(-56060.02,-8339.5727)" />
  <g
     style="fill:#000000;fill-opacity:0;stroke:#000000;stroke-width:60;stroke-linecap:round;stroke-linejoin:round;stroke-opacity:1"
     id="g10"
     transform="translate(-56060.02,-8339.5727)" />
  <g
     style="fill:#840000;fill-opacity:0;stroke:#840000;stroke-width:0;stroke-linecap:round;stroke-linejoin:round;stroke-opacity:1"
     id="g100"
     transform="translate(-56060.02,-8339.5727)" />
  <g
     style="fill:#008484;fill-opacity:0;stroke:#008484;stroke-width:0;stroke-linecap:round;stroke-linejoin:round;stroke-opacity:1"
     id="g126"
     transform="translate(-56060.02,-8339.5727)" />
  <g
     style="fill:#840000;fill-opacity:0;stroke:#840000;stroke-width:0;stroke-linecap:round;stroke-linejoin:round;stroke-opacity:1"
     id="g128"
     transform="translate(-56060.02,-8339.5727)" />
  <g
     style="fill:#840000;fill-opacity:0;stroke:#840000;stroke-width:60;stroke-linecap:round;stroke-linejoin:round;stroke-opacity:1"
     id="g212"
     transform="translate(-56060.02,-8339.5727)" />
  <g
     style="fill:#840000;fill-opacity:0;stroke:#840000;stroke-width:0;stroke-linecap:round;stroke-linejoin:round;stroke-opacity:1"
     id="g310"
     transform="translate(-56060.02,-8339.5727)" />
  <g
     style="fill:#008484;fill-opacity:0;stroke:#008484;stroke-width:0;stroke-linecap:round;stroke-linejoin:round;stroke-opacity:1"
     id="g336"
     transform="translate(-56060.02,-8339.5727)" />
  <g
     style="fill:#840000;fill-opacity:0;stroke:#840000;stroke-width:0;stroke-linecap:round;stroke-linejoin:round;stroke-opacity:1"
     id="g338"
     transform="translate(-56060.02,-8339.5727)" />
  <g
     style="fill:#840000;fill-opacity:0;stroke:#840000;stroke-width:0;stroke-linecap:round;stroke-linejoin:round;stroke-opacity:1"
     id="g422"
     transform="translate(-56060.02,-8339.5727)" />
  <g
     style="fill:#ffffc2;fill-opacity:0;stroke:#ffffc2;stroke-width:0;stroke-linecap:round;stroke-linejoin:round;stroke-opacity:1"
     id="g424"
     transform="translate(-56060.02,-8339.5727)" />
  <g
     style="fill:#840000;fill-opacity:0.6;stroke:#840000;stroke-width:0;stroke-linecap:round;stroke-linejoin:round;stroke-opacity:1"
     id="g430"
     transform="translate(-56060.02,-8339.5727)" />
  <g
     style="fill:#840000;fill-opacity:0;stroke:#840000;stroke-width:0;stroke-linecap:round;stroke-linejoin:round;stroke-opacity:1"
     id="g490"
     transform="translate(-56060.02,-8339.5727)" />
  <g
     style="fill:#ffffc2;fill-opacity:0;stroke:#ffffc2;stroke-width:0;stroke-linecap:round;stroke-linejoin:round;stroke-opacity:1"
     id="g492"
     transform="translate(-56060.02,-8339.5727)" />
  <g
     style="fill:#840000;fill-opacity:0.6;stroke:#840000;stroke-width:0;stroke-linecap:round;stroke-linejoin:round;stroke-opacity:1"
     id="g498"
     transform="translate(-56060.02,-8339.5727)" />
  <g
     style="fill:#840000;fill-opacity:0;stroke:#840000;stroke-width:0;stroke-linecap:round;stroke-linejoin:round;stroke-opacity:1"
     id="g578"
     transform="translate(-56060.02,-8339.5727)" />
  <g
     style="fill:#840000;fill-opacity:0;stroke:#840000;stroke-width:0;stroke-linecap:round;stroke-linejoin:round;stroke-opacity:1"
     id="g630"
     transform="translate(-56060.02,-8339.5727)" />
  <g
     style="fill:#ffffc2;fill-opacity:0;stroke:#ffffc2;stroke-width:0;stroke-linecap:round;stroke-linejoin:round;stroke-opacity:1"
     id="g632"
     transform="translate(-56060.02,-8339.5727)" />
  <g
     style="fill:#840000;fill-opacity:0.6;stroke:#840000;stroke-width:0;stroke-linecap:round;stroke-linejoin:round;stroke-opacity:1"
     id="g638"
     transform="translate(-56060.02,-8339.5727)" />
  <g
     style="fill:#0000c2;fill-opacity:0;stroke:#0000c2;stroke-width:0;stroke-linecap:round;stroke-linejoin:round;stroke-opacity:1"
     id="g760"
     transform="translate(-56060.02,-8339.5727)" />
  <g
     style="fill:#840000;fill-opacity:0;stroke:#840000;stroke-width:0;stroke-linecap:round;stroke-linejoin:round;stroke-opacity:1"
     id="g762"
     transform="translate(-56060.02,-8339.5727)" />
  <g
     style="fill:#008484;fill-opacity:0;stroke:#008484;stroke-width:0;stroke-linecap:round;stroke-linejoin:round;stroke-opacity:1"
     id="g792"
     transform="translate(-56060.02,-8339.5727)" />
  <g
     style="fill:#840000;fill-opacity:0;stroke:#840000;stroke-width:0;stroke-linecap:round;stroke-linejoin:round;stroke-opacity:1"
     id="g794"
     transform="translate(-56060.02,-8339.5727)" />
  <g
     style="fill:#008484;fill-opacity:0;stroke:#008484;stroke-width:0;stroke-linecap:round;stroke-linejoin:round;stroke-opacity:1"
     id="g824"
     transform="translate(-56060.02,-8339.5727)" />
  <g
     style="fill:#840000;fill-opacity:0;stroke:#840000;stroke-width:0;stroke-linecap:round;stroke-linejoin:round;stroke-opacity:1"
     id="g826"
     transform="translate(-56060.02,-8339.5727)" />
  <g
     style="fill:#008484;fill-opacity:0;stroke:#008484;stroke-width:0;stroke-linecap:round;stroke-linejoin:round;stroke-opacity:1"
     id="g856"
     transform="translate(-56060.02,-8339.5727)" />
  <g
     style="fill:#840000;fill-opacity:0;stroke:#840000;stroke-width:0;stroke-linecap:round;stroke-linejoin:round;stroke-opacity:1"
     id="g858"
     transform="translate(-56060.02,-8339.5727)" />
  <g
     style="fill:#008484;fill-opacity:0;stroke:#008484;stroke-width:0;stroke-linecap:round;stroke-linejoin:round;stroke-opacity:1"
     id="g878"
     transform="translate(-56060.02,-8339.5727)" />
  <g
     style="fill:#840000;fill-opacity:0;stroke:#840000;stroke-width:0;stroke-linecap:round;stroke-linejoin:round;stroke-opacity:1"
     id="g880"
     transform="translate(-56060.02,-8339.5727)" />
  <g
     style="fill:#840000;fill-opacity:0;stroke:#840000;stroke-width:0;stroke-linecap:round;stroke-linejoin:round;stroke-opacity:1"
     id="g912"
     transform="translate(-56060.02,-8339.5727)" />
  <g
     style="fill:#840000;fill-opacity:0;stroke:#840000;stroke-width:0;stroke-linecap:round;stroke-linejoin:round;stroke-opacity:1"
     id="g1038"
     transform="translate(-56060.02,-8339.5727)" />
  <g
     style="fill:#840000;fill-opacity:0;stroke:#840000;stroke-width:0;stroke-linecap:round;stroke-linejoin:round;stroke-opacity:1"
     id="g1106"
     transform="translate(-56060.02,-8339.5727)" />
  <g
     style="fill:#840000;fill-opacity:0;stroke:#840000;stroke-width:0;stroke-linecap:round;stroke-linejoin:round;stroke-opacity:1"
     id="g1144"
     transform="translate(-56060.02,-8339.5727)" />
  <g
     style="fill:#008484;fill-opacity:0;stroke:#008484;stroke-width:0;stroke-linecap:round;stroke-linejoin:round;stroke-opacity:1"
     id="g1166"
     transform="translate(-56060.02,-8339.5727)" />
  <g
     style="fill:#840000;fill-opacity:0;stroke:#840000;stroke-width:0;stroke-linecap:round;stroke-linejoin:round;stroke-opacity:1"
     id="g1168"
     transform="translate(-56060.02,-8339.5727)" />
  <g
     style="fill:#ffffc2;fill-opacity:0;stroke:#ffffc2;stroke-width:0;stroke-linecap:round;stroke-linejoin:round;stroke-opacity:1"
     id="g1170"
     transform="translate(-56060.02,-8339.5727)" />
  <g
     style="fill:#840000;fill-opacity:0.6;stroke:#840000;stroke-width:0;stroke-linecap:round;stroke-linejoin:round;stroke-opacity:1"
     id="g1176"
     transform="translate(-56060.02,-8339.5727)" />
  <g
     style="fill:#840000;fill-opacity:0;stroke:#840000;stroke-width:0;stroke-linecap:round;stroke-linejoin:round;stroke-opacity:1"
     id="g1256"
     transform="translate(-56060.02,-8339.5727)" />
  <g
     style="fill:#840000;fill-opacity:0;stroke:#840000;stroke-width:0;stroke-linecap:round;stroke-linejoin:round;stroke-opacity:1"
     id="g1324"
     transform="translate(-56060.02,-8339.5727)" />
  <g
     style="fill:#840000;fill-opacity:0;stroke:#840000;stroke-width:0;stroke-linecap:round;stroke-linejoin:round;stroke-opacity:1"
     id="g1360"
     transform="translate(-56060.02,-8339.5727)" />
  <g
     style="fill:#008484;fill-opacity:0;stroke:#008484;stroke-width:0;stroke-linecap:round;stroke-linejoin:round;stroke-opacity:1"
     id="g1382"
     transform="translate(-56060.02,-8339.5727)" />
  <g
     style="fill:#840000;fill-opacity:0;stroke:#840000;stroke-width:0;stroke-linecap:round;stroke-linejoin:round;stroke-opacity:1"
     id="g1384"
     transform="translate(-56060.02,-8339.5727)" />
  <g
     style="fill:#ffffc2;fill-opacity:0;stroke:#ffffc2;stroke-width:0;stroke-linecap:round;stroke-linejoin:round;stroke-opacity:1"
     id="g1386"
     transform="translate(-56060.02,-8339.5727)" />
  <g
     style="fill:#840000;fill-opacity:0.6;stroke:#840000;stroke-width:0;stroke-linecap:round;stroke-linejoin:round;stroke-opacity:1"
     id="g1392"
     transform="translate(-56060.02,-8339.5727)" />
  <g
     style="fill:#840000;fill-opacity:0;stroke:#840000;stroke-width:0;stroke-linecap:round;stroke-linejoin:round;stroke-opacity:1"
     id="g1610"
     transform="translate(-56060.02,-8339.5727)" />
  <g
     style="fill:#840000;fill-opacity:0;stroke:#840000;stroke-width:0;stroke-linecap:round;stroke-linejoin:round;stroke-opacity:1"
     id="g1678"
     transform="translate(-56060.02,-8339.5727)" />
  <g
     style="fill:#840000;fill-opacity:0;stroke:#840000;stroke-width:0;stroke-linecap:round;stroke-linejoin:round;stroke-opacity:1"
     id="g1714"
     transform="translate(-56060.02,-8339.5727)" />
  <g
     style="fill:#008484;fill-opacity:0;stroke:#008484;stroke-width:0;stroke-linecap:round;stroke-linejoin:round;stroke-opacity:1"
     id="g1736"
     transform="translate(-56060.02,-8339.5727)" />
  <g
     style="fill:#840000;fill-opacity:0;stroke:#840000;stroke-width:0;stroke-linecap:round;stroke-linejoin:round;stroke-opacity:1"
     id="g1738"
     transform="translate(-56060.02,-8339.5727)" />
  <g
     style="fill:#ffffc2;fill-opacity:0;stroke:#ffffc2;stroke-width:0;stroke-linecap:round;stroke-linejoin:round;stroke-opacity:1"
     id="g1740"
     transform="translate(-56060.02,-8339.5727)" />
  <g
     style="fill:#840000;fill-opacity:0.6;stroke:#840000;stroke-width:0;stroke-linecap:round;stroke-linejoin:round;stroke-opacity:1"
     id="g1746"
     transform="translate(-56060.02,-8339.5727)" />
  <g
     style="fill:#840000;fill-opacity:0;stroke:#840000;stroke-width:60;stroke-linecap:round;stroke-linejoin:round;stroke-opacity:1"
     id="g1876"
     transform="translate(-56060.02,-8339.5727)" />
  <g
     style="fill:#0000c2;fill-opacity:0;stroke:#0000c2;stroke-width:60;stroke-linecap:round;stroke-linejoin:round;stroke-opacity:1"
     id="g1878"
     transform="translate(-56060.02,-8339.5727)">
    <path
       d="m 63390,8970 0,-600 230,0 60,30 30,30 30,60 0,80 -30,60 -30,30 -60,30 -230,0"
       id="path1880"
       inkscape:connector-curvature="0" />
    <path
       d="m 63990,8970 0,-400"
       id="path1882"
       inkscape:connector-curvature="0" />
    <path
       d="m 63990,8690 30,-60 30,-30 60,-30 50,0"
       id="path1884"
       inkscape:connector-curvature="0" />
    <path
       d="m 64590,8940 -60,30 -110,0 -60,-30 -30,-50 0,-230 30,-60 60,-30 110,0 60,30 30,60 0,50 -290,60"
       id="path1886"
       inkscape:connector-curvature="0" />
    <path
       d="m 65130,8940 -60,30 -110,0 -60,-30 -30,-30 -30,-50 0,-170 30,-60 30,-30 60,-30 110,0 60,30"
       id="path1888"
       inkscape:connector-curvature="0" />
    <path
       d="m 65380,8970 0,-400"
       id="path1890"
       inkscape:connector-curvature="0" />
    <path
       d="m 65380,8370 -30,30 30,30 30,-30 -30,-30 0,60"
       id="path1892"
       inkscape:connector-curvature="0" />
    <path
       d="m 65640,8940 60,30 120,0 50,-30 30,-50 0,-30 -30,-60 -50,-30 -90,0 -60,-30 -30,-50 0,-30 30,-60 60,-30 90,0 50,30"
       id="path1894"
       inkscape:connector-curvature="0" />
    <path
       d="m 66160,8970 0,-400"
       id="path1896"
       inkscape:connector-curvature="0" />
    <path
       d="m 66160,8370 -30,30 30,30 30,-30 -30,-30 0,60"
       id="path1898"
       inkscape:connector-curvature="0" />
    <path
       d="m 66540,8970 -60,-30 -30,-30 -30,-50 0,-170 30,-60 30,-30 60,-30 80,0 60,30 30,30 30,60 0,170 -30,50 -30,30 -60,30 -80,0"
       id="path1900"
       inkscape:connector-curvature="0" />
    <path
       d="m 66990,8570 0,400"
       id="path1902"
       inkscape:connector-curvature="0" />
    <path
       d="m 66990,8630 30,-30 60,-30 80,0 60,30 30,60 0,310"
       id="path1904"
       inkscape:connector-curvature="0" />
    <path
       d="m 68340,8970 -200,-280"
       id="path1906"
       inkscape:connector-curvature="0" />
    <path
       d="m 67990,8970 0,-600 230,0 60,30 30,30 30,60 0,80 -30,60 -30,30 -60,30 -230,0"
       id="path1908"
       inkscape:connector-curvature="0" />
    <path
       d="m 68820,8940 -60,30 -110,0 -60,-30 -30,-50 0,-230 30,-60 60,-30 110,0 60,30 30,60 0,50 -290,60"
       id="path1910"
       inkscape:connector-curvature="0" />
    <path
       d="m 69360,8940 -60,30 -110,0 -60,-30 -30,-30 -30,-50 0,-170 30,-60 30,-30 60,-30 110,0 60,30"
       id="path1912"
       inkscape:connector-curvature="0" />
    <path
       d="m 69530,8570 230,0"
       id="path1914"
       inkscape:connector-curvature="0" />
    <path
       d="m 69610,8370 0,520 30,50 60,30 60,0"
       id="path1916"
       inkscape:connector-curvature="0" />
    <path
       d="m 69950,8970 0,-400"
       id="path1918"
       inkscape:connector-curvature="0" />
    <path
       d="m 69950,8370 -30,30 30,30 30,-30 -30,-30 0,60"
       id="path1920"
       inkscape:connector-curvature="0" />
    <path
       d="m 70160,8570 230,0"
       id="path1922"
       inkscape:connector-curvature="0" />
    <path
       d="m 70240,8970 0,-510 30,-60 60,-30 60,0"
       id="path1924"
       inkscape:connector-curvature="0" />
    <path
       d="m 70580,8970 0,-400"
       id="path1926"
       inkscape:connector-curvature="0" />
    <path
       d="m 70580,8370 -30,30 30,30 30,-30 -30,-30 0,60"
       id="path1928"
       inkscape:connector-curvature="0" />
    <path
       d="m 71100,8940 -60,30 -110,0 -60,-30 -30,-50 0,-230 30,-60 60,-30 110,0 60,30 30,60 0,50 -290,60"
       id="path1930"
       inkscape:connector-curvature="0" />
    <path
       d="m 71380,8970 0,-400"
       id="path1932"
       inkscape:connector-curvature="0" />
    <path
       d="m 71380,8690 30,-60 30,-30 60,-30 50,0"
       id="path1934"
       inkscape:connector-curvature="0" />
  </g>
  <g
     style="fill:#840000;fill-opacity:0;stroke:#840000;stroke-width:60;stroke-linecap:round;stroke-linejoin:round;stroke-opacity:1"
     id="g1936"
     transform="translate(-56060.02,-8339.5727)">
    <path
       d="m 66670,15670 200,600 200,-600"
       id="path1938"
       inkscape:connector-curvature="0" />
    <path
       d="m 67260,16040 460,0"
       id="path1940"
       inkscape:connector-curvature="0" />
  </g>
  <g
     style="fill:#840000;fill-opacity:0;stroke:#840000;stroke-width:100;stroke-linecap:round;stroke-linejoin:round;stroke-opacity:1"
     id="g1942"
     transform="translate(-56060.02,-8339.5727)">
    <polyline
       fill="none;"
       points="66250,16000 66550,16540 68090,16540 68090,16000 68090,15460 66550,15460 66250,16000 "
       id="polyline1944" />
  </g>
  <g
     style="fill:#840000;fill-opacity:0;stroke:#840000;stroke-width:60;stroke-linecap:round;stroke-linejoin:round;stroke-opacity:1"
     id="g1946"
     transform="translate(-56060.02,-8339.5727)">
    <path
       d="m 66670,10920 200,600 200,-600"
       id="path1948"
       inkscape:connector-curvature="0" />
    <path
       d="m 67260,11290 460,0"
       id="path1950"
       inkscape:connector-curvature="0" />
    <path
       d="m 67490,11520 0,-460"
       id="path1952"
       inkscape:connector-curvature="0" />
  </g>
  <g
     style="fill:#840000;fill-opacity:0;stroke:#840000;stroke-width:100;stroke-linecap:round;stroke-linejoin:round;stroke-opacity:1"
     id="g1954"
     transform="translate(-56060.02,-8339.5727)">
    <polyline
       fill="none;"
       points="66250,11250 66550,11790 68090,11790 68090,11250 68090,10710 66550,10710 66250,11250 "
       id="polyline1956" />
  </g>
  <g
     style="fill:#840000;fill-opacity:0;stroke:#840000;stroke-width:0;stroke-linecap:round;stroke-linejoin:round;stroke-opacity:1"
     id="g1958"
     transform="translate(-56060.02,-8339.5727)" />
  <g
     style="fill:#840000;fill-opacity:0;stroke:#840000;stroke-width:100;stroke-linecap:round;stroke-linejoin:round;stroke-opacity:1"
     id="g1960"
     transform="translate(-56060.02,-8339.5727)">
    <rect
       x="64750"
       y="19850"
       width="2000"
       height="800"
       rx="0"
       id="rect1962" />
  </g>
  <g
     style="fill:#840000;fill-opacity:0;stroke:#840000;stroke-width:60;stroke-linecap:round;stroke-linejoin:round;stroke-opacity:1"
     id="g1964"
     transform="translate(-56060.02,-8339.5727)">
    <path
       d="m 64750,20250 -500,0"
       id="path1966"
       inkscape:connector-curvature="0" />
    <path
       d="m 66750,20250 500,0"
       id="path1968"
       inkscape:connector-curvature="0" />
  </g>
  <g
     style="fill:#008484;fill-opacity:0;stroke:#008484;stroke-width:60;stroke-linecap:round;stroke-linejoin:round;stroke-opacity:1"
     id="g1970"
     transform="translate(-56060.02,-8339.5727)">
    <path
       d="m 65660,19710 -160,-240"
       id="path1972"
       inkscape:connector-curvature="0" />
    <path
       d="m 65380,19710 0,-500 190,0 50,20 20,20 20,50 0,70 -20,50 -20,20 -50,30 -190,0"
       id="path1974"
       inkscape:connector-curvature="0" />
    <path
       d="m 65860,19250 20,-20 50,-20 120,0 40,20 30,20 20,50 0,50 -20,70 -290,290 310,0"
       id="path1976"
       inkscape:connector-curvature="0" />
    <path
       d="m 65400,20510 -280,0"
       id="path1978"
       inkscape:connector-curvature="0" />
    <path
       d="m 65260,20510 0,-500 -50,70 -50,50 -40,20"
       id="path1980"
       inkscape:connector-curvature="0" />
    <path
       d="m 65710,20010 50,0 50,20 20,20 30,50 20,100 0,120 -20,90 -30,50 -20,20 -50,30 -50,0 -40,-30 -30,-20 -20,-50 -20,-90 0,-120 20,-100 20,-50 30,-20 40,-20"
       id="path1982"
       inkscape:connector-curvature="0" />
    <path
       d="m 66100,20510 0,-500"
       id="path1984"
       inkscape:connector-curvature="0" />
    <path
       d="m 66380,20510 -210,-290"
       id="path1986"
       inkscape:connector-curvature="0" />
    <path
       d="m 66380,20010 -280,280"
       id="path1988"
       inkscape:connector-curvature="0" />
  </g>
  <g
     style="fill:#840000;fill-opacity:0;stroke:#840000;stroke-width:60;stroke-linecap:round;stroke-linejoin:round;stroke-opacity:1"
     id="g1990"
     transform="translate(-56060.02,-8339.5727)">
    <path
       d="m 56470,14920 140,600 110,-430 120,430 140,-600"
       id="path1992"
       inkscape:connector-curvature="0" />
    <path
       d="m 57530,15520 -350,0"
       id="path1994"
       inkscape:connector-curvature="0" />
    <path
       d="m 57360,15520 0,-600 -60,90 -60,50 -60,30"
       id="path1996"
       inkscape:connector-curvature="0" />
  </g>
  <g
     style="fill:#840000;fill-opacity:0;stroke:#840000;stroke-width:100;stroke-linecap:round;stroke-linejoin:round;stroke-opacity:1"
     id="g1998"
     transform="translate(-56060.02,-8339.5727)">
    <polyline
       fill="none;"
       points="58000,15250 57700,14710 56150,14710 56150,15250 56150,15790 57700,15790 58000,15250 "
       id="polyline2000" />
  </g>
  <g
     style="fill:#840000;fill-opacity:0;stroke:#840000;stroke-width:60;stroke-linecap:round;stroke-linejoin:round;stroke-opacity:1"
     id="g2002"
     transform="translate(-56060.02,-8339.5727)">
    <path
       d="m 60270,12950 -60,-30 -90,0 -80,30 -60,60 -30,50 -30,120 0,80 30,120 30,60 60,50 80,30 60,0 90,-30 30,-30 0,-200 -120,0"
       id="path2004"
       inkscape:connector-curvature="0" />
    <path
       d="m 60550,13520 0,-600 350,600 0,-600"
       id="path2006"
       inkscape:connector-curvature="0" />
    <path
       d="m 61180,13520 0,-600 150,0 80,30 60,60 30,50 30,120 0,80 -30,120 -30,60 -60,50 -80,30 -150,0"
       id="path2008"
       inkscape:connector-curvature="0" />
  </g>
  <g
     style="fill:#840000;fill-opacity:0;stroke:#840000;stroke-width:100;stroke-linecap:round;stroke-linejoin:round;stroke-opacity:1"
     id="g2010"
     transform="translate(-56060.02,-8339.5727)">
    <polyline
       fill="none;"
       points="62000,13250 61700,12710 59580,12710 59580,13250 59580,13790 61700,13790 62000,13250 "
       id="polyline2012" />
  </g>
  <g
     style="fill:#840000;fill-opacity:0;stroke:#840000;stroke-width:60;stroke-linecap:round;stroke-linejoin:round;stroke-opacity:1"
     id="g2014"
     transform="translate(-56060.02,-8339.5727)">
    <path
       d="m 73600,14460 -30,30 -90,30 -60,0 -80,-30 -60,-50 -30,-60 -30,-120 0,-80 30,-120 30,-50 60,-60 80,-30 60,0 90,30 30,30"
       id="path2016"
       inkscape:connector-curvature="0" />
    <path
       d="m 73850,14520 0,-600"
       id="path2018"
       inkscape:connector-curvature="0" />
    <path
       d="m 73850,14210 350,0"
       id="path2020"
       inkscape:connector-curvature="0" />
    <path
       d="m 74200,14520 0,-600"
       id="path2022"
       inkscape:connector-curvature="0" />
    <path
       d="m 74450,13980 30,-30 60,-30 140,0 60,30 30,30 30,60 0,50 -30,90 -340,340 370,0"
       id="path2024"
       inkscape:connector-curvature="0" />
  </g>
  <g
     style="fill:#840000;fill-opacity:0;stroke:#840000;stroke-width:100;stroke-linecap:round;stroke-linejoin:round;stroke-opacity:1"
     id="g2026"
     transform="translate(-56060.02,-8339.5727)">
    <polyline
       fill="none;"
       points="72750,14250 73050,14790 75140,14790 75140,14250 75140,13710 73050,13710 72750,14250 "
       id="polyline2028" />
  </g>
  <g
     style="fill:#840000;fill-opacity:0;stroke:#840000;stroke-width:60;stroke-linecap:round;stroke-linejoin:round;stroke-opacity:1"
     id="g2030"
     transform="translate(-56060.02,-8339.5727)">
    <path
       d="m 56830,17460 -30,30 -90,30 -60,0 -80,-30 -60,-50 -30,-60 -30,-120 0,-80 30,-120 30,-50 60,-60 80,-30 60,0 90,30 30,30"
       id="path2032"
       inkscape:connector-curvature="0" />
    <path
       d="m 57080,17520 0,-600"
       id="path2034"
       inkscape:connector-curvature="0" />
    <path
       d="m 57080,17210 350,0"
       id="path2036"
       inkscape:connector-curvature="0" />
    <path
       d="m 57430,17520 0,-600"
       id="path2038"
       inkscape:connector-curvature="0" />
    <path
       d="m 58030,17520 -350,0"
       id="path2040"
       inkscape:connector-curvature="0" />
    <path
       d="m 57860,17520 0,-600 -60,90 -60,50 -60,30"
       id="path2042"
       inkscape:connector-curvature="0" />
  </g>
  <g
     style="fill:#840000;fill-opacity:0;stroke:#840000;stroke-width:100;stroke-linecap:round;stroke-linejoin:round;stroke-opacity:1"
     id="g2044"
     transform="translate(-56060.02,-8339.5727)">
    <polyline
       fill="none;"
       points="58500,17250 58200,16710 56110,16710 56110,17250 56110,17790 58200,17790 58500,17250 "
       id="polyline2046" />
  </g>
  <g
     style="fill:#840000;fill-opacity:0;stroke:#840000;stroke-width:0;stroke-linecap:round;stroke-linejoin:round;stroke-opacity:1"
     id="g2048"
     transform="translate(-56060.02,-8339.5727)" />
  <g
     style="fill:#ffffc2;fill-opacity:0;stroke:#ffffc2;stroke-width:0;stroke-linecap:round;stroke-linejoin:round;stroke-opacity:1"
     id="g2050"
     transform="translate(-56060.02,-8339.5727)" />
  <g
     style="fill:#ffffc2;fill-opacity:0.6;stroke:#ffffc2;stroke-width:0;stroke-linecap:round;stroke-linejoin:round;stroke-opacity:1"
     id="g2052"
     transform="translate(-56060.02,-8339.5727)">
    <polyline
       style="fill-rule:evenodd"
       points="64250,12250 68250,14250 64250,16250 64250,12250 "
       id="polyline2054" />
  </g>
  <g
     style="fill:#840000;fill-opacity:0.6;stroke:#840000;stroke-width:0;stroke-linecap:round;stroke-linejoin:round;stroke-opacity:1"
     id="g2056"
     transform="translate(-56060.02,-8339.5727)" />
  <g
     style="fill:#840000;fill-opacity:0;stroke:#840000;stroke-width:60;stroke-linecap:round;stroke-linejoin:round;stroke-opacity:1"
     id="g2058"
     transform="translate(-56060.02,-8339.5727)">
    <polyline
       fill="none;"
       points="64250,12250 68250,14250 64250,16250 64250,12250 "
       id="polyline2060" />
    <path
       d="m 65250,15750 0,1500"
       id="path2062"
       inkscape:connector-curvature="0" />
  </g>
  <g
     style="fill:#008484;fill-opacity:0;stroke:#008484;stroke-width:60;stroke-linecap:round;stroke-linejoin:round;stroke-opacity:1"
     id="g2064"
     transform="translate(-56060.02,-8339.5727)">
    <path
       d="m 65030,15610 400,-130 -400,-130"
       id="path2066"
       inkscape:connector-curvature="0" />
    <path
       d="m 65280,15210 0,-300"
       id="path2068"
       inkscape:connector-curvature="0" />
  </g>
  <g
     style="fill:#840000;fill-opacity:0;stroke:#840000;stroke-width:60;stroke-linecap:round;stroke-linejoin:round;stroke-opacity:1"
     id="g2070"
     transform="translate(-56060.02,-8339.5727)">
    <path
       d="m 64860,16420 270,0"
       id="path2072"
       inkscape:connector-curvature="0" />
    <path
       d="m 64710,16520 290,90 0,-240"
       id="path2074"
       inkscape:connector-curvature="0" />
    <path
       d="m 65250,12750 0,-1500"
       id="path2076"
       inkscape:connector-curvature="0" />
  </g>
  <g
     style="fill:#008484;fill-opacity:0;stroke:#008484;stroke-width:60;stroke-linecap:round;stroke-linejoin:round;stroke-opacity:1"
     id="g2078"
     transform="translate(-56060.02,-8339.5727)">
    <path
       d="m 65030,13650 400,-130 -400,-130"
       id="path2080"
       inkscape:connector-curvature="0" />
    <path
       d="m 65280,13250 0,-300"
       id="path2082"
       inkscape:connector-curvature="0" />
    <path
       d="m 65430,13100 -300,0"
       id="path2084"
       inkscape:connector-curvature="0" />
  </g>
  <g
     style="fill:#840000;fill-opacity:0;stroke:#840000;stroke-width:60;stroke-linecap:round;stroke-linejoin:round;stroke-opacity:1"
     id="g2086"
     transform="translate(-56060.02,-8339.5727)">
    <path
       d="m 64730,12130 0,-260 400,170"
       id="path2088"
       inkscape:connector-curvature="0" />
    <path
       d="m 64250,15250 -1500,0"
       id="path2090"
       inkscape:connector-curvature="0" />
  </g>
  <g
     style="fill:#008484;fill-opacity:0;stroke:#008484;stroke-width:60;stroke-linecap:round;stroke-linejoin:round;stroke-opacity:1"
     id="g2092"
     transform="translate(-56060.02,-8339.5727)">
    <path
       d="m 64450,15280 300,0"
       id="path2094"
       inkscape:connector-curvature="0" />
  </g>
  <g
     style="fill:#840000;fill-opacity:0;stroke:#840000;stroke-width:60;stroke-linecap:round;stroke-linejoin:round;stroke-opacity:1"
     id="g2096"
     transform="translate(-56060.02,-8339.5727)">
    <path
       d="m 63390,14770 20,-20 30,-20 100,0 40,20 20,20 10,40 0,40 -10,50 -230,230 240,0"
       id="path2098"
       inkscape:connector-curvature="0" />
    <path
       d="m 64250,13250 -1500,0"
       id="path2100"
       inkscape:connector-curvature="0" />
  </g>
  <g
     style="fill:#008484;fill-opacity:0;stroke:#008484;stroke-width:60;stroke-linecap:round;stroke-linejoin:round;stroke-opacity:1"
     id="g2102"
     transform="translate(-56060.02,-8339.5727)">
    <path
       d="m 64450,13280 300,0"
       id="path2104"
       inkscape:connector-curvature="0" />
    <path
       d="m 64600,13430 0,-300"
       id="path2106"
       inkscape:connector-curvature="0" />
  </g>
  <g
     style="fill:#840000;fill-opacity:0;stroke:#840000;stroke-width:60;stroke-linecap:round;stroke-linejoin:round;stroke-opacity:1"
     id="g2108"
     transform="translate(-56060.02,-8339.5727)">
    <path
       d="m 63370,12730 240,0 -130,150 60,0 40,20 20,20 10,40 0,90 -10,40 -20,20 -40,20 -120,0 -30,-20 -20,-20"
       id="path2110"
       inkscape:connector-curvature="0" />
    <path
       d="m 68250,14250 1500,0"
       id="path2112"
       inkscape:connector-curvature="0" />
    <path
       d="m 69080,13730 -80,0 -40,20 -20,20 -30,60 -20,70 0,150 20,40 10,20 40,20 80,0 40,-20 20,-20 10,-40 0,-90 -10,-40 -20,-20 -40,-20 -80,0 -40,20 -10,20 -20,40"
       id="path2114"
       inkscape:connector-curvature="0" />
  </g>
  <g
     style="fill:#840000;fill-opacity:0;stroke:#840000;stroke-width:0;stroke-linecap:round;stroke-linejoin:round;stroke-opacity:1"
     id="g2116"
     transform="translate(-56060.02,-8339.5727)" />
  <g
     style="fill:#840000;fill-opacity:0;stroke:#840000;stroke-width:60;stroke-linecap:round;stroke-linejoin:round;stroke-opacity:1"
     id="g2118"
     transform="translate(-56060.02,-8339.5727)">
    <polyline
       fill="none;"
       points="67750,19000 67750,18000 "
       id="polyline2120" />
  </g>
  <g
     style="fill:#840000;fill-opacity:1;stroke:#840000;stroke-width:60;stroke-linecap:round;stroke-linejoin:round;stroke-opacity:1"
     id="g2122"
     transform="translate(-56060.02,-8339.5727)">
    <polyline
       style="fill-rule:evenodd"
       points="66750,19000 67750,18500 66750,18000 "
       id="polyline2124" />
  </g>
  <g
     style="fill:#840000;fill-opacity:0;stroke:#840000;stroke-width:60;stroke-linecap:round;stroke-linejoin:round;stroke-opacity:1"
     id="g2126"
     transform="translate(-56060.02,-8339.5727)">
    <path
       d="m 67750,18500 1000,0"
       id="path2128"
       inkscape:connector-curvature="0" />
    <path
       d="m 66750,18500 -1000,0"
       id="path2130"
       inkscape:connector-curvature="0" />
  </g>
  <g
     style="fill:#840000;fill-opacity:0;stroke:#840000;stroke-width:0;stroke-linecap:round;stroke-linejoin:round;stroke-opacity:1"
     id="g2132"
     transform="translate(-56060.02,-8339.5727)" />
  <g
     style="fill:#840000;fill-opacity:0;stroke:#840000;stroke-width:60;stroke-linecap:round;stroke-linejoin:round;stroke-opacity:1"
     id="g2134"
     transform="translate(-56060.02,-8339.5727)">
    <polyline
       fill="none;"
       points="71750,14750 71750,13750 "
       id="polyline2136" />
  </g>
  <g
     style="fill:#840000;fill-opacity:1;stroke:#840000;stroke-width:60;stroke-linecap:round;stroke-linejoin:round;stroke-opacity:1"
     id="g2138"
     transform="translate(-56060.02,-8339.5727)">
    <polyline
       style="fill-rule:evenodd"
       points="70750,14750 71750,14250 70750,13750 "
       id="polyline2140" />
  </g>
  <g
     style="fill:#840000;fill-opacity:0;stroke:#840000;stroke-width:60;stroke-linecap:round;stroke-linejoin:round;stroke-opacity:1"
     id="g2142"
     transform="translate(-56060.02,-8339.5727)">
    <path
       d="m 71750,14250 1000,0"
       id="path2144"
       inkscape:connector-curvature="0" />
    <path
       d="m 70750,14250 -1000,0"
       id="path2146"
       inkscape:connector-curvature="0" />
  </g>
  <g
     style="fill:#008400;fill-opacity:0;stroke:#008400;stroke-width:0;stroke-linecap:round;stroke-linejoin:round;stroke-opacity:1"
     id="g2186"
     transform="translate(-56060.02,-8339.5727)" />
  <g
     style="fill:#008400;fill-opacity:1;stroke:#008400;stroke-width:60;stroke-linecap:round;stroke-linejoin:round;stroke-opacity:1"
     id="g2192"
     transform="translate(-56060.02,-8339.5727)" />
  <g
     style="fill:#008400;fill-opacity:0;stroke:#008400;stroke-width:0;stroke-linecap:round;stroke-linejoin:round;stroke-opacity:1"
     id="g2216"
     transform="translate(-56060.02,-8339.5727)" />
  <g
     style="fill:#008400;fill-opacity:1;stroke:#008400;stroke-width:60;stroke-linecap:round;stroke-linejoin:round;stroke-opacity:1"
     id="g2222"
     transform="translate(-56060.02,-8339.5727)" />
  <g
     style="fill:#008400;fill-opacity:0;stroke:#008400;stroke-width:0;stroke-linecap:round;stroke-linejoin:round;stroke-opacity:1"
     id="g2230"
     transform="translate(-56060.02,-8339.5727)" />
  <g
     style="fill:#008400;fill-opacity:1;stroke:#008400;stroke-width:60;stroke-linecap:round;stroke-linejoin:round;stroke-opacity:1"
     id="g2236"
     transform="translate(-56060.02,-8339.5727)" />
  <g
     style="fill:#008400;fill-opacity:0;stroke:#008400;stroke-width:0;stroke-linecap:round;stroke-linejoin:round;stroke-opacity:1"
     id="g2250"
     transform="translate(-56060.02,-8339.5727)" />
  <g
     style="fill:#008400;fill-opacity:1;stroke:#008400;stroke-width:60;stroke-linecap:round;stroke-linejoin:round;stroke-opacity:1"
     id="g2256"
     transform="translate(-56060.02,-8339.5727)" />
  <g
     style="fill:#008400;fill-opacity:0;stroke:#008400;stroke-width:60;stroke-linecap:round;stroke-linejoin:round;stroke-opacity:1"
     id="g2258"
     transform="translate(-56060.02,-8339.5727)">
    <path
       d="m 66250,11250 -1000,0"
       id="path2362"
       inkscape:connector-curvature="0" />
    <path
       d="m 62000,15250 750,0"
       id="path2364"
       inkscape:connector-curvature="0" />
    <path
       d="m 62000,13250 750,0"
       id="path2366"
       inkscape:connector-curvature="0" />
    <path
       d="m 59000,15250 0,2000"
       id="path2368"
       inkscape:connector-curvature="0" />
    <path
       d="m 59000,17250 -500,0"
       id="path2370"
       inkscape:connector-curvature="0" />
    <path
       d="m 58000,15250 1000,0"
       id="path2372"
       inkscape:connector-curvature="0" />
    <path
       d="m 66250,16000 -750,0"
       id="path2374"
       inkscape:connector-curvature="0" />
    <path
       d="m 65500,16000 0,1250"
       id="path2376"
       inkscape:connector-curvature="0" />
    <path
       d="m 65500,17250 -250,0"
       id="path2378"
       inkscape:connector-curvature="0" />
    <path
       d="m 64250,20250 -1500,0"
       id="path2380"
       inkscape:connector-curvature="0" />
    <path
       d="m 62750,20250 0,-5000"
       id="path2382"
       inkscape:connector-curvature="0" />
    <path
       d="m 65750,18500 -3000,0"
       id="path2384"
       inkscape:connector-curvature="0" />
  </g>
  <g
     style="fill:#008400;fill-opacity:0;stroke:#008400;stroke-width:0;stroke-linecap:round;stroke-linejoin:round;stroke-opacity:1"
     id="g2386"
     transform="translate(-56060.02,-8339.5727)" />
  <g
     style="fill:#008400;fill-opacity:1;stroke:#008400;stroke-width:100;stroke-linecap:round;stroke-linejoin:round;stroke-opacity:1"
     id="g2388"
     transform="translate(-56060.02,-8339.5727)">
    <circle
       cx="62750"
       cy="18500"
       r="200"
       id="circle2390" />
  </g>
  <g
     style="fill:#008400;fill-opacity:1;stroke:#008400;stroke-width:60;stroke-linecap:round;stroke-linejoin:round;stroke-opacity:1"
     id="g2392"
     transform="translate(-56060.02,-8339.5727)" />
  <g
     style="fill:#008400;fill-opacity:0;stroke:#008400;stroke-width:60;stroke-linecap:round;stroke-linejoin:round;stroke-opacity:1"
     id="g2394"
     transform="translate(-56060.02,-8339.5727)">
    <path
       d="m 69750,14250 0,4250"
       id="path2396"
       inkscape:connector-curvature="0" />
    <path
       d="m 69750,18500 -1000,0"
       id="path2398"
       inkscape:connector-curvature="0" />
    <path
       d="m 67250,20250 5500,0"
       id="path2400"
       inkscape:connector-curvature="0" />
    <path
       d="m 72750,20250 0,-6000"
       id="path2402"
       inkscape:connector-curvature="0" />
  </g>
  <g
     style="fill:#008400;fill-opacity:0;stroke:#008400;stroke-width:0;stroke-linecap:round;stroke-linejoin:round;stroke-opacity:1"
     id="g2404"
     transform="translate(-56060.02,-8339.5727)" />
  <g
     style="fill:#840000;fill-opacity:0;stroke:#840000;stroke-width:0;stroke-linecap:round;stroke-linejoin:round;stroke-opacity:1"
     id="g2406"
     transform="translate(-56060.02,-8339.5727)" />
  <g
     style="fill:#840000;fill-opacity:0;stroke:#840000;stroke-width:100;stroke-linecap:round;stroke-linejoin:round;stroke-opacity:1"
     id="g2408"
     transform="translate(-56060.02,-8339.5727)">
    <rect
       x="59500"
       y="14850"
       width="2000"
       height="800"
       rx="0"
       id="rect2410" />
  </g>
  <g
     style="fill:#840000;fill-opacity:0;stroke:#840000;stroke-width:60;stroke-linecap:round;stroke-linejoin:round;stroke-opacity:1"
     id="g2412"
     transform="translate(-56060.02,-8339.5727)">
    <path
       d="m 59500,15250 -500,0"
       id="path2414"
       inkscape:connector-curvature="0" />
    <path
       d="m 61500,15250 500,0"
       id="path2416"
       inkscape:connector-curvature="0" />
  </g>
  <g
     style="fill:#008484;fill-opacity:0;stroke:#008484;stroke-width:60;stroke-linecap:round;stroke-linejoin:round;stroke-opacity:1"
     id="g2418"
     transform="translate(-56060.02,-8339.5727)">
    <path
       d="m 60410,16510 -160,-240"
       id="path2420"
       inkscape:connector-curvature="0" />
    <path
       d="m 60130,16510 0,-500 190,0 50,20 20,20 20,50 0,70 -20,50 -20,20 -50,30 -190,0"
       id="path2422"
       inkscape:connector-curvature="0" />
    <path
       d="m 60890,16510 -280,0"
       id="path2424"
       inkscape:connector-curvature="0" />
    <path
       d="m 60750,16510 0,-500 -50,70 -50,50 -40,20"
       id="path2426"
       inkscape:connector-curvature="0" />
    <path
       d="m 60150,15510 -280,0"
       id="path2428"
       inkscape:connector-curvature="0" />
    <path
       d="m 60010,15510 0,-500 -50,70 -50,50 -40,20"
       id="path2430"
       inkscape:connector-curvature="0" />
    <path
       d="m 60460,15010 50,0 50,20 20,20 30,50 20,100 0,120 -20,90 -30,50 -20,20 -50,30 -50,0 -40,-30 -30,-20 -20,-50 -20,-90 0,-120 20,-100 20,-50 30,-20 40,-20"
       id="path2432"
       inkscape:connector-curvature="0" />
    <path
       d="m 60850,15510 0,-500"
       id="path2434"
       inkscape:connector-curvature="0" />
    <path
       d="m 61130,15510 -210,-290"
       id="path2436"
       inkscape:connector-curvature="0" />
    <path
       d="m 61130,15010 -280,280"
       id="path2438"
       inkscape:connector-curvature="0" />
  </g>
</svg>
