<?xml version="1.0" encoding="UTF-8" standalone="no"?>
<svg
   xmlns:dc="http://purl.org/dc/elements/1.1/"
   xmlns:cc="http://creativecommons.org/ns#"
   xmlns:rdf="http://www.w3.org/1999/02/22-rdf-syntax-ns#"
   xmlns:svg="http://www.w3.org/2000/svg"
   xmlns="http://www.w3.org/2000/svg"
   xmlns:sodipodi="http://sodipodi.sourceforge.net/DTD/sodipodi-0.dtd"
   xmlns:inkscape="http://www.inkscape.org/namespaces/inkscape"
   version="1.1"
   width="4.859015cm"
   height="3.1395454cm"
   viewBox="0 0 19129.994 12360.427"
   id="svg2"
   inkscape:version="0.92.3 (3ce5693, 2018-03-11)"
   sodipodi:docname="precision-rectifier.svg">
  <metadata
     id="metadata2444">
    <rdf:RDF>
      <cc:Work
         rdf:about="">
        <dc:format>image/svg+xml</dc:format>
        <dc:type
           rdf:resource="http://purl.org/dc/dcmitype/StillImage" />
        <dc:title>SVG Picture created as opamps.sch.svg date 2016/06/16 11:35:15 </dc:title>
      </cc:Work>
    </rdf:RDF>
  </metadata>
  <defs
     id="defs2442" />
  <sodipodi:namedview
     pagecolor="#ffffff"
     bordercolor="#666666"
     borderopacity="1"
     objecttolerance="10"
     gridtolerance="10"
     guidetolerance="10"
     inkscape:pageopacity="0"
     inkscape:pageshadow="2"
     inkscape:window-width="1299"
     inkscape:window-height="713"
     id="namedview2440"
     showgrid="false"
     fit-margin-top="0"
     fit-margin-left="0"
     fit-margin-right="0"
     fit-margin-bottom="0"
     inkscape:zoom="3.1929586"
     inkscape:cx="102.96056"
     inkscape:cy="72.168215"
     inkscape:window-x="67"
     inkscape:window-y="27"
     inkscape:window-maximized="1"
     inkscape:current-layer="svg2"
     inkscape:snap-nodes="false" />
  <title
     id="title4">SVG Picture created as opamps.sch.svg date 2016/06/16 11:35:15 </title>
  <desc
     id="desc6">Picture generated by Eeschema-SVG </desc>
  <g
     style="fill:#000000;fill-opacity:1;stroke:#000000;stroke-linecap:round;stroke-linejoin:round;stroke-opacity:1"
     id="g8"
     transform="translate(-56060.02,-8339.5727)" />
  <g
     style="fill:#000000;fill-opacity:0;stroke:#000000;stroke-width:60;stroke-linecap:round;stroke-linejoin:round;stroke-opacity:1"
     id="g10"
     transform="translate(-56060.02,-8339.5727)" />
  <g
     style="fill:#840000;fill-opacity:0;stroke:#840000;stroke-width:0;stroke-linecap:round;stroke-linejoin:round;stroke-opacity:1"
     id="g100"
     transform="translate(-56060.02,-8339.5727)" />
  <g
     style="fill:#008484;fill-opacity:0;stroke:#008484;stroke-width:0;stroke-linecap:round;stroke-linejoin:round;stroke-opacity:1"
     id="g126"
     transform="translate(-56060.02,-8339.5727)" />
  <g
     style="fill:#840000;fill-opacity:0;stroke:#840000;stroke-width:0;stroke-linecap:round;stroke-linejoin:round;stroke-opacity:1"
     id="g128"
     transform="translate(-56060.02,-8339.5727)" />
  <g
     style="fill:#840000;fill-opacity:0;stroke:#840000;stroke-width:60;stroke-linecap:round;stroke-linejoin:round;stroke-opacity:1"
     id="g212"
     transform="translate(-56060.02,-8339.5727)" />
  <g
     style="fill:#840000;fill-opacity:0;stroke:#840000;stroke-width:0;stroke-linecap:round;stroke-linejoin:round;stroke-opacity:1"
     id="g310"
     transform="translate(-56060.02,-8339.5727)" />
  <g
     style="fill:#008484;fill-opacity:0;stroke:#008484;stroke-width:0;stroke-linecap:round;stroke-linejoin:round;stroke-opacity:1"
     id="g336"
     transform="translate(-56060.02,-8339.5727)" />
  <g
     style="fill:#840000;fill-opacity:0;stroke:#840000;stroke-width:0;stroke-linecap:round;stroke-linejoin:round;stroke-opacity:1"
     id="g338"
     transform="translate(-56060.02,-8339.5727)" />
  <g
     style="fill:#840000;fill-opacity:0;stroke:#840000;stroke-width:0;stroke-linecap:round;stroke-linejoin:round;stroke-opacity:1"
     id="g422"
     transform="translate(-56060.02,-8339.5727)" />
  <g
     style="fill:#ffffc2;fill-opacity:0;stroke:#ffffc2;stroke-width:0;stroke-linecap:round;stroke-linejoin:round;stroke-opacity:1"
     id="g424"
     transform="translate(-56060.02,-8339.5727)" />
  <g
     style="fill:#840000;fill-opacity:0.6;stroke:#840000;stroke-width:0;stroke-linecap:round;stroke-linejoin:round;stroke-opacity:1"
     id="g430"
     transform="translate(-56060.02,-8339.5727)" />
  <g
     style="fill:#840000;fill-opacity:0;stroke:#840000;stroke-width:0;stroke-linecap:round;stroke-linejoin:round;stroke-opacity:1"
     id="g490"
     transform="translate(-56060.02,-8339.5727)" />
  <g
     style="fill:#ffffc2;fill-opacity:0;stroke:#ffffc2;stroke-width:0;stroke-linecap:round;stroke-linejoin:round;stroke-opacity:1"
     id="g492"
     transform="translate(-56060.02,-8339.5727)" />
  <g
     style="fill:#840000;fill-opacity:0.6;stroke:#840000;stroke-width:0;stroke-linecap:round;stroke-linejoin:round;stroke-opacity:1"
     id="g498"
     transform="translate(-56060.02,-8339.5727)" />
  <g
     style="fill:#840000;fill-opacity:0;stroke:#840000;stroke-width:0;stroke-linecap:round;stroke-linejoin:round;stroke-opacity:1"
     id="g578"
     transform="translate(-56060.02,-8339.5727)" />
  <g
     style="fill:#840000;fill-opacity:0;stroke:#840000;stroke-width:0;stroke-linecap:round;stroke-linejoin:round;stroke-opacity:1"
     id="g630"
     transform="translate(-56060.02,-8339.5727)" />
  <g
     style="fill:#ffffc2;fill-opacity:0;stroke:#ffffc2;stroke-width:0;stroke-linecap:round;stroke-linejoin:round;stroke-opacity:1"
     id="g632"
     transform="translate(-56060.02,-8339.5727)" />
  <g
     style="fill:#840000;fill-opacity:0.6;stroke:#840000;stroke-width:0;stroke-linecap:round;stroke-linejoin:round;stroke-opacity:1"
     id="g638"
     transform="translate(-56060.02,-8339.5727)" />
  <g
     style="fill:#0000c2;fill-opacity:0;stroke:#0000c2;stroke-width:0;stroke-linecap:round;stroke-linejoin:round;stroke-opacity:1"
     id="g760"
     transform="translate(-56060.02,-8339.5727)" />
  <g
     style="fill:#840000;fill-opacity:0;stroke:#840000;stroke-width:0;stroke-linecap:round;stroke-linejoin:round;stroke-opacity:1"
     id="g762"
     transform="translate(-56060.02,-8339.5727)" />
  <g
     style="fill:#008484;fill-opacity:0;stroke:#008484;stroke-width:0;stroke-linecap:round;stroke-linejoin:round;stroke-opacity:1"
     id="g792"
     transform="translate(-56060.02,-8339.5727)" />
  <g
     style="fill:#840000;fill-opacity:0;stroke:#840000;stroke-width:0;stroke-linecap:round;stroke-linejoin:round;stroke-opacity:1"
     id="g794"
     transform="translate(-56060.02,-8339.5727)" />
  <g
     style="fill:#008484;fill-opacity:0;stroke:#008484;stroke-width:0;stroke-linecap:round;stroke-linejoin:round;stroke-opacity:1"
     id="g824"
     transform="translate(-56060.02,-8339.5727)" />
  <g
     style="fill:#840000;fill-opacity:0;stroke:#840000;stroke-width:0;stroke-linecap:round;stroke-linejoin:round;stroke-opacity:1"
     id="g826"
     transform="translate(-56060.02,-8339.5727)" />
  <g
     style="fill:#008484;fill-opacity:0;stroke:#008484;stroke-width:0;stroke-linecap:round;stroke-linejoin:round;stroke-opacity:1"
     id="g856"
     transform="translate(-56060.02,-8339.5727)" />
  <g
     style="fill:#840000;fill-opacity:0;stroke:#840000;stroke-width:0;stroke-linecap:round;stroke-linejoin:round;stroke-opacity:1"
     id="g858"
     transform="translate(-56060.02,-8339.5727)" />
  <g
     style="fill:#008484;fill-opacity:0;stroke:#008484;stroke-width:0;stroke-linecap:round;stroke-linejoin:round;stroke-opacity:1"
     id="g878"
     transform="translate(-56060.02,-8339.5727)" />
  <g
     style="fill:#840000;fill-opacity:0;stroke:#840000;stroke-width:0;stroke-linecap:round;stroke-linejoin:round;stroke-opacity:1"
     id="g880"
     transform="translate(-56060.02,-8339.5727)" />
  <g
     style="fill:#840000;fill-opacity:0;stroke:#840000;stroke-width:0;stroke-linecap:round;stroke-linejoin:round;stroke-opacity:1"
     id="g912"
     transform="translate(-56060.02,-8339.5727)" />
  <g
     style="fill:#840000;fill-opacity:0;stroke:#840000;stroke-width:0;stroke-linecap:round;stroke-linejoin:round;stroke-opacity:1"
     id="g1038"
     transform="translate(-56060.02,-8339.5727)" />
  <g
     style="fill:#840000;fill-opacity:0;stroke:#840000;stroke-width:0;stroke-linecap:round;stroke-linejoin:round;stroke-opacity:1"
     id="g1106"
     transform="translate(-56060.02,-8339.5727)" />
  <g
     style="fill:#840000;fill-opacity:0;stroke:#840000;stroke-width:0;stroke-linecap:round;stroke-linejoin:round;stroke-opacity:1"
     id="g1144"
     transform="translate(-56060.02,-8339.5727)" />
  <g
     style="fill:#008484;fill-opacity:0;stroke:#008484;stroke-width:0;stroke-linecap:round;stroke-linejoin:round;stroke-opacity:1"
     id="g1166"
     transform="translate(-56060.02,-8339.5727)" />
  <g
     style="fill:#840000;fill-opacity:0;stroke:#840000;stroke-width:0;stroke-linecap:round;stroke-linejoin:round;stroke-opacity:1"
     id="g1168"
     transform="translate(-56060.02,-8339.5727)" />
  <g
     style="fill:#ffffc2;fill-opacity:0;stroke:#ffffc2;stroke-width:0;stroke-linecap:round;stroke-linejoin:round;stroke-opacity:1"
     id="g1170"
     transform="translate(-56060.02,-8339.5727)" />
  <g
     style="fill:#840000;fill-opacity:0.6;stroke:#840000;stroke-width:0;stroke-linecap:round;stroke-linejoin:round;stroke-opacity:1"
     id="g1176"
     transform="translate(-56060.02,-8339.5727)" />
  <g
     style="fill:#840000;fill-opacity:0;stroke:#840000;stroke-width:0;stroke-linecap:round;stroke-linejoin:round;stroke-opacity:1"
     id="g1256"
     transform="translate(-56060.02,-8339.5727)" />
  <g
     style="fill:#840000;fill-opacity:0;stroke:#840000;stroke-width:0;stroke-linecap:round;stroke-linejoin:round;stroke-opacity:1"
     id="g1324"
     transform="translate(-56060.02,-8339.5727)" />
  <g
     style="fill:#840000;fill-opacity:0;stroke:#840000;stroke-width:0;stroke-linecap:round;stroke-linejoin:round;stroke-opacity:1"
     id="g1360"
     transform="translate(-56060.02,-8339.5727)" />
  <g
     style="fill:#008484;fill-opacity:0;stroke:#008484;stroke-width:0;stroke-linecap:round;stroke-linejoin:round;stroke-opacity:1"
     id="g1382"
     transform="translate(-56060.02,-8339.5727)" />
  <g
     style="fill:#840000;fill-opacity:0;stroke:#840000;stroke-width:0;stroke-linecap:round;stroke-linejoin:round;stroke-opacity:1"
     id="g1384"
     transform="translate(-56060.02,-8339.5727)" />
  <g
     style="fill:#ffffc2;fill-opacity:0;stroke:#ffffc2;stroke-width:0;stroke-linecap:round;stroke-linejoin:round;stroke-opacity:1"
     id="g1386"
     transform="translate(-56060.02,-8339.5727)" />
  <g
     style="fill:#840000;fill-opacity:0.6;stroke:#840000;stroke-width:0;stroke-linecap:round;stroke-linejoin:round;stroke-opacity:1"
     id="g1392"
     transform="translate(-56060.02,-8339.5727)" />
  <g
     style="fill:#840000;fill-opacity:0;stroke:#840000;stroke-width:0;stroke-linecap:round;stroke-linejoin:round;stroke-opacity:1"
     id="g1610"
     transform="translate(-56060.02,-8339.5727)" />
  <g
     style="fill:#840000;fill-opacity:0;stroke:#840000;stroke-width:0;stroke-linecap:round;stroke-linejoin:round;stroke-opacity:1"
     id="g1678"
     transform="translate(-56060.02,-8339.5727)" />
  <g
     style="fill:#840000;fill-opacity:0;stroke:#840000;stroke-width:0;stroke-linecap:round;stroke-linejoin:round;stroke-opacity:1"
     id="g1714"
     transform="translate(-56060.02,-8339.5727)" />
  <g
     style="fill:#008484;fill-opacity:0;stroke:#008484;stroke-width:0;stroke-linecap:round;stroke-linejoin:round;stroke-opacity:1"
     id="g1736"
     transform="translate(-56060.02,-8339.5727)" />
  <g
     style="fill:#840000;fill-opacity:0;stroke:#840000;stroke-width:0;stroke-linecap:round;stroke-linejoin:round;stroke-opacity:1"
     id="g1738"
     transform="translate(-56060.02,-8339.5727)" />
  <g
     style="fill:#ffffc2;fill-opacity:0;stroke:#ffffc2;stroke-width:0;stroke-linecap:round;stroke-linejoin:round;stroke-opacity:1"
     id="g1740"
     transform="translate(-56060.02,-8339.5727)" />
  <g
     style="fill:#840000;fill-opacity:0.6;stroke:#840000;stroke-width:0;stroke-linecap:round;stroke-linejoin:round;stroke-opacity:1"
     id="g1746"
     transform="translate(-56060.02,-8339.5727)" />
  <g
     style="fill:#840000;fill-opacity:0;stroke:#840000;stroke-width:60;stroke-linecap:round;stroke-linejoin:round;stroke-opacity:1"
     id="g1876"
     transform="translate(-56060.02,-8339.5727)" />
  <g
     style="fill:#840000;fill-opacity:0;stroke:#840000;stroke-width:0;stroke-linecap:round;stroke-linejoin:round;stroke-opacity:1"
     id="g1958"
     transform="translate(-56060.02,-8339.5727)" />
  <g
     style="fill:#840000;fill-opacity:0;stroke:#840000;stroke-width:0;stroke-linecap:round;stroke-linejoin:round;stroke-opacity:1"
     id="g2048"
     transform="translate(-56060.02,-8339.5727)" />
  <g
     style="fill:#ffffc2;fill-opacity:0;stroke:#ffffc2;stroke-width:0;stroke-linecap:round;stroke-linejoin:round;stroke-opacity:1"
     id="g2050"
     transform="translate(-56060.02,-8339.5727)" />
  <g
     style="fill:#840000;fill-opacity:0.6;stroke:#840000;stroke-width:0;stroke-linecap:round;stroke-linejoin:round;stroke-opacity:1"
     id="g2056"
     transform="translate(-56060.02,-8339.5727)" />
  <g
     style="fill:#840000;fill-opacity:0;stroke:#840000;stroke-width:0;stroke-linecap:round;stroke-linejoin:round;stroke-opacity:1"
     id="g2116"
     transform="translate(-56060.02,-8339.5727)" />
  <g
     style="fill:#840000;fill-opacity:0;stroke:#840000;stroke-width:0;stroke-linecap:round;stroke-linejoin:round;stroke-opacity:1"
     id="g2132"
     transform="translate(-56060.02,-8339.5727)" />
  <g
     style="fill:#008400;fill-opacity:0;stroke:#008400;stroke-width:0;stroke-linecap:round;stroke-linejoin:round;stroke-opacity:1"
     id="g2186"
     transform="translate(-56060.02,-8339.5727)" />
  <g
     style="fill:#008400;fill-opacity:1;stroke:#008400;stroke-width:60;stroke-linecap:round;stroke-linejoin:round;stroke-opacity:1"
     id="g2192"
     transform="translate(-56060.02,-8339.5727)" />
  <g
     style="fill:#008400;fill-opacity:0;stroke:#008400;stroke-width:0;stroke-linecap:round;stroke-linejoin:round;stroke-opacity:1"
     id="g2216"
     transform="translate(-56060.02,-8339.5727)" />
  <g
     style="fill:#008400;fill-opacity:1;stroke:#008400;stroke-width:60;stroke-linecap:round;stroke-linejoin:round;stroke-opacity:1"
     id="g2222"
     transform="translate(-56060.02,-8339.5727)" />
  <g
     style="fill:#008400;fill-opacity:0;stroke:#008400;stroke-width:0;stroke-linecap:round;stroke-linejoin:round;stroke-opacity:1"
     id="g2230"
     transform="translate(-56060.02,-8339.5727)" />
  <g
     style="fill:#008400;fill-opacity:1;stroke:#008400;stroke-width:60;stroke-linecap:round;stroke-linejoin:round;stroke-opacity:1"
     id="g2236"
     transform="translate(-56060.02,-8339.5727)" />
  <g
     style="fill:#008400;fill-opacity:0;stroke:#008400;stroke-width:0;stroke-linecap:round;stroke-linejoin:round;stroke-opacity:1"
     id="g2250"
     transform="translate(-56060.02,-8339.5727)" />
  <g
     style="fill:#008400;fill-opacity:1;stroke:#008400;stroke-width:60;stroke-linecap:round;stroke-linejoin:round;stroke-opacity:1"
     id="g2256"
     transform="translate(-56060.02,-8339.5727)" />
  <g
     style="fill:#008400;fill-opacity:0;stroke:#008400;stroke-width:0;stroke-linecap:round;stroke-linejoin:round;stroke-opacity:1"
     id="g2386"
     transform="translate(-56060.02,-8339.5727)" />
  <g
     style="fill:#008400;fill-opacity:1;stroke:#008400;stroke-width:60;stroke-linecap:round;stroke-linejoin:round;stroke-opacity:1"
     id="g2392"
     transform="translate(-56060.02,-8339.5727)" />
  <g
     style="fill:#008400;fill-opacity:0;stroke:#008400;stroke-width:0;stroke-linecap:round;stroke-linejoin:round;stroke-opacity:1"
     id="g2404"
     transform="translate(-56060.02,-8339.5727)" />
  <g
     style="fill:#840000;fill-opacity:0;stroke:#840000;stroke-width:0;stroke-linecap:round;stroke-linejoin:round;stroke-opacity:1"
     id="g2406"
     transform="translate(-56060.02,-8339.5727)" />
  <g
     id="g12448">
    <g
       transform="matrix(1.3403492,0,0,1.6051352,-80524.08,-12868.369)"
       id="g1878"
       style="fill:#0000c2;fill-opacity:0;stroke:#0000c2;stroke-width:60;stroke-linecap:round;stroke-linejoin:round;stroke-opacity:1">
      <path
         inkscape:connector-curvature="0"
         id="path1880"
         d="m 63390,8970 v -600 h 230 l 60,30 30,30 30,60 v 80 l -30,60 -30,30 -60,30 h -230" />
      <path
         inkscape:connector-curvature="0"
         id="path1882"
         d="M 63990,8970 V 8570" />
      <path
         inkscape:connector-curvature="0"
         id="path1884"
         d="m 63990,8690 30,-60 30,-30 60,-30 h 50" />
      <path
         inkscape:connector-curvature="0"
         id="path1886"
         d="m 64590,8940 -60,30 h -110 l -60,-30 -30,-50 v -230 l 30,-60 60,-30 h 110 l 60,30 30,60 v 50 l -290,60" />
      <path
         inkscape:connector-curvature="0"
         id="path1888"
         d="m 65130,8940 -60,30 h -110 l -60,-30 -30,-30 -30,-50 v -170 l 30,-60 30,-30 60,-30 h 110 l 60,30" />
      <path
         inkscape:connector-curvature="0"
         id="path1890"
         d="M 65380,8970 V 8570" />
      <path
         inkscape:connector-curvature="0"
         id="path1892"
         d="m 65380,8370 -30,30 30,30 30,-30 -30,-30 v 60" />
      <path
         inkscape:connector-curvature="0"
         id="path1894"
         d="m 65640,8940 60,30 h 120 l 50,-30 30,-50 v -30 l -30,-60 -50,-30 h -90 l -60,-30 -30,-50 v -30 l 30,-60 60,-30 h 90 l 50,30" />
      <path
         inkscape:connector-curvature="0"
         id="path1896"
         d="M 66160,8970 V 8570" />
      <path
         inkscape:connector-curvature="0"
         id="path1898"
         d="m 66160,8370 -30,30 30,30 30,-30 -30,-30 v 60" />
      <path
         inkscape:connector-curvature="0"
         id="path1900"
         d="m 66540,8970 -60,-30 -30,-30 -30,-50 v -170 l 30,-60 30,-30 60,-30 h 80 l 60,30 30,30 30,60 v 170 l -30,50 -30,30 -60,30 h -80" />
      <path
         inkscape:connector-curvature="0"
         id="path1902"
         d="m 66990,8570 v 400" />
      <path
         inkscape:connector-curvature="0"
         id="path1904"
         d="m 66990,8630 30,-30 60,-30 h 80 l 60,30 30,60 v 310" />
      <path
         inkscape:connector-curvature="0"
         id="path1906"
         d="m 68340,8970 -200,-280" />
      <path
         inkscape:connector-curvature="0"
         id="path1908"
         d="m 67990,8970 v -600 h 230 l 60,30 30,30 30,60 v 80 l -30,60 -30,30 -60,30 h -230" />
      <path
         inkscape:connector-curvature="0"
         id="path1910"
         d="m 68820,8940 -60,30 h -110 l -60,-30 -30,-50 v -230 l 30,-60 60,-30 h 110 l 60,30 30,60 v 50 l -290,60" />
      <path
         inkscape:connector-curvature="0"
         id="path1912"
         d="m 69360,8940 -60,30 h -110 l -60,-30 -30,-30 -30,-50 v -170 l 30,-60 30,-30 60,-30 h 110 l 60,30" />
      <path
         inkscape:connector-curvature="0"
         id="path1914"
         d="m 69530,8570 h 230" />
      <path
         inkscape:connector-curvature="0"
         id="path1916"
         d="m 69610,8370 v 520 l 30,50 60,30 h 60" />
      <path
         inkscape:connector-curvature="0"
         id="path1918"
         d="M 69950,8970 V 8570" />
      <path
         inkscape:connector-curvature="0"
         id="path1920"
         d="m 69950,8370 -30,30 30,30 30,-30 -30,-30 v 60" />
      <path
         inkscape:connector-curvature="0"
         id="path1922"
         d="m 70160,8570 h 230" />
      <path
         inkscape:connector-curvature="0"
         id="path1924"
         d="m 70240,8970 v -510 l 30,-60 60,-30 h 60" />
      <path
         inkscape:connector-curvature="0"
         id="path1926"
         d="M 70580,8970 V 8570" />
      <path
         inkscape:connector-curvature="0"
         id="path1928"
         d="m 70580,8370 -30,30 30,30 30,-30 -30,-30 v 60" />
      <path
         inkscape:connector-curvature="0"
         id="path1930"
         d="m 71100,8940 -60,30 h -110 l -60,-30 -30,-50 v -230 l 30,-60 60,-30 h 110 l 60,30 30,60 v 50 l -290,60" />
      <path
         inkscape:connector-curvature="0"
         id="path1932"
         d="M 71380,8970 V 8570" />
      <path
         inkscape:connector-curvature="0"
         id="path1934"
         d="m 71380,8690 30,-60 30,-30 60,-30 h 50" />
    </g>
    <g
       transform="translate(-56060.02,-8339.5727)"
       id="g1964"
       style="fill:#840000;fill-opacity:0;stroke:#840000;stroke-width:60;stroke-linecap:round;stroke-linejoin:round;stroke-opacity:1">
      <path
         inkscape:connector-curvature="0"
         id="path1966"
         d="m 64750,20250 -500,0" />
      <path
         inkscape:connector-curvature="0"
         id="path1968"
         d="m 66750,20250 500,0" />
    </g>
    <g
       id="g12228">
      <g
         id="g12214">
        <g
           transform="translate(-56060.02,-8339.5727)"
           id="g1960"
           style="fill:#840000;fill-opacity:0;stroke:#840000;stroke-width:100;stroke-linecap:round;stroke-linejoin:round;stroke-opacity:1">
          <rect
             id="rect1962"
             rx="0"
             height="800"
             width="2000"
             y="19850"
             x="64750" />
        </g>
        <path
           d="m 9599.98,11337.803 -160,-240"
           id="path1972"
           inkscape:connector-curvature="0"
           style="fill:#008484;fill-opacity:0;stroke:#008484;stroke-width:60;stroke-linecap:round;stroke-linejoin:round;stroke-opacity:1" />
        <path
           d="m 9319.98,11337.803 v -500 h 190 l 50,20 20,20 20,50 v 70 l -20,50 -20,20 -50,30 h -190"
           id="path1974"
           inkscape:connector-curvature="0"
           style="fill:#008484;fill-opacity:0;stroke:#008484;stroke-width:60;stroke-linecap:round;stroke-linejoin:round;stroke-opacity:1" />
        <path
           d="m 9799.98,10877.803 20,-20 50,-20 h 120 l 40,20 30,20 20,50 v 50 l -20,70 -290,290 h 310"
           id="path1976"
           inkscape:connector-curvature="0"
           style="fill:#008484;fill-opacity:0;stroke:#008484;stroke-width:60;stroke-linecap:round;stroke-linejoin:round;stroke-opacity:1" />
        <path
           d="m 9339.98,12170.427 h -280"
           id="path1978"
           inkscape:connector-curvature="0"
           style="fill:#008484;fill-opacity:0;stroke:#008484;stroke-width:60;stroke-linecap:round;stroke-linejoin:round;stroke-opacity:1" />
        <path
           d="m 9199.98,12170.427 v -500 l -50,70 -50,50 -40,20"
           id="path1980"
           inkscape:connector-curvature="0"
           style="fill:#008484;fill-opacity:0;stroke:#008484;stroke-width:60;stroke-linecap:round;stroke-linejoin:round;stroke-opacity:1" />
        <path
           d="m 9649.98,11670.427 h 50 l 50,20 20,20 30,50 20,100 v 120 l -20,90 -30,50 -20,20 -50,30 h -50 l -40,-30 -30,-20 -20,-50 -20,-90 v -120 l 20,-100 20,-50 30,-20 40,-20"
           id="path1982"
           inkscape:connector-curvature="0"
           style="fill:#008484;fill-opacity:0;stroke:#008484;stroke-width:60;stroke-linecap:round;stroke-linejoin:round;stroke-opacity:1" />
        <path
           d="m 10039.98,12170.427 v -500"
           id="path1984"
           inkscape:connector-curvature="0"
           style="fill:#008484;fill-opacity:0;stroke:#008484;stroke-width:60;stroke-linecap:round;stroke-linejoin:round;stroke-opacity:1" />
        <path
           d="m 10319.98,12170.427 -210,-290"
           id="path1986"
           inkscape:connector-curvature="0"
           style="fill:#008484;fill-opacity:0;stroke:#008484;stroke-width:60;stroke-linecap:round;stroke-linejoin:round;stroke-opacity:1" />
        <path
           d="m 10319.98,11670.427 -280,280"
           id="path1988"
           inkscape:connector-curvature="0"
           style="fill:#008484;fill-opacity:0;stroke:#008484;stroke-width:60;stroke-linecap:round;stroke-linejoin:round;stroke-opacity:1" />
      </g>
    </g>
    <g
       transform="translate(-56060.02,-8339.5727)"
       id="g1990"
       style="fill:#840000;fill-opacity:0;stroke:#840000;stroke-width:60;stroke-linecap:round;stroke-linejoin:round;stroke-opacity:1">
      <path
         inkscape:connector-curvature="0"
         id="path1992"
         d="m 56470,14920 140,600 110,-430 120,430 140,-600" />
      <path
         inkscape:connector-curvature="0"
         id="path1994"
         d="m 57530,15520 -350,0" />
      <path
         inkscape:connector-curvature="0"
         id="path1996"
         d="m 57360,15520 0,-600 -60,90 -60,50 -60,30" />
    </g>
    <g
       transform="translate(-56060.02,-8339.5727)"
       id="g1998"
       style="fill:#840000;fill-opacity:0;stroke:#840000;stroke-width:100;stroke-linecap:round;stroke-linejoin:round;stroke-opacity:1">
      <polyline
         id="polyline2000"
         points="58000,15250 57700,14710 56150,14710 56150,15250 56150,15790 57700,15790 58000,15250 "
         fill="none;" />
    </g>
    <g
       transform="translate(-56060.02,-8339.5727)"
       id="g2002"
       style="fill:#840000;fill-opacity:0;stroke:#840000;stroke-width:60;stroke-linecap:round;stroke-linejoin:round;stroke-opacity:1">
      <path
         inkscape:connector-curvature="0"
         id="path2004"
         d="m 60270,12950 -60,-30 -90,0 -80,30 -60,60 -30,50 -30,120 0,80 30,120 30,60 60,50 80,30 60,0 90,-30 30,-30 0,-200 -120,0" />
      <path
         inkscape:connector-curvature="0"
         id="path2006"
         d="m 60550,13520 0,-600 350,600 0,-600" />
      <path
         inkscape:connector-curvature="0"
         id="path2008"
         d="m 61180,13520 0,-600 150,0 80,30 60,60 30,50 30,120 0,80 -30,120 -30,60 -60,50 -80,30 -150,0" />
    </g>
    <g
       transform="translate(-56060.02,-8339.5727)"
       id="g2010"
       style="fill:#840000;fill-opacity:0;stroke:#840000;stroke-width:100;stroke-linecap:round;stroke-linejoin:round;stroke-opacity:1">
      <polyline
         id="polyline2012"
         points="62000,13250 61700,12710 59580,12710 59580,13250 59580,13790 61700,13790 62000,13250 "
         fill="none;" />
    </g>
    <g
       transform="translate(-56060.02,-8339.5727)"
       id="g2014"
       style="fill:#840000;fill-opacity:0;stroke:#840000;stroke-width:60;stroke-linecap:round;stroke-linejoin:round;stroke-opacity:1">
      <path
         inkscape:connector-curvature="0"
         id="path2016"
         d="m 73600,14460 -30,30 -90,30 -60,0 -80,-30 -60,-50 -30,-60 -30,-120 0,-80 30,-120 30,-50 60,-60 80,-30 60,0 90,30 30,30" />
      <path
         inkscape:connector-curvature="0"
         id="path2018"
         d="m 73850,14520 0,-600" />
      <path
         inkscape:connector-curvature="0"
         id="path2020"
         d="m 73850,14210 350,0" />
      <path
         inkscape:connector-curvature="0"
         id="path2022"
         d="m 74200,14520 0,-600" />
      <path
         inkscape:connector-curvature="0"
         id="path2024"
         d="m 74450,13980 30,-30 60,-30 140,0 60,30 30,30 30,60 0,50 -30,90 -340,340 370,0" />
    </g>
    <g
       transform="translate(-56060.02,-8339.5727)"
       id="g2026"
       style="fill:#840000;fill-opacity:0;stroke:#840000;stroke-width:100;stroke-linecap:round;stroke-linejoin:round;stroke-opacity:1">
      <polyline
         id="polyline2028"
         points="72750,14250 73050,14790 75140,14790 75140,14250 75140,13710 73050,13710 72750,14250 "
         fill="none;" />
    </g>
    <g
       transform="translate(-56060.02,-8339.5727)"
       id="g2030"
       style="fill:#840000;fill-opacity:0;stroke:#840000;stroke-width:60;stroke-linecap:round;stroke-linejoin:round;stroke-opacity:1">
      <path
         inkscape:connector-curvature="0"
         id="path2032"
         d="m 56830,17460 -30,30 -90,30 -60,0 -80,-30 -60,-50 -30,-60 -30,-120 0,-80 30,-120 30,-50 60,-60 80,-30 60,0 90,30 30,30" />
      <path
         inkscape:connector-curvature="0"
         id="path2034"
         d="m 57080,17520 0,-600" />
      <path
         inkscape:connector-curvature="0"
         id="path2036"
         d="m 57080,17210 350,0" />
      <path
         inkscape:connector-curvature="0"
         id="path2038"
         d="m 57430,17520 0,-600" />
      <path
         inkscape:connector-curvature="0"
         id="path2040"
         d="m 58030,17520 -350,0" />
      <path
         inkscape:connector-curvature="0"
         id="path2042"
         d="m 57860,17520 0,-600 -60,90 -60,50 -60,30" />
    </g>
    <g
       transform="translate(-56060.02,-8339.5727)"
       id="g2044"
       style="fill:#840000;fill-opacity:0;stroke:#840000;stroke-width:100;stroke-linecap:round;stroke-linejoin:round;stroke-opacity:1">
      <polyline
         id="polyline2046"
         points="58500,17250 58200,16710 56110,16710 56110,17250 56110,17790 58200,17790 58500,17250 "
         fill="none;" />
    </g>
    <g
       transform="translate(-56060.02,-8339.5727)"
       id="g2108"
       style="fill:#840000;fill-opacity:0;stroke:#840000;stroke-width:60;stroke-linecap:round;stroke-linejoin:round;stroke-opacity:1">
      <path
         inkscape:connector-curvature="0"
         id="path2110"
         d="m 63370,12730 240,0 -130,150 60,0 40,20 20,20 10,40 0,90 -10,40 -20,20 -40,20 -120,0 -30,-20 -20,-20" />
      <path
         inkscape:connector-curvature="0"
         id="path2112"
         d="m 68250,14250 1500,0" />
      <path
         inkscape:connector-curvature="0"
         id="path2114"
         d="m 69080,13730 -80,0 -40,20 -20,20 -30,60 -20,70 0,150 20,40 10,20 40,20 80,0 40,-20 20,-20 10,-40 0,-90 -10,-40 -20,-20 -40,-20 -80,0 -40,20 -10,20 -20,40" />
    </g>
    <g
       transform="translate(-56060.02,-8339.5727)"
       id="g2118"
       style="fill:#840000;fill-opacity:0;stroke:#840000;stroke-width:60;stroke-linecap:round;stroke-linejoin:round;stroke-opacity:1">
      <polyline
         id="polyline2120"
         points="67750,19000 67750,18000 "
         fill="none;" />
    </g>
    <g
       transform="translate(-56060.02,-8339.5727)"
       id="g2122"
       style="fill:#840000;fill-opacity:1;stroke:#840000;stroke-width:60;stroke-linecap:round;stroke-linejoin:round;stroke-opacity:1">
      <polyline
         id="polyline2124"
         points="66750,19000 67750,18500 66750,18000 "
         style="fill-rule:evenodd" />
    </g>
    <g
       transform="translate(-56060.02,-8339.5727)"
       id="g2126"
       style="fill:#840000;fill-opacity:0;stroke:#840000;stroke-width:60;stroke-linecap:round;stroke-linejoin:round;stroke-opacity:1">
      <path
         inkscape:connector-curvature="0"
         id="path2128"
         d="m 67750,18500 1000,0" />
      <path
         inkscape:connector-curvature="0"
         id="path2130"
         d="m 66750,18500 -1000,0" />
    </g>
    <g
       transform="translate(-56060.02,-8339.5727)"
       id="g2134"
       style="fill:#840000;fill-opacity:0;stroke:#840000;stroke-width:60;stroke-linecap:round;stroke-linejoin:round;stroke-opacity:1">
      <polyline
         id="polyline2136"
         points="71750,14750 71750,13750 "
         fill="none;" />
    </g>
    <g
       transform="translate(-56060.02,-8339.5727)"
       id="g2138"
       style="fill:#840000;fill-opacity:1;stroke:#840000;stroke-width:60;stroke-linecap:round;stroke-linejoin:round;stroke-opacity:1">
      <polyline
         id="polyline2140"
         points="70750,14750 71750,14250 70750,13750 "
         style="fill-rule:evenodd" />
    </g>
    <g
       transform="translate(-56060.02,-8339.5727)"
       id="g2142"
       style="fill:#840000;fill-opacity:0;stroke:#840000;stroke-width:60;stroke-linecap:round;stroke-linejoin:round;stroke-opacity:1">
      <path
         inkscape:connector-curvature="0"
         id="path2144"
         d="m 71750,14250 1000,0" />
      <path
         inkscape:connector-curvature="0"
         id="path2146"
         d="m 70750,14250 -1000,0" />
    </g>
    <path
       d="m 5939.98,6910.4273 h 750"
       id="path2364"
       inkscape:connector-curvature="0"
       style="fill:#008400;fill-opacity:0;stroke:#008400;stroke-width:60;stroke-linecap:round;stroke-linejoin:round;stroke-opacity:1" />
    <path
       d="m 5939.98,4910.4273 h 750"
       id="path2366"
       inkscape:connector-curvature="0"
       style="fill:#008400;fill-opacity:0;stroke:#008400;stroke-width:60;stroke-linecap:round;stroke-linejoin:round;stroke-opacity:1" />
    <path
       d="m 2939.98,6910.4273 v 2000"
       id="path2368"
       inkscape:connector-curvature="0"
       style="fill:#008400;fill-opacity:0;stroke:#008400;stroke-width:60;stroke-linecap:round;stroke-linejoin:round;stroke-opacity:1" />
    <path
       d="m 2939.98,8910.4273 h -500"
       id="path2370"
       inkscape:connector-curvature="0"
       style="fill:#008400;fill-opacity:0;stroke:#008400;stroke-width:60;stroke-linecap:round;stroke-linejoin:round;stroke-opacity:1" />
    <path
       d="m 1939.98,6910.4273 h 1000"
       id="path2372"
       inkscape:connector-curvature="0"
       style="fill:#008400;fill-opacity:0;stroke:#008400;stroke-width:60;stroke-linecap:round;stroke-linejoin:round;stroke-opacity:1" />
    <g
       id="g12283">
      <g
         style="fill:#840000;fill-opacity:0;stroke:#840000;stroke-width:60;stroke-linecap:round;stroke-linejoin:round;stroke-opacity:1"
         id="g1936"
         transform="translate(-55994.772,-7393.4797)">
        <path
           d="m 66670,15670 200,600 200,-600"
           id="path1938"
           inkscape:connector-curvature="0" />
        <path
           d="m 67260,16040 h 460"
           id="path1940"
           inkscape:connector-curvature="0" />
      </g>
      <g
         style="fill:#840000;fill-opacity:0;stroke:#840000;stroke-width:100;stroke-linecap:round;stroke-linejoin:round;stroke-opacity:1"
         id="g1942"
         transform="translate(-55994.772,-7393.4797)">
        <polyline
           fill="none;"
           points="66250,16000 66550,16540 68090,16540 68090,16000 68090,15460 66550,15460 66250,16000 "
           id="polyline1944" />
      </g>
      <g
         style="fill:#840000;fill-opacity:0;stroke:#840000;stroke-width:60;stroke-linecap:round;stroke-linejoin:round;stroke-opacity:1"
         id="g1946"
         transform="translate(-56060.02,-8339.5727)">
        <path
           d="m 66670,10920 200,600 200,-600"
           id="path1948"
           inkscape:connector-curvature="0" />
        <path
           d="m 67260,11290 460,0"
           id="path1950"
           inkscape:connector-curvature="0" />
        <path
           d="m 67490,11520 0,-460"
           id="path1952"
           inkscape:connector-curvature="0" />
      </g>
      <g
         style="fill:#840000;fill-opacity:0;stroke:#840000;stroke-width:100;stroke-linecap:round;stroke-linejoin:round;stroke-opacity:1"
         id="g1954"
         transform="translate(-56060.02,-8339.5727)">
        <polyline
           fill="none;"
           points="66250,11250 66550,11790 68090,11790 68090,11250 68090,10710 66550,10710 66250,11250 "
           id="polyline1956" />
      </g>
      <g
         style="fill:#ffffc2;fill-opacity:0.6;stroke:#ffffc2;stroke-width:0;stroke-linecap:round;stroke-linejoin:round;stroke-opacity:1"
         id="g2052"
         transform="translate(-56060.02,-8339.5727)">
        <polyline
           style="fill-rule:evenodd"
           points="64250,12250 68250,14250 64250,16250 64250,12250 "
           id="polyline2054" />
      </g>
      <polyline
         style="fill:#840000;fill-opacity:0;stroke:#840000;stroke-width:60;stroke-linecap:round;stroke-linejoin:round;stroke-opacity:1"
         id="polyline2060"
         points="64250,12250 68250,14250 64250,16250 64250,12250 "
         transform="translate(-56060.02,-8339.5727)" />
      <path
         style="fill:#840000;fill-opacity:0;stroke:#840000;stroke-width:55.43723679;stroke-linecap:round;stroke-linejoin:round;stroke-opacity:1"
         inkscape:connector-curvature="0"
         id="path2062"
         d="M 9189.98,7405.9755 V 8686.5118" />
      <g
         style="fill:#008484;fill-opacity:0;stroke:#008484;stroke-width:60;stroke-linecap:round;stroke-linejoin:round;stroke-opacity:1"
         id="g2064"
         transform="translate(-56060.02,-8339.5727)">
        <path
           d="m 65030,15610 400,-130 -400,-130"
           id="path2066"
           inkscape:connector-curvature="0" />
        <path
           d="m 65280,15210 0,-300"
           id="path2068"
           inkscape:connector-curvature="0" />
      </g>
      <g
         style="fill:#840000;fill-opacity:0;stroke:#840000;stroke-width:60;stroke-linecap:round;stroke-linejoin:round;stroke-opacity:1"
         id="g2070"
         transform="translate(-56060.02,-8339.5727)">
        <path
           d="m 64860,16420 270,0"
           id="path2072"
           inkscape:connector-curvature="0" />
        <path
           d="m 64710,16520 290,90 0,-240"
           id="path2074"
           inkscape:connector-curvature="0" />
        <path
           d="m 65250,12750 0,-1500"
           id="path2076"
           inkscape:connector-curvature="0" />
      </g>
      <g
         style="fill:#008484;fill-opacity:0;stroke:#008484;stroke-width:60;stroke-linecap:round;stroke-linejoin:round;stroke-opacity:1"
         id="g2078"
         transform="translate(-56060.02,-8339.5727)">
        <path
           d="m 65030,13650 400,-130 -400,-130"
           id="path2080"
           inkscape:connector-curvature="0" />
        <path
           d="m 65280,13250 0,-300"
           id="path2082"
           inkscape:connector-curvature="0" />
        <path
           d="m 65430,13100 -300,0"
           id="path2084"
           inkscape:connector-curvature="0" />
      </g>
      <g
         style="fill:#840000;fill-opacity:0;stroke:#840000;stroke-width:60;stroke-linecap:round;stroke-linejoin:round;stroke-opacity:1"
         id="g2086"
         transform="translate(-56060.02,-8339.5727)">
        <path
           d="m 64730,12130 0,-260 400,170"
           id="path2088"
           inkscape:connector-curvature="0" />
        <path
           d="m 64250,15250 -1500,0"
           id="path2090"
           inkscape:connector-curvature="0" />
      </g>
      <g
         style="fill:#008484;fill-opacity:0;stroke:#008484;stroke-width:60;stroke-linecap:round;stroke-linejoin:round;stroke-opacity:1"
         id="g2092"
         transform="translate(-56060.02,-8339.5727)">
        <path
           d="m 64450,15280 300,0"
           id="path2094"
           inkscape:connector-curvature="0" />
      </g>
      <g
         style="fill:#840000;fill-opacity:0;stroke:#840000;stroke-width:60;stroke-linecap:round;stroke-linejoin:round;stroke-opacity:1"
         id="g2096"
         transform="translate(-56060.02,-8339.5727)">
        <path
           d="m 63390,14770 20,-20 30,-20 100,0 40,20 20,20 10,40 0,40 -10,50 -230,230 240,0"
           id="path2098"
           inkscape:connector-curvature="0" />
        <path
           d="m 64250,13250 -1500,0"
           id="path2100"
           inkscape:connector-curvature="0" />
      </g>
      <g
         style="fill:#008484;fill-opacity:0;stroke:#008484;stroke-width:60;stroke-linecap:round;stroke-linejoin:round;stroke-opacity:1"
         id="g2102"
         transform="translate(-56060.02,-8339.5727)">
        <path
           d="m 64450,13280 300,0"
           id="path2104"
           inkscape:connector-curvature="0" />
        <path
           d="m 64600,13430 0,-300"
           id="path2106"
           inkscape:connector-curvature="0" />
      </g>
      <path
         style="fill:#008400;fill-opacity:0;stroke:#008400;stroke-width:60;stroke-linecap:round;stroke-linejoin:round;stroke-opacity:1"
         inkscape:connector-curvature="0"
         id="path2362"
         d="m 10189.98,2910.4273 h -1000" />
      <path
         style="fill:#008400;fill-opacity:0;stroke:#008400;stroke-width:71.05225372;stroke-linecap:round;stroke-linejoin:round;stroke-opacity:1"
         inkscape:connector-curvature="0"
         id="path2374"
         d="M 10242.986,8671.7681 H 9191.2309" />
    </g>
    <path
       d="m 8189.98,11910.427 h -1500"
       id="path2380"
       inkscape:connector-curvature="0"
       style="fill:#008400;fill-opacity:0;stroke:#008400;stroke-width:60;stroke-linecap:round;stroke-linejoin:round;stroke-opacity:1" />
    <path
       d="M 6689.98,11910.427 V 6910.4273"
       id="path2382"
       inkscape:connector-curvature="0"
       style="fill:#008400;fill-opacity:0;stroke:#008400;stroke-width:60;stroke-linecap:round;stroke-linejoin:round;stroke-opacity:1" />
    <path
       d="m 9689.98,10160.427 h -3000"
       id="path2384"
       inkscape:connector-curvature="0"
       style="fill:#008400;fill-opacity:0;stroke:#008400;stroke-width:60;stroke-linecap:round;stroke-linejoin:round;stroke-opacity:1" />
    <g
       transform="translate(-56060.02,-8339.5727)"
       id="g2388"
       style="fill:#008400;fill-opacity:1;stroke:#008400;stroke-width:100;stroke-linecap:round;stroke-linejoin:round;stroke-opacity:1">
      <circle
         id="circle2390"
         r="200"
         cy="18500"
         cx="62750" />
    </g>
    <g
       transform="translate(-56060.02,-8339.5727)"
       id="g2394"
       style="fill:#008400;fill-opacity:0;stroke:#008400;stroke-width:60;stroke-linecap:round;stroke-linejoin:round;stroke-opacity:1">
      <path
         inkscape:connector-curvature="0"
         id="path2396"
         d="m 69750,14250 0,4250" />
      <path
         inkscape:connector-curvature="0"
         id="path2398"
         d="m 69750,18500 -1000,0" />
      <path
         inkscape:connector-curvature="0"
         id="path2400"
         d="m 67250,20250 5500,0" />
      <path
         inkscape:connector-curvature="0"
         id="path2402"
         d="m 72750,20250 0,-6000" />
    </g>
    <g
       transform="translate(-56060.02,-8339.5727)"
       id="g2408"
       style="fill:#840000;fill-opacity:0;stroke:#840000;stroke-width:100;stroke-linecap:round;stroke-linejoin:round;stroke-opacity:1">
      <rect
         id="rect2410"
         rx="0"
         height="800"
         width="2000"
         y="14850"
         x="59500" />
    </g>
    <g
       transform="translate(-56060.02,-8339.5727)"
       id="g2412"
       style="fill:#840000;fill-opacity:0;stroke:#840000;stroke-width:60;stroke-linecap:round;stroke-linejoin:round;stroke-opacity:1">
      <path
         inkscape:connector-curvature="0"
         id="path2414"
         d="m 59500,15250 -500,0" />
      <path
         inkscape:connector-curvature="0"
         id="path2416"
         d="m 61500,15250 500,0" />
    </g>
    <g
       transform="translate(-56060.02,-8339.5727)"
       id="g2418"
       style="fill:#008484;fill-opacity:0;stroke:#008484;stroke-width:60;stroke-linecap:round;stroke-linejoin:round;stroke-opacity:1">
      <path
         inkscape:connector-curvature="0"
         id="path2420"
         d="m 60410,16510 -160,-240" />
      <path
         inkscape:connector-curvature="0"
         id="path2422"
         d="m 60130,16510 0,-500 190,0 50,20 20,20 20,50 0,70 -20,50 -20,20 -50,30 -190,0" />
      <path
         inkscape:connector-curvature="0"
         id="path2424"
         d="m 60890,16510 -280,0" />
      <path
         inkscape:connector-curvature="0"
         id="path2426"
         d="m 60750,16510 0,-500 -50,70 -50,50 -40,20" />
      <path
         inkscape:connector-curvature="0"
         id="path2428"
         d="m 60150,15510 -280,0" />
      <path
         inkscape:connector-curvature="0"
         id="path2430"
         d="m 60010,15510 0,-500 -50,70 -50,50 -40,20" />
      <path
         inkscape:connector-curvature="0"
         id="path2432"
         d="m 60460,15010 50,0 50,20 20,20 30,50 20,100 0,120 -20,90 -30,50 -20,20 -50,30 -50,0 -40,-30 -30,-20 -20,-50 -20,-90 0,-120 20,-100 20,-50 30,-20 40,-20" />
      <path
         inkscape:connector-curvature="0"
         id="path2434"
         d="m 60850,15510 0,-500" />
      <path
         inkscape:connector-curvature="0"
         id="path2436"
         d="m 61130,15510 -210,-290" />
      <path
         inkscape:connector-curvature="0"
         id="path2438"
         d="m 61130,15010 -280,280" />
    </g>
  </g>
</svg>
