<?xml version="1.0" encoding="UTF-8" standalone="no"?>
<svg
   xmlns:dc="http://purl.org/dc/elements/1.1/"
   xmlns:cc="http://creativecommons.org/ns#"
   xmlns:rdf="http://www.w3.org/1999/02/22-rdf-syntax-ns#"
   xmlns:svg="http://www.w3.org/2000/svg"
   xmlns="http://www.w3.org/2000/svg"
   xmlns:sodipodi="http://sodipodi.sourceforge.net/DTD/sodipodi-0.dtd"
   xmlns:inkscape="http://www.inkscape.org/namespaces/inkscape"
   version="1.1"
   width="5.1841345cm"
   height="3.2386053cm"
   viewBox="0 0 20409.993 12750.427"
   id="svg2"
   inkscape:version="0.91 r13725"
   sodipodi:docname="rampgen.svg">
  <metadata
     id="metadata2350">
    <rdf:RDF>
      <cc:Work
         rdf:about="">
        <dc:format>image/svg+xml</dc:format>
        <dc:type
           rdf:resource="http://purl.org/dc/dcmitype/StillImage" />
        <dc:title>SVG Picture created as filter.sch.svg date 2016/06/13 11:29:05 </dc:title>
      </cc:Work>
    </rdf:RDF>
  </metadata>
  <defs
     id="defs2348" />
  <sodipodi:namedview
     pagecolor="#ffffff"
     bordercolor="#666666"
     borderopacity="1"
     objecttolerance="10"
     gridtolerance="10"
     guidetolerance="10"
     inkscape:pageopacity="0"
     inkscape:pageshadow="2"
     inkscape:window-width="1855"
     inkscape:window-height="1056"
     id="namedview2346"
     showgrid="false"
     inkscape:zoom="6.3859172"
     inkscape:cx="102.79547"
     inkscape:cy="63.009079"
     inkscape:window-x="65"
     inkscape:window-y="24"
     inkscape:window-maximized="1"
     inkscape:current-layer="svg2"
     fit-margin-top="0"
     fit-margin-left="0"
     fit-margin-right="0"
     fit-margin-bottom="0" />
  <title
     id="title4">SVG Picture created as filter.sch.svg date 2016/06/13 11:29:05 </title>
  <desc
     id="desc6">Picture generated by Eeschema-SVG </desc>
  <g
     style="fill:#000000;fill-opacity:1;stroke:#000000;stroke-linecap:round;stroke-linejoin:round;stroke-opacity:1"
     id="g8"
     transform="translate(-33530.02,-24839.573)" />
  <g
     style="fill:#000000;fill-opacity:0;stroke:#000000;stroke-width:60;stroke-linecap:round;stroke-linejoin:round;stroke-opacity:1"
     id="g10"
     transform="translate(-33530.02,-24839.573)" />
  <g
     style="fill:#840000;fill-opacity:0;stroke:#840000;stroke-width:0;stroke-linecap:round;stroke-linejoin:round;stroke-opacity:1"
     id="g34"
     transform="translate(-33530.02,-24839.573)" />
  <g
     style="fill:#840000;fill-opacity:0;stroke:#840000;stroke-width:0;stroke-linecap:round;stroke-linejoin:round;stroke-opacity:1"
     id="g98"
     transform="translate(-33530.02,-24839.573)" />
  <g
     style="fill:#008484;fill-opacity:0;stroke:#008484;stroke-width:0;stroke-linecap:round;stroke-linejoin:round;stroke-opacity:1"
     id="g120"
     transform="translate(-33530.02,-24839.573)" />
  <g
     style="fill:#840000;fill-opacity:0;stroke:#840000;stroke-width:0;stroke-linecap:round;stroke-linejoin:round;stroke-opacity:1"
     id="g122"
     transform="translate(-33530.02,-24839.573)" />
  <g
     style="fill:#008484;fill-opacity:0;stroke:#008484;stroke-width:0;stroke-linecap:round;stroke-linejoin:round;stroke-opacity:1"
     id="g142"
     transform="translate(-33530.02,-24839.573)" />
  <g
     style="fill:#840000;fill-opacity:0;stroke:#840000;stroke-width:0;stroke-linecap:round;stroke-linejoin:round;stroke-opacity:1"
     id="g144"
     transform="translate(-33530.02,-24839.573)" />
  <g
     style="fill:#ffffc2;fill-opacity:0;stroke:#ffffc2;stroke-width:0;stroke-linecap:round;stroke-linejoin:round;stroke-opacity:1"
     id="g146"
     transform="translate(-33530.02,-24839.573)" />
  <g
     style="fill:#840000;fill-opacity:0.6;stroke:#840000;stroke-width:0;stroke-linecap:round;stroke-linejoin:round;stroke-opacity:1"
     id="g152"
     transform="translate(-33530.02,-24839.573)" />
  <g
     style="fill:#0000c2;fill-opacity:0;stroke:#0000c2;stroke-width:0;stroke-linecap:round;stroke-linejoin:round;stroke-opacity:1"
     id="g266"
     transform="translate(-33530.02,-24839.573)" />
  <g
     style="fill:#840000;fill-opacity:0;stroke:#840000;stroke-width:0;stroke-linecap:round;stroke-linejoin:round;stroke-opacity:1"
     id="g268"
     transform="translate(-33530.02,-24839.573)" />
  <g
     style="fill:#008484;fill-opacity:0;stroke:#008484;stroke-width:0;stroke-linecap:round;stroke-linejoin:round;stroke-opacity:1"
     id="g298"
     transform="translate(-33530.02,-24839.573)" />
  <g
     style="fill:#840000;fill-opacity:0;stroke:#840000;stroke-width:0;stroke-linecap:round;stroke-linejoin:round;stroke-opacity:1"
     id="g300"
     transform="translate(-33530.02,-24839.573)" />
  <g
     style="fill:#840000;fill-opacity:0;stroke:#840000;stroke-width:0;stroke-linecap:round;stroke-linejoin:round;stroke-opacity:1"
     id="g370"
     transform="translate(-33530.02,-24839.573)" />
  <g
     style="fill:#840000;fill-opacity:0;stroke:#840000;stroke-width:0;stroke-linecap:round;stroke-linejoin:round;stroke-opacity:1"
     id="g434"
     transform="translate(-33530.02,-24839.573)" />
  <g
     style="fill:#008484;fill-opacity:0;stroke:#008484;stroke-width:0;stroke-linecap:round;stroke-linejoin:round;stroke-opacity:1"
     id="g456"
     transform="translate(-33530.02,-24839.573)" />
  <g
     style="fill:#840000;fill-opacity:0;stroke:#840000;stroke-width:0;stroke-linecap:round;stroke-linejoin:round;stroke-opacity:1"
     id="g458"
     transform="translate(-33530.02,-24839.573)" />
  <g
     style="fill:#008484;fill-opacity:0;stroke:#008484;stroke-width:0;stroke-linecap:round;stroke-linejoin:round;stroke-opacity:1"
     id="g478"
     transform="translate(-33530.02,-24839.573)" />
  <g
     style="fill:#840000;fill-opacity:0;stroke:#840000;stroke-width:0;stroke-linecap:round;stroke-linejoin:round;stroke-opacity:1"
     id="g480"
     transform="translate(-33530.02,-24839.573)" />
  <g
     style="fill:#ffffc2;fill-opacity:0;stroke:#ffffc2;stroke-width:0;stroke-linecap:round;stroke-linejoin:round;stroke-opacity:1"
     id="g482"
     transform="translate(-33530.02,-24839.573)" />
  <g
     style="fill:#840000;fill-opacity:0.6;stroke:#840000;stroke-width:0;stroke-linecap:round;stroke-linejoin:round;stroke-opacity:1"
     id="g488"
     transform="translate(-33530.02,-24839.573)" />
  <g
     style="fill:#840000;fill-opacity:0;stroke:#840000;stroke-width:0;stroke-linecap:round;stroke-linejoin:round;stroke-opacity:1"
     id="g548"
     transform="translate(-33530.02,-24839.573)" />
  <g
     style="fill:#008484;fill-opacity:0;stroke:#008484;stroke-width:0;stroke-linecap:round;stroke-linejoin:round;stroke-opacity:1"
     id="g578"
     transform="translate(-33530.02,-24839.573)" />
  <g
     style="fill:#840000;fill-opacity:0;stroke:#840000;stroke-width:0;stroke-linecap:round;stroke-linejoin:round;stroke-opacity:1"
     id="g580"
     transform="translate(-33530.02,-24839.573)" />
  <g
     style="fill:#840000;fill-opacity:0;stroke:#840000;stroke-width:60;stroke-linecap:round;stroke-linejoin:round;stroke-opacity:1"
     id="g626"
     transform="translate(-33530.02,-24839.573)" />
  <g
     style="fill:#840000;fill-opacity:0;stroke:#840000;stroke-width:0;stroke-linecap:round;stroke-linejoin:round;stroke-opacity:1"
     id="g730"
     transform="translate(-33530.02,-24839.573)" />
  <g
     style="fill:#008484;fill-opacity:0;stroke:#008484;stroke-width:0;stroke-linecap:round;stroke-linejoin:round;stroke-opacity:1"
     id="g754"
     transform="translate(-33530.02,-24839.573)" />
  <g
     style="fill:#840000;fill-opacity:0;stroke:#840000;stroke-width:0;stroke-linecap:round;stroke-linejoin:round;stroke-opacity:1"
     id="g756"
     transform="translate(-33530.02,-24839.573)" />
  <g
     style="fill:#008484;fill-opacity:0;stroke:#008484;stroke-width:0;stroke-linecap:round;stroke-linejoin:round;stroke-opacity:1"
     id="g780"
     transform="translate(-33530.02,-24839.573)" />
  <g
     style="fill:#840000;fill-opacity:0;stroke:#840000;stroke-width:0;stroke-linecap:round;stroke-linejoin:round;stroke-opacity:1"
     id="g782"
     transform="translate(-33530.02,-24839.573)" />
  <g
     style="fill:#ffffc2;fill-opacity:0;stroke:#ffffc2;stroke-width:0;stroke-linecap:round;stroke-linejoin:round;stroke-opacity:1"
     id="g784"
     transform="translate(-33530.02,-24839.573)" />
  <g
     style="fill:#840000;fill-opacity:0.6;stroke:#840000;stroke-width:0;stroke-linecap:round;stroke-linejoin:round;stroke-opacity:1"
     id="g790"
     transform="translate(-33530.02,-24839.573)" />
  <g
     style="fill:#840000;fill-opacity:0;stroke:#840000;stroke-width:0;stroke-linecap:round;stroke-linejoin:round;stroke-opacity:1"
     id="g850"
     transform="translate(-33530.02,-24839.573)" />
  <g
     style="fill:#008484;fill-opacity:0;stroke:#008484;stroke-width:0;stroke-linecap:round;stroke-linejoin:round;stroke-opacity:1"
     id="g886"
     transform="translate(-33530.02,-24839.573)" />
  <g
     style="fill:#840000;fill-opacity:0;stroke:#840000;stroke-width:0;stroke-linecap:round;stroke-linejoin:round;stroke-opacity:1"
     id="g888"
     transform="translate(-33530.02,-24839.573)" />
  <g
     style="fill:#008484;fill-opacity:0;stroke:#008484;stroke-width:0;stroke-linecap:round;stroke-linejoin:round;stroke-opacity:1"
     id="g922"
     transform="translate(-33530.02,-24839.573)" />
  <g
     style="fill:#840000;fill-opacity:0;stroke:#840000;stroke-width:0;stroke-linecap:round;stroke-linejoin:round;stroke-opacity:1"
     id="g924"
     transform="translate(-33530.02,-24839.573)" />
  <g
     style="fill:#008484;fill-opacity:0;stroke:#008484;stroke-width:0;stroke-linecap:round;stroke-linejoin:round;stroke-opacity:1"
     id="g952"
     transform="translate(-33530.02,-24839.573)" />
  <g
     style="fill:#840000;fill-opacity:0;stroke:#840000;stroke-width:0;stroke-linecap:round;stroke-linejoin:round;stroke-opacity:1"
     id="g954"
     transform="translate(-33530.02,-24839.573)" />
  <g
     style="fill:#008484;fill-opacity:0;stroke:#008484;stroke-width:0;stroke-linecap:round;stroke-linejoin:round;stroke-opacity:1"
     id="g990"
     transform="translate(-33530.02,-24839.573)" />
  <g
     style="fill:#840000;fill-opacity:0;stroke:#840000;stroke-width:0;stroke-linecap:round;stroke-linejoin:round;stroke-opacity:1"
     id="g992"
     transform="translate(-33530.02,-24839.573)" />
  <g
     style="fill:#008484;fill-opacity:0;stroke:#008484;stroke-width:0;stroke-linecap:round;stroke-linejoin:round;stroke-opacity:1"
     id="g1072"
     transform="translate(-33530.02,-24839.573)" />
  <g
     style="fill:#840000;fill-opacity:0;stroke:#840000;stroke-width:0;stroke-linecap:round;stroke-linejoin:round;stroke-opacity:1"
     id="g1074"
     transform="translate(-33530.02,-24839.573)" />
  <g
     style="fill:#008484;fill-opacity:0;stroke:#008484;stroke-width:0;stroke-linecap:round;stroke-linejoin:round;stroke-opacity:1"
     id="g1098"
     transform="translate(-33530.02,-24839.573)" />
  <g
     style="fill:#840000;fill-opacity:0;stroke:#840000;stroke-width:0;stroke-linecap:round;stroke-linejoin:round;stroke-opacity:1"
     id="g1100"
     transform="translate(-33530.02,-24839.573)" />
  <g
     style="fill:#008484;fill-opacity:0;stroke:#008484;stroke-width:0;stroke-linecap:round;stroke-linejoin:round;stroke-opacity:1"
     id="g1126"
     transform="translate(-33530.02,-24839.573)" />
  <g
     style="fill:#840000;fill-opacity:0;stroke:#840000;stroke-width:0;stroke-linecap:round;stroke-linejoin:round;stroke-opacity:1"
     id="g1128"
     transform="translate(-33530.02,-24839.573)" />
  <g
     style="fill:#840000;fill-opacity:0;stroke:#840000;stroke-width:60;stroke-linecap:round;stroke-linejoin:round;stroke-opacity:1"
     id="g1202"
     transform="translate(-33530.02,-24839.573)" />
  <g
     style="fill:#840000;fill-opacity:0;stroke:#840000;stroke-width:0;stroke-linecap:round;stroke-linejoin:round;stroke-opacity:1"
     id="g1320"
     transform="translate(-33530.02,-24839.573)" />
  <g
     style="fill:#008484;fill-opacity:0;stroke:#008484;stroke-width:0;stroke-linecap:round;stroke-linejoin:round;stroke-opacity:1"
     id="g1400"
     transform="translate(-33530.02,-24839.573)" />
  <g
     style="fill:#840000;fill-opacity:0;stroke:#840000;stroke-width:0;stroke-linecap:round;stroke-linejoin:round;stroke-opacity:1"
     id="g1402"
     transform="translate(-33530.02,-24839.573)" />
  <g
     style="fill:#008484;fill-opacity:0;stroke:#008484;stroke-width:0;stroke-linecap:round;stroke-linejoin:round;stroke-opacity:1"
     id="g1426"
     transform="translate(-33530.02,-24839.573)" />
  <g
     style="fill:#840000;fill-opacity:0;stroke:#840000;stroke-width:0;stroke-linecap:round;stroke-linejoin:round;stroke-opacity:1"
     id="g1428"
     transform="translate(-33530.02,-24839.573)" />
  <g
     style="fill:#008484;fill-opacity:0;stroke:#008484;stroke-width:0;stroke-linecap:round;stroke-linejoin:round;stroke-opacity:1"
     id="g1454"
     transform="translate(-33530.02,-24839.573)" />
  <g
     style="fill:#840000;fill-opacity:0;stroke:#840000;stroke-width:0;stroke-linecap:round;stroke-linejoin:round;stroke-opacity:1"
     id="g1456"
     transform="translate(-33530.02,-24839.573)" />
  <g
     style="fill:#840000;fill-opacity:0;stroke:#840000;stroke-width:0;stroke-linecap:round;stroke-linejoin:round;stroke-opacity:1"
     id="g1560"
     transform="translate(-33530.02,-24839.573)" />
  <g
     style="fill:#840000;fill-opacity:0;stroke:#840000;stroke-width:0;stroke-linecap:round;stroke-linejoin:round;stroke-opacity:1"
     id="g1632"
     transform="translate(-33530.02,-24839.573)" />
  <g
     style="fill:#840000;fill-opacity:0;stroke:#840000;stroke-width:60;stroke-linecap:round;stroke-linejoin:round;stroke-opacity:1"
     id="g1698"
     transform="translate(-33460.422,-30824.972)">
    <path
       d="m 46920,35670 200,600 200,-600"
       id="path1700"
       inkscape:connector-curvature="0" />
    <path
       d="m 47510,36040 460,0"
       id="path1702"
       inkscape:connector-curvature="0" />
  </g>
  <g
     style="fill:#840000;fill-opacity:0;stroke:#840000;stroke-width:100;stroke-linecap:round;stroke-linejoin:round;stroke-opacity:1"
     id="g1704"
     transform="translate(-33530.02,-24839.573)">
    <polyline
       fill="none;"
       points="46500,36000 46800,36540 48340,36540 48340,36000 48340,35460 46800,35460 46500,36000 "
       id="polyline1706" />
  </g>
  <g
     style="fill:#840000;fill-opacity:0;stroke:#840000;stroke-width:60;stroke-linecap:round;stroke-linejoin:round;stroke-opacity:1"
     id="g1708"
     transform="translate(-33443.023,-18801.976)">
    <path
       d="m 46920,29670 200,600 200,-600"
       id="path1710"
       inkscape:connector-curvature="0" />
    <path
       d="m 47510,30040 460,0"
       id="path1712"
       inkscape:connector-curvature="0" />
    <path
       d="m 47740,30270 0,-460"
       id="path1714"
       inkscape:connector-curvature="0" />
  </g>
  <g
     style="fill:#840000;fill-opacity:0;stroke:#840000;stroke-width:100;stroke-linecap:round;stroke-linejoin:round;stroke-opacity:1"
     id="g1716"
     transform="translate(-33530.02,-24839.573)">
    <polyline
       fill="none;"
       points="46500,30000 46800,30540 48340,30540 48340,30000 48340,29460 46800,29460 46500,30000 "
       id="polyline1718" />
  </g>
  <g
     style="fill:#840000;fill-opacity:0;stroke:#840000;stroke-width:0;stroke-linecap:round;stroke-linejoin:round;stroke-opacity:1"
     id="g1720"
     transform="translate(-33530.02,-24839.573)" />
  <g
     style="fill:#840000;fill-opacity:0;stroke:#840000;stroke-width:100;stroke-linecap:round;stroke-linejoin:round;stroke-opacity:1"
     id="g1722"
     transform="translate(-33530.02,-24839.573)">
    <rect
       x="37100"
       y="31500"
       width="800"
       height="2000"
       rx="0"
       id="rect1724" />
  </g>
  <g
     style="fill:#840000;fill-opacity:0;stroke:#840000;stroke-width:60;stroke-linecap:round;stroke-linejoin:round;stroke-opacity:1"
     id="g1726"
     transform="translate(-33530.02,-24839.573)">
    <path
       d="m 37500,31500 0,-500"
       id="path1728"
       inkscape:connector-curvature="0" />
    <path
       d="m 37500,33500 0,500"
       id="path1730"
       inkscape:connector-curvature="0" />
  </g>
  <g
     style="fill:#008484;fill-opacity:0;stroke:#008484;stroke-width:60;stroke-linecap:round;stroke-linejoin:round;stroke-opacity:1"
     id="g1732"
     transform="translate(-33530.02,-24839.573)">
    <path
       d="m 37700,32610 0,280"
       id="path1734"
       inkscape:connector-curvature="0" />
    <path
       d="m 37700,32750 -500,0 70,50 50,50 20,40"
       id="path1736"
       inkscape:connector-curvature="0" />
    <path
       d="m 37700,32390 -500,0"
       id="path1738"
       inkscape:connector-curvature="0" />
    <path
       d="m 37700,32110 -290,210"
       id="path1740"
       inkscape:connector-curvature="0" />
    <path
       d="m 37200,32110 280,280"
       id="path1742"
       inkscape:connector-curvature="0" />
  </g>
  <g
     style="fill:#840000;fill-opacity:0;stroke:#840000;stroke-width:60;stroke-linecap:round;stroke-linejoin:round;stroke-opacity:1"
     id="g1744"
     transform="translate(-33530.02,-24839.573)">
    <path
       d="m 39970,27490 90,30 140,0 60,-30 30,-30 30,-50 0,-60 -30,-60 -30,-30 -60,-20 -110,-30 -60,-30 -30,-30 -30,-60 0,-50 30,-60 30,-30 60,-30 140,0 90,30"
       id="path1746"
       inkscape:connector-curvature="0" />
    <path
       d="m 40970,27580 -50,-30 -60,-60 -90,-80 -50,-30 -60,0"
       id="path1748"
       inkscape:connector-curvature="0" />
    <path
       d="m 40690,27520 -60,-30 -60,-50 -30,-120 0,-200 30,-110 60,-60 60,-30 110,0 60,30 60,60 20,110 0,200 -20,120 -60,50 -60,30 -110,0"
       id="path1750"
       inkscape:connector-curvature="0" />
    <path
       d="m 41550,27520 -200,-280"
       id="path1752"
       inkscape:connector-curvature="0" />
    <path
       d="m 41200,27520 0,-600 230,0 60,30 30,30 30,60 0,80 -30,60 -30,30 -60,30 -230,0"
       id="path1754"
       inkscape:connector-curvature="0" />
    <path
       d="m 42120,27520 -350,0"
       id="path1756"
       inkscape:connector-curvature="0" />
    <path
       d="m 41950,27520 0,-600 -60,90 -60,50 -60,30"
       id="path1758"
       inkscape:connector-curvature="0" />
  </g>
  <g
     style="fill:#840000;fill-opacity:0;stroke:#840000;stroke-width:100;stroke-linecap:round;stroke-linejoin:round;stroke-opacity:1"
     id="g1760"
     transform="translate(-33530.02,-24839.573)">
    <polyline
       fill="none;"
       points="39500,27250 39800,27790 42460,27790 42460,27250 42460,26710 39800,26710 39500,27250 "
       id="polyline1762" />
  </g>
  <g
     style="fill:#840000;fill-opacity:0;stroke:#840000;stroke-width:60;stroke-linecap:round;stroke-linejoin:round;stroke-opacity:1"
     id="g1764"
     transform="translate(-33530.02,-24839.573)">
    <path
       d="m 34270,36700 -60,-30 -90,0 -80,30 -60,60 -30,50 -30,120 0,80 30,120 30,60 60,50 80,30 60,0 90,-30 30,-30 0,-200 -120,0"
       id="path1766"
       inkscape:connector-curvature="0" />
    <path
       d="m 34550,37270 0,-600 350,600 0,-600"
       id="path1768"
       inkscape:connector-curvature="0" />
    <path
       d="m 35180,37270 0,-600 150,0 80,30 60,60 30,50 30,120 0,80 -30,120 -30,60 -60,50 -80,30 -150,0"
       id="path1770"
       inkscape:connector-curvature="0" />
  </g>
  <g
     style="fill:#840000;fill-opacity:0;stroke:#840000;stroke-width:100;stroke-linecap:round;stroke-linejoin:round;stroke-opacity:1"
     id="g1772"
     transform="translate(-33530.02,-24839.573)">
    <polyline
       fill="none;"
       points="36000,37000 35700,36460 33580,36460 33580,37000 33580,37540 35700,37540 36000,37000 "
       id="polyline1774" />
  </g>
  <g
     style="fill:#840000;fill-opacity:0;stroke:#840000;stroke-width:60;stroke-linecap:round;stroke-linejoin:round;stroke-opacity:1"
     id="g1776"
     transform="translate(-33530.02,-24839.573)">
    <path
       d="m 52350,33210 -30,30 -90,30 -60,0 -80,-30 -60,-50 -30,-60 -30,-120 0,-80 30,-120 30,-50 60,-60 80,-30 60,0 90,30 30,30"
       id="path1778"
       inkscape:connector-curvature="0" />
    <path
       d="m 52600,33270 0,-600"
       id="path1780"
       inkscape:connector-curvature="0" />
    <path
       d="m 52600,32960 350,0"
       id="path1782"
       inkscape:connector-curvature="0" />
    <path
       d="m 52950,33270 0,-600"
       id="path1784"
       inkscape:connector-curvature="0" />
    <path
       d="m 53550,33270 -350,0"
       id="path1786"
       inkscape:connector-curvature="0" />
    <path
       d="m 53380,33270 0,-600 -60,90 -60,50 -60,30"
       id="path1788"
       inkscape:connector-curvature="0" />
  </g>
  <g
     style="fill:#840000;fill-opacity:0;stroke:#840000;stroke-width:100;stroke-linecap:round;stroke-linejoin:round;stroke-opacity:1"
     id="g1790"
     transform="translate(-33530.02,-24839.573)">
    <polyline
       fill="none;"
       points="51500,33000 51800,33540 53890,33540 53890,33000 53890,32460 51800,32460 51500,33000 "
       id="polyline1792" />
  </g>
  <g
     style="fill:#840000;fill-opacity:0;stroke:#840000;stroke-width:0;stroke-linecap:round;stroke-linejoin:round;stroke-opacity:1"
     id="g1794"
     transform="translate(-33530.02,-24839.573)" />
  <g
     style="fill:#ffffc2;fill-opacity:0;stroke:#ffffc2;stroke-width:0;stroke-linecap:round;stroke-linejoin:round;stroke-opacity:1"
     id="g1796"
     transform="translate(-33530.02,-24839.573)" />
  <g
     style="fill:#ffffc2;fill-opacity:0.6;stroke:#ffffc2;stroke-width:0;stroke-linecap:round;stroke-linejoin:round;stroke-opacity:1"
     id="g1798"
     transform="translate(-33530.02,-24839.573)">
    <polyline
       style="fill-rule:evenodd"
       points="44500,35000 48500,33000 44500,31000 44500,35000 "
       id="polyline1800" />
  </g>
  <g
     style="fill:#840000;fill-opacity:0.6;stroke:#840000;stroke-width:0;stroke-linecap:round;stroke-linejoin:round;stroke-opacity:1"
     id="g1802"
     transform="translate(-33530.02,-24839.573)" />
  <g
     style="fill:#840000;fill-opacity:0;stroke:#840000;stroke-width:60;stroke-linecap:round;stroke-linejoin:round;stroke-opacity:1"
     id="g1804"
     transform="translate(-33530.02,-24839.573)">
    <polyline
       fill="none;"
       points="44500,35000 48500,33000 44500,31000 44500,35000 "
       id="polyline1806" />
    <path
       d="m 45500,31500 0,-1500"
       id="path1808"
       inkscape:connector-curvature="0" />
  </g>
  <g
     style="fill:#008484;fill-opacity:0;stroke:#008484;stroke-width:60;stroke-linecap:round;stroke-linejoin:round;stroke-opacity:1"
     id="g1810"
     transform="translate(-33530.02,-24839.573)">
    <path
       d="m 45280,32400 400,-130 -400,-130"
       id="path1812"
       inkscape:connector-curvature="0" />
    <path
       d="m 45530,32000 0,-300"
       id="path1814"
       inkscape:connector-curvature="0" />
  </g>
  <g
     style="fill:#840000;fill-opacity:0;stroke:#840000;stroke-width:60;stroke-linecap:round;stroke-linejoin:round;stroke-opacity:1"
     id="g1816"
     transform="translate(-33530.02,-24839.573)">
    <path
       d="m 45110,30670 270,0"
       id="path1818"
       inkscape:connector-curvature="0" />
    <path
       d="m 44960,30770 290,90 0,-240"
       id="path1820"
       inkscape:connector-curvature="0" />
    <path
       d="m 45500,34500 0,1500"
       id="path1822"
       inkscape:connector-curvature="0" />
  </g>
  <g
     style="fill:#008484;fill-opacity:0;stroke:#008484;stroke-width:60;stroke-linecap:round;stroke-linejoin:round;stroke-opacity:1"
     id="g1824"
     transform="translate(-33530.02,-24839.573)">
    <path
       d="m 45280,34360 400,-130 -400,-130"
       id="path1826"
       inkscape:connector-curvature="0" />
    <path
       d="m 45530,33960 0,-300"
       id="path1828"
       inkscape:connector-curvature="0" />
    <path
       d="m 45680,33810 -300,0"
       id="path1830"
       inkscape:connector-curvature="0" />
  </g>
  <g
     style="fill:#840000;fill-opacity:0;stroke:#840000;stroke-width:60;stroke-linecap:round;stroke-linejoin:round;stroke-opacity:1"
     id="g1832"
     transform="translate(-33530.02,-24839.573)">
    <path
       d="m 44980,35380 0,-260 400,170"
       id="path1834"
       inkscape:connector-curvature="0" />
    <path
       d="m 44500,32000 -1500,0"
       id="path1836"
       inkscape:connector-curvature="0" />
  </g>
  <g
     style="fill:#008484;fill-opacity:0;stroke:#008484;stroke-width:60;stroke-linecap:round;stroke-linejoin:round;stroke-opacity:1"
     id="g1838"
     transform="translate(-33530.02,-24839.573)">
    <path
       d="m 44700,32030 300,0"
       id="path1840"
       inkscape:connector-curvature="0" />
  </g>
  <g
     style="fill:#840000;fill-opacity:0;stroke:#840000;stroke-width:60;stroke-linecap:round;stroke-linejoin:round;stroke-opacity:1"
     id="g1842"
     transform="translate(-33530.02,-24839.573)">
    <path
       d="m 43640,31520 20,-20 30,-20 100,0 40,20 20,20 10,40 0,40 -10,50 -230,230 240,0"
       id="path1844"
       inkscape:connector-curvature="0" />
    <path
       d="m 44500,34000 -1500,0"
       id="path1846"
       inkscape:connector-curvature="0" />
  </g>
  <g
     style="fill:#008484;fill-opacity:0;stroke:#008484;stroke-width:60;stroke-linecap:round;stroke-linejoin:round;stroke-opacity:1"
     id="g1848"
     transform="translate(-33530.02,-24839.573)">
    <path
       d="m 44700,34030 300,0"
       id="path1850"
       inkscape:connector-curvature="0" />
    <path
       d="m 44850,34180 0,-300"
       id="path1852"
       inkscape:connector-curvature="0" />
  </g>
  <g
     style="fill:#840000;fill-opacity:0;stroke:#840000;stroke-width:60;stroke-linecap:round;stroke-linejoin:round;stroke-opacity:1"
     id="g1854"
     transform="translate(-33530.02,-24839.573)">
    <path
       d="m 43620,33480 240,0 -130,150 60,0 40,20 20,20 10,40 0,90 -10,40 -20,20 -40,20 -120,0 -30,-20 -20,-20"
       id="path1856"
       inkscape:connector-curvature="0" />
    <path
       d="m 48500,33000 1500,0"
       id="path1858"
       inkscape:connector-curvature="0" />
    <path
       d="m 49330,32480 -80,0 -40,20 -20,20 -30,60 -20,70 0,150 20,40 10,20 40,20 80,0 40,-20 20,-20 10,-40 0,-90 -10,-40 -20,-20 -40,-20 -80,0 -40,20 -10,20 -20,40"
       id="path1860"
       inkscape:connector-curvature="0" />
  </g>
  <g
     style="fill:#840000;fill-opacity:0;stroke:#840000;stroke-width:0;stroke-linecap:round;stroke-linejoin:round;stroke-opacity:1"
     id="g1862"
     transform="translate(-33530.02,-24839.573)" />
  <g
     style="fill:#840000;fill-opacity:0;stroke:#840000;stroke-width:200;stroke-linecap:round;stroke-linejoin:round;stroke-opacity:1"
     id="g1864"
     transform="translate(-33530.02,-24839.573)">
    <polyline
       fill="none;"
       points="36700,35800 38300,35800 "
       id="polyline1866" />
    <polyline
       fill="none;"
       points="36700,35200 38300,35200 "
       id="polyline1868" />
  </g>
  <g
     style="fill:#840000;fill-opacity:0;stroke:#840000;stroke-width:60;stroke-linecap:round;stroke-linejoin:round;stroke-opacity:1"
     id="g1870"
     transform="translate(-33530.02,-24839.573)">
    <path
       d="m 37500,35100 0,-1100"
       id="path1872"
       inkscape:connector-curvature="0" />
    <path
       d="m 37500,35900 0,1100"
       id="path1874"
       inkscape:connector-curvature="0" />
  </g>
  <g
     style="fill:#008484;fill-opacity:0;stroke:#008484;stroke-width:60;stroke-linecap:round;stroke-linejoin:round;stroke-opacity:1"
     id="g1876"
     transform="translate(-33530.02,-24839.573)">
    <path
       d="m 38900,36130 20,-20 30,20 -30,20 -20,-20 50,0"
       id="path1878"
       inkscape:connector-curvature="0" />
    <path
       d="m 38950,35630 0,280"
       id="path1880"
       inkscape:connector-curvature="0" />
    <path
       d="m 38950,35770 -500,0 70,50 50,50 20,40"
       id="path1882"
       inkscape:connector-curvature="0" />
    <path
       d="m 38610,35200 340,0"
       id="path1884"
       inkscape:connector-curvature="0" />
    <path
       d="m 38610,35410 260,0 50,-20 30,-50 0,-70 -30,-50 -20,-20"
       id="path1886"
       inkscape:connector-curvature="0" />
    <path
       d="m 38680,34790 0,170"
       id="path1888"
       inkscape:connector-curvature="0" />
    <path
       d="m 38950,34960 -500,0 0,-240"
       id="path1890"
       inkscape:connector-curvature="0" />
  </g>
  <g
     style="fill:#0000c2;fill-opacity:0;stroke:#0000c2;stroke-width:60;stroke-linecap:round;stroke-linejoin:round;stroke-opacity:1"
     id="g1892"
     transform="translate(-33530.02,-24839.573)">
    <path
       d="m 40490,25470 -200,-280"
       id="path1894"
       inkscape:connector-curvature="0" />
    <path
       d="m 40140,25470 0,-600 230,0 60,30 30,30 30,60 0,80 -30,60 -30,30 -60,30 -230,0"
       id="path1896"
       inkscape:connector-curvature="0" />
    <path
       d="m 41000,25470 0,-310 -30,-60 -60,-30 -110,0 -60,30"
       id="path1898"
       inkscape:connector-curvature="0" />
    <path
       d="m 41000,25440 -60,30 -140,0 -60,-30 -30,-50 0,-60 30,-60 60,-30 140,0 60,-30"
       id="path1900"
       inkscape:connector-curvature="0" />
    <path
       d="m 41280,25470 0,-400"
       id="path1902"
       inkscape:connector-curvature="0" />
    <path
       d="m 41280,25130 30,-30 60,-30 80,0 60,30 30,60 0,310"
       id="path1904"
       inkscape:connector-curvature="0" />
    <path
       d="m 41540,25160 30,-60 60,-30 80,0 60,30 30,60 0,310"
       id="path1906"
       inkscape:connector-curvature="0" />
    <path
       d="m 42080,25070 0,600"
       id="path1908"
       inkscape:connector-curvature="0" />
    <path
       d="m 42080,25100 60,-30 110,0 60,30 30,30 30,60 0,170 -30,50 -30,30 -60,30 -110,0 -60,-30"
       id="path1910"
       inkscape:connector-curvature="0" />
    <path
       d="m 43400,24900 -60,-30 -90,0 -80,30 -60,60 -30,50 -30,120 0,80 30,120 30,60 60,50 80,30 60,0 90,-30 30,-30 0,-200 -120,0"
       id="path1912"
       inkscape:connector-curvature="0" />
    <path
       d="m 43910,25440 -60,30 -110,0 -60,-30 -30,-50 0,-230 30,-60 60,-30 110,0 60,30 30,60 0,50 -290,60"
       id="path1914"
       inkscape:connector-curvature="0" />
    <path
       d="m 44190,25070 0,400"
       id="path1916"
       inkscape:connector-curvature="0" />
    <path
       d="m 44190,25130 30,-30 60,-30 80,0 60,30 30,60 0,310"
       id="path1918"
       inkscape:connector-curvature="0" />
    <path
       d="m 44960,25440 -60,30 -110,0 -60,-30 -30,-50 0,-230 30,-60 60,-30 110,0 60,30 30,60 0,50 -290,60"
       id="path1920"
       inkscape:connector-curvature="0" />
    <path
       d="m 45240,25470 0,-400"
       id="path1922"
       inkscape:connector-curvature="0" />
    <path
       d="m 45240,25190 30,-60 30,-30 60,-30 50,0"
       id="path1924"
       inkscape:connector-curvature="0" />
    <path
       d="m 45870,25470 0,-310 -30,-60 -60,-30 -110,0 -60,30"
       id="path1926"
       inkscape:connector-curvature="0" />
    <path
       d="m 45870,25440 -60,30 -140,0 -60,-30 -30,-50 0,-60 30,-60 60,-30 140,0 60,-30"
       id="path1928"
       inkscape:connector-curvature="0" />
    <path
       d="m 46070,25070 230,0"
       id="path1930"
       inkscape:connector-curvature="0" />
    <path
       d="m 46150,24870 0,520 30,50 60,30 60,0"
       id="path1932"
       inkscape:connector-curvature="0" />
    <path
       d="m 46580,25470 -60,-30 -30,-30 -30,-50 0,-170 30,-60 30,-30 60,-30 80,0 60,30 30,30 30,60 0,170 -30,50 -30,30 -60,30 -80,0"
       id="path1934"
       inkscape:connector-curvature="0" />
    <path
       d="m 47030,25470 0,-400"
       id="path1936"
       inkscape:connector-curvature="0" />
    <path
       d="m 47030,25190 30,-60 30,-30 60,-30 50,0"
       id="path1938"
       inkscape:connector-curvature="0" />
  </g>
  <g
     style="fill:#0000c2;fill-opacity:0;stroke:#0000c2;stroke-width:0;stroke-linecap:round;stroke-linejoin:round;stroke-opacity:1"
     id="g1940"
     transform="translate(-33530.02,-24839.573)" />
  <g
     style="fill:#840000;fill-opacity:0;stroke:#840000;stroke-width:0;stroke-linecap:round;stroke-linejoin:round;stroke-opacity:1"
     id="g1942"
     transform="translate(-33530.02,-24839.573)" />
  <g
     style="fill:#840000;fill-opacity:0;stroke:#840000;stroke-width:100;stroke-linecap:round;stroke-linejoin:round;stroke-opacity:1"
     id="g1944"
     transform="translate(-33530.02,-24839.573)">
    <rect
       x="37100"
       y="27750"
       width="800"
       height="2000"
       rx="0"
       id="rect1946" />
  </g>
  <g
     style="fill:#840000;fill-opacity:0;stroke:#840000;stroke-width:60;stroke-linecap:round;stroke-linejoin:round;stroke-opacity:1"
     id="g1948"
     transform="translate(-33530.02,-24839.573)">
    <path
       d="m 37500,27750 0,-500"
       id="path1950"
       inkscape:connector-curvature="0" />
    <path
       d="m 37500,29750 0,500"
       id="path1952"
       inkscape:connector-curvature="0" />
  </g>
  <g
     style="fill:#008484;fill-opacity:0;stroke:#008484;stroke-width:60;stroke-linecap:round;stroke-linejoin:round;stroke-opacity:1"
     id="g1954"
     transform="translate(-33530.02,-24839.573)">
    <path
       d="m 37700,29100 0,280"
       id="path1956"
       inkscape:connector-curvature="0" />
    <path
       d="m 37700,29240 -500,0 70,50 50,50 20,40"
       id="path1958"
       inkscape:connector-curvature="0" />
    <path
       d="m 37200,28790 0,-50 20,-50 20,-20 50,-30 100,-20 120,0 90,20 50,30 20,20 30,50 0,50 -30,40 -20,30 -50,20 -90,20 -120,0 -100,-20 -50,-20 -20,-30 -20,-40"
       id="path1960"
       inkscape:connector-curvature="0" />
    <path
       d="m 37700,28400 -500,0"
       id="path1962"
       inkscape:connector-curvature="0" />
    <path
       d="m 37700,28120 -290,210"
       id="path1964"
       inkscape:connector-curvature="0" />
    <path
       d="m 37200,28120 280,280"
       id="path1966"
       inkscape:connector-curvature="0" />
  </g>
  <g
     style="fill:#008484;fill-opacity:0;stroke:#008484;stroke-width:0;stroke-linecap:round;stroke-linejoin:round;stroke-opacity:1"
     id="g1968"
     transform="translate(-33530.02,-24839.573)" />
  <g
     style="fill:#840000;fill-opacity:0;stroke:#840000;stroke-width:0;stroke-linecap:round;stroke-linejoin:round;stroke-opacity:1"
     id="g1970"
     transform="translate(-33530.02,-24839.573)" />
  <g
     style="fill:#840000;fill-opacity:0;stroke:#840000;stroke-width:80;stroke-linecap:round;stroke-linejoin:round;stroke-opacity:1"
     id="g1972"
     transform="translate(-33530.02,-24839.573)">
    <polyline
       fill="none;"
       points="40300,29750 40500,29950 40500,30550 40700,30750 40700,30750 "
       id="polyline1974" />
  </g>
  <g
     style="fill:#840000;fill-opacity:1;stroke:#840000;stroke-width:60;stroke-linecap:round;stroke-linejoin:round;stroke-opacity:1"
     id="g1976"
     transform="translate(-33530.02,-24839.573)">
    <polyline
       style="fill-rule:evenodd"
       points="40500,30250 41500,29750 41500,30750 40500,30250 40500,30250 "
       id="polyline1978" />
  </g>
  <g
     style="fill:#840000;fill-opacity:0;stroke:#840000;stroke-width:60;stroke-linecap:round;stroke-linejoin:round;stroke-opacity:1"
     id="g1980"
     transform="translate(-33530.02,-24839.573)">
    <path
       d="m 40500,30250 -1500,0"
       id="path1982"
       inkscape:connector-curvature="0" />
    <path
       d="m 41500,30250 1500,0"
       id="path1984"
       inkscape:connector-curvature="0" />
  </g>
  <g
     style="fill:#008484;fill-opacity:0;stroke:#008484;stroke-width:60;stroke-linecap:round;stroke-linejoin:round;stroke-opacity:1"
     id="g1986"
     transform="translate(-33530.02,-24839.573)">
    <path
       d="m 40260,28950 310,0 -170,190 80,0 40,20 30,20 20,50 0,120 -20,50 -30,20 -40,30 -150,0 -40,-30 -30,-20"
       id="path1988"
       inkscape:connector-curvature="0" />
    <path
       d="m 40790,29400 20,20 -20,30 -20,-30 20,-20 0,50"
       id="path1990"
       inkscape:connector-curvature="0" />
    <path
       d="m 40980,28950 310,0 -170,190 80,0 40,20 30,20 20,50 0,120 -20,50 -30,20 -40,30 -150,0 -40,-30 -30,-20"
       id="path1992"
       inkscape:connector-curvature="0" />
    <path
       d="m 41440,28950 160,500 170,-500"
       id="path1994"
       inkscape:connector-curvature="0" />
  </g>
  <g
     style="fill:#008484;fill-opacity:0;stroke:#008484;stroke-width:0;stroke-linecap:round;stroke-linejoin:round;stroke-opacity:1"
     id="g1996"
     transform="translate(-33530.02,-24839.573)" />
  <g
     style="fill:#840000;fill-opacity:0;stroke:#840000;stroke-width:0;stroke-linecap:round;stroke-linejoin:round;stroke-opacity:1"
     id="g1998"
     transform="translate(-33530.02,-24839.573)" />
  <g
     style="fill:#840000;fill-opacity:0;stroke:#840000;stroke-width:80;stroke-linecap:round;stroke-linejoin:round;stroke-opacity:1"
     id="g2000"
     transform="translate(-33530.02,-24839.573)">
    <polyline
       fill="none;"
       points="41700,32500 41500,32300 41500,31700 41300,31500 41300,31500 "
       id="polyline2002" />
  </g>
  <g
     style="fill:#840000;fill-opacity:1;stroke:#840000;stroke-width:60;stroke-linecap:round;stroke-linejoin:round;stroke-opacity:1"
     id="g2004"
     transform="translate(-33530.02,-24839.573)">
    <polyline
       style="fill-rule:evenodd"
       points="41500,32000 40500,32500 40500,31500 41500,32000 41500,32000 "
       id="polyline2006" />
  </g>
  <g
     style="fill:#840000;fill-opacity:0;stroke:#840000;stroke-width:60;stroke-linecap:round;stroke-linejoin:round;stroke-opacity:1"
     id="g2008"
     transform="translate(-33530.02,-24839.573)">
    <path
       d="m 41500,32000 1500,0"
       id="path2010"
       inkscape:connector-curvature="0" />
    <path
       d="m 40500,32000 -1500,0"
       id="path2012"
       inkscape:connector-curvature="0" />
  </g>
  <g
     style="fill:#008484;fill-opacity:0;stroke:#008484;stroke-width:60;stroke-linecap:round;stroke-linejoin:round;stroke-opacity:1"
     id="g2014"
     transform="translate(-33530.02,-24839.573)">
    <path
       d="m 40250,32760 310,0 -170,190 80,0 40,20 30,20 20,50 0,120 -20,50 -30,20 -40,30 -150,0 -40,-30 -30,-20"
       id="path2016"
       inkscape:connector-curvature="0" />
    <path
       d="m 40780,33210 20,20 -20,30 -20,-30 20,-20 0,50"
       id="path2018"
       inkscape:connector-curvature="0" />
    <path
       d="m 40970,32760 310,0 -170,190 80,0 40,20 30,20 20,50 0,120 -20,50 -30,20 -40,30 -150,0 -40,-30 -30,-20"
       id="path2020"
       inkscape:connector-curvature="0" />
    <path
       d="m 41430,32760 160,500 170,-500"
       id="path2022"
       inkscape:connector-curvature="0" />
  </g>
  <g
     style="fill:#008400;fill-opacity:0;stroke:#008400;stroke-width:0;stroke-linecap:round;stroke-linejoin:round;stroke-opacity:1"
     id="g2036"
     transform="translate(-33530.02,-24839.573)" />
  <g
     style="fill:#008400;fill-opacity:1;stroke:#008400;stroke-width:60;stroke-linecap:round;stroke-linejoin:round;stroke-opacity:1"
     id="g2042"
     transform="translate(-33530.02,-24839.573)" />
  <g
     style="fill:#008400;fill-opacity:0;stroke:#008400;stroke-width:0;stroke-linecap:round;stroke-linejoin:round;stroke-opacity:1"
     id="g2048"
     transform="translate(-33530.02,-24839.573)" />
  <g
     style="fill:#008400;fill-opacity:1;stroke:#008400;stroke-width:0;stroke-linecap:round;stroke-linejoin:round;stroke-opacity:1"
     id="g2054"
     transform="translate(-33530.02,-24839.573)" />
  <g
     style="fill:#008400;fill-opacity:1;stroke:#008400;stroke-width:60;stroke-linecap:round;stroke-linejoin:round;stroke-opacity:1"
     id="g2060"
     transform="translate(-33530.02,-24839.573)" />
  <g
     style="fill:#008400;fill-opacity:0;stroke:#008400;stroke-width:0;stroke-linecap:round;stroke-linejoin:round;stroke-opacity:1"
     id="g2066"
     transform="translate(-33530.02,-24839.573)" />
  <g
     style="fill:#008400;fill-opacity:1;stroke:#008400;stroke-width:60;stroke-linecap:round;stroke-linejoin:round;stroke-opacity:1"
     id="g2072"
     transform="translate(-33530.02,-24839.573)" />
  <g
     style="fill:#008400;fill-opacity:0;stroke:#008400;stroke-width:0;stroke-linecap:round;stroke-linejoin:round;stroke-opacity:1"
     id="g2080"
     transform="translate(-33530.02,-24839.573)" />
  <g
     style="fill:#008400;fill-opacity:1;stroke:#008400;stroke-width:60;stroke-linecap:round;stroke-linejoin:round;stroke-opacity:1"
     id="g2086"
     transform="translate(-33530.02,-24839.573)" />
  <g
     style="fill:#008400;fill-opacity:0;stroke:#008400;stroke-width:0;stroke-linecap:round;stroke-linejoin:round;stroke-opacity:1"
     id="g2102"
     transform="translate(-33530.02,-24839.573)" />
  <g
     style="fill:#008400;fill-opacity:1;stroke:#008400;stroke-width:60;stroke-linecap:round;stroke-linejoin:round;stroke-opacity:1"
     id="g2108"
     transform="translate(-33530.02,-24839.573)" />
  <g
     style="fill:#008400;fill-opacity:0;stroke:#008400;stroke-width:0;stroke-linecap:round;stroke-linejoin:round;stroke-opacity:1"
     id="g2114"
     transform="translate(-33530.02,-24839.573)" />
  <g
     style="fill:#008400;fill-opacity:1;stroke:#008400;stroke-width:0;stroke-linecap:round;stroke-linejoin:round;stroke-opacity:1"
     id="g2120"
     transform="translate(-33530.02,-24839.573)" />
  <g
     style="fill:#008400;fill-opacity:1;stroke:#008400;stroke-width:60;stroke-linecap:round;stroke-linejoin:round;stroke-opacity:1"
     id="g2126"
     transform="translate(-33530.02,-24839.573)" />
  <g
     style="fill:#008400;fill-opacity:0;stroke:#008400;stroke-width:0;stroke-linecap:round;stroke-linejoin:round;stroke-opacity:1"
     id="g2132"
     transform="translate(-33530.02,-24839.573)" />
  <g
     style="fill:#008400;fill-opacity:1;stroke:#008400;stroke-width:60;stroke-linecap:round;stroke-linejoin:round;stroke-opacity:1"
     id="g2138"
     transform="translate(-33530.02,-24839.573)" />
  <g
     style="fill:#008400;fill-opacity:0;stroke:#008400;stroke-width:0;stroke-linecap:round;stroke-linejoin:round;stroke-opacity:1"
     id="g2146"
     transform="translate(-33530.02,-24839.573)" />
  <g
     style="fill:#008400;fill-opacity:1;stroke:#008400;stroke-width:60;stroke-linecap:round;stroke-linejoin:round;stroke-opacity:1"
     id="g2152"
     transform="translate(-33530.02,-24839.573)" />
  <g
     style="fill:#008400;fill-opacity:0;stroke:#008400;stroke-width:60;stroke-linecap:round;stroke-linejoin:round;stroke-opacity:1"
     id="g2154"
     transform="translate(-33530.02,-24839.573)" />
  <g
     style="fill:#008400;fill-opacity:0;stroke:#008400;stroke-width:0;stroke-linecap:round;stroke-linejoin:round;stroke-opacity:1"
     id="g2166"
     transform="translate(-33530.02,-24839.573)" />
  <g
     style="fill:#008400;fill-opacity:1;stroke:#008400;stroke-width:60;stroke-linecap:round;stroke-linejoin:round;stroke-opacity:1"
     id="g2172"
     transform="translate(-33530.02,-24839.573)" />
  <g
     style="fill:#008400;fill-opacity:0;stroke:#008400;stroke-width:0;stroke-linecap:round;stroke-linejoin:round;stroke-opacity:1"
     id="g2178"
     transform="translate(-33530.02,-24839.573)" />
  <g
     style="fill:#008400;fill-opacity:1;stroke:#008400;stroke-width:0;stroke-linecap:round;stroke-linejoin:round;stroke-opacity:1"
     id="g2184"
     transform="translate(-33530.02,-24839.573)" />
  <g
     style="fill:#008400;fill-opacity:1;stroke:#008400;stroke-width:60;stroke-linecap:round;stroke-linejoin:round;stroke-opacity:1"
     id="g2190"
     transform="translate(-33530.02,-24839.573)" />
  <g
     style="fill:#008400;fill-opacity:0;stroke:#008400;stroke-width:0;stroke-linecap:round;stroke-linejoin:round;stroke-opacity:1"
     id="g2198"
     transform="translate(-33530.02,-24839.573)" />
  <g
     style="fill:#008400;fill-opacity:1;stroke:#008400;stroke-width:60;stroke-linecap:round;stroke-linejoin:round;stroke-opacity:1"
     id="g2204"
     transform="translate(-33530.02,-24839.573)" />
  <g
     style="fill:#008400;fill-opacity:0;stroke:#008400;stroke-width:0;stroke-linecap:round;stroke-linejoin:round;stroke-opacity:1"
     id="g2224"
     transform="translate(-33530.02,-24839.573)" />
  <g
     style="fill:#008400;fill-opacity:1;stroke:#008400;stroke-width:60;stroke-linecap:round;stroke-linejoin:round;stroke-opacity:1"
     id="g2230"
     transform="translate(-33530.02,-24839.573)" />
  <g
     style="fill:#008400;fill-opacity:0;stroke:#008400;stroke-width:0;stroke-linecap:round;stroke-linejoin:round;stroke-opacity:1"
     id="g2240"
     transform="translate(-33530.02,-24839.573)" />
  <g
     style="fill:#008400;fill-opacity:1;stroke:#008400;stroke-width:60;stroke-linecap:round;stroke-linejoin:round;stroke-opacity:1"
     id="g2246"
     transform="translate(-33530.02,-24839.573)" />
  <g
     style="fill:#008400;fill-opacity:0;stroke:#008400;stroke-width:0;stroke-linecap:round;stroke-linejoin:round;stroke-opacity:1"
     id="g2274"
     transform="translate(-33530.02,-24839.573)" />
  <g
     style="fill:#008400;fill-opacity:1;stroke:#008400;stroke-width:60;stroke-linecap:round;stroke-linejoin:round;stroke-opacity:1"
     id="g2280"
     transform="translate(-33530.02,-24839.573)" />
  <g
     style="fill:#008400;fill-opacity:0;stroke:#008400;stroke-width:60;stroke-linecap:round;stroke-linejoin:round;stroke-opacity:1"
     id="g2282"
     transform="translate(-33530.02,-24839.573)">
    <path
       d="m 46500,36000 -1000,0"
       id="path2312"
       inkscape:connector-curvature="0" />
    <path
       d="m 46500,30000 -1000,0"
       id="path2314"
       inkscape:connector-curvature="0" />
    <path
       d="m 50000,33000 1500,0"
       id="path2316"
       inkscape:connector-curvature="0" />
  </g>
  <g
     style="fill:#008400;fill-opacity:0;stroke:#008400;stroke-width:0;stroke-linecap:round;stroke-linejoin:round;stroke-opacity:1"
     id="g2318"
     transform="translate(-33530.02,-24839.573)" />
  <g
     style="fill:#008400;fill-opacity:1;stroke:#008400;stroke-width:100;stroke-linecap:round;stroke-linejoin:round;stroke-opacity:1"
     id="g2320"
     transform="translate(-33530.02,-24839.573)">
    <circle
       cx="50250"
       cy="33000"
       r="200"
       id="circle2322" />
  </g>
  <g
     style="fill:#008400;fill-opacity:1;stroke:#008400;stroke-width:60;stroke-linecap:round;stroke-linejoin:round;stroke-opacity:1"
     id="g2324"
     transform="translate(-33530.02,-24839.573)" />
  <g
     style="fill:#008400;fill-opacity:0;stroke:#008400;stroke-width:60;stroke-linecap:round;stroke-linejoin:round;stroke-opacity:1"
     id="g2326"
     transform="translate(-33530.02,-24839.573)">
    <path
       d="m 43000,29000 0,3000"
       id="path2328"
       inkscape:connector-curvature="0" />
    <path
       d="m 50250,29000 0,4000"
       id="path2330"
       inkscape:connector-curvature="0" />
    <path
       d="m 39000,32000 0,-1750"
       id="path2332"
       inkscape:connector-curvature="0" />
    <path
       d="m 37500,31000 0,-750"
       id="path2334"
       inkscape:connector-curvature="0" />
    <path
       d="m 37500,30250 1500,0"
       id="path2336"
       inkscape:connector-curvature="0" />
    <path
       d="m 36000,37000 1500,0"
       id="path2338"
       inkscape:connector-curvature="0" />
    <path
       d="m 43000,29000 7250,0"
       id="path2340"
       inkscape:connector-curvature="0" />
    <path
       d="m 43000,34000 -5500,0"
       id="path2342"
       inkscape:connector-curvature="0" />
    <path
       d="m 39500,27250 -2000,0"
       id="path2344"
       inkscape:connector-curvature="0" />
  </g>
</svg>
