<?xml version="1.0" encoding="UTF-8" standalone="no"?>
<!-- Created with Inkscape (http://www.inkscape.org/) -->

<svg
   xmlns:dc="http://purl.org/dc/elements/1.1/"
   xmlns:cc="http://creativecommons.org/ns#"
   xmlns:rdf="http://www.w3.org/1999/02/22-rdf-syntax-ns#"
   xmlns:svg="http://www.w3.org/2000/svg"
   xmlns="http://www.w3.org/2000/svg"
   xmlns:sodipodi="http://sodipodi.sourceforge.net/DTD/sodipodi-0.dtd"
   xmlns:inkscape="http://www.inkscape.org/namespaces/inkscape"
   width="22.478975mm"
   height="9.95679mm"
   viewBox="0 0 79.649912 35.279964"
   id="svg5830"
   version="1.1"
   inkscape:version="0.91 r13725"
   sodipodi:docname="RMeasure.svg">
  <defs
     id="defs5832" />
  <sodipodi:namedview
     id="base"
     pagecolor="#ffffff"
     bordercolor="#666666"
     borderopacity="1.0"
     inkscape:pageopacity="0.0"
     inkscape:pageshadow="2"
     inkscape:zoom="0.35"
     inkscape:cx="-640.88933"
     inkscape:cy="-273.78859"
     inkscape:document-units="px"
     inkscape:current-layer="layer1"
     showgrid="false"
     fit-margin-top="0"
     fit-margin-left="0"
     fit-margin-right="0"
     fit-margin-bottom="0"
     inkscape:window-width="1855"
     inkscape:window-height="1056"
     inkscape:window-x="65"
     inkscape:window-y="24"
     inkscape:window-maximized="1" />
  <metadata
     id="metadata5835">
    <rdf:RDF>
      <cc:Work
         rdf:about="">
        <dc:format>image/svg+xml</dc:format>
        <dc:type
           rdf:resource="http://purl.org/dc/dcmitype/StillImage" />
        <dc:title></dc:title>
      </cc:Work>
    </rdf:RDF>
  </metadata>
  <g
     inkscape:label="Layer 1"
     inkscape:groupmode="layer"
     id="layer1"
     transform="translate(-317.3179,-223.29365)">
    <path
       style="fill:#840000;fill-opacity:0;stroke:#840000;stroke-width:0.53999943;stroke-linecap:round;stroke-linejoin:round;stroke-opacity:1"
       inkscape:connector-curvature="0"
       id="path712"
       d="m 379.77783,235.17364 0.81,0.27 1.26,0 0.54,-0.27 0.27,-0.27 0.27,-0.45 0,-0.54 -0.27,-0.54 -0.27,-0.27 -0.54,-0.18 -0.99,-0.27 -0.54,-0.27 -0.27,-0.27 -0.27,-0.54 0,-0.45 0.27,-0.54 0.27,-0.27 0.54,-0.27 1.26,0 0.81,0.27" />
    <path
       style="fill:#840000;fill-opacity:0;stroke:#840000;stroke-width:0.53999943;stroke-linecap:round;stroke-linejoin:round;stroke-opacity:1"
       inkscape:connector-curvature="0"
       id="path714"
       d="m 385.17783,232.65364 1.79999,0" />
    <path
       style="fill:#840000;fill-opacity:0;stroke:#840000;stroke-width:0.53999943;stroke-linecap:round;stroke-linejoin:round;stroke-opacity:1"
       inkscape:connector-curvature="0"
       id="path716"
       d="m 387.78782,235.44364 -2.60999,0 0,-5.4 2.60999,0" />
    <path
       style="fill:#840000;fill-opacity:0;stroke:#840000;stroke-width:0.53999943;stroke-linecap:round;stroke-linejoin:round;stroke-opacity:1"
       inkscape:connector-curvature="0"
       id="path718"
       d="m 390.03782,235.44364 0,-5.4 3.15,5.4 0,-5.4" />
    <polyline
       transform="matrix(0.00899999,0,0,0.00899999,218.04801,-70.736019)"
       style="fill:#840000;fill-opacity:0;stroke:#840000;stroke-width:100;stroke-linecap:round;stroke-linejoin:round;stroke-opacity:1"
       id="polyline722"
       points="17500,33750 17800,34290 19830,34290 19830,33750 19830,33210 17800,33210 17500,33750 " />
    <path
       style="fill:#840000;fill-opacity:0;stroke:#840000;stroke-width:0.53999943;stroke-linecap:round;stroke-linejoin:round;stroke-opacity:1"
       inkscape:connector-curvature="0"
       id="path726"
       d="m 323.97789,230.31364 -0.54,-0.27 -0.80999,0 -0.72,0.27 -0.54,0.54 -0.27,0.45 -0.27,1.08 0,0.72 0.27,1.08 0.27,0.54 0.54,0.45 0.72,0.27 0.54,0 0.80999,-0.27 0.27,-0.27 0,-1.8 -1.07999,0" />
    <path
       style="fill:#840000;fill-opacity:0;stroke:#840000;stroke-width:0.53999943;stroke-linecap:round;stroke-linejoin:round;stroke-opacity:1"
       inkscape:connector-curvature="0"
       id="path728"
       d="m 326.49789,235.44364 0,-5.4 3.15,5.4 0,-5.4" />
    <path
       style="fill:#840000;fill-opacity:0;stroke:#840000;stroke-width:0.53999943;stroke-linecap:round;stroke-linejoin:round;stroke-opacity:1"
       inkscape:connector-curvature="0"
       id="path730"
       d="m 332.16788,235.44364 0,-5.4 1.35,0 0.72,0.27 0.54,0.54 0.27,0.45 0.27,1.08 0,0.72 -0.27,1.08 -0.27,0.54 -0.54,0.45 -0.72,0.27 -1.35,0" />
    <polyline
       transform="matrix(0.00899999,0,0,0.00899999,218.04801,-70.736019)"
       style="fill:#840000;fill-opacity:0;stroke:#840000;stroke-width:100;stroke-linecap:round;stroke-linejoin:round;stroke-opacity:1"
       id="polyline734"
       points="13500,33750 13200,33210 11080,33210 11080,33750 11080,34290 13200,34290 13500,33750 " />
    <rect
       style="fill:#840000;fill-opacity:0;stroke:#840000;stroke-width:0.89999902;stroke-linecap:round;stroke-linejoin:round;stroke-opacity:1"
       id="rect740"
       rx="0"
       height="7.1999922"
       width="17.999981"
       y="229.41365"
       x="348.54788" />
    <path
       style="fill:#840000;fill-opacity:0;stroke:#840000;stroke-width:0.53999943;stroke-linecap:round;stroke-linejoin:round;stroke-opacity:1"
       inkscape:connector-curvature="0"
       id="path744"
       d="m 366.54785,233.01364 4.49999,0" />
    <path
       style="fill:#840000;fill-opacity:0;stroke:#840000;stroke-width:0.53999943;stroke-linecap:round;stroke-linejoin:round;stroke-opacity:1"
       inkscape:connector-curvature="0"
       id="path746"
       d="m 348.54787,233.01364 -4.5,0" />
    <path
       style="fill:#008484;fill-opacity:0;stroke:#008484;stroke-width:0.53999943;stroke-linecap:round;stroke-linejoin:round;stroke-opacity:1"
       inkscape:connector-curvature="0"
       id="path750"
       d="m 352.23786,228.06365 -1.44,-2.16" />
    <path
       style="fill:#008484;fill-opacity:0;stroke:#008484;stroke-width:0.53999943;stroke-linecap:round;stroke-linejoin:round;stroke-opacity:1"
       inkscape:connector-curvature="0"
       id="path752"
       d="m 349.71787,228.06365 0,-4.5 1.70999,0 0.45,0.18 0.18,0.18 0.18,0.45 0,0.63 -0.18,0.45 -0.18,0.18 -0.45,0.27 -1.70999,0" />
    <path
       style="fill:#008484;fill-opacity:0;stroke:#008484;stroke-width:0.53999943;stroke-linecap:round;stroke-linejoin:round;stroke-opacity:1"
       inkscape:connector-curvature="0"
       id="path754"
       d="m 356.55786,228.06365 -2.52,0" />
    <path
       style="fill:#008484;fill-opacity:0;stroke:#008484;stroke-width:0.53999943;stroke-linecap:round;stroke-linejoin:round;stroke-opacity:1"
       inkscape:connector-curvature="0"
       id="path756"
       d="m 355.29786,228.06365 0,-4.5 -0.45,0.63 -0.45,0.45 -0.36,0.18" />
    <path
       style="fill:#008484;fill-opacity:0;stroke:#008484;stroke-width:0.53999943;stroke-linecap:round;stroke-linejoin:round;stroke-opacity:1"
       inkscape:connector-curvature="0"
       id="path758"
       d="m 356.55786,234.81364 -2.52,0" />
    <path
       style="fill:#008484;fill-opacity:0;stroke:#008484;stroke-width:0.53999943;stroke-linecap:round;stroke-linejoin:round;stroke-opacity:1"
       inkscape:connector-curvature="0"
       id="path760"
       d="m 355.29786,234.81364 0,-4.5 -0.45,0.63 -0.45,0.45 -0.36,0.18" />
    <path
       style="fill:#008484;fill-opacity:0;stroke:#008484;stroke-width:0.53999943;stroke-linecap:round;stroke-linejoin:round;stroke-opacity:1"
       inkscape:connector-curvature="0"
       id="path762"
       d="m 358.53786,234.81364 0,-4.5" />
    <path
       style="fill:#008484;fill-opacity:0;stroke:#008484;stroke-width:0.53999943;stroke-linecap:round;stroke-linejoin:round;stroke-opacity:1"
       inkscape:connector-curvature="0"
       id="path764"
       d="m 361.05785,234.81364 -1.89,-2.61" />
    <path
       style="fill:#008484;fill-opacity:0;stroke:#008484;stroke-width:0.53999943;stroke-linecap:round;stroke-linejoin:round;stroke-opacity:1"
       inkscape:connector-curvature="0"
       id="path766"
       d="m 361.05785,230.31364 -2.51999,2.52" />
    <path
       style="fill:#840000;fill-opacity:0;stroke:#840000;stroke-width:0.53999943;stroke-linecap:round;stroke-linejoin:round;stroke-opacity:1"
       inkscape:connector-curvature="0"
       id="path770"
       d="m 379.77783,255.42362 0.81,0.27 1.26,0 0.54,-0.27 0.27,-0.27 0.27,-0.45 0,-0.54 -0.27,-0.54 -0.27,-0.27 -0.54,-0.18 -0.99,-0.27 -0.54,-0.27 -0.27,-0.27 -0.27,-0.54 0,-0.45 0.27,-0.54 0.27,-0.27 0.54,-0.27 1.26,0 0.81,0.27" />
    <path
       style="fill:#840000;fill-opacity:0;stroke:#840000;stroke-width:0.53999943;stroke-linecap:round;stroke-linejoin:round;stroke-opacity:1"
       inkscape:connector-curvature="0"
       id="path772"
       d="m 385.17783,252.90362 1.79999,0" />
    <path
       style="fill:#840000;fill-opacity:0;stroke:#840000;stroke-width:0.53999943;stroke-linecap:round;stroke-linejoin:round;stroke-opacity:1"
       inkscape:connector-curvature="0"
       id="path774"
       d="m 387.78782,255.69362 -2.60999,0 0,-5.4 2.60999,0" />
    <path
       style="fill:#840000;fill-opacity:0;stroke:#840000;stroke-width:0.53999943;stroke-linecap:round;stroke-linejoin:round;stroke-opacity:1"
       inkscape:connector-curvature="0"
       id="path776"
       d="m 390.03782,255.69362 0,-5.4 3.15,5.4 0,-5.4" />
    <polyline
       transform="matrix(0.00899999,0,0,0.00899999,218.04801,-70.736019)"
       style="fill:#840000;fill-opacity:0;stroke:#840000;stroke-width:100;stroke-linecap:round;stroke-linejoin:round;stroke-opacity:1"
       id="polyline780"
       points="17500,36000 17800,36540 19830,36540 19830,36000 19830,35460 17800,35460 17500,36000 " />
    <path
       style="fill:#840000;fill-opacity:0;stroke:#840000;stroke-width:0.53999943;stroke-linecap:round;stroke-linejoin:round;stroke-opacity:1"
       inkscape:connector-curvature="0"
       id="path784"
       d="m 323.97789,250.56362 -0.54,-0.27 -0.80999,0 -0.72,0.27 -0.54,0.54 -0.27,0.45 -0.27,1.08 0,0.72 0.27,1.08 0.27,0.54 0.54,0.45 0.72,0.27 0.54,0 0.80999,-0.27 0.27,-0.27 0,-1.8 -1.07999,0" />
    <path
       style="fill:#840000;fill-opacity:0;stroke:#840000;stroke-width:0.53999943;stroke-linecap:round;stroke-linejoin:round;stroke-opacity:1"
       inkscape:connector-curvature="0"
       id="path786"
       d="m 326.49789,255.69362 0,-5.4 3.15,5.4 0,-5.4" />
    <path
       style="fill:#840000;fill-opacity:0;stroke:#840000;stroke-width:0.53999943;stroke-linecap:round;stroke-linejoin:round;stroke-opacity:1"
       inkscape:connector-curvature="0"
       id="path788"
       d="m 332.16788,255.69362 0,-5.4 1.35,0 0.72,0.27 0.54,0.54 0.27,0.45 0.27,1.08 0,0.72 -0.27,1.08 -0.27,0.54 -0.54,0.45 -0.72,0.27 -1.35,0" />
    <polyline
       transform="matrix(0.00899999,0,0,0.00899999,218.04801,-70.736019)"
       style="fill:#840000;fill-opacity:0;stroke:#840000;stroke-width:100;stroke-linecap:round;stroke-linejoin:round;stroke-opacity:1"
       id="polyline792"
       points="13500,36000 13200,35460 11080,35460 11080,36000 11080,36540 13200,36540 13500,36000 " />
    <rect
       style="fill:#840000;fill-opacity:0;stroke:#840000;stroke-width:0.89999902;stroke-linecap:round;stroke-linejoin:round;stroke-opacity:1"
       id="rect798"
       rx="0"
       height="7.1999922"
       width="17.999981"
       y="249.66362"
       x="348.54788" />
    <path
       style="fill:#840000;fill-opacity:0;stroke:#840000;stroke-width:0.53999943;stroke-linecap:round;stroke-linejoin:round;stroke-opacity:1"
       inkscape:connector-curvature="0"
       id="path802"
       d="m 366.54785,253.26362 4.49999,0" />
    <path
       style="fill:#840000;fill-opacity:0;stroke:#840000;stroke-width:0.53999943;stroke-linecap:round;stroke-linejoin:round;stroke-opacity:1"
       inkscape:connector-curvature="0"
       id="path804"
       d="m 348.54787,253.26362 -4.5,0" />
    <path
       style="fill:#008484;fill-opacity:0;stroke:#008484;stroke-width:0.53999943;stroke-linecap:round;stroke-linejoin:round;stroke-opacity:1"
       inkscape:connector-curvature="0"
       id="path808"
       d="m 352.23786,248.31362 -1.44,-2.15999" />
    <path
       style="fill:#008484;fill-opacity:0;stroke:#008484;stroke-width:0.53999943;stroke-linecap:round;stroke-linejoin:round;stroke-opacity:1"
       inkscape:connector-curvature="0"
       id="path810"
       d="m 349.71787,248.31362 0,-4.49999 1.70999,0 0.45,0.18 0.18,0.18 0.18,0.45 0,0.63 -0.18,0.45 -0.18,0.18 -0.45,0.27 -1.70999,0" />
    <path
       style="fill:#008484;fill-opacity:0;stroke:#008484;stroke-width:0.53999943;stroke-linecap:round;stroke-linejoin:round;stroke-opacity:1"
       inkscape:connector-curvature="0"
       id="path812"
       d="m 354.03786,244.17363 0.18,-0.18 0.45,-0.18 1.08,0 0.36,0.18 0.27,0.18 0.18,0.45 0,0.45 -0.18,0.63 -2.61,2.60999 2.79,0" />
    <path
       style="fill:#008484;fill-opacity:0;stroke:#008484;stroke-width:0.53999943;stroke-linecap:round;stroke-linejoin:round;stroke-opacity:1"
       inkscape:connector-curvature="0"
       id="path814"
       d="m 354.39786,255.06362 -2.52,0" />
    <path
       style="fill:#008484;fill-opacity:0;stroke:#008484;stroke-width:0.53999943;stroke-linecap:round;stroke-linejoin:round;stroke-opacity:1"
       inkscape:connector-curvature="0"
       id="path816"
       d="m 353.13786,255.06362 0,-4.5 -0.45,0.63 -0.45,0.45 -0.36,0.18" />
    <path
       style="fill:#008484;fill-opacity:0;stroke:#008484;stroke-width:0.53999943;stroke-linecap:round;stroke-linejoin:round;stroke-opacity:1"
       inkscape:connector-curvature="0"
       id="path818"
       d="m 357.18786,250.56362 0.45,0 0.45,0.18 0.18,0.18 0.27,0.45 0.18,0.9 0,1.08 -0.18,0.81 -0.27,0.45 -0.18,0.18 -0.45,0.27 -0.45,0 -0.36,-0.27 -0.27,-0.18 -0.18,-0.45 -0.18,-0.81 0,-1.08 0.18,-0.9 0.18,-0.45 0.27,-0.18 0.36,-0.18" />
    <path
       style="fill:#008484;fill-opacity:0;stroke:#008484;stroke-width:0.53999943;stroke-linecap:round;stroke-linejoin:round;stroke-opacity:1"
       inkscape:connector-curvature="0"
       id="path820"
       d="m 360.69785,255.06362 0,-4.5" />
    <path
       style="fill:#008484;fill-opacity:0;stroke:#008484;stroke-width:0.53999943;stroke-linecap:round;stroke-linejoin:round;stroke-opacity:1"
       inkscape:connector-curvature="0"
       id="path822"
       d="m 363.21785,255.06362 -1.89,-2.61" />
    <path
       style="fill:#008484;fill-opacity:0;stroke:#008484;stroke-width:0.53999943;stroke-linecap:round;stroke-linejoin:round;stroke-opacity:1"
       inkscape:connector-curvature="0"
       id="path824"
       d="m 363.21785,250.56362 -2.52,2.52" />
    <path
       style="fill:#008400;fill-opacity:0;stroke:#008400;stroke-width:0.53999943;stroke-linecap:round;stroke-linejoin:round;stroke-opacity:1"
       inkscape:connector-curvature="0"
       id="path1152"
       d="m 375.54784,233.01364 -4.5,0" />
    <path
       style="fill:#008400;fill-opacity:0;stroke:#008400;stroke-width:0.53999943;stroke-linecap:round;stroke-linejoin:round;stroke-opacity:1"
       inkscape:connector-curvature="0"
       id="path1154"
       d="m 344.04787,233.01364 -4.49999,0" />
    <path
       style="fill:#008400;fill-opacity:0;stroke:#008400;stroke-width:0.53999943;stroke-linecap:round;stroke-linejoin:round;stroke-opacity:1"
       inkscape:connector-curvature="0"
       id="path1156"
       d="m 375.54784,253.26362 -4.5,0" />
    <path
       style="fill:#008400;fill-opacity:0;stroke:#008400;stroke-width:0.53999943;stroke-linecap:round;stroke-linejoin:round;stroke-opacity:1"
       inkscape:connector-curvature="0"
       id="path1158"
       d="m 344.04787,253.26362 -4.49999,0" />
  </g>
</svg>
