<?xml version="1.0" encoding="UTF-8" standalone="no"?>
<!-- Created with Inkscape (http://www.inkscape.org/) -->

<svg
   xmlns:dc="http://purl.org/dc/elements/1.1/"
   xmlns:cc="http://creativecommons.org/ns#"
   xmlns:rdf="http://www.w3.org/1999/02/22-rdf-syntax-ns#"
   xmlns:svg="http://www.w3.org/2000/svg"
   xmlns="http://www.w3.org/2000/svg"
   xmlns:sodipodi="http://sodipodi.sourceforge.net/DTD/sodipodi-0.dtd"
   xmlns:inkscape="http://www.inkscape.org/namespaces/inkscape"
   width="22.555176mm"
   height="15.338194mm"
   viewBox="0 0 79.919914 54.347931"
   id="svg5836"
   version="1.1"
   inkscape:version="0.91 r13725"
   sodipodi:docname="RParallel.svg">
  <defs
     id="defs5838" />
  <sodipodi:namedview
     id="base"
     pagecolor="#ffffff"
     bordercolor="#666666"
     borderopacity="1.0"
     inkscape:pageopacity="0.0"
     inkscape:pageshadow="2"
     inkscape:zoom="1.979899"
     inkscape:cx="-103.79953"
     inkscape:cy="4.4786783"
     inkscape:document-units="px"
     inkscape:current-layer="layer1"
     showgrid="false"
     inkscape:window-width="1855"
     inkscape:window-height="1056"
     inkscape:window-x="65"
     inkscape:window-y="24"
     inkscape:window-maximized="1"
     fit-margin-top="0"
     fit-margin-left="0"
     fit-margin-right="0"
     fit-margin-bottom="0" />
  <metadata
     id="metadata5841">
    <rdf:RDF>
      <cc:Work
         rdf:about="">
        <dc:format>image/svg+xml</dc:format>
        <dc:type
           rdf:resource="http://purl.org/dc/dcmitype/StillImage" />
        <dc:title></dc:title>
      </cc:Work>
    </rdf:RDF>
  </metadata>
  <g
     inkscape:label="Layer 1"
     inkscape:groupmode="layer"
     id="layer1"
     transform="translate(-132.41523,-674.4885)">
    <g
       transform="matrix(0.00899999,0,0,0.00899999,70.855299,470.53672)"
       style="fill:#840000;fill-opacity:0;stroke:#840000;stroke-width:60;stroke-linecap:round;stroke-linejoin:round;stroke-opacity:1"
       id="g202">
      <path
         inkscape:connector-curvature="0"
         d="m 7260,24770 0,-600 230,0 60,30 30,30 30,60 0,80 -30,60 -30,30 -60,30 -230,0"
         id="path204" />
      <path
         inkscape:connector-curvature="0"
         d="m 8210,24710 -30,30 -90,30 -60,0 -80,-30 -60,-50 -30,-60 -30,-120 0,-80 30,-120 30,-50 60,-60 80,-30 60,0 90,30 30,30"
         id="path206" />
      <path
         inkscape:connector-curvature="0"
         d="m 8430,24740 90,30 140,0 60,-30 30,-30 30,-50 0,-60 -30,-60 -30,-30 -60,-20 -110,-30 -60,-30 -30,-30 -30,-60 0,-50 30,-60 30,-30 60,-30 140,0 90,30"
         id="path208" />
    </g>
    <g
       transform="matrix(0.00899999,0,0,0.00899999,70.855299,470.53672)"
       style="fill:#840000;fill-opacity:0;stroke:#840000;stroke-width:100;stroke-linecap:round;stroke-linejoin:round;stroke-opacity:1"
       id="g210">
      <polyline
         fill="none;"
         points="9250,24500 8950,23960 6890,23960 6890,24500 6890,25040 8950,25040 9250,24500 "
         id="polyline212" />
    </g>
    <g
       transform="matrix(0.00899999,0,0,0.00899999,70.855299,470.53672)"
       style="fill:#840000;fill-opacity:0;stroke:#840000;stroke-width:60;stroke-linecap:round;stroke-linejoin:round;stroke-opacity:1"
       id="g214">
      <path
         inkscape:connector-curvature="0"
         d="m 14100,24710 -30,30 -90,30 -60,0 -80,-30 -60,-50 -30,-60 -30,-120 0,-80 30,-120 30,-50 60,-60 80,-30 60,0 90,30 30,30"
         id="path216" />
      <path
         inkscape:connector-curvature="0"
         d="m 14350,24770 0,-600"
         id="path218" />
      <path
         inkscape:connector-curvature="0"
         d="m 14350,24460 350,0"
         id="path220" />
      <path
         inkscape:connector-curvature="0"
         d="m 14700,24770 0,-600"
         id="path222" />
      <path
         inkscape:connector-curvature="0"
         d="m 15300,24770 -350,0"
         id="path224" />
      <path
         inkscape:connector-curvature="0"
         d="m 15130,24770 0,-600 -60,90 -60,50 -60,30"
         id="path226" />
    </g>
    <g
       transform="matrix(0.00899999,0,0,0.00899999,70.855299,470.53672)"
       style="fill:#840000;fill-opacity:0;stroke:#840000;stroke-width:100;stroke-linecap:round;stroke-linejoin:round;stroke-opacity:1"
       id="g228">
      <polyline
         fill="none;"
         points="13250,24500 13550,25040 15640,25040 15640,24500 15640,23960 13550,23960 13250,24500 "
         id="polyline230" />
    </g>
    <g
       transform="matrix(0.00899999,0,0,0.00899999,70.855299,470.53672)"
       style="fill:#840000;fill-opacity:0;stroke:#840000;stroke-width:60;stroke-linecap:round;stroke-linejoin:round;stroke-opacity:1"
       id="g232">
      <path
         inkscape:connector-curvature="0"
         d="m 14070,26950 -60,-30 -90,0 -80,30 -60,60 -30,50 -30,120 0,80 30,120 30,60 60,50 80,30 60,0 90,-30 30,-30 0,-200 -120,0"
         id="path234" />
      <path
         inkscape:connector-curvature="0"
         d="m 14350,27520 0,-600 350,600 0,-600"
         id="path236" />
      <path
         inkscape:connector-curvature="0"
         d="m 14980,27520 0,-600 150,0 80,30 60,60 30,50 30,120 0,80 -30,120 -30,60 -60,50 -80,30 -150,0"
         id="path238" />
    </g>
    <g
       transform="matrix(0.00899999,0,0,0.00899999,70.855299,470.53672)"
       style="fill:#840000;fill-opacity:0;stroke:#840000;stroke-width:100;stroke-linecap:round;stroke-linejoin:round;stroke-opacity:1"
       id="g240">
      <polyline
         fill="none;"
         points="13250,27250 13550,27790 15670,27790 15670,27250 15670,26710 13550,26710 13250,27250 "
         id="polyline242" />
    </g>
    <g
       transform="matrix(0.00899999,0,0,0.00899999,70.855299,470.53672)"
       style="fill:#840000;fill-opacity:0;stroke:#840000;stroke-width:100;stroke-linecap:round;stroke-linejoin:round;stroke-opacity:1"
       id="g246">
      <rect
         x="10250"
         y="27850"
         width="2000"
         height="800"
         rx="0"
         id="rect248" />
    </g>
    <g
       transform="matrix(0.00899999,0,0,0.00899999,70.855299,470.53672)"
       style="fill:#840000;fill-opacity:0;stroke:#840000;stroke-width:60;stroke-linecap:round;stroke-linejoin:round;stroke-opacity:1"
       id="g250">
      <path
         inkscape:connector-curvature="0"
         d="m 12250,28250 500,0"
         id="path252" />
      <path
         inkscape:connector-curvature="0"
         d="m 10250,28250 -500,0"
         id="path254" />
    </g>
    <g
       transform="matrix(0.00899999,0,0,0.00899999,70.855299,470.53672)"
       style="fill:#008484;fill-opacity:0;stroke:#008484;stroke-width:60;stroke-linecap:round;stroke-linejoin:round;stroke-opacity:1"
       id="g256">
      <path
         inkscape:connector-curvature="0"
         d="m 10660,28450 -280,0"
         id="path258" />
      <path
         inkscape:connector-curvature="0"
         d="m 10520,28450 0,-500 -50,70 -50,50 -40,20"
         id="path260" />
      <path
         inkscape:connector-curvature="0"
         d="m 10970,27950 50,0 50,20 20,20 30,50 20,100 0,120 -20,90 -30,50 -20,20 -50,30 -50,0 -40,-30 -30,-20 -20,-50 -20,-90 0,-120 20,-100 20,-50 30,-20 40,-20"
         id="path262" />
      <path
         inkscape:connector-curvature="0"
         d="m 11450,27950 50,0 50,20 20,20 30,50 20,100 0,120 -20,90 -30,50 -20,20 -50,30 -50,0 -40,-30 -30,-20 -20,-50 -20,-90 0,-120 20,-100 20,-50 30,-20 40,-20"
         id="path264" />
      <path
         inkscape:connector-curvature="0"
         d="m 12120,28450 -160,-240"
         id="path266" />
      <path
         inkscape:connector-curvature="0"
         d="m 11840,28450 0,-500 190,0 50,20 20,20 20,50 0,70 -20,50 -20,20 -50,30 -190,0"
         id="path268" />
    </g>
    <g
       transform="matrix(0.00899999,0,0,0.00899999,70.855299,470.53672)"
       style="fill:#840000;fill-opacity:0;stroke:#840000;stroke-width:100;stroke-linecap:round;stroke-linejoin:round;stroke-opacity:1"
       id="g274">
      <rect
         x="10250"
         y="26100"
         width="2000"
         height="800"
         rx="0"
         id="rect276" />
    </g>
    <g
       transform="matrix(0.00899999,0,0,0.00899999,70.855299,470.53672)"
       style="fill:#840000;fill-opacity:0;stroke:#840000;stroke-width:60;stroke-linecap:round;stroke-linejoin:round;stroke-opacity:1"
       id="g278">
      <path
         inkscape:connector-curvature="0"
         d="m 10250,26500 -500,0"
         id="path280" />
      <path
         inkscape:connector-curvature="0"
         d="m 12250,26500 500,0"
         id="path282" />
    </g>
    <g
       transform="matrix(0.00899999,0,0,0.00899999,70.855299,470.53672)"
       style="fill:#008484;fill-opacity:0;stroke:#008484;stroke-width:60;stroke-linecap:round;stroke-linejoin:round;stroke-opacity:1"
       id="g284">
      <path
         inkscape:connector-curvature="0"
         d="m 10660,26760 -280,0"
         id="path286" />
      <path
         inkscape:connector-curvature="0"
         d="m 10520,26760 0,-500 -50,70 -50,50 -40,20"
         id="path288" />
      <path
         inkscape:connector-curvature="0"
         d="m 10970,26260 50,0 50,20 20,20 30,50 20,100 0,120 -20,90 -30,50 -20,20 -50,30 -50,0 -40,-30 -30,-20 -20,-50 -20,-90 0,-120 20,-100 20,-50 30,-20 40,-20"
         id="path290" />
      <path
         inkscape:connector-curvature="0"
         d="m 11450,26260 50,0 50,20 20,20 30,50 20,100 0,120 -20,90 -30,50 -20,20 -50,30 -50,0 -40,-30 -30,-20 -20,-50 -20,-90 0,-120 20,-100 20,-50 30,-20 40,-20"
         id="path292" />
      <path
         inkscape:connector-curvature="0"
         d="m 12120,26760 -160,-240"
         id="path294" />
      <path
         inkscape:connector-curvature="0"
         d="m 11840,26760 0,-500 190,0 50,20 20,20 20,50 0,70 -20,50 -20,20 -50,30 -190,0"
         id="path296" />
    </g>
    <g
       transform="matrix(0.00899999,0,0,0.00899999,58.228392,410.43264)"
       style="fill:#0000c2;fill-opacity:0;stroke:#0000c2;stroke-width:60;stroke-linecap:round;stroke-linejoin:round;stroke-opacity:1"
       id="g298">
      <path
         inkscape:connector-curvature="0"
         d="m 10240,29970 -200,-280"
         id="path328" />
      <path
         inkscape:connector-curvature="0"
         d="m 9890,29970 0,-600 230,0 60,30 30,30 30,60 0,80 -30,60 -30,30 -60,30 -230,0"
         id="path330" />
      <path
         inkscape:connector-curvature="0"
         d="m 10950,29970 0,-400"
         id="path332" />
      <path
         inkscape:connector-curvature="0"
         d="m 10950,29370 -30,30 30,30 30,-30 -30,-30 0,60"
         id="path334" />
      <path
         inkscape:connector-curvature="0"
         d="m 11240,29570 0,400"
         id="path336" />
      <path
         inkscape:connector-curvature="0"
         d="m 11240,29630 30,-30 60,-30 80,0 60,30 30,60 0,310"
         id="path338" />
      <path
         inkscape:connector-curvature="0"
         d="m 12240,29570 0,600"
         id="path340" />
      <path
         inkscape:connector-curvature="0"
         d="m 12240,29600 60,-30 110,0 60,30 30,30 30,60 0,170 -30,50 -30,30 -60,30 -110,0 -60,-30"
         id="path342" />
      <path
         inkscape:connector-curvature="0"
         d="m 13040,29970 0,-310 -30,-60 -60,-30 -110,0 -60,30"
         id="path344" />
      <path
         inkscape:connector-curvature="0"
         d="m 13040,29940 -60,30 -140,0 -60,-30 -30,-50 0,-60 30,-60 60,-30 140,0 60,-30"
         id="path346" />
      <path
         inkscape:connector-curvature="0"
         d="m 13320,29970 0,-400"
         id="path348" />
      <path
         inkscape:connector-curvature="0"
         d="m 13320,29690 30,-60 30,-30 60,-30 50,0"
         id="path350" />
      <path
         inkscape:connector-curvature="0"
         d="m 13950,29970 0,-310 -30,-60 -60,-30 -110,0 -60,30"
         id="path352" />
      <path
         inkscape:connector-curvature="0"
         d="m 13950,29940 -60,30 -140,0 -60,-30 -30,-50 0,-60 30,-60 60,-30 140,0 60,-30"
         id="path354" />
      <path
         inkscape:connector-curvature="0"
         d="m 14320,29970 -60,-30 -30,-50 0,-520"
         id="path356" />
      <path
         inkscape:connector-curvature="0"
         d="m 14630,29970 -60,-30 -30,-50 0,-520"
         id="path358" />
      <path
         inkscape:connector-curvature="0"
         d="m 15080,29940 -60,30 -110,0 -60,-30 -30,-50 0,-230 30,-60 60,-30 110,0 60,30 30,60 0,50 -290,60"
         id="path360" />
      <path
         inkscape:connector-curvature="0"
         d="m 15450,29970 -60,-30 -30,-50 0,-520"
         id="path362" />
    </g>
    <g
       transform="matrix(0.00899999,0,0,0.00899999,70.855299,470.53672)"
       style="fill:#008400;fill-opacity:0;stroke:#008400;stroke-width:60;stroke-linecap:round;stroke-linejoin:round;stroke-opacity:1"
       id="g952">
      <path
         inkscape:connector-curvature="0"
         d="m 13250,24500 -4000,0"
         id="path968" />
      <path
         inkscape:connector-curvature="0"
         d="m 9250,24500 0,2750"
         id="path970" />
      <path
         inkscape:connector-curvature="0"
         d="m 12750,28250 0,-1750"
         id="path972" />
      <path
         inkscape:connector-curvature="0"
         d="m 13250,27250 -500,0"
         id="path974" />
    </g>
    <g
       transform="matrix(0.00899999,0,0,0.00899999,70.855299,470.53672)"
       style="fill:#008400;fill-opacity:1;stroke:#008400;stroke-width:100;stroke-linecap:round;stroke-linejoin:round;stroke-opacity:1"
       id="g978">
      <circle
         cx="12750"
         cy="27250"
         r="200"
         id="circle980" />
    </g>
    <g
       transform="matrix(0.00899999,0,0,0.00899999,70.855299,470.53672)"
       style="fill:#008400;fill-opacity:0;stroke:#008400;stroke-width:60;stroke-linecap:round;stroke-linejoin:round;stroke-opacity:1"
       id="g984">
      <path
         inkscape:connector-curvature="0"
         d="m 9750,26500 0,1750"
         id="path986" />
      <path
         inkscape:connector-curvature="0"
         d="m 9250,27250 500,0"
         id="path988" />
    </g>
    <g
       transform="matrix(0.00899999,0,0,0.00899999,70.855299,470.53672)"
       style="fill:#008400;fill-opacity:1;stroke:#008400;stroke-width:100;stroke-linecap:round;stroke-linejoin:round;stroke-opacity:1"
       id="g992">
      <circle
         cx="9750"
         cy="27250"
         r="200"
         id="circle994" />
    </g>
  </g>
</svg>
