<?xml version="1.0" encoding="UTF-8" standalone="no"?>
<!-- Created with Inkscape (http://www.inkscape.org/) -->

<svg
   xmlns:dc="http://purl.org/dc/elements/1.1/"
   xmlns:cc="http://creativecommons.org/ns#"
   xmlns:rdf="http://www.w3.org/1999/02/22-rdf-syntax-ns#"
   xmlns:svg="http://www.w3.org/2000/svg"
   xmlns="http://www.w3.org/2000/svg"
   xmlns:sodipodi="http://sodipodi.sourceforge.net/DTD/sodipodi-0.dtd"
   xmlns:inkscape="http://www.inkscape.org/namespaces/inkscape"
   width="22.555176mm"
   height="12.522186mm"
   viewBox="0 0 79.919914 44.369951"
   id="svg5836"
   version="1.1"
   inkscape:version="0.91 r13725"
   sodipodi:docname="RSeries.svg">
  <defs
     id="defs5838" />
  <sodipodi:namedview
     id="base"
     pagecolor="#ffffff"
     bordercolor="#666666"
     borderopacity="1.0"
     inkscape:pageopacity="0.0"
     inkscape:pageshadow="2"
     inkscape:zoom="1.4"
     inkscape:cx="110.07436"
     inkscape:cy="-28.346561"
     inkscape:document-units="px"
     inkscape:current-layer="g298"
     showgrid="false"
     fit-margin-top="0"
     fit-margin-left="0"
     fit-margin-right="0"
     fit-margin-bottom="0"
     inkscape:window-width="1855"
     inkscape:window-height="1056"
     inkscape:window-x="65"
     inkscape:window-y="24"
     inkscape:window-maximized="1" />
  <metadata
     id="metadata5841">
    <rdf:RDF>
      <cc:Work
         rdf:about="">
        <dc:format>image/svg+xml</dc:format>
        <dc:type
           rdf:resource="http://purl.org/dc/dcmitype/StillImage" />
        <dc:title></dc:title>
      </cc:Work>
    </rdf:RDF>
  </metadata>
  <g
     inkscape:label="Layer 1"
     inkscape:groupmode="layer"
     id="layer1"
     transform="translate(-132.41523,-620.47655)">
    <g
       transform="matrix(0.00899999,0,0,0.00899999,70.855299,470.53672)"
       style="fill:#840000;fill-opacity:0;stroke:#840000;stroke-width:60;stroke-linecap:round;stroke-linejoin:round;stroke-opacity:1"
       id="g106">
      <path
         inkscape:connector-curvature="0"
         d="m 7260,17520 0,-600 230,0 60,30 30,30 30,60 0,80 -30,60 -30,30 -60,30 -230,0"
         id="path108" />
      <path
         inkscape:connector-curvature="0"
         d="m 8210,17460 -30,30 -90,30 -60,0 -80,-30 -60,-50 -30,-60 -30,-120 0,-80 30,-120 30,-50 60,-60 80,-30 60,0 90,30 30,30"
         id="path110" />
      <path
         inkscape:connector-curvature="0"
         d="m 8430,17490 90,30 140,0 60,-30 30,-30 30,-50 0,-60 -30,-60 -30,-30 -60,-20 -110,-30 -60,-30 -30,-30 -30,-60 0,-50 30,-60 30,-30 60,-30 140,0 90,30"
         id="path112" />
    </g>
    <g
       transform="matrix(0.00899999,0,0,0.00899999,70.855299,470.53672)"
       style="fill:#840000;fill-opacity:0;stroke:#840000;stroke-width:100;stroke-linecap:round;stroke-linejoin:round;stroke-opacity:1"
       id="g114">
      <polyline
         fill="none;"
         points="9250,17250 8950,16710 6890,16710 6890,17250 6890,17790 8950,17790 9250,17250 "
         id="polyline116" />
    </g>
    <g
       transform="matrix(0.00899999,0,0,0.00899999,70.855299,470.53672)"
       style="fill:#840000;fill-opacity:0;stroke:#840000;stroke-width:60;stroke-linecap:round;stroke-linejoin:round;stroke-opacity:1"
       id="g118">
      <path
         inkscape:connector-curvature="0"
         d="m 14100,17460 -30,30 -90,30 -60,0 -80,-30 -60,-50 -30,-60 -30,-120 0,-80 30,-120 30,-50 60,-60 80,-30 60,0 90,30 30,30"
         id="path120" />
      <path
         inkscape:connector-curvature="0"
         d="m 14350,17520 0,-600"
         id="path122" />
      <path
         inkscape:connector-curvature="0"
         d="m 14350,17210 350,0"
         id="path124" />
      <path
         inkscape:connector-curvature="0"
         d="m 14700,17520 0,-600"
         id="path126" />
      <path
         inkscape:connector-curvature="0"
         d="m 15300,17520 -350,0"
         id="path128" />
      <path
         inkscape:connector-curvature="0"
         d="m 15130,17520 0,-600 -60,90 -60,50 -60,30"
         id="path130" />
    </g>
    <g
       transform="matrix(0.00899999,0,0,0.00899999,70.855299,470.53672)"
       style="fill:#840000;fill-opacity:0;stroke:#840000;stroke-width:100;stroke-linecap:round;stroke-linejoin:round;stroke-opacity:1"
       id="g132">
      <polyline
         fill="none;"
         points="13250,17250 13550,17790 15640,17790 15640,17250 15640,16710 13550,16710 13250,17250 "
         id="polyline134" />
    </g>
    <g
       transform="matrix(0.00899999,0,0,0.00899999,70.855299,470.53672)"
       style="fill:#840000;fill-opacity:0;stroke:#840000;stroke-width:60;stroke-linecap:round;stroke-linejoin:round;stroke-opacity:1"
       id="g136">
      <path
         inkscape:connector-curvature="0"
         d="m 14070,20700 -60,-30 -90,0 -80,30 -60,60 -30,50 -30,120 0,80 30,120 30,60 60,50 80,30 60,0 90,-30 30,-30 0,-200 -120,0"
         id="path138" />
      <path
         inkscape:connector-curvature="0"
         d="m 14350,21270 0,-600 350,600 0,-600"
         id="path140" />
      <path
         inkscape:connector-curvature="0"
         d="m 14980,21270 0,-600 150,0 80,30 60,60 30,50 30,120 0,80 -30,120 -30,60 -60,50 -80,30 -150,0"
         id="path142" />
    </g>
    <g
       transform="matrix(0.00899999,0,0,0.00899999,70.855299,470.53672)"
       style="fill:#840000;fill-opacity:0;stroke:#840000;stroke-width:100;stroke-linecap:round;stroke-linejoin:round;stroke-opacity:1"
       id="g144">
      <polyline
         fill="none;"
         points="13250,21000 13550,21540 15670,21540 15670,21000 15670,20460 13550,20460 13250,21000 "
         id="polyline146" />
    </g>
    <g
       transform="matrix(0.00899999,0,0,0.00899999,70.855299,470.53672)"
       style="fill:#840000;fill-opacity:0;stroke:#840000;stroke-width:100;stroke-linecap:round;stroke-linejoin:round;stroke-opacity:1"
       id="g150">
      <rect
         x="10250"
         y="20600"
         width="2000"
         height="800"
         rx="0"
         id="rect152" />
    </g>
    <g
       transform="matrix(0.00899999,0,0,0.00899999,70.855299,470.53672)"
       style="fill:#840000;fill-opacity:0;stroke:#840000;stroke-width:60;stroke-linecap:round;stroke-linejoin:round;stroke-opacity:1"
       id="g154">
      <path
         inkscape:connector-curvature="0"
         d="m 12250,21000 500,0"
         id="path156" />
      <path
         inkscape:connector-curvature="0"
         d="m 10250,21000 -500,0"
         id="path158" />
    </g>
    <g
       transform="matrix(0.00899999,0,0,0.00899999,70.855299,470.53672)"
       style="fill:#008484;fill-opacity:0;stroke:#008484;stroke-width:60;stroke-linecap:round;stroke-linejoin:round;stroke-opacity:1"
       id="g160">
      <path
         inkscape:connector-curvature="0"
         d="m 10660,21200 -280,0"
         id="path162" />
      <path
         inkscape:connector-curvature="0"
         d="m 10520,21200 0,-500 -50,70 -50,50 -40,20"
         id="path164" />
      <path
         inkscape:connector-curvature="0"
         d="m 10970,20700 50,0 50,20 20,20 30,50 20,100 0,120 -20,90 -30,50 -20,20 -50,30 -50,0 -40,-30 -30,-20 -20,-50 -20,-90 0,-120 20,-100 20,-50 30,-20 40,-20"
         id="path166" />
      <path
         inkscape:connector-curvature="0"
         d="m 11450,20700 50,0 50,20 20,20 30,50 20,100 0,120 -20,90 -30,50 -20,20 -50,30 -50,0 -40,-30 -30,-20 -20,-50 -20,-90 0,-120 20,-100 20,-50 30,-20 40,-20"
         id="path168" />
      <path
         inkscape:connector-curvature="0"
         d="m 12120,21200 -160,-240"
         id="path170" />
      <path
         inkscape:connector-curvature="0"
         d="m 11840,21200 0,-500 190,0 50,20 20,20 20,50 0,70 -20,50 -20,20 -50,30 -190,0"
         id="path172" />
    </g>
    <g
       transform="matrix(0.00899999,0,0,0.00899999,70.855299,470.53672)"
       style="fill:#840000;fill-opacity:0;stroke:#840000;stroke-width:100;stroke-linecap:round;stroke-linejoin:round;stroke-opacity:1"
       id="g178">
      <rect
         x="8850"
         y="18500"
         width="800"
         height="2000"
         rx="0"
         id="rect180" />
    </g>
    <g
       transform="matrix(0.00899999,0,0,0.00899999,70.855299,470.53672)"
       style="fill:#840000;fill-opacity:0;stroke:#840000;stroke-width:60;stroke-linecap:round;stroke-linejoin:round;stroke-opacity:1"
       id="g182">
      <path
         inkscape:connector-curvature="0"
         d="m 9250,20500 0,500"
         id="path184" />
      <path
         inkscape:connector-curvature="0"
         d="m 9250,18500 0,-500"
         id="path186" />
    </g>
    <g
       transform="matrix(0.00899999,0,0,0.00899999,70.855299,470.53672)"
       style="fill:#008484;fill-opacity:0;stroke:#008484;stroke-width:60;stroke-linecap:round;stroke-linejoin:round;stroke-opacity:1"
       id="g188">
      <path
         inkscape:connector-curvature="0"
         d="m 9510,20090 0,280"
         id="path190" />
      <path
         inkscape:connector-curvature="0"
         d="m 9510,20230 -500,0 70,50 50,50 20,40"
         id="path192" />
      <path
         inkscape:connector-curvature="0"
         d="m 9010,19780 0,-50 20,-50 20,-20 50,-30 100,-20 120,0 90,20 50,30 20,20 30,50 0,50 -30,40 -20,30 -50,20 -90,20 -120,0 -100,-20 -50,-20 -20,-30 -20,-40"
         id="path194" />
      <path
         inkscape:connector-curvature="0"
         d="m 9010,19300 0,-50 20,-50 20,-20 50,-30 100,-20 120,0 90,20 50,30 20,20 30,50 0,50 -30,40 -20,30 -50,20 -90,20 -120,0 -100,-20 -50,-20 -20,-30 -20,-40"
         id="path196" />
      <path
         inkscape:connector-curvature="0"
         d="m 9510,18630 -240,160"
         id="path198" />
      <path
         inkscape:connector-curvature="0"
         d="m 9510,18910 -500,0 0,-190 20,-50 20,-20 50,-20 70,0 50,20 20,20 30,50 0,190"
         id="path200" />
    </g>
    <g
       transform="matrix(0.00899999,0,0,0.00899999,70.855299,470.53672)"
       style="fill:#0000c2;fill-opacity:0;stroke:#0000c2;stroke-width:60;stroke-linecap:round;stroke-linejoin:round;stroke-opacity:1"
       id="g298">
      <path
         inkscape:connector-curvature="0"
         d="m 10740,19470 -200,-280"
         id="path300" />
      <path
         inkscape:connector-curvature="0"
         d="m 10390,19470 0,-600 230,0 60,30 30,30 30,60 0,80 -30,60 -30,30 -60,30 -230,0"
         id="path302" />
      <path
         inkscape:connector-curvature="0"
         d="m 11450,19470 0,-400"
         id="path304" />
      <path
         inkscape:connector-curvature="0"
         d="m 11450,18870 -30,30 30,30 30,-30 -30,-30 0,60"
         id="path306" />
      <path
         inkscape:connector-curvature="0"
         d="m 11740,19070 0,400"
         id="path308" />
      <path
         inkscape:connector-curvature="0"
         d="m 11740,19130 30,-30 60,-30 80,0 60,30 30,60 0,310"
         id="path310" />
      <path
         inkscape:connector-curvature="0"
         d="m 12710,19440 60,30 120,0 50,-30 30,-50 0,-30 -30,-60 -50,-30 -90,0 -60,-30 -30,-50 0,-30 30,-60 60,-30 90,0 50,30"
         id="path312" />
      <path
         inkscape:connector-curvature="0"
         d="m 13460,19440 -60,30 -110,0 -60,-30 -30,-50 0,-230 30,-60 60,-30 110,0 60,30 30,60 0,50 -290,60"
         id="path314" />
      <path
         inkscape:connector-curvature="0"
         d="m 13740,19470 0,-400"
         id="path316" />
      <path
         inkscape:connector-curvature="0"
         d="m 13740,19190 30,-60 30,-30 60,-30 50,0"
         id="path318" />
      <path
         inkscape:connector-curvature="0"
         d="m 14110,19470 0,-400"
         id="path320" />
      <path
         inkscape:connector-curvature="0"
         d="m 14110,18870 -30,30 30,30 30,-30 -30,-30 0,60"
         id="path322" />
      <path
         inkscape:connector-curvature="0"
         d="m 14630,19440 -60,30 -110,0 -60,-30 -30,-50 0,-230 30,-60 60,-30 110,0 60,30 30,60 0,50 -290,60"
         id="path324" />
      <path
         inkscape:connector-curvature="0"
         d="m 14880,19440 60,30 120,0 50,-30 30,-50 0,-30 -30,-60 -50,-30 -90,0 -60,-30 -30,-50 0,-30 30,-60 60,-30 90,0 50,30"
         id="path326" />
    </g>
    <g
       transform="matrix(0.00899999,0,0,0.00899999,70.855299,470.53672)"
       style="fill:#008400;fill-opacity:0;stroke:#008400;stroke-width:60;stroke-linecap:round;stroke-linejoin:round;stroke-opacity:1"
       id="g952">
      <path
         inkscape:connector-curvature="0"
         d="m 13250,17250 -4000,0"
         id="path960" />
      <path
         inkscape:connector-curvature="0"
         d="m 9250,17250 0,750"
         id="path962" />
      <path
         inkscape:connector-curvature="0"
         d="m 9750,21000 -500,0"
         id="path964" />
      <path
         inkscape:connector-curvature="0"
         d="m 13250,21000 -500,0"
         id="path966" />
    </g>
  </g>
</svg>
