<?xml version="1.0" encoding="UTF-8" standalone="no"?>
<svg
   xmlns:dc="http://purl.org/dc/elements/1.1/"
   xmlns:cc="http://creativecommons.org/ns#"
   xmlns:rdf="http://www.w3.org/1999/02/22-rdf-syntax-ns#"
   xmlns:svg="http://www.w3.org/2000/svg"
   xmlns="http://www.w3.org/2000/svg"
   xmlns:sodipodi="http://sodipodi.sourceforge.net/DTD/sodipodi-0.dtd"
   xmlns:inkscape="http://www.inkscape.org/namespaces/inkscape"
   version="1.1"
   width="35.001991mm"
   height="30.007mm"
   viewBox="0 0 13780.321 11813.791"
   id="svg684"
   sodipodi:docname="Shunt_Clipper.svg"
   inkscape:version="0.92.3pre0 (f5a6572, 2018-03-03)">
  <metadata
     id="metadata690">
    <rdf:RDF>
      <cc:Work
         rdf:about="">
        <dc:format>image/svg+xml</dc:format>
        <dc:type
           rdf:resource="http://purl.org/dc/dcmitype/StillImage" />
        <dc:title>SVG Picture created as PSLAB.svg date 2018/02/17 17:16:20 </dc:title>
      </cc:Work>
    </rdf:RDF>
  </metadata>
  <defs
     id="defs688" />
  <sodipodi:namedview
     pagecolor="#ffffff"
     bordercolor="#666666"
     borderopacity="1"
     objecttolerance="10"
     gridtolerance="10"
     guidetolerance="10"
     inkscape:pageopacity="0"
     inkscape:pageshadow="2"
     inkscape:window-width="1920"
     inkscape:window-height="986"
     id="namedview686"
     showgrid="false"
     inkscape:zoom="4.7573016"
     inkscape:cx="114.3111"
     inkscape:cy="58.161493"
     inkscape:window-x="-11"
     inkscape:window-y="-11"
     inkscape:window-maximized="1"
     inkscape:current-layer="svg684"
     units="mm" />
  <title
     id="title2">SVG Picture created as PSLAB.svg date 2018/02/17 17:16:20 </title>
  <desc
     id="desc4">Picture generated by Eeschema-SVG </desc>
  <g
     id="g278">
    <path
       d="m 880.363,4616.948 140,600 110,-430 120,430 140,-600"
       id="path540"
       inkscape:connector-curvature="0"
       style="fill:#840000;fill-opacity:0;stroke:#840000;stroke-width:60;stroke-linecap:round;stroke-linejoin:round;stroke-opacity:1" />
    <path
       d="m 1940.363,5216.948 h -350"
       id="path542"
       inkscape:connector-curvature="0"
       style="fill:#840000;fill-opacity:0;stroke:#840000;stroke-width:60;stroke-linecap:round;stroke-linejoin:round;stroke-opacity:1" />
    <path
       d="m 1770.363,5216.948 v -600 l -60,90 -60,50 -60,30"
       id="path544"
       inkscape:connector-curvature="0"
       style="fill:#840000;fill-opacity:0;stroke:#840000;stroke-width:60;stroke-linecap:round;stroke-linejoin:round;stroke-opacity:1" />
    <g
       transform="translate(-21589.637,-12053.052)"
       id="g550"
       style="fill:#840000;fill-opacity:0;stroke:#840000;stroke-width:100;stroke-linecap:round;stroke-linejoin:round;stroke-opacity:1">
      <polyline
         id="polyline548"
         points="24000,17000 23700,16460 22150,16460 22150,17000 22150,17540 23700,17540 24000,17000 "
         fill="none;" />
    </g>
    <g
       transform="translate(-21589.637,-12053.052)"
       id="g556"
       style="fill:#840000;fill-opacity:0;stroke:#840000;stroke-width:100;stroke-linecap:round;stroke-linejoin:round;stroke-opacity:1">
      <rect
         id="rect554"
         rx="0"
         height="800"
         width="2000"
         y="16600"
         x="26000" />
    </g>
    <g
       transform="translate(-21589.637,-12053.052)"
       id="g562"
       style="fill:#840000;fill-opacity:0;stroke:#840000;stroke-width:60;stroke-linecap:round;stroke-linejoin:round;stroke-opacity:1">
      <path
         id="path558"
         d="m 26000,17000 h -500"
         inkscape:connector-curvature="0" />
      <path
         id="path560"
         d="m 28000,17000 h 500"
         inkscape:connector-curvature="0" />
    </g>
    <g
       transform="translate(-11736.355,-678.78173)"
       id="g218">
      <path
         style="fill:#008484;fill-opacity:0;stroke:#008484;stroke-width:60;stroke-linecap:round;stroke-linejoin:round;stroke-opacity:1"
         id="path564"
         d="m 16799.472,5413.473 h -240 l -20,230 20,-20 50,-20 h 120 l 40,20 30,20 20,50 v 120 l -20,50 -30,20 -40,30 h -120 l -50,-30 -20,-20"
         inkscape:connector-curvature="0" />
      <path
         style="fill:#008484;fill-opacity:0;stroke:#008484;stroke-width:60;stroke-linecap:round;stroke-linejoin:round;stroke-opacity:1"
         id="path566"
         d="m 17129.472,5413.473 h 50 l 50,20 20,20 30,50 20,100 v 120 l -20,90 -30,50 -20,20 -50,30 h -50 l -40,-30 -30,-20 -20,-50 -20,-90 v -120 l 20,-100 20,-50 30,-20 40,-20"
         inkscape:connector-curvature="0" />
      <path
         style="fill:#008484;fill-opacity:0;stroke:#008484;stroke-width:60;stroke-linecap:round;stroke-linejoin:round;stroke-opacity:1"
         id="path568"
         d="m 17609.472,5413.473 h 50 l 50,20 20,20 30,50 20,100 v 120 l -20,90 -30,50 -20,20 -50,30 h -50 l -40,-30 -30,-20 -20,-50 -20,-90 v -120 l 20,-100 20,-50 30,-20 40,-20"
         inkscape:connector-curvature="0" />
      <path
         style="fill:#008484;fill-opacity:0;stroke:#008484;stroke-width:60;stroke-linecap:round;stroke-linejoin:round;stroke-opacity:1"
         id="path574"
         d="m 17559.472,6713.473 -160,-240"
         inkscape:connector-curvature="0" />
      <path
         style="fill:#008484;fill-opacity:0;stroke:#008484;stroke-width:60;stroke-linecap:round;stroke-linejoin:round;stroke-opacity:1"
         id="path576"
         d="m 17279.472,6713.473 v -500 h 190 l 50,20 20,20 20,50 v 70 l -20,50 -20,20 -50,30 h -190"
         inkscape:connector-curvature="0" />
    </g>
    <g
       transform="translate(-21589.637,-12053.052)"
       id="g590"
       style="fill:#840000;fill-opacity:0;stroke:#840000;stroke-width:60;stroke-linecap:round;stroke-linejoin:round;stroke-opacity:1">
      <path
         id="path580"
         d="m 33350,17210 -30,30 -90,30 h -60 l -80,-30 -60,-50 -30,-60 -30,-120 v -80 l 30,-120 30,-50 60,-60 80,-30 h 60 l 90,30 30,30"
         inkscape:connector-curvature="0" />
      <path
         id="path582"
         d="m 33600,17270 v -600"
         inkscape:connector-curvature="0" />
      <path
         id="path584"
         d="m 33600,16960 h 350"
         inkscape:connector-curvature="0" />
      <path
         id="path586"
         d="m 33950,17270 v -600"
         inkscape:connector-curvature="0" />
      <path
         id="path588"
         d="m 34200,16730 30,-30 60,-30 h 140 l 60,30 30,30 30,60 v 50 l -30,90 -340,340 h 370"
         inkscape:connector-curvature="0" />
    </g>
    <g
       transform="translate(-21589.637,-12053.052)"
       id="g594"
       style="fill:#840000;fill-opacity:0;stroke:#840000;stroke-width:100;stroke-linecap:round;stroke-linejoin:round;stroke-opacity:1">
      <polyline
         id="polyline592"
         points="32500,17000 32800,17540 34890,17540 34890,17000 34890,16460 32800,16460 32500,17000 "
         fill="none;" />
    </g>
    <g
       transform="translate(-21589.637,-12053.052)"
       id="g608"
       style="fill:#840000;fill-opacity:0;stroke:#840000;stroke-width:60;stroke-linecap:round;stroke-linejoin:round;stroke-opacity:1">
      <path
         id="path596"
         d="m 25210,14650 30,30 30,90 v 60 l -30,80 -50,60 -60,30 -120,30 h -80 l -120,-30 -50,-30 -60,-60 -30,-80 v -60 l 30,-90 30,-30"
         inkscape:connector-curvature="0" />
      <path
         id="path598"
         d="m 25270,14400 h -600"
         inkscape:connector-curvature="0" />
      <path
         id="path600"
         d="m 24960,14400 v -350"
         inkscape:connector-curvature="0" />
      <path
         id="path602"
         d="m 25270,14050 h -600"
         inkscape:connector-curvature="0" />
      <path
         id="path604"
         d="m 25270,13450 v 350"
         inkscape:connector-curvature="0" />
      <path
         id="path606"
         d="m 25270,13620 h -600 l 90,60 50,60 30,60"
         inkscape:connector-curvature="0" />
    </g>
    <g
       transform="translate(-21589.637,-12053.052)"
       id="g612"
       style="fill:#840000;fill-opacity:0;stroke:#840000;stroke-width:100;stroke-linecap:round;stroke-linejoin:round;stroke-opacity:1">
      <polyline
         id="polyline610"
         points="25000,15500 25540,15200 25540,13110 25000,13110 24460,13110 24460,15200 25000,15500 "
         fill="none;" />
    </g>
    <g
       transform="translate(-21589.637,-12053.052)"
       id="g618"
       style="fill:#840000;fill-opacity:0;stroke:#840000;stroke-width:80;stroke-linecap:round;stroke-linejoin:round;stroke-opacity:1">
      <polyline
         id="polyline616"
         points="29500,18000 28500,18000 "
         fill="none;" />
    </g>
    <g
       transform="translate(-21589.637,-12053.052)"
       id="g622"
       style="fill:#840000;fill-opacity:0;stroke:#840000;stroke-width:60;stroke-linecap:round;stroke-linejoin:round;stroke-opacity:1">
      <polyline
         id="polyline620"
         points="29000,19000 29000,18000 "
         fill="none;" />
    </g>
    <g
       transform="translate(-21589.637,-12053.052)"
       id="g626"
       style="fill:#840000;fill-opacity:0;stroke:#840000;stroke-width:80;stroke-linecap:round;stroke-linejoin:round;stroke-opacity:1">
      <polyline
         id="polyline624"
         points="29500,19000 28500,19000 29000,18000 29500,19000 "
         fill="none;" />
    </g>
    <g
       transform="translate(-21589.637,-12053.052)"
       id="g632"
       style="fill:#840000;fill-opacity:0;stroke:#840000;stroke-width:60;stroke-linecap:round;stroke-linejoin:round;stroke-opacity:1">
      <path
         id="path628"
         d="M 29000,18000 V 17000"
         inkscape:connector-curvature="0" />
      <path
         id="path630"
         d="m 29000,19000 v 1000"
         inkscape:connector-curvature="0" />
    </g>
    <path
       inkscape:connector-curvature="0"
       d="m 8600.363,6576.948 h -500 v -120 l 20,-70 50,-50 50,-20 90,-20 h 70 l 100,20 40,20 50,50 30,70 v 120"
       id="path634"
       style="fill:#008484;fill-opacity:0;stroke:#008484;stroke-width:60;stroke-linecap:round;stroke-linejoin:round;stroke-opacity:1" />
    <g
       transform="translate(-21589.637,-12053.052)"
       id="g652"
       style="fill:#840000;fill-opacity:0;stroke:#840000;stroke-width:60;stroke-linecap:round;stroke-linejoin:round;stroke-opacity:1">
      <path
         id="path646"
         d="m 29270,21900 h -600 v -230 l 30,-60 30,-30 60,-30 h 80 l 60,30 30,30 30,60 v 230"
         inkscape:connector-curvature="0" />
      <path
         id="path648"
         d="m 28670,21380 600,-200 -600,-200"
         inkscape:connector-curvature="0" />
      <path
         id="path650"
         d="m 28670,20840 v -370 l 230,200 v -80 l 30,-60 30,-30 50,-30 h 150 l 50,30 30,30 30,60 v 170 l -30,60 -30,20"
         inkscape:connector-curvature="0" />
    </g>
    <g
       transform="translate(-21589.637,-12053.052)"
       id="g656"
       style="fill:#840000;fill-opacity:0;stroke:#840000;stroke-width:100;stroke-linecap:round;stroke-linejoin:round;stroke-opacity:1">
      <polyline
         id="polyline654"
         points="29000,20000 28460,20300 28460,22270 29000,22270 29540,22270 29540,20300 29000,20000 "
         fill="none;" />
    </g>
    <g
       transform="translate(-21589.637,-12053.052)"
       id="g664"
       style="fill:#008400;fill-opacity:0;stroke:#008400;stroke-width:60;stroke-linecap:round;stroke-linejoin:round;stroke-opacity:1">
      <path
         id="path660"
         d="m 28500,17000 h 4000"
         inkscape:connector-curvature="0" />
      <path
         id="path662"
         d="m 25000,15500 v 1500"
         inkscape:connector-curvature="0" />
    </g>
    <g
       transform="translate(-21589.637,-12053.052)"
       id="g670"
       style="fill:#008400;fill-opacity:1;stroke:#008400;stroke-width:100;stroke-linecap:round;stroke-linejoin:round;stroke-opacity:1">
      <circle
         id="circle668"
         r="200"
         cy="17000"
         cx="25000" />
    </g>
    <g
       transform="translate(-21589.637,-12053.052)"
       id="g676"
       style="fill:#008400;fill-opacity:1;stroke:#008400;stroke-width:100;stroke-linecap:round;stroke-linejoin:round;stroke-opacity:1">
      <circle
         id="circle674"
         r="200"
         cy="17000"
         cx="29000" />
    </g>
    <g
       transform="translate(-21589.637,-12053.052)"
       id="g682"
       style="fill:#008400;fill-opacity:0;stroke:#008400;stroke-width:60;stroke-linecap:round;stroke-linejoin:round;stroke-opacity:1">
      <path
         id="path680"
         d="m 24000,17000 h 1500"
         inkscape:connector-curvature="0" />
    </g>
  </g>
</svg>
