<?xml version="1.0" encoding="UTF-8" standalone="no"?>
<!-- Created with Inkscape (http://www.inkscape.org/) -->

<svg
   xmlns:dc="http://purl.org/dc/elements/1.1/"
   xmlns:cc="http://creativecommons.org/ns#"
   xmlns:rdf="http://www.w3.org/1999/02/22-rdf-syntax-ns#"
   xmlns:svg="http://www.w3.org/2000/svg"
   xmlns="http://www.w3.org/2000/svg"
   xmlns:sodipodi="http://sodipodi.sourceforge.net/DTD/sodipodi-0.dtd"
   xmlns:inkscape="http://www.inkscape.org/namespaces/inkscape"
   width="49.199741mm"
   height="40.399124mm"
   viewBox="0 0 174.3298 143.14651"
   id="svg9831"
   version="1.1"
   inkscape:version="0.91 r13725"
   sodipodi:docname="soundBeats.svg">
  <defs
     id="defs9833" />
  <sodipodi:namedview
     id="base"
     pagecolor="#ffffff"
     bordercolor="#666666"
     borderopacity="1.0"
     inkscape:pageopacity="0.0"
     inkscape:pageshadow="2"
     inkscape:zoom="2.8"
     inkscape:cx="-46.561051"
     inkscape:cy="66.197815"
     inkscape:document-units="px"
     inkscape:current-layer="layer1"
     showgrid="false"
     fit-margin-top="0"
     fit-margin-left="0"
     fit-margin-right="0"
     fit-margin-bottom="0"
     inkscape:window-width="1855"
     inkscape:window-height="1056"
     inkscape:window-x="65"
     inkscape:window-y="24"
     inkscape:window-maximized="1" />
  <metadata
     id="metadata9836">
    <rdf:RDF>
      <cc:Work
         rdf:about="">
        <dc:format>image/svg+xml</dc:format>
        <dc:type
           rdf:resource="http://purl.org/dc/dcmitype/StillImage" />
        <dc:title />
      </cc:Work>
    </rdf:RDF>
  </metadata>
  <g
     inkscape:label="Layer 1"
     inkscape:groupmode="layer"
     id="layer1"
     transform="translate(-87.547957,-451.86038)">
    <path
       style="fill:#840000;fill-opacity:0;stroke:#840000;stroke-width:0.53999943;stroke-linecap:round;stroke-linejoin:round;stroke-opacity:1"
       inkscape:connector-curvature="0"
       id="path2294"
       d="m 248.82778,469.72703 1.26,5.39999 0.99,-3.86999 1.08,3.86999 1.26,-5.39999" />
    <path
       style="fill:#840000;fill-opacity:0;stroke:#840000;stroke-width:0.53999943;stroke-linecap:round;stroke-linejoin:round;stroke-opacity:1"
       inkscape:connector-curvature="0"
       id="path2296"
       d="m 258.36777,475.12702 -3.15,0" />
    <path
       style="fill:#840000;fill-opacity:0;stroke:#840000;stroke-width:0.53999943;stroke-linecap:round;stroke-linejoin:round;stroke-opacity:1"
       inkscape:connector-curvature="0"
       id="path2298"
       d="m 256.83777,475.12702 0,-5.39999 -0.54,0.81 -0.54,0.45 -0.54,0.27" />
    <polyline
       transform="matrix(0.00899999,0,0,0.00899999,-157.97177,-49.302395)"
       style="fill:#840000;fill-opacity:0;stroke:#840000;stroke-width:100;stroke-linecap:round;stroke-linejoin:round;stroke-opacity:1"
       id="polyline2302"
       points="44750,58000 45050,58540 46600,58540 46600,58000 46600,57460 45050,57460 44750,58000 " />
    <polyline
       transform="matrix(0.00899999,0,0,0.00899999,-157.97177,-49.302395)"
       style="fill:#840000;fill-opacity:0;stroke:#840000;stroke-width:60;stroke-linecap:round;stroke-linejoin:round;stroke-opacity:1"
       id="polyline2308"
       points="40750,60500 39250,62000 39250,56000 40750,57500 " />
    <polyline
       transform="matrix(0.00899999,0,0,0.00899999,-157.97177,-49.302395)"
       id="polyline2312"
       points="42750,60500 40750,60500 40750,57500 42750,57500 42750,60500 "
       style="fill:#840000;fill-opacity:1;fill-rule:evenodd;stroke:#840000;stroke-width:60;stroke-linecap:round;stroke-linejoin:round;stroke-opacity:1" />
    <path
       style="fill:#840000;fill-opacity:0;stroke:#840000;stroke-width:0.53999943;stroke-linecap:round;stroke-linejoin:round;stroke-opacity:1"
       inkscape:connector-curvature="0"
       id="path2316"
       d="m 226.77781,490.69701 17.99998,0" />
    <path
       style="fill:#008484;fill-opacity:0;stroke:#008484;stroke-width:0.53999943;stroke-linecap:round;stroke-linejoin:round;stroke-opacity:1"
       inkscape:connector-curvature="0"
       id="path2320"
       d="m 236.76779,489.61701 -1.97999,0" />
    <path
       style="fill:#008484;fill-opacity:0;stroke:#008484;stroke-width:0.53999943;stroke-linecap:round;stroke-linejoin:round;stroke-opacity:1"
       inkscape:connector-curvature="0"
       id="path2322"
       d="m 235.7778,489.61701 0,-3.6 -0.36,0.54 -0.36,0.36 -0.27,0.18" />
    <path
       style="fill:#840000;fill-opacity:0;stroke:#840000;stroke-width:0.53999943;stroke-linecap:round;stroke-linejoin:round;stroke-opacity:1"
       inkscape:connector-curvature="0"
       id="path2326"
       d="m 226.77781,472.69703 17.99998,0" />
    <path
       style="fill:#008484;fill-opacity:0;stroke:#008484;stroke-width:0.53999943;stroke-linecap:round;stroke-linejoin:round;stroke-opacity:1"
       inkscape:connector-curvature="0"
       id="path2330"
       d="m 234.7878,468.37703 0.18,-0.18 0.27,-0.18 0.89999,0 0.36,0.18 0.18,0.18 0.09,0.36 0,0.36 -0.09,0.45 -2.06999,2.07 2.15999,0" />
    <path
       style="fill:#008484;fill-opacity:0;stroke:#008484;stroke-width:0.53999943;stroke-linecap:round;stroke-linejoin:round;stroke-opacity:1"
       inkscape:connector-curvature="0"
       id="path2332"
       d="m 204.09783,495.647 0.27,-0.63 0,-1.08 -0.27,-0.36 -0.18,-0.27 -0.45,-0.18 -0.45,0 -0.36,0.18 -0.27,0.27 -0.18,0.36 -0.27,0.9 -0.18,0.45 -0.18,0.18 -0.45,0.18 -0.45,0 -0.45,-0.18 -0.18,-0.18 -0.17999,-0.45 0,-1.08 0.17999,-0.63" />
    <path
       style="fill:#008484;fill-opacity:0;stroke:#008484;stroke-width:0.53999943;stroke-linecap:round;stroke-linejoin:round;stroke-opacity:1"
       inkscape:connector-curvature="0"
       id="path2334"
       d="m 204.36783,491.14701 -4.49999,0 0,-1.71 0.17999,-0.45 0.18,-0.18 0.45,-0.18 0.63,0 0.45,0.18 0.18,0.18 0.27,0.45 0,1.71" />
    <path
       style="fill:#008484;fill-opacity:0;stroke:#008484;stroke-width:0.53999943;stroke-linecap:round;stroke-linejoin:round;stroke-opacity:1"
       inkscape:connector-curvature="0"
       id="path2336"
       d="m 201.93783,486.64701 0,-1.53" />
    <path
       style="fill:#008484;fill-opacity:0;stroke:#008484;stroke-width:0.53999943;stroke-linecap:round;stroke-linejoin:round;stroke-opacity:1"
       inkscape:connector-curvature="0"
       id="path2338"
       d="m 204.36783,484.48701 0,2.16 -4.49999,0 0,-2.16" />
    <path
       style="fill:#008484;fill-opacity:0;stroke:#008484;stroke-width:0.53999943;stroke-linecap:round;stroke-linejoin:round;stroke-opacity:1"
       inkscape:connector-curvature="0"
       id="path2340"
       d="m 203.01783,482.77701 0,-2.06999" />
    <path
       style="fill:#008484;fill-opacity:0;stroke:#008484;stroke-width:0.53999943;stroke-linecap:round;stroke-linejoin:round;stroke-opacity:1"
       inkscape:connector-curvature="0"
       id="path2342"
       d="m 204.36783,483.22701 -4.49999,-1.43999 4.49999,-1.53" />
    <path
       style="fill:#008484;fill-opacity:0;stroke:#008484;stroke-width:0.53999943;stroke-linecap:round;stroke-linejoin:round;stroke-opacity:1"
       inkscape:connector-curvature="0"
       id="path2344"
       d="m 204.36783,478.72702 -4.49999,0" />
    <path
       style="fill:#008484;fill-opacity:0;stroke:#008484;stroke-width:0.53999943;stroke-linecap:round;stroke-linejoin:round;stroke-opacity:1"
       inkscape:connector-curvature="0"
       id="path2346"
       d="m 204.36783,476.20702 -2.61,1.89" />
    <path
       style="fill:#008484;fill-opacity:0;stroke:#008484;stroke-width:0.53999943;stroke-linecap:round;stroke-linejoin:round;stroke-opacity:1"
       inkscape:connector-curvature="0"
       id="path2348"
       d="m 199.86784,476.20702 2.51999,2.52" />
    <path
       style="fill:#008484;fill-opacity:0;stroke:#008484;stroke-width:0.53999943;stroke-linecap:round;stroke-linejoin:round;stroke-opacity:1"
       inkscape:connector-curvature="0"
       id="path2350"
       d="m 201.93783,474.22702 0,-1.52999" />
    <path
       style="fill:#008484;fill-opacity:0;stroke:#008484;stroke-width:0.53999943;stroke-linecap:round;stroke-linejoin:round;stroke-opacity:1"
       inkscape:connector-curvature="0"
       id="path2352"
       d="m 204.36783,472.06703 0,2.15999 -4.49999,0 0,-2.15999" />
    <path
       style="fill:#008484;fill-opacity:0;stroke:#008484;stroke-width:0.53999943;stroke-linecap:round;stroke-linejoin:round;stroke-opacity:1"
       inkscape:connector-curvature="0"
       id="path2354"
       d="m 204.36783,467.65703 -2.16,1.44" />
    <path
       style="fill:#008484;fill-opacity:0;stroke:#008484;stroke-width:0.53999943;stroke-linecap:round;stroke-linejoin:round;stroke-opacity:1"
       inkscape:connector-curvature="0"
       id="path2356"
       d="m 204.36783,470.17703 -4.49999,0 0,-1.71 0.17999,-0.45 0.18,-0.18 0.45,-0.18 0.63,0 0.45,0.18 0.18,0.18 0.27,0.45 0,1.71" />
    <path
       style="fill:#840000;fill-opacity:0;stroke:#840000;stroke-width:0.53999943;stroke-linecap:round;stroke-linejoin:round;stroke-opacity:1"
       inkscape:connector-curvature="0"
       id="path2360"
       d="m 217.95782,503.74699 -0.54,-0.27 -0.81,0 -0.72,0.27 -0.54,0.54 -0.27,0.45 -0.27,1.08 0,0.72 0.27,1.08 0.27,0.54 0.54,0.45 0.72,0.27 0.54,0 0.81,-0.27 0.26999,-0.27 0,-1.8 -1.07999,0" />
    <path
       style="fill:#840000;fill-opacity:0;stroke:#840000;stroke-width:0.53999943;stroke-linecap:round;stroke-linejoin:round;stroke-opacity:1"
       inkscape:connector-curvature="0"
       id="path2362"
       d="m 220.47781,508.87699 0,-5.4 3.15,5.4 0,-5.4" />
    <path
       style="fill:#840000;fill-opacity:0;stroke:#840000;stroke-width:0.53999943;stroke-linecap:round;stroke-linejoin:round;stroke-opacity:1"
       inkscape:connector-curvature="0"
       id="path2364"
       d="m 226.14781,508.87699 0,-5.4 1.34999,0 0.72,0.27 0.54,0.54 0.27,0.45 0.27,1.08 0,0.72 -0.27,1.08 -0.27,0.54 -0.54,0.45 -0.72,0.27 -1.34999,0" />
    <polyline
       transform="matrix(0.00899999,0,0,0.00899999,-157.97177,-49.302395)"
       style="fill:#840000;fill-opacity:0;stroke:#840000;stroke-width:100;stroke-linecap:round;stroke-linejoin:round;stroke-opacity:1"
       id="polyline2368"
       points="43500,61750 43200,61210 41080,61210 41080,61750 41080,62290 43200,62290 43500,61750 " />
    <path
       style="fill:#008400;fill-opacity:0;stroke:#008400;stroke-width:0.53999943;stroke-linecap:round;stroke-linejoin:round;stroke-opacity:1"
       inkscape:connector-curvature="0"
       id="path2374"
       d="m 244.77779,490.69701 0,15.74998" />
    <path
       style="fill:#008400;fill-opacity:0;stroke:#008400;stroke-width:0.53999943;stroke-linecap:round;stroke-linejoin:round;stroke-opacity:1"
       inkscape:connector-curvature="0"
       id="path2376"
       d="m 244.77779,506.44699 -11.24999,0" />
    <path
       style="fill:#008400;fill-opacity:0;stroke:#008400;stroke-width:0.53999943;stroke-linecap:round;stroke-linejoin:round;stroke-opacity:1"
       inkscape:connector-curvature="0"
       id="path2404"
       d="m 238.02779,472.69703 6.75,0" />
    <path
       style="fill:#840000;fill-opacity:0;stroke:#840000;stroke-width:0.53999943;stroke-linecap:round;stroke-linejoin:round;stroke-opacity:1"
       inkscape:connector-curvature="0"
       id="path2408"
       d="m 91.327955,511.12698 0,-5.39999 1.799998,3.86999 1.799998,-3.86999 0,5.39999" />
    <path
       style="fill:#840000;fill-opacity:0;stroke:#840000;stroke-width:0.53999943;stroke-linecap:round;stroke-linejoin:round;stroke-opacity:1"
       inkscape:connector-curvature="0"
       id="path2410"
       d="m 97.537948,511.12698 0,-5.39999" />
    <path
       style="fill:#840000;fill-opacity:0;stroke:#840000;stroke-width:0.53999943;stroke-linecap:round;stroke-linejoin:round;stroke-opacity:1"
       inkscape:connector-curvature="0"
       id="path2412"
       d="m 103.29794,510.58698 -0.27,0.27 -0.81,0.27 -0.54,0 -0.72,-0.27 -0.53999,-0.45 -0.27,-0.54 -0.270005,-1.07999 0,-0.72 0.270005,-1.08 0.27,-0.45 0.53999,-0.54 0.72,-0.27 0.54,0 0.81,0.27 0.27,0.27" />
    <polyline
       transform="matrix(0.00899999,0,0,0.00899999,-157.97177,-49.302395)"
       style="fill:#840000;fill-opacity:0;stroke:#840000;stroke-width:100;stroke-linecap:round;stroke-linejoin:round;stroke-opacity:1"
       id="polyline2416"
       points="29500,62000 29200,61460 27330,61460 27330,62000 27330,62540 29200,62540 29500,62000 " />
    <path
       style="fill:#840000;fill-opacity:0;stroke:#840000;stroke-width:0.53999943;stroke-linecap:round;stroke-linejoin:round;stroke-opacity:1"
       inkscape:connector-curvature="0"
       id="path2420"
       d="m 94.207952,523.99697 -0.539999,-0.27 -0.809999,0 -0.72,0.27 -0.539999,0.53999 -0.27,0.45 -0.269999,1.08 0,0.72 0.269999,1.08 0.27,0.54 0.539999,0.45 0.72,0.27 0.539999,0 0.809999,-0.27 0.27,-0.27 0,-1.8 -1.079999,0" />
    <path
       style="fill:#840000;fill-opacity:0;stroke:#840000;stroke-width:0.53999943;stroke-linecap:round;stroke-linejoin:round;stroke-opacity:1"
       inkscape:connector-curvature="0"
       id="path2422"
       d="m 96.727949,529.12696 0,-5.39999 3.149996,5.39999 0,-5.39999" />
    <path
       style="fill:#840000;fill-opacity:0;stroke:#840000;stroke-width:0.53999943;stroke-linecap:round;stroke-linejoin:round;stroke-opacity:1"
       inkscape:connector-curvature="0"
       id="path2424"
       d="m 102.39794,529.12696 0,-5.39999 1.35,0 0.72,0.27 0.54,0.53999 0.27,0.45 0.27,1.08 0,0.72 -0.27,1.08 -0.27,0.54 -0.54,0.45 -0.72,0.27 -1.35,0" />
    <polyline
       transform="matrix(0.00899999,0,0,0.00899999,-157.97177,-49.302395)"
       style="fill:#840000;fill-opacity:0;stroke:#840000;stroke-width:100;stroke-linecap:round;stroke-linejoin:round;stroke-opacity:1"
       id="polyline2428"
       points="29750,64000 29450,63460 27330,63460 27330,64000 27330,64540 29450,64540 29750,64000 " />
    <circle
       style="fill:#840000;fill-opacity:0;stroke:#840000;stroke-width:0.53999943;stroke-linecap:round;stroke-linejoin:round;stroke-opacity:1"
       id="circle2434"
       r="1.799998"
       cy="526.69696"
       cx="123.27792" />
    <circle
       style="fill:#840000;fill-opacity:0;stroke:#840000;stroke-width:0.53999943;stroke-linecap:round;stroke-linejoin:round;stroke-opacity:1"
       id="circle2436"
       r="1.799998"
       cy="508.69699"
       cx="123.27792" />
    <rect
       style="fill:#840000;fill-opacity:0;stroke:#840000;stroke-width:0.53999943;stroke-linecap:round;stroke-linejoin:round;stroke-opacity:1"
       id="rect2438"
       rx="0"
       height="4.4999952"
       width="4.4999952"
       y="524.44696"
       x="121.02792" />
    <rect
       style="fill:#840000;fill-opacity:0;stroke:#840000;stroke-width:0.53999943;stroke-linecap:round;stroke-linejoin:round;stroke-opacity:1"
       id="rect2440"
       rx="0"
       height="4.4999952"
       width="4.4999952"
       y="506.44699"
       x="121.02792" />
    <polyline
       transform="matrix(0.00899999,0,0,0.00899999,-157.97177,-49.302395)"
       style="fill:#840000;fill-opacity:0;stroke:#840000;stroke-width:60;stroke-linecap:round;stroke-linejoin:round;stroke-opacity:1"
       id="polyline2442"
       points="33250,61500 34250,62000 34250,64000 33250,64500 33250,64500 " />
    <polyline
       transform="matrix(0.00899999,0,0,0.00899999,-157.97177,-49.302395)"
       style="fill:#840000;fill-opacity:0;stroke:#840000;stroke-width:60;stroke-linecap:round;stroke-linejoin:round;stroke-opacity:1"
       id="polyline2444"
       points="31250,62000 33250,61500 33250,64500 31250,64000 31250,62000 31250,62000 " />
    <path
       style="fill:#840000;fill-opacity:0;stroke:#840000;stroke-width:0.53999943;stroke-linecap:round;stroke-linejoin:round;stroke-opacity:1"
       inkscape:connector-curvature="0"
       id="path2446"
       d="m 123.27792,508.69699 -8.99999,0" />
    <path
       style="fill:#840000;fill-opacity:0;stroke:#840000;stroke-width:0.53999943;stroke-linecap:round;stroke-linejoin:round;stroke-opacity:1"
       inkscape:connector-curvature="0"
       id="path2448"
       d="m 111.21793,507.61699 0,-4.5 1.53,3.15 1.44,-3.15 0,4.5" />
    <path
       style="fill:#840000;fill-opacity:0;stroke:#840000;stroke-width:0.53999943;stroke-linecap:round;stroke-linejoin:round;stroke-opacity:1"
       inkscape:connector-curvature="0"
       id="path2450"
       d="m 116.34793,507.61699 0,-4.5" />
    <path
       style="fill:#840000;fill-opacity:0;stroke:#840000;stroke-width:0.53999943;stroke-linecap:round;stroke-linejoin:round;stroke-opacity:1"
       inkscape:connector-curvature="0"
       id="path2452"
       d="m 121.02792,507.16699 -0.18,0.18 -0.63,0.27 -0.45,0 -0.63,-0.27 -0.45,-0.45 -0.17999,-0.36 -0.18,-0.9 0,-0.63 0.18,-0.81 0.17999,-0.45 0.45,-0.45 0.63,-0.18 0.45,0 0.63,0.18 0.18,0.18" />
    <path
       style="fill:#840000;fill-opacity:0;stroke:#840000;stroke-width:0.53999943;stroke-linecap:round;stroke-linejoin:round;stroke-opacity:1"
       inkscape:connector-curvature="0"
       id="path2454"
       d="m 123.00792,505.90699 3.42,0" />
    <path
       style="fill:#840000;fill-opacity:0;stroke:#840000;stroke-width:0.53999943;stroke-linecap:round;stroke-linejoin:round;stroke-opacity:1"
       inkscape:connector-curvature="0"
       id="path2456"
       d="m 124.71792,507.61699 0,-3.42" />
    <path
       style="fill:#840000;fill-opacity:0;stroke:#840000;stroke-width:0.53999943;stroke-linecap:round;stroke-linejoin:round;stroke-opacity:1"
       inkscape:connector-curvature="0"
       id="path2458"
       d="m 123.27792,526.69696 -8.99999,0" />
    <path
       style="fill:#840000;fill-opacity:0;stroke:#840000;stroke-width:0.53999943;stroke-linecap:round;stroke-linejoin:round;stroke-opacity:1"
       inkscape:connector-curvature="0"
       id="path2460"
       d="m 111.21793,525.61696 0,-4.49999 1.53,3.14999 1.44,-3.14999 0,4.49999" />
    <path
       style="fill:#840000;fill-opacity:0;stroke:#840000;stroke-width:0.53999943;stroke-linecap:round;stroke-linejoin:round;stroke-opacity:1"
       inkscape:connector-curvature="0"
       id="path2462"
       d="m 116.34793,525.61696 0,-4.49999" />
    <path
       style="fill:#840000;fill-opacity:0;stroke:#840000;stroke-width:0.53999943;stroke-linecap:round;stroke-linejoin:round;stroke-opacity:1"
       inkscape:connector-curvature="0"
       id="path2464"
       d="m 121.02792,525.16696 -0.18,0.18 -0.63,0.27 -0.45,0 -0.63,-0.27 -0.45,-0.45 -0.17999,-0.36 -0.18,-0.89999 0,-0.63 0.18,-0.81 0.17999,-0.45 0.45,-0.45 0.63,-0.18 0.45,0 0.63,0.18 0.18,0.18" />
    <path
       style="fill:#840000;fill-opacity:0;stroke:#840000;stroke-width:0.53999943;stroke-linecap:round;stroke-linejoin:round;stroke-opacity:1"
       inkscape:connector-curvature="0"
       id="path2466"
       d="m 123.00792,523.90697 3.42,0" />
    <path
       style="fill:#008484;fill-opacity:0;stroke:#008484;stroke-width:0.53999943;stroke-linecap:round;stroke-linejoin:round;stroke-opacity:1"
       inkscape:connector-curvature="0"
       id="path2470"
       d="m 96.00795,540.10695 0,-5.4 1.799998,3.87 1.799998,-3.87 0,5.4" />
    <path
       style="fill:#008484;fill-opacity:0;stroke:#008484;stroke-width:0.53999943;stroke-linecap:round;stroke-linejoin:round;stroke-opacity:1"
       inkscape:connector-curvature="0"
       id="path2472"
       d="m 102.21794,540.10695 0,-5.4" />
    <path
       style="fill:#008484;fill-opacity:0;stroke:#008484;stroke-width:0.53999943;stroke-linecap:round;stroke-linejoin:round;stroke-opacity:1"
       inkscape:connector-curvature="0"
       id="path2474"
       d="m 107.97794,539.56695 -0.27,0.27 -0.81,0.27 -0.54,0 -0.72,-0.27 -0.54,-0.45 -0.27,-0.54 -0.27,-1.08 0,-0.72 0.27,-1.08 0.27,-0.45 0.54,-0.54 0.72,-0.27 0.54,0 0.81,0.27 0.27,0.27" />
    <path
       style="fill:#008484;fill-opacity:0;stroke:#008484;stroke-width:0.53999943;stroke-linecap:round;stroke-linejoin:round;stroke-opacity:1"
       inkscape:connector-curvature="0"
       id="path2476"
       d="m 113.37793,540.10695 -1.8,-2.52" />
    <path
       style="fill:#008484;fill-opacity:0;stroke:#008484;stroke-width:0.53999943;stroke-linecap:round;stroke-linejoin:round;stroke-opacity:1"
       inkscape:connector-curvature="0"
       id="path2478"
       d="m 110.22793,540.10695 0,-5.4 2.07,0 0.54,0.27 0.27,0.27 0.27,0.54 0,0.72 -0.27,0.54 -0.27,0.27 -0.54,0.27 -2.07,0" />
    <path
       style="fill:#008484;fill-opacity:0;stroke:#008484;stroke-width:0.53999943;stroke-linecap:round;stroke-linejoin:round;stroke-opacity:1"
       inkscape:connector-curvature="0"
       id="path2480"
       d="m 116.70793,534.70695 0.99,0 0.54,0.27 0.53999,0.54 0.18,0.99 0,1.8 -0.18,1.08 -0.53999,0.45 -0.54,0.27 -0.99,0 -0.54,-0.27 -0.54,-0.45 -0.27,-1.08 0,-1.8 0.27,-0.99 0.54,-0.54 0.54,-0.27" />
    <path
       style="fill:#008484;fill-opacity:0;stroke:#008484;stroke-width:0.53999943;stroke-linecap:round;stroke-linejoin:round;stroke-opacity:1"
       inkscape:connector-curvature="0"
       id="path2482"
       d="m 121.29792,540.10695 0,-5.4 2.07,0 0.54,0.27 0.27,0.27 0.27,0.54 0,0.72 -0.27,0.54 -0.27,0.27 -0.54,0.27 -2.07,0" />
    <path
       style="fill:#008484;fill-opacity:0;stroke:#008484;stroke-width:0.53999943;stroke-linecap:round;stroke-linejoin:round;stroke-opacity:1"
       inkscape:connector-curvature="0"
       id="path2484"
       d="m 126.69792,540.10695 0,-5.4" />
    <path
       style="fill:#008484;fill-opacity:0;stroke:#008484;stroke-width:0.53999943;stroke-linecap:round;stroke-linejoin:round;stroke-opacity:1"
       inkscape:connector-curvature="0"
       id="path2486"
       d="m 126.69792,537.31695 3.14999,0" />
    <path
       style="fill:#008484;fill-opacity:0;stroke:#008484;stroke-width:0.53999943;stroke-linecap:round;stroke-linejoin:round;stroke-opacity:1"
       inkscape:connector-curvature="0"
       id="path2488"
       d="m 129.84791,540.10695 0,-5.4" />
    <path
       style="fill:#008484;fill-opacity:0;stroke:#008484;stroke-width:0.53999943;stroke-linecap:round;stroke-linejoin:round;stroke-opacity:1"
       inkscape:connector-curvature="0"
       id="path2490"
       d="m 133.44791,534.70695 0.99,0 0.54,0.27 0.54,0.54 0.18,0.99 0,1.8 -0.18,1.08 -0.54,0.45 -0.54,0.27 -0.99,0 -0.54,-0.27 -0.54,-0.45 -0.27,-1.08 0,-1.8 0.27,-0.99 0.54,-0.54 0.54,-0.27" />
    <path
       style="fill:#008484;fill-opacity:0;stroke:#008484;stroke-width:0.53999943;stroke-linecap:round;stroke-linejoin:round;stroke-opacity:1"
       inkscape:connector-curvature="0"
       id="path2492"
       d="m 138.0379,540.10695 0,-5.4 3.15,5.4 0,-5.4" />
    <path
       style="fill:#008484;fill-opacity:0;stroke:#008484;stroke-width:0.53999943;stroke-linecap:round;stroke-linejoin:round;stroke-opacity:1"
       inkscape:connector-curvature="0"
       id="path2494"
       d="m 143.7079,537.31695 1.8,0" />
    <path
       style="fill:#008484;fill-opacity:0;stroke:#008484;stroke-width:0.53999943;stroke-linecap:round;stroke-linejoin:round;stroke-opacity:1"
       inkscape:connector-curvature="0"
       id="path2496"
       d="m 146.31789,540.10695 -2.60999,0 0,-5.4 2.60999,0" />
    <path
       style="fill:#008400;fill-opacity:0;stroke:#008400;stroke-width:0.53999943;stroke-linecap:round;stroke-linejoin:round;stroke-opacity:1"
       inkscape:connector-curvature="0"
       id="path2500"
       d="m 109.77793,526.69696 4.5,0" />
    <path
       style="fill:#008400;fill-opacity:0;stroke:#008400;stroke-width:0.53999943;stroke-linecap:round;stroke-linejoin:round;stroke-opacity:1"
       inkscape:connector-curvature="0"
       id="path2502"
       d="m 107.52794,508.69699 6.74999,0" />
    <path
       style="fill:#840000;fill-opacity:0;stroke:#840000;stroke-width:0.53999943;stroke-linecap:round;stroke-linejoin:round;stroke-opacity:1"
       inkscape:connector-curvature="0"
       id="path2558"
       d="m 248.82778,552.97693 1.26,5.4 0.99,-3.87 1.08,3.87 1.26,-5.4" />
    <path
       style="fill:#840000;fill-opacity:0;stroke:#840000;stroke-width:0.53999943;stroke-linecap:round;stroke-linejoin:round;stroke-opacity:1"
       inkscape:connector-curvature="0"
       id="path2560"
       d="m 255.21777,553.51693 0.27,-0.27 0.54,-0.27 1.26,0 0.54,0.27 0.27,0.27 0.27,0.54 0,0.45 -0.27,0.81 -3.06,3.06 3.33,0" />
    <polyline
       transform="matrix(0.00899999,0,0,0.00899999,-157.97177,-49.302395)"
       style="fill:#840000;fill-opacity:0;stroke:#840000;stroke-width:100;stroke-linecap:round;stroke-linejoin:round;stroke-opacity:1"
       id="polyline2564"
       points="44750,67250 45050,67790 46600,67790 46600,67250 46600,66710 45050,66710 44750,67250 " />
    <polyline
       transform="matrix(0.00899999,0,0,0.00899999,-157.97177,-49.302395)"
       style="fill:#840000;fill-opacity:0;stroke:#840000;stroke-width:60;stroke-linecap:round;stroke-linejoin:round;stroke-opacity:1"
       id="polyline2570"
       points="40750,69750 39250,71250 39250,65250 40750,66750 " />
    <polyline
       transform="matrix(0.00899999,0,0,0.00899999,-157.97177,-49.302395)"
       id="polyline2574"
       points="42750,69750 40750,69750 40750,66750 42750,66750 42750,69750 "
       style="fill:#840000;fill-opacity:1;fill-rule:evenodd;stroke:#840000;stroke-width:60;stroke-linecap:round;stroke-linejoin:round;stroke-opacity:1" />
    <path
       style="fill:#840000;fill-opacity:0;stroke:#840000;stroke-width:0.53999943;stroke-linecap:round;stroke-linejoin:round;stroke-opacity:1"
       inkscape:connector-curvature="0"
       id="path2578"
       d="m 226.77781,573.94691 17.99998,0" />
    <path
       style="fill:#008484;fill-opacity:0;stroke:#008484;stroke-width:0.53999943;stroke-linecap:round;stroke-linejoin:round;stroke-opacity:1"
       inkscape:connector-curvature="0"
       id="path2582"
       d="m 236.76779,572.86691 -1.97999,0" />
    <path
       style="fill:#008484;fill-opacity:0;stroke:#008484;stroke-width:0.53999943;stroke-linecap:round;stroke-linejoin:round;stroke-opacity:1"
       inkscape:connector-curvature="0"
       id="path2584"
       d="m 235.7778,572.86691 0,-3.6 -0.36,0.54 -0.36,0.36 -0.27,0.18" />
    <path
       style="fill:#840000;fill-opacity:0;stroke:#840000;stroke-width:0.53999943;stroke-linecap:round;stroke-linejoin:round;stroke-opacity:1"
       inkscape:connector-curvature="0"
       id="path2588"
       d="m 226.77781,555.94693 17.99998,0" />
    <path
       style="fill:#008484;fill-opacity:0;stroke:#008484;stroke-width:0.53999943;stroke-linecap:round;stroke-linejoin:round;stroke-opacity:1"
       inkscape:connector-curvature="0"
       id="path2592"
       d="m 234.7878,551.62693 0.18,-0.18 0.27,-0.18 0.89999,0 0.36,0.18 0.18,0.18 0.09,0.36 0,0.36 -0.09,0.45 -2.06999,2.07 2.15999,0" />
    <path
       style="fill:#008484;fill-opacity:0;stroke:#008484;stroke-width:0.53999943;stroke-linecap:round;stroke-linejoin:round;stroke-opacity:1"
       inkscape:connector-curvature="0"
       id="path2594"
       d="m 204.09783,578.8969 0.27,-0.63 0,-1.07999 -0.27,-0.36 -0.18,-0.27 -0.45,-0.18 -0.45,0 -0.36,0.18 -0.27,0.27 -0.18,0.36 -0.27,0.89999 -0.18,0.45 -0.18,0.18 -0.45,0.18 -0.45,0 -0.45,-0.18 -0.18,-0.18 -0.17999,-0.45 0,-1.07999 0.17999,-0.63" />
    <path
       style="fill:#008484;fill-opacity:0;stroke:#008484;stroke-width:0.53999943;stroke-linecap:round;stroke-linejoin:round;stroke-opacity:1"
       inkscape:connector-curvature="0"
       id="path2596"
       d="m 204.36783,574.39691 -4.49999,0 0,-1.71 0.17999,-0.45 0.18,-0.18 0.45,-0.18 0.63,0 0.45,0.18 0.18,0.18 0.27,0.45 0,1.71" />
    <path
       style="fill:#008484;fill-opacity:0;stroke:#008484;stroke-width:0.53999943;stroke-linecap:round;stroke-linejoin:round;stroke-opacity:1"
       inkscape:connector-curvature="0"
       id="path2598"
       d="m 201.93783,569.89691 0,-1.52999" />
    <path
       style="fill:#008484;fill-opacity:0;stroke:#008484;stroke-width:0.53999943;stroke-linecap:round;stroke-linejoin:round;stroke-opacity:1"
       inkscape:connector-curvature="0"
       id="path2600"
       d="m 204.36783,567.73692 0,2.15999 -4.49999,0 0,-2.15999" />
    <path
       style="fill:#008484;fill-opacity:0;stroke:#008484;stroke-width:0.53999943;stroke-linecap:round;stroke-linejoin:round;stroke-opacity:1"
       inkscape:connector-curvature="0"
       id="path2602"
       d="m 203.01783,566.02692 0,-2.07" />
    <path
       style="fill:#008484;fill-opacity:0;stroke:#008484;stroke-width:0.53999943;stroke-linecap:round;stroke-linejoin:round;stroke-opacity:1"
       inkscape:connector-curvature="0"
       id="path2604"
       d="m 204.36783,566.47692 -4.49999,-1.44 4.49999,-1.53" />
    <path
       style="fill:#008484;fill-opacity:0;stroke:#008484;stroke-width:0.53999943;stroke-linecap:round;stroke-linejoin:round;stroke-opacity:1"
       inkscape:connector-curvature="0"
       id="path2606"
       d="m 204.36783,561.97692 -4.49999,0" />
    <path
       style="fill:#008484;fill-opacity:0;stroke:#008484;stroke-width:0.53999943;stroke-linecap:round;stroke-linejoin:round;stroke-opacity:1"
       inkscape:connector-curvature="0"
       id="path2608"
       d="m 204.36783,559.45692 -2.61,1.89" />
    <path
       style="fill:#008484;fill-opacity:0;stroke:#008484;stroke-width:0.53999943;stroke-linecap:round;stroke-linejoin:round;stroke-opacity:1"
       inkscape:connector-curvature="0"
       id="path2610"
       d="m 199.86784,559.45692 2.51999,2.52" />
    <path
       style="fill:#008484;fill-opacity:0;stroke:#008484;stroke-width:0.53999943;stroke-linecap:round;stroke-linejoin:round;stroke-opacity:1"
       inkscape:connector-curvature="0"
       id="path2612"
       d="m 201.93783,557.47693 0,-1.53" />
    <path
       style="fill:#008484;fill-opacity:0;stroke:#008484;stroke-width:0.53999943;stroke-linecap:round;stroke-linejoin:round;stroke-opacity:1"
       inkscape:connector-curvature="0"
       id="path2614"
       d="m 204.36783,555.31693 0,2.16 -4.49999,0 0,-2.16" />
    <path
       style="fill:#008484;fill-opacity:0;stroke:#008484;stroke-width:0.53999943;stroke-linecap:round;stroke-linejoin:round;stroke-opacity:1"
       inkscape:connector-curvature="0"
       id="path2616"
       d="m 204.36783,550.90693 -2.16,1.44" />
    <path
       style="fill:#008484;fill-opacity:0;stroke:#008484;stroke-width:0.53999943;stroke-linecap:round;stroke-linejoin:round;stroke-opacity:1"
       inkscape:connector-curvature="0"
       id="path2618"
       d="m 204.36783,553.42693 -4.49999,0 0,-1.71 0.17999,-0.45 0.18,-0.18 0.45,-0.18 0.63,0 0.45,0.18 0.18,0.18 0.27,0.45 0,1.71" />
    <path
       style="fill:#840000;fill-opacity:0;stroke:#840000;stroke-width:0.53999943;stroke-linecap:round;stroke-linejoin:round;stroke-opacity:1"
       inkscape:connector-curvature="0"
       id="path2622"
       d="m 217.95782,586.99689 -0.54,-0.27 -0.81,0 -0.72,0.27 -0.54,0.54 -0.27,0.45 -0.27,1.08 0,0.72 0.27,1.08 0.27,0.54 0.54,0.45 0.72,0.27 0.54,0 0.81,-0.27 0.26999,-0.27 0,-1.8 -1.07999,0" />
    <path
       style="fill:#840000;fill-opacity:0;stroke:#840000;stroke-width:0.53999943;stroke-linecap:round;stroke-linejoin:round;stroke-opacity:1"
       inkscape:connector-curvature="0"
       id="path2624"
       d="m 220.47781,592.12689 0,-5.4 3.15,5.4 0,-5.4" />
    <path
       style="fill:#840000;fill-opacity:0;stroke:#840000;stroke-width:0.53999943;stroke-linecap:round;stroke-linejoin:round;stroke-opacity:1"
       inkscape:connector-curvature="0"
       id="path2626"
       d="m 226.14781,592.12689 0,-5.4 1.34999,0 0.72,0.27 0.54,0.54 0.27,0.45 0.27,1.08 0,0.72 -0.27,1.08 -0.27,0.54 -0.54,0.45 -0.72,0.27 -1.34999,0" />
    <polyline
       transform="matrix(0.00899999,0,0,0.00899999,-157.97177,-49.302395)"
       style="fill:#840000;fill-opacity:0;stroke:#840000;stroke-width:100;stroke-linecap:round;stroke-linejoin:round;stroke-opacity:1"
       id="polyline2630"
       points="43500,71000 43200,70460 41080,70460 41080,71000 41080,71540 43200,71540 43500,71000 " />
    <path
       style="fill:#008400;fill-opacity:0;stroke:#008400;stroke-width:0.53999943;stroke-linecap:round;stroke-linejoin:round;stroke-opacity:1"
       inkscape:connector-curvature="0"
       id="path2636"
       d="m 244.77779,573.94691 0,15.74998" />
    <path
       style="fill:#008400;fill-opacity:0;stroke:#008400;stroke-width:0.53999943;stroke-linecap:round;stroke-linejoin:round;stroke-opacity:1"
       inkscape:connector-curvature="0"
       id="path2638"
       d="m 244.77779,589.69689 -11.24999,0" />
    <path
       style="fill:#008400;fill-opacity:0;stroke:#008400;stroke-width:0.53999943;stroke-linecap:round;stroke-linejoin:round;stroke-opacity:1"
       inkscape:connector-curvature="0"
       id="path2664"
       d="m 238.02779,555.94693 6.75,0" />
  </g>
</svg>
