<?xml version="1.0" encoding="UTF-8" standalone="no"?>
<svg
   xmlns:dc="http://purl.org/dc/elements/1.1/"
   xmlns:cc="http://creativecommons.org/ns#"
   xmlns:rdf="http://www.w3.org/1999/02/22-rdf-syntax-ns#"
   xmlns:svg="http://www.w3.org/2000/svg"
   xmlns="http://www.w3.org/2000/svg"
   xmlns:sodipodi="http://sodipodi.sourceforge.net/DTD/sodipodi-0.dtd"
   xmlns:inkscape="http://www.inkscape.org/namespaces/inkscape"
   version="1.1"
   width="3.0175169cm"
   height="1.7602183cm"
   viewBox="0 0 11879.996 6929.9998"
   id="svg2"
   inkscape:version="0.91 r13725"
   sodipodi:docname="transistor.sch.svg">
  <metadata
     id="metadata338">
    <rdf:RDF>
      <cc:Work
         rdf:about="">
        <dc:format>image/svg+xml</dc:format>
        <dc:type
           rdf:resource="http://purl.org/dc/dcmitype/StillImage" />
        <dc:title>SVG Picture created as transistor.sch.svg date 2016/06/14 13:34:48 </dc:title>
      </cc:Work>
    </rdf:RDF>
  </metadata>
  <defs
     id="defs336" />
  <sodipodi:namedview
     pagecolor="#ffffff"
     bordercolor="#666666"
     borderopacity="1"
     objecttolerance="10"
     gridtolerance="10"
     guidetolerance="10"
     inkscape:pageopacity="0"
     inkscape:pageshadow="2"
     inkscape:window-width="1855"
     inkscape:window-height="1056"
     id="namedview334"
     showgrid="false"
     fit-margin-top="0"
     fit-margin-left="0"
     fit-margin-right="0"
     fit-margin-bottom="0"
     inkscape:zoom="4.5155253"
     inkscape:cx="5.6697229"
     inkscape:cy="25.62703"
     inkscape:window-x="65"
     inkscape:window-y="24"
     inkscape:window-maximized="1"
     inkscape:current-layer="svg2" />
  <title
     id="title4">SVG Picture created as transistor.sch.svg date 2016/06/14 13:34:48 </title>
  <desc
     id="desc6">Picture generated by Eeschema-SVG </desc>
  <g
     style="fill:#000000;fill-opacity:1;stroke:#000000;stroke-linecap:round;stroke-linejoin:round;stroke-opacity:1"
     id="g8"
     transform="translate(-8310.0203,-10410)" />
  <g
     style="fill:#000000;fill-opacity:0;stroke:#000000;stroke-width:60;stroke-linecap:round;stroke-linejoin:round;stroke-opacity:1"
     id="g10"
     transform="translate(-8310.0203,-10410)" />
  <g
     style="fill:#840000;fill-opacity:0;stroke:#840000;stroke-width:60;stroke-linecap:round;stroke-linejoin:round;stroke-opacity:1"
     id="g12"
     transform="translate(-8310.0203,-10410)">
    <path
       d="m 8850,14020 0,-600 230,0 60,30 30,30 30,60 0,80 -30,60 -30,30 -60,30 -230,0"
       id="path14"
       inkscape:connector-curvature="0" />
    <path
       d="m 9370,13420 200,600 200,-600"
       id="path16"
       inkscape:connector-curvature="0" />
    <path
       d="m 9930,13480 30,-30 60,-30 140,0 60,30 30,30 30,60 0,50 -30,90 -340,340 370,0"
       id="path18"
       inkscape:connector-curvature="0" />
  </g>
  <g
     style="fill:#840000;fill-opacity:0;stroke:#840000;stroke-width:100;stroke-linecap:round;stroke-linejoin:round;stroke-opacity:1"
     id="g20"
     transform="translate(-8310.0203,-10410)">
    <polyline
       fill="none;"
       points="10750,13750 10450,13210 8480,13210 8480,13750 8480,14290 10450,14290 10750,13750 "
       id="polyline22" />
  </g>
  <g
     style="fill:#840000;fill-opacity:0;stroke:#840000;stroke-width:60;stroke-linecap:round;stroke-linejoin:round;stroke-opacity:1"
     id="g24"
     transform="translate(-8310.0203,-10410)">
    <path
       d="m 9270,16450 -60,-30 -90,0 -80,30 -60,60 -30,50 -30,120 0,80 30,120 30,60 60,50 80,30 60,0 90,-30 30,-30 0,-200 -120,0"
       id="path26"
       inkscape:connector-curvature="0" />
    <path
       d="m 9550,17020 0,-600 350,600 0,-600"
       id="path28"
       inkscape:connector-curvature="0" />
    <path
       d="m 10180,17020 0,-600 150,0 80,30 60,60 30,50 30,120 0,80 -30,120 -30,60 -60,50 -80,30 -150,0"
       id="path30"
       inkscape:connector-curvature="0" />
  </g>
  <g
     style="fill:#840000;fill-opacity:0;stroke:#840000;stroke-width:100;stroke-linecap:round;stroke-linejoin:round;stroke-opacity:1"
     id="g32"
     transform="translate(-8310.0203,-10410)">
    <polyline
       fill="none;"
       points="11000,16750 10700,16210 8580,16210 8580,16750 8580,17290 10700,17290 11000,16750 "
       id="polyline34" />
  </g>
  <g
     style="fill:#840000;fill-opacity:0;stroke:#840000;stroke-width:60;stroke-linecap:round;stroke-linejoin:round;stroke-opacity:1"
     id="g36"
     transform="translate(-8310.0203,-10410)">
    <path
       d="m 8850,11270 0,-600 230,0 60,30 30,30 30,60 0,80 -30,60 -30,30 -60,30 -230,0"
       id="path38"
       inkscape:connector-curvature="0" />
    <path
       d="m 9370,10670 200,600 200,-600"
       id="path40"
       inkscape:connector-curvature="0" />
    <path
       d="m 10280,11270 -350,0"
       id="path42"
       inkscape:connector-curvature="0" />
    <path
       d="m 10110,11270 0,-600 -60,90 -60,50 -60,30"
       id="path44"
       inkscape:connector-curvature="0" />
  </g>
  <g
     style="fill:#840000;fill-opacity:0;stroke:#840000;stroke-width:100;stroke-linecap:round;stroke-linejoin:round;stroke-opacity:1"
     id="g46"
     transform="translate(-8310.0203,-10410)">
    <polyline
       fill="none;"
       points="10750,11000 10450,10460 8480,10460 8480,11000 8480,11540 10450,11540 10750,11000 "
       id="polyline48" />
  </g>
  <g
     style="fill:#840000;fill-opacity:0;stroke:#840000;stroke-width:0;stroke-linecap:round;stroke-linejoin:round;stroke-opacity:1"
     id="g50"
     transform="translate(-8310.0203,-10410)" />
  <g
     style="fill:#840000;fill-opacity:0;stroke:#840000;stroke-width:100;stroke-linecap:round;stroke-linejoin:round;stroke-opacity:1"
     id="g52"
     transform="translate(-8310.0203,-10410)">
    <rect
       x="12750"
       y="10600"
       width="2000"
       height="800"
       rx="0"
       id="rect54" />
  </g>
  <g
     style="fill:#840000;fill-opacity:0;stroke:#840000;stroke-width:60;stroke-linecap:round;stroke-linejoin:round;stroke-opacity:1"
     id="g56"
     transform="translate(-8310.0203,-10410)">
    <path
       d="m 14750,11000 500,0"
       id="path58"
       inkscape:connector-curvature="0" />
    <path
       d="m 12750,11000 -500,0"
       id="path60"
       inkscape:connector-curvature="0" />
  </g>
  <g
     style="fill:#008484;fill-opacity:0;stroke:#008484;stroke-width:60;stroke-linecap:round;stroke-linejoin:round;stroke-opacity:1"
     id="g62"
     transform="translate(-8310.0203,-10410)">
    <path
       d="m 13640,11200 -280,0"
       id="path64"
       inkscape:connector-curvature="0" />
    <path
       d="m 13500,11200 0,-500 -50,70 -50,50 -40,20"
       id="path66"
       inkscape:connector-curvature="0" />
    <path
       d="m 13860,11200 0,-500"
       id="path68"
       inkscape:connector-curvature="0" />
    <path
       d="m 14140,11200 -210,-290"
       id="path70"
       inkscape:connector-curvature="0" />
    <path
       d="m 14140,10700 -280,280"
       id="path72"
       inkscape:connector-curvature="0" />
  </g>
  <g
     style="fill:#840000;fill-opacity:0;stroke:#840000;stroke-width:60;stroke-linecap:round;stroke-linejoin:round;stroke-opacity:1"
     id="g74"
     transform="translate(-8310.0203,-10410)">
    <path
       d="m 18600,11210 -30,30 -90,30 -60,0 -80,-30 -60,-50 -30,-60 -30,-120 0,-80 30,-120 30,-50 60,-60 80,-30 60,0 90,30 30,30"
       id="path76"
       inkscape:connector-curvature="0" />
    <path
       d="m 18850,11270 0,-600"
       id="path78"
       inkscape:connector-curvature="0" />
    <path
       d="m 18850,10960 350,0"
       id="path80"
       inkscape:connector-curvature="0" />
    <path
       d="m 19200,11270 0,-600"
       id="path82"
       inkscape:connector-curvature="0" />
    <path
       d="m 19800,11270 -350,0"
       id="path84"
       inkscape:connector-curvature="0" />
    <path
       d="m 19630,11270 0,-600 -60,90 -60,50 -60,30"
       id="path86"
       inkscape:connector-curvature="0" />
  </g>
  <g
     style="fill:#840000;fill-opacity:0;stroke:#840000;stroke-width:100;stroke-linecap:round;stroke-linejoin:round;stroke-opacity:1"
     id="g88"
     transform="translate(-8310.0203,-10410)">
    <polyline
       fill="none;"
       points="17750,11000 18050,11540 20140,11540 20140,11000 20140,10460 18050,10460 17750,11000 "
       id="polyline90" />
  </g>
  <g
     style="fill:#840000;fill-opacity:0;stroke:#840000;stroke-width:60;stroke-linecap:round;stroke-linejoin:round;stroke-opacity:1"
     id="g92"
     transform="translate(-8310.0203,-10410)" />
  <g
     style="fill:#0000c2;fill-opacity:0;stroke:#0000c2;stroke-width:0;stroke-linecap:round;stroke-linejoin:round;stroke-opacity:1"
     id="g184"
     transform="translate(-8310.0203,-10410)" />
  <g
     style="fill:#840000;fill-opacity:0;stroke:#840000;stroke-width:0;stroke-linecap:round;stroke-linejoin:round;stroke-opacity:1"
     id="g186"
     transform="translate(-8310.0203,-10410)" />
  <g
     style="fill:#840000;fill-opacity:0;stroke:#840000;stroke-width:100;stroke-linecap:round;stroke-linejoin:round;stroke-opacity:1"
     id="g188"
     transform="translate(-8310.0203,-10410)">
    <rect
       x="11250"
       y="13350"
       width="2000"
       height="800"
       rx="0"
       id="rect190" />
  </g>
  <g
     style="fill:#840000;fill-opacity:0;stroke:#840000;stroke-width:60;stroke-linecap:round;stroke-linejoin:round;stroke-opacity:1"
     id="g192"
     transform="translate(-8310.0203,-10410)">
    <path
       d="m 13250,13750 500,0"
       id="path194"
       inkscape:connector-curvature="0" />
    <path
       d="m 11250,13750 -500,0"
       id="path196"
       inkscape:connector-curvature="0" />
  </g>
  <g
     style="fill:#008484;fill-opacity:0;stroke:#008484;stroke-width:60;stroke-linecap:round;stroke-linejoin:round;stroke-opacity:1"
     id="g198"
     transform="translate(-8310.0203,-10410)">
    <path
       d="m 11380,13490 20,-20 50,-20 120,0 40,20 30,20 20,50 0,50 -20,70 -290,290 310,0"
       id="path200"
       inkscape:connector-curvature="0" />
    <path
       d="m 11970,13450 50,0 50,20 20,20 30,50 20,100 0,120 -20,90 -30,50 -20,20 -50,30 -50,0 -40,-30 -30,-20 -20,-50 -20,-90 0,-120 20,-100 20,-50 30,-20 40,-20"
       id="path202"
       inkscape:connector-curvature="0" />
    <path
       d="m 12450,13450 50,0 50,20 20,20 30,50 20,100 0,120 -20,90 -30,50 -20,20 -50,30 -50,0 -40,-30 -30,-20 -20,-50 -20,-90 0,-120 20,-100 20,-50 30,-20 40,-20"
       id="path204"
       inkscape:connector-curvature="0" />
    <path
       d="m 12840,13950 0,-500"
       id="path206"
       inkscape:connector-curvature="0" />
    <path
       d="m 13120,13950 -210,-290"
       id="path208"
       inkscape:connector-curvature="0" />
    <path
       d="m 13120,13450 -280,280"
       id="path210"
       inkscape:connector-curvature="0" />
  </g>
  <g
     style="fill:#008484;fill-opacity:0;stroke:#008484;stroke-width:0;stroke-linecap:round;stroke-linejoin:round;stroke-opacity:1"
     id="g212"
     transform="translate(-8310.0203,-10410)" />
  <g
     style="fill:#840000;fill-opacity:0;stroke:#840000;stroke-width:0;stroke-linecap:round;stroke-linejoin:round;stroke-opacity:1"
     id="g214"
     transform="translate(-8310.0203,-10410)" />
  <g
     style="fill:#840000;fill-opacity:0;stroke:#840000;stroke-width:100;stroke-linecap:round;stroke-linejoin:round;stroke-opacity:1"
     id="g216"
     transform="translate(-8310.0203,-10410)">
    <circle
       cx="16250"
       cy="13750"
       r="1110"
       id="circle218" />
  </g>
  <g
     style="fill:#840000;fill-opacity:0;stroke:#840000;stroke-width:60;stroke-linecap:round;stroke-linejoin:round;stroke-opacity:1"
     id="g220"
     transform="translate(-8310.0203,-10410)">
    <polyline
       fill="none;"
       points="15750,13750 16000,13750 "
       id="polyline222" />
    <polyline
       fill="none;"
       points="16750,14750 16000,14000 "
       id="polyline224" />
    <polyline
       fill="none;"
       points="16750,12750 16000,13500 "
       id="polyline226" />
  </g>
  <g
     style="fill:#840000;fill-opacity:0;stroke:#840000;stroke-width:200;stroke-linecap:round;stroke-linejoin:round;stroke-opacity:1"
     id="g228"
     transform="translate(-8310.0203,-10410)">
    <polyline
       fill="none;"
       points="16000,13000 16000,14500 16000,14500 "
       id="polyline230" />
  </g>
  <g
     style="fill:#840000;fill-opacity:0;stroke:#840000;stroke-width:60;stroke-linecap:round;stroke-linejoin:round;stroke-opacity:1"
     id="g232"
     transform="translate(-8310.0203,-10410)">
    <polyline
       fill="none;"
       points="16700,14700 16500,14500 16500,14500 "
       id="polyline234" />
  </g>
  <g
     style="fill:#840000;fill-opacity:1;stroke:#840000;stroke-width:60;stroke-linecap:round;stroke-linejoin:round;stroke-opacity:1"
     id="g236"
     transform="translate(-8310.0203,-10410)">
    <polyline
       style="fill-rule:evenodd"
       points="16300,14500 16500,14300 16700,14700 16300,14500 16300,14500 "
       id="polyline238" />
  </g>
  <g
     style="fill:#840000;fill-opacity:0;stroke:#840000;stroke-width:60;stroke-linecap:round;stroke-linejoin:round;stroke-opacity:1"
     id="g240"
     transform="translate(-8310.0203,-10410)">
    <path
       d="m 16750,14750 0,1000"
       id="path242"
       inkscape:connector-curvature="0" />
  </g>
  <g
     style="fill:#008484;fill-opacity:0;stroke:#008484;stroke-width:60;stroke-linecap:round;stroke-linejoin:round;stroke-opacity:1"
     id="g244"
     transform="translate(-8310.0203,-10410)">
    <path
       d="m 16360,15350 0,-170"
       id="path246"
       inkscape:connector-curvature="0" />
    <path
       d="m 16630,15110 0,240 -500,0 0,-240"
       id="path248"
       inkscape:connector-curvature="0" />
  </g>
  <g
     style="fill:#840000;fill-opacity:0;stroke:#840000;stroke-width:60;stroke-linecap:round;stroke-linejoin:round;stroke-opacity:1"
     id="g250"
     transform="translate(-8310.0203,-10410)">
    <path
       d="m 17330,15110 0,280"
       id="path252"
       inkscape:connector-curvature="0" />
    <path
       d="m 17330,15250 -500,0 70,50 50,50 20,40"
       id="path254"
       inkscape:connector-curvature="0" />
    <path
       d="m 15750,13750 -2000,0"
       id="path256"
       inkscape:connector-curvature="0" />
  </g>
  <g
     style="fill:#008484;fill-opacity:0;stroke:#008484;stroke-width:60;stroke-linecap:round;stroke-linejoin:round;stroke-opacity:1"
     id="g258"
     transform="translate(-8310.0203,-10410)">
    <path
       d="m 14790,13360 70,30 20,20 20,50 0,70 -20,50 -20,20 -50,30 -190,0 0,-500 170,0 40,20 30,20 20,50 0,50 -20,50 -30,20 -40,20 -170,0"
       id="path260"
       inkscape:connector-curvature="0" />
  </g>
  <g
     style="fill:#840000;fill-opacity:0;stroke:#840000;stroke-width:60;stroke-linecap:round;stroke-linejoin:round;stroke-opacity:1"
     id="g262"
     transform="translate(-8310.0203,-10410)">
    <path
       d="m 14610,13870 20,-20 50,-20 120,0 40,20 30,20 20,50 0,50 -20,70 -290,290 310,0"
       id="path264"
       inkscape:connector-curvature="0" />
    <path
       d="m 16750,12750 0,-1000"
       id="path266"
       inkscape:connector-curvature="0" />
  </g>
  <g
     style="fill:#008484;fill-opacity:0;stroke:#008484;stroke-width:60;stroke-linecap:round;stroke-linejoin:round;stroke-opacity:1"
     id="g268"
     transform="translate(-8310.0203,-10410)">
    <path
       d="m 16580,12100 20,20 30,70 0,50 -30,70 -50,50 -40,20 -100,20 -70,0 -90,-20 -50,-20 -50,-50 -20,-70 0,-50 20,-70 20,-20"
       id="path270"
       inkscape:connector-curvature="0" />
  </g>
  <g
     style="fill:#840000;fill-opacity:0;stroke:#840000;stroke-width:60;stroke-linecap:round;stroke-linejoin:round;stroke-opacity:1"
     id="g272"
     transform="translate(-8310.0203,-10410)">
    <path
       d="m 16830,12420 0,-310 190,170 0,-80 20,-40 20,-30 50,-20 120,0 50,20 20,30 30,40 0,150 -30,40 -20,30"
       id="path274"
       inkscape:connector-curvature="0" />
  </g>
  <g
     style="fill:#008484;fill-opacity:0;stroke:#008484;stroke-width:60;stroke-linecap:round;stroke-linejoin:round;stroke-opacity:1"
     id="g276"
     transform="translate(-8310.0203,-10410)">
    <path
       d="m 17740,14900 -20,-20 -20,-50 0,-120 20,-40 20,-30 50,-20 50,0 70,20 290,290 0,-310"
       id="path278"
       inkscape:connector-curvature="0" />
    <path
       d="m 18200,14400 -500,0 500,-280 -500,0"
       id="path280"
       inkscape:connector-curvature="0" />
    <path
       d="m 17740,13900 -20,-20 -20,-50 0,-120 20,-40 20,-30 50,-20 50,0 70,20 290,290 0,-310"
       id="path282"
       inkscape:connector-curvature="0" />
    <path
       d="m 17740,13420 -20,-20 -20,-50 0,-120 20,-40 20,-30 50,-20 50,0 70,20 290,290 0,-310"
       id="path284"
       inkscape:connector-curvature="0" />
    <path
       d="m 17740,12940 -20,-20 -20,-50 0,-120 20,-40 20,-30 50,-20 50,0 70,20 290,290 0,-310"
       id="path286"
       inkscape:connector-curvature="0" />
    <path
       d="m 17740,12460 -20,-20 -20,-50 0,-120 20,-40 20,-30 50,-20 50,0 70,20 290,290 0,-310"
       id="path288"
       inkscape:connector-curvature="0" />
  </g>
  <g
     style="fill:#840000;fill-opacity:0;stroke:#840000;stroke-width:60;stroke-linecap:round;stroke-linejoin:round;stroke-opacity:1"
     id="g290"
     transform="translate(-8310.0203,-10410)">
    <path
       d="m 9080,15210 -30,30 -90,30 -60,0 -80,-30 -60,-50 -30,-60 -30,-120 0,-80 30,-120 30,-50 60,-60 80,-30 60,0 90,30 30,30"
       id="path292"
       inkscape:connector-curvature="0" />
    <path
       d="m 9330,15270 0,-600"
       id="path294"
       inkscape:connector-curvature="0" />
    <path
       d="m 9330,14960 350,0"
       id="path296"
       inkscape:connector-curvature="0" />
    <path
       d="m 9680,15270 0,-600"
       id="path298"
       inkscape:connector-curvature="0" />
    <path
       d="m 9910,14670 370,0 -200,230 80,0 60,30 30,30 30,50 0,150 -30,50 -30,30 -60,30 -170,0 -60,-30 -20,-30"
       id="path300"
       inkscape:connector-curvature="0" />
  </g>
  <g
     style="fill:#840000;fill-opacity:0;stroke:#840000;stroke-width:100;stroke-linecap:round;stroke-linejoin:round;stroke-opacity:1"
     id="g302"
     transform="translate(-8310.0203,-10410)">
    <polyline
       fill="none;"
       points="10750,15000 10450,14460 8360,14460 8360,15000 8360,15540 10450,15540 10750,15000 "
       id="polyline304" />
  </g>
  <g
     style="fill:#840000;fill-opacity:0;stroke:#840000;stroke-width:60;stroke-linecap:round;stroke-linejoin:round;stroke-opacity:1"
     id="g306"
     transform="translate(-8310.0203,-10410)" />
  <g
     style="fill:#008400;fill-opacity:0;stroke:#008400;stroke-width:60;stroke-linecap:round;stroke-linejoin:round;stroke-opacity:1"
     id="g308"
     transform="translate(-8310.0203,-10410)">
    <path
       d="m 11000,16750 5750,0"
       id="path310"
       inkscape:connector-curvature="0" />
    <path
       d="m 15250,11000 2500,0"
       id="path312"
       inkscape:connector-curvature="0" />
    <path
       d="m 10750,11000 1500,0"
       id="path314"
       inkscape:connector-curvature="0" />
    <path
       d="m 16750,11750 0,-750"
       id="path316"
       inkscape:connector-curvature="0" />
  </g>
  <g
     style="fill:#008400;fill-opacity:0;stroke:#008400;stroke-width:0;stroke-linecap:round;stroke-linejoin:round;stroke-opacity:1"
     id="g318"
     transform="translate(-8310.0203,-10410)" />
  <g
     style="fill:#008400;fill-opacity:1;stroke:#008400;stroke-width:100;stroke-linecap:round;stroke-linejoin:round;stroke-opacity:1"
     id="g320"
     transform="translate(-8310.0203,-10410)">
    <circle
       cx="16750"
       cy="11000"
       r="200"
       id="circle322" />
  </g>
  <g
     style="fill:#008400;fill-opacity:1;stroke:#008400;stroke-width:60;stroke-linecap:round;stroke-linejoin:round;stroke-opacity:1"
     id="g324"
     transform="translate(-8310.0203,-10410)" />
  <g
     style="fill:#008400;fill-opacity:0;stroke:#008400;stroke-width:60;stroke-linecap:round;stroke-linejoin:round;stroke-opacity:1"
     id="g326"
     transform="translate(-8310.0203,-10410)">
    <path
       d="m 16750,16750 0,-1000"
       id="path328"
       inkscape:connector-curvature="0" />
    <path
       d="m 13750,13750 0,1250"
       id="path330"
       inkscape:connector-curvature="0" />
    <path
       d="m 13750,15000 -3000,0"
       id="path332"
       inkscape:connector-curvature="0" />
  </g>
</svg>
