<?xml version="1.0" encoding="UTF-8" standalone="no"?>
<svg
   xmlns:dc="http://purl.org/dc/elements/1.1/"
   xmlns:cc="http://creativecommons.org/ns#"
   xmlns:rdf="http://www.w3.org/1999/02/22-rdf-syntax-ns#"
   xmlns:svg="http://www.w3.org/2000/svg"
   xmlns="http://www.w3.org/2000/svg"
   xmlns:sodipodi="http://sodipodi.sourceforge.net/DTD/sodipodi-0.dtd"
   xmlns:inkscape="http://www.inkscape.org/namespaces/inkscape"
   version="1.1"
   width="30.6mm"
   height="45.599998mm"
   viewBox="0 0 12047.244 17952.756"
   id="svg236"
   sodipodi:docname="tranCB.svg"
   inkscape:version="0.92.2 (5c3e80d, 2017-08-06)">
  <metadata
     id="metadata242">
    <rdf:RDF>
      <cc:Work
         rdf:about="">
        <dc:format>image/svg+xml</dc:format>
        <dc:type
           rdf:resource="http://purl.org/dc/dcmitype/StillImage" />
        <dc:title>SVG Picture created as Project.svg date 2017/08/02 22:25:56 </dc:title>
      </cc:Work>
    </rdf:RDF>
  </metadata>
  <defs
     id="defs240" />
  <sodipodi:namedview
     pagecolor="#ffffff"
     bordercolor="#666666"
     borderopacity="1"
     objecttolerance="10"
     gridtolerance="10"
     guidetolerance="10"
     inkscape:pageopacity="0"
     inkscape:pageshadow="2"
     inkscape:window-width="1920"
     inkscape:window-height="986"
     id="namedview238"
     showgrid="false"
     units="mm"
     inkscape:zoom="1.7383042"
     inkscape:cx="38.811357"
     inkscape:cy="129.80876"
     inkscape:window-x="-11"
     inkscape:window-y="-11"
     inkscape:window-maximized="1"
     inkscape:current-layer="svg236" />
  <title
     id="title2">SVG Picture created as Project.svg date 2017/08/02 22:25:56 </title>
  <desc
     id="desc4">Picture generated by Eeschema-SVG </desc>
  <g
     style="fill:#000000;fill-opacity:1;stroke:#000000;stroke-linecap:round;stroke-linejoin:round;stroke-opacity:1"
     id="g6"
     transform="translate(0,-22046.559)" />
  <g
     style="fill:#000000;fill-opacity:0;stroke:#000000;stroke-width:0;stroke-linecap:round;stroke-linejoin:round;stroke-opacity:1"
     id="g8"
     transform="translate(0,-22046.559)" />
  <g
     style="fill:#840000;fill-opacity:0;stroke:#840000;stroke-width:0;stroke-linecap:round;stroke-linejoin:round;stroke-opacity:1"
     id="g10"
     transform="translate(0,-22046.559)" />
  <g
     style="fill:#840000;fill-opacity:0;stroke:#840000;stroke-width:0;stroke-linecap:round;stroke-linejoin:round;stroke-opacity:1"
     id="g114"
     transform="translate(0,-22046.559)" />
  <g
     style="fill:#008484;fill-opacity:0;stroke:#008484;stroke-width:0;stroke-linecap:round;stroke-linejoin:round;stroke-opacity:1"
     id="g146"
     transform="translate(0,-22046.559)" />
  <g
     style="fill:#840000;fill-opacity:0;stroke:#840000;stroke-width:0;stroke-linecap:round;stroke-linejoin:round;stroke-opacity:1"
     id="g148"
     transform="translate(0,-22046.559)" />
  <g
     style="fill:#840000;fill-opacity:0;stroke:#840000;stroke-width:80;stroke-linecap:round;stroke-linejoin:round;stroke-opacity:1"
     id="g210"
     transform="translate(0,-22046.559)" />
  <g
     style="fill:#008400;fill-opacity:0;stroke:#008400;stroke-width:0;stroke-linecap:round;stroke-linejoin:round;stroke-opacity:1"
     id="g220"
     transform="translate(0,-22046.559)" />
  <g
     style="fill:#008400;fill-opacity:1;stroke:#008400;stroke-width:80;stroke-linecap:round;stroke-linejoin:round;stroke-opacity:1"
     id="g226"
     transform="translate(0,-22046.559)" />
  <g
     id="g449"
     transform="translate(-11325.693,-9702.5794)">
    <path
       d="m 20770,14110 v 280"
       id="path134"
       inkscape:connector-curvature="0"
       style="fill:#008484;fill-opacity:0;stroke:#008484;stroke-width:80;stroke-linecap:round;stroke-linejoin:round;stroke-opacity:1" />
    <path
       d="m 20770,14250 h -500 l 70,50 50,50 20,40"
       id="path136"
       inkscape:connector-curvature="0"
       style="fill:#008484;fill-opacity:0;stroke:#008484;stroke-width:80;stroke-linecap:round;stroke-linejoin:round;stroke-opacity:1" />
    <path
       d="m 20770,13890 h -500"
       id="path138"
       inkscape:connector-curvature="0"
       style="fill:#008484;fill-opacity:0;stroke:#008484;stroke-width:80;stroke-linecap:round;stroke-linejoin:round;stroke-opacity:1" />
    <path
       d="m 20770,13610 -290,210"
       id="path140"
       inkscape:connector-curvature="0"
       style="fill:#008484;fill-opacity:0;stroke:#008484;stroke-width:80;stroke-linecap:round;stroke-linejoin:round;stroke-opacity:1" />
    <path
       d="m 20270,13610 280,280"
       id="path142"
       inkscape:connector-curvature="0"
       style="fill:#008484;fill-opacity:0;stroke:#008484;stroke-width:80;stroke-linecap:round;stroke-linejoin:round;stroke-opacity:1" />
    <path
       d="m 20770,23110 v 280"
       id="path168"
       inkscape:connector-curvature="0"
       style="fill:#008484;fill-opacity:0;stroke:#008484;stroke-width:80;stroke-linecap:round;stroke-linejoin:round;stroke-opacity:1" />
    <path
       d="m 20770,23250 h -500 l 70,50 50,50 20,40"
       id="path170"
       inkscape:connector-curvature="0"
       style="fill:#008484;fill-opacity:0;stroke:#008484;stroke-width:80;stroke-linecap:round;stroke-linejoin:round;stroke-opacity:1" />
    <path
       d="m 20770,22890 h -500"
       id="path172"
       inkscape:connector-curvature="0"
       style="fill:#008484;fill-opacity:0;stroke:#008484;stroke-width:80;stroke-linecap:round;stroke-linejoin:round;stroke-opacity:1" />
    <path
       d="m 20770,22610 -290,210"
       id="path174"
       inkscape:connector-curvature="0"
       style="fill:#008484;fill-opacity:0;stroke:#008484;stroke-width:80;stroke-linecap:round;stroke-linejoin:round;stroke-opacity:1" />
    <path
       d="m 20270,22610 280,280"
       id="path176"
       inkscape:connector-curvature="0"
       style="fill:#008484;fill-opacity:0;stroke:#008484;stroke-width:80;stroke-linecap:round;stroke-linejoin:round;stroke-opacity:1" />
    <g
       id="g320">
      <g
         style="fill:#840000;fill-opacity:0;stroke:#840000;stroke-width:100;stroke-linecap:round;stroke-linejoin:round;stroke-opacity:1"
         id="g14">
        <circle
           cx="20000"
           cy="18500"
           r="1110"
           id="circle12" />
      </g>
      <g
         style="fill:#840000;fill-opacity:0;stroke:#840000;stroke-width:80;stroke-linecap:round;stroke-linejoin:round;stroke-opacity:1"
         id="g22">
        <polyline
           fill="none;"
           points="19500,18500 19750,18500 "
           id="polyline16" />
        <polyline
           fill="none;"
           points="19750,18250 20500,17500 "
           id="polyline18" />
        <polyline
           fill="none;"
           points="19750,18750 20500,19500 20500,19500 "
           id="polyline20" />
      </g>
      <g
         style="fill:#840000;fill-opacity:0;stroke:#840000;stroke-width:200;stroke-linecap:round;stroke-linejoin:round;stroke-opacity:1"
         id="g26">
        <polyline
           fill="none;"
           points="19750,17750 19750,19250 19750,19250 "
           id="polyline24" />
      </g>
      <g
         style="fill:#840000;fill-opacity:1;stroke:#840000;stroke-width:80;stroke-linecap:round;stroke-linejoin:round;stroke-opacity:1"
         id="g30">
        <polyline
           style="fill-rule:evenodd"
           points="20000,19200 20200,19000 20400,19400 20000,19200 20000,19200 "
           id="polyline28" />
      </g>
      <g
         style="fill:#840000;fill-opacity:0;stroke:#840000;stroke-width:80;stroke-linecap:round;stroke-linejoin:round;stroke-opacity:1"
         id="g34">
        <path
           inkscape:connector-curvature="0"
           d="M 20500,17500 V 16500"
           id="path32" />
      </g>
      <g
         style="fill:#008484;fill-opacity:0;stroke:#008484;stroke-width:80;stroke-linecap:round;stroke-linejoin:round;stroke-opacity:1"
         id="g38">
        <path
           inkscape:connector-curvature="0"
           d="m 20330,16850 20,20 30,70 v 50 l -30,70 -50,50 -40,20 -100,20 h -70 l -90,-20 -50,-20 -50,-50 -20,-70 v -50 l 20,-70 20,-20"
           id="path36" />
      </g>
      <g
         style="fill:#840000;fill-opacity:0;stroke:#840000;stroke-width:80;stroke-linecap:round;stroke-linejoin:round;stroke-opacity:1"
         id="g46">
        <path
           inkscape:connector-curvature="0"
           d="m 21080,16860 v 280"
           id="path40" />
        <path
           inkscape:connector-curvature="0"
           d="m 21080,17000 h -500 l 70,50 50,50 20,40"
           id="path42" />
        <path
           inkscape:connector-curvature="0"
           d="M 19500,18500 H 17500"
           id="path44" />
      </g>
      <g
         style="fill:#008484;fill-opacity:0;stroke:#008484;stroke-width:80;stroke-linecap:round;stroke-linejoin:round;stroke-opacity:1"
         id="g50">
        <path
           inkscape:connector-curvature="0"
           d="m 18540,18110 70,30 20,20 20,50 v 70 l -20,50 -20,20 -50,30 h -190 v -500 h 170 l 40,20 30,20 20,50 v 50 l -20,50 -30,20 -40,20 h -170"
           id="path48" />
      </g>
      <g
         style="fill:#840000;fill-opacity:0;stroke:#840000;stroke-width:80;stroke-linecap:round;stroke-linejoin:round;stroke-opacity:1"
         id="g56">
        <path
           inkscape:connector-curvature="0"
           d="m 18360,18620 20,-20 50,-20 h 120 l 40,20 30,20 20,50 v 50 l -20,70 -290,290 h 310"
           id="path52" />
        <path
           inkscape:connector-curvature="0"
           d="m 20500,19500 v 1000"
           id="path54" />
      </g>
      <g
         style="fill:#008484;fill-opacity:0;stroke:#008484;stroke-width:80;stroke-linecap:round;stroke-linejoin:round;stroke-opacity:1"
         id="g62">
        <path
           inkscape:connector-curvature="0"
           d="m 20110,20100 v -170"
           id="path58" />
        <path
           inkscape:connector-curvature="0"
           d="m 20380,19860 v 240 h -500 v -240"
           id="path60" />
      </g>
      <g
         style="fill:#840000;fill-opacity:0;stroke:#840000;stroke-width:80;stroke-linecap:round;stroke-linejoin:round;stroke-opacity:1"
         id="g66">
        <path
           inkscape:connector-curvature="0"
           d="m 20580,20170 v -310 l 190,170 v -80 l 20,-40 20,-30 50,-20 h 120 l 50,20 20,30 30,40 v 150 l -30,40 -20,30"
           id="path64" />
      </g>
      <g
         style="fill:#840000;fill-opacity:0;stroke:#840000;stroke-width:80;stroke-linecap:round;stroke-linejoin:round;stroke-opacity:1"
         id="g96">
        <path
           inkscape:connector-curvature="0"
           d="m 21020,11270 v -600 h 230 l 60,30 30,30 30,60 v 80 l -30,60 -30,30 -60,30 h -230"
           id="path88" />
        <path
           inkscape:connector-curvature="0"
           d="m 21540,10670 200,600 200,-600"
           id="path90" />
        <path
           inkscape:connector-curvature="0"
           d="m 22450,11270 h -350"
           id="path92" />
        <path
           inkscape:connector-curvature="0"
           d="m 22280,11270 v -600 l -60,90 -60,50 -60,30"
           id="path94" />
      </g>
      <g
         style="fill:#840000;fill-opacity:0;stroke:#840000;stroke-width:100;stroke-linecap:round;stroke-linejoin:round;stroke-opacity:1"
         id="g100">
        <polyline
           fill="none;"
           points="20500,11000 20800,11560 22790,11560 22790,11000 22790,10440 20800,10440 20500,11000 "
           id="polyline98" />
      </g>
      <g
         style="fill:#840000;fill-opacity:0;stroke:#840000;stroke-width:80;stroke-linecap:round;stroke-linejoin:round;stroke-opacity:1"
         id="g108">
        <path
           inkscape:connector-curvature="0"
           d="m 18580,26270 v -600 h 230 l 60,30 30,30 30,60 v 80 l -30,60 -30,30 -60,30 h -230"
           id="path102" />
        <path
           inkscape:connector-curvature="0"
           d="m 19100,25670 200,600 200,-600"
           id="path104" />
        <path
           inkscape:connector-curvature="0"
           d="m 19660,25730 30,-30 60,-30 h 140 l 60,30 30,30 30,60 v 50 l -30,90 -340,340 h 370"
           id="path106" />
      </g>
      <g
         style="fill:#840000;fill-opacity:0;stroke:#840000;stroke-width:100;stroke-linecap:round;stroke-linejoin:round;stroke-opacity:1"
         id="g112">
        <polyline
           fill="none;"
           points="20500,26000 20200,25440 18210,25440 18210,26000 18210,26560 20200,26560 20500,26000 "
           id="polyline110" />
      </g>
      <g
         style="fill:#840000;fill-opacity:0;stroke:#840000;stroke-width:100;stroke-linecap:round;stroke-linejoin:round;stroke-opacity:1"
         id="g118">
        <rect
           x="20100"
           y="13000"
           width="800"
           height="2000"
           rx="0"
           id="rect116" />
      </g>
      <g
         style="fill:#840000;fill-opacity:0;stroke:#840000;stroke-width:80;stroke-linecap:round;stroke-linejoin:round;stroke-opacity:1"
         id="g124">
        <path
           inkscape:connector-curvature="0"
           d="m 20500,13000 v -500"
           id="path120" />
        <path
           inkscape:connector-curvature="0"
           d="m 20500,15000 v 500"
           id="path122" />
      </g>
      <g
         style="fill:#840000;fill-opacity:0;stroke:#840000;stroke-width:100;stroke-linecap:round;stroke-linejoin:round;stroke-opacity:1"
         id="g152">
        <rect
           x="20100"
           y="22000"
           width="800"
           height="2000"
           rx="0"
           id="rect150" />
      </g>
      <g
         style="fill:#840000;fill-opacity:0;stroke:#840000;stroke-width:80;stroke-linecap:round;stroke-linejoin:round;stroke-opacity:1"
         id="g158">
        <path
           inkscape:connector-curvature="0"
           d="m 20500,22000 v -500"
           id="path154" />
        <path
           inkscape:connector-curvature="0"
           d="m 20500,24000 v 500"
           id="path156" />
      </g>
      <g
         style="fill:#840000;fill-opacity:0;stroke:#840000;stroke-width:80;stroke-linecap:round;stroke-linejoin:round;stroke-opacity:1"
         id="g186">
        <path
           inkscape:connector-curvature="0"
           d="m 12750,18200 -60,-30 h -90 l -80,30 -60,60 -30,50 -30,120 v 80 l 30,120 30,60 60,50 80,30 h 60 l 90,-30 30,-30 v -200 h -120"
           id="path180" />
        <path
           inkscape:connector-curvature="0"
           d="m 13030,18770 v -600 l 350,600 v -600"
           id="path182" />
        <path
           inkscape:connector-curvature="0"
           d="m 13660,18770 v -600 h 150 l 80,30 60,60 30,50 30,120 v 80 l -30,120 -30,60 -60,50 -80,30 h -150"
           id="path184" />
      </g>
      <g
         style="fill:#840000;fill-opacity:0;stroke:#840000;stroke-width:100;stroke-linecap:round;stroke-linejoin:round;stroke-opacity:1"
         id="g190">
        <polyline
           fill="none;"
           points="14500,18500 14200,17940 12060,17940 12060,18500 12060,19060 14200,19060 14500,18500 "
           id="polyline188" />
      </g>
      <g
         style="fill:#840000;fill-opacity:0;stroke:#840000;stroke-width:80;stroke-linecap:round;stroke-linejoin:round;stroke-opacity:1"
         id="g204">
        <path
           inkscape:connector-curvature="0"
           d="m 16310,16210 -30,30 -90,30 h -60 l -80,-30 -60,-50 -30,-60 -30,-120 v -80 l 30,-120 30,-50 60,-60 80,-30 h 60 l 90,30 30,30"
           id="path192" />
        <path
           inkscape:connector-curvature="0"
           d="m 16560,16270 v -600"
           id="path194" />
        <path
           inkscape:connector-curvature="0"
           d="m 16560,15960 h 350"
           id="path196" />
        <path
           inkscape:connector-curvature="0"
           d="m 16910,16270 v -600"
           id="path198" />
        <path
           inkscape:connector-curvature="0"
           d="m 17510,16270 h -350"
           id="path200" />
        <path
           inkscape:connector-curvature="0"
           d="m 17340,16270 v -600 l -60,90 -60,50 -60,30"
           id="path202" />
      </g>
      <g
         style="fill:#840000;fill-opacity:0;stroke:#840000;stroke-width:100;stroke-linecap:round;stroke-linejoin:round;stroke-opacity:1"
         id="g208">
        <polyline
           fill="none;"
           points="18000,16000 17700,15440 15590,15440 15590,16000 15590,16560 17700,16560 18000,16000 "
           id="polyline206" />
      </g>
      <g
         style="fill:#008400;fill-opacity:0;stroke:#008400;stroke-width:80;stroke-linecap:round;stroke-linejoin:round;stroke-opacity:1"
         id="g218">
        <path
           inkscape:connector-curvature="0"
           d="m 20500,11000 v 1500"
           id="path212" />
        <path
           inkscape:connector-curvature="0"
           d="m 20500,15500 v 1000"
           id="path214" />
        <path
           inkscape:connector-curvature="0"
           d="m 18000,16000 h 2500"
           id="path216" />
      </g>
      <g
         style="fill:#008400;fill-opacity:1;stroke:#008400;stroke-width:100;stroke-linecap:round;stroke-linejoin:round;stroke-opacity:1"
         id="g224">
        <circle
           cx="20500"
           cy="16000"
           r="200"
           id="circle222" />
      </g>
      <g
         style="fill:#008400;fill-opacity:0;stroke:#008400;stroke-width:80;stroke-linecap:round;stroke-linejoin:round;stroke-opacity:1"
         id="g234">
        <path
           inkscape:connector-curvature="0"
           d="m 14500,18500 h 3000"
           id="path228" />
        <path
           inkscape:connector-curvature="0"
           d="m 20500,20500 v 1000"
           id="path230" />
        <path
           inkscape:connector-curvature="0"
           d="m 20500,24500 v 1500"
           id="path232" />
      </g>
    </g>
  </g>
</svg>
