<?xml version="1.0" standalone="no"?>
 <!DOCTYPE svg PUBLIC "-//W3C//DTD SVG 1.1//EN" 
 "http://www.w3.org/Graphics/SVG/1.1/DTD/svg11.dtd"> 
<svg xmlns="http://www.w3.org/2000/svg" version="1.1" 
    width="10.16cm" height="10.16cm" viewBox="0 0 40000 40000 ">
<title>SVG Picture created as Project.svg date 2017/08/02 22:25:56 </title>
  <desc>Picture generated by Eeschema-SVG </desc>
<g style="fill:#000000; fill-opacity:1;stroke:#000000; stroke-opacity:1;
stroke-linecap:round; stroke-linejoin:round; "
 transform="translate(0 0) scale(1 1)">
</g>
<g style="fill:#000000; fill-opacity:0.0; 
stroke:#000000; stroke-width:0; stroke-opacity:1; 
stroke-linecap:round; stroke-linejoin:round;">
</g>
<g style="fill:#840000; fill-opacity:0.0; 
stroke:#840000; stroke-width:0; stroke-opacity:1; 
stroke-linecap:round; stroke-linejoin:round;">
</g>
<g style="fill:#840000; fill-opacity:0.0; 
stroke:#840000; stroke-width:100; stroke-opacity:1; 
stroke-linecap:round; stroke-linejoin:round;">
<circle cx="20000" cy="18500" r="1110" /> 
</g>
<g style="fill:#840000; fill-opacity:0.0; 
stroke:#840000; stroke-width:80; stroke-opacity:1; 
stroke-linecap:round; stroke-linejoin:round;">
<polyline fill="none;"
points="19500,18500
19750,18500
" /> 
<polyline fill="none;"
points="19750,18250
20500,17500
" /> 
<polyline fill="none;"
points="19750,18750
20500,19500
20500,19500
" /> 
</g>
<g style="fill:#840000; fill-opacity:0.0; 
stroke:#840000; stroke-width:200; stroke-opacity:1; 
stroke-linecap:round; stroke-linejoin:round;">
<polyline fill="none;"
points="19750,17750
19750,19250
19750,19250
" /> 
</g>
<g style="fill:#840000; fill-opacity:1.0; 
stroke:#840000; stroke-width:80; stroke-opacity:1; 
stroke-linecap:round; stroke-linejoin:round;">
<polyline style="fill-rule:evenodd;"
points="20000,19200
20200,19000
20400,19400
20000,19200
20000,19200
" /> 
</g>
<g style="fill:#840000; fill-opacity:0.0; 
stroke:#840000; stroke-width:80; stroke-opacity:1; 
stroke-linecap:round; stroke-linejoin:round;">
<path d="M20500 17500
L20500 16500
" />
</g>
<g style="fill:#008484; fill-opacity:0.0; 
stroke:#008484; stroke-width:80; stroke-opacity:1; 
stroke-linecap:round; stroke-linejoin:round;">
<path d="M20330 16850
L20350 16870
L20380 16940
L20380 16990
L20350 17060
L20300 17110
L20260 17130
L20160 17150
L20090 17150
L20000 17130
L19950 17110
L19900 17060
L19880 16990
L19880 16940
L19900 16870
L19920 16850
" />
</g>
<g style="fill:#840000; fill-opacity:0.0; 
stroke:#840000; stroke-width:80; stroke-opacity:1; 
stroke-linecap:round; stroke-linejoin:round;">
<path d="M21080 16860
L21080 17140
" />
<path d="M21080 17000
L20580 17000
L20650 17050
L20700 17100
L20720 17140
" />
<path d="M19500 18500
L17500 18500
" />
</g>
<g style="fill:#008484; fill-opacity:0.0; 
stroke:#008484; stroke-width:80; stroke-opacity:1; 
stroke-linecap:round; stroke-linejoin:round;">
<path d="M18540 18110
L18610 18140
L18630 18160
L18650 18210
L18650 18280
L18630 18330
L18610 18350
L18560 18380
L18370 18380
L18370 17880
L18540 17880
L18580 17900
L18610 17920
L18630 17970
L18630 18020
L18610 18070
L18580 18090
L18540 18110
L18370 18110
" />
</g>
<g style="fill:#840000; fill-opacity:0.0; 
stroke:#840000; stroke-width:80; stroke-opacity:1; 
stroke-linecap:round; stroke-linejoin:round;">
<path d="M18360 18620
L18380 18600
L18430 18580
L18550 18580
L18590 18600
L18620 18620
L18640 18670
L18640 18720
L18620 18790
L18330 19080
L18640 19080
" />
<path d="M20500 19500
L20500 20500
" />
</g>
<g style="fill:#008484; fill-opacity:0.0; 
stroke:#008484; stroke-width:80; stroke-opacity:1; 
stroke-linecap:round; stroke-linejoin:round;">
<path d="M20110 20100
L20110 19930
" />
<path d="M20380 19860
L20380 20100
L19880 20100
L19880 19860
" />
</g>
<g style="fill:#840000; fill-opacity:0.0; 
stroke:#840000; stroke-width:80; stroke-opacity:1; 
stroke-linecap:round; stroke-linejoin:round;">
<path d="M20580 20170
L20580 19860
L20770 20030
L20770 19950
L20790 19910
L20810 19880
L20860 19860
L20980 19860
L21030 19880
L21050 19910
L21080 19950
L21080 20100
L21050 20140
L21030 20170
" />
</g>
<g style="fill:#008484; fill-opacity:0.0; 
stroke:#008484; stroke-width:80; stroke-opacity:1; 
stroke-linecap:round; stroke-linejoin:round;">
<path d="M-6550 48810
L-6600 48790
L-6640 48740
L-6710 48670
L-6760 48650
L-6810 48650
" />
<path d="M-6790 48770
L-6830 48740
L-6880 48690
L-6900 48600
L-6900 48430
L-6880 48340
L-6830 48290
L-6790 48270
L-6690 48270
L-6640 48290
L-6600 48340
L-6570 48430
L-6570 48600
L-6600 48690
L-6640 48740
L-6690 48770
L-6790 48770
" />
<path d="M-6290 48720
L-6270 48740
L-6290 48770
L-6310 48740
L-6290 48720
L-6290 48770
" />
<path d="M-6380 48290
L-6340 48270
L-6220 48270
L-6170 48290
L-6150 48340
L-6150 48390
L-6170 48430
L-6190 48460
L-6240 48480
L-6270 48500
L-6290 48550
L-6290 48580
" />
<path d="M-5710 49000
L-5640 49030
L-5620 49050
L-5600 49100
L-5600 49170
L-5620 49220
L-5640 49240
L-5690 49270
L-5880 49270
L-5880 48770
L-5710 48770
L-5670 48790
L-5640 48810
L-5620 48860
L-5620 48910
L-5640 48960
L-5670 48980
L-5710 49000
L-5880 49000
" />
<path d="M-5100 49220
L-5120 49240
L-5190 49270
L-5240 49270
L-5310 49240
L-5360 49190
L-5380 49150
L-5400 49050
L-5400 48980
L-5380 48890
L-5360 48840
L-5310 48790
L-5240 48770
L-5190 48770
L-5120 48790
L-5100 48810
" />
<path d="M-4900 48810
L-4880 48790
L-4830 48770
L-4710 48770
L-4670 48790
L-4640 48810
L-4620 48860
L-4620 48910
L-4640 48980
L-4930 49270
L-4620 49270
" />
<path d="M-4450 48770
L-4140 48770
L-4310 48960
L-4230 48960
L-4190 48980
L-4160 49000
L-4140 49050
L-4140 49170
L-4160 49220
L-4190 49240
L-4230 49270
L-4380 49270
L-4420 49240
L-4450 49220
" />
<path d="M-3970 48770
L-3640 48770
L-3850 49270
" />
</g>
<g style="fill:#840000; fill-opacity:0.0; 
stroke:#840000; stroke-width:80; stroke-opacity:1; 
stroke-linecap:round; stroke-linejoin:round;">
<path d="M21020 11270
L21020 10670
L21250 10670
L21310 10700
L21340 10730
L21370 10790
L21370 10870
L21340 10930
L21310 10960
L21250 10990
L21020 10990
" />
<path d="M21540 10670
L21740 11270
L21940 10670
" />
<path d="M22450 11270
L22100 11270
" />
<path d="M22280 11270
L22280 10670
L22220 10760
L22160 10810
L22100 10840
" />
</g>
<g style="fill:#840000; fill-opacity:0.0; 
stroke:#840000; stroke-width:100; stroke-opacity:1; 
stroke-linecap:round; stroke-linejoin:round;">
<polyline fill="none;"
points="20500,11000
20800,11560
22790,11560
22790,11000
22790,10440
20800,10440
20500,11000
" /> 
</g>
<g style="fill:#840000; fill-opacity:0.0; 
stroke:#840000; stroke-width:80; stroke-opacity:1; 
stroke-linecap:round; stroke-linejoin:round;">
<path d="M18580 26270
L18580 25670
L18810 25670
L18870 25700
L18900 25730
L18930 25790
L18930 25870
L18900 25930
L18870 25960
L18810 25990
L18580 25990
" />
<path d="M19100 25670
L19300 26270
L19500 25670
" />
<path d="M19660 25730
L19690 25700
L19750 25670
L19890 25670
L19950 25700
L19980 25730
L20010 25790
L20010 25840
L19980 25930
L19640 26270
L20010 26270
" />
</g>
<g style="fill:#840000; fill-opacity:0.0; 
stroke:#840000; stroke-width:100; stroke-opacity:1; 
stroke-linecap:round; stroke-linejoin:round;">
<polyline fill="none;"
points="20500,26000
20200,25440
18210,25440
18210,26000
18210,26560
20200,26560
20500,26000
" /> 
</g>
<g style="fill:#840000; fill-opacity:0.0; 
stroke:#840000; stroke-width:0; stroke-opacity:1; 
stroke-linecap:round; stroke-linejoin:round;">
</g>
<g style="fill:#840000; fill-opacity:0.0; 
stroke:#840000; stroke-width:100; stroke-opacity:1; 
stroke-linecap:round; stroke-linejoin:round;">
<rect x="20100" y="13000" width="800" height="2000" rx="0" />
</g>
<g style="fill:#840000; fill-opacity:0.0; 
stroke:#840000; stroke-width:80; stroke-opacity:1; 
stroke-linecap:round; stroke-linejoin:round;">
<path d="M20500 13000
L20500 12500
" />
<path d="M20500 15000
L20500 15500
" />
</g>
<g style="fill:#008484; fill-opacity:0.0; 
stroke:#008484; stroke-width:80; stroke-opacity:1; 
stroke-linecap:round; stroke-linejoin:round;">
<path d="M-12730 21050
L-12970 21210
" />
<path d="M-12730 21330
L-13230 21330
L-13230 21140
L-13210 21090
L-13190 21070
L-13140 21050
L-13070 21050
L-13020 21070
L-13000 21090
L-12970 21140
L-12970 21330
" />
<path d="M-12780 20760
L-12760 20740
L-12730 20760
L-12760 20780
L-12780 20760
L-12730 20760
" />
<path d="M-13210 20850
L-13230 20810
L-13230 20690
L-13210 20640
L-13160 20620
L-13110 20620
L-13070 20640
L-13040 20660
L-13020 20710
L-13000 20740
L-12950 20760
L-12920 20760
" />
<path d="M20770 14110
L20770 14390
" />
<path d="M20770 14250
L20270 14250
L20340 14300
L20390 14350
L20410 14390
" />
<path d="M20770 13890
L20270 13890
" />
<path d="M20770 13610
L20480 13820
" />
<path d="M20270 13610
L20550 13890
" />
</g>
<g style="fill:#008484; fill-opacity:0.0; 
stroke:#008484; stroke-width:0; stroke-opacity:1; 
stroke-linecap:round; stroke-linejoin:round;">
</g>
<g style="fill:#840000; fill-opacity:0.0; 
stroke:#840000; stroke-width:0; stroke-opacity:1; 
stroke-linecap:round; stroke-linejoin:round;">
</g>
<g style="fill:#840000; fill-opacity:0.0; 
stroke:#840000; stroke-width:100; stroke-opacity:1; 
stroke-linecap:round; stroke-linejoin:round;">
<rect x="20100" y="22000" width="800" height="2000" rx="0" />
</g>
<g style="fill:#840000; fill-opacity:0.0; 
stroke:#840000; stroke-width:80; stroke-opacity:1; 
stroke-linecap:round; stroke-linejoin:round;">
<path d="M20500 22000
L20500 21500
" />
<path d="M20500 24000
L20500 24500
" />
</g>
<g style="fill:#008484; fill-opacity:0.0; 
stroke:#008484; stroke-width:80; stroke-opacity:1; 
stroke-linecap:round; stroke-linejoin:round;">
<path d="M-16230 18550
L-16470 18710
" />
<path d="M-16230 18830
L-16730 18830
L-16730 18640
L-16710 18590
L-16690 18570
L-16640 18550
L-16570 18550
L-16520 18570
L-16500 18590
L-16470 18640
L-16470 18830
" />
<path d="M-16280 18260
L-16260 18240
L-16230 18260
L-16260 18280
L-16280 18260
L-16230 18260
" />
<path d="M-16710 18350
L-16730 18310
L-16730 18190
L-16710 18140
L-16660 18120
L-16610 18120
L-16570 18140
L-16540 18160
L-16520 18210
L-16500 18240
L-16450 18260
L-16420 18260
" />
<path d="M20770 23110
L20770 23390
" />
<path d="M20770 23250
L20270 23250
L20340 23300
L20390 23350
L20410 23390
" />
<path d="M20770 22890
L20270 22890
" />
<path d="M20770 22610
L20480 22820
" />
<path d="M20270 22610
L20550 22890
" />
</g>
<g style="fill:#840000; fill-opacity:0.0; 
stroke:#840000; stroke-width:80; stroke-opacity:1; 
stroke-linecap:round; stroke-linejoin:round;">
<path d="M12750 18200
L12690 18170
L12600 18170
L12520 18200
L12460 18260
L12430 18310
L12400 18430
L12400 18510
L12430 18630
L12460 18690
L12520 18740
L12600 18770
L12660 18770
L12750 18740
L12780 18710
L12780 18510
L12660 18510
" />
<path d="M13030 18770
L13030 18170
L13380 18770
L13380 18170
" />
<path d="M13660 18770
L13660 18170
L13810 18170
L13890 18200
L13950 18260
L13980 18310
L14010 18430
L14010 18510
L13980 18630
L13950 18690
L13890 18740
L13810 18770
L13660 18770
" />
</g>
<g style="fill:#840000; fill-opacity:0.0; 
stroke:#840000; stroke-width:100; stroke-opacity:1; 
stroke-linecap:round; stroke-linejoin:round;">
<polyline fill="none;"
points="14500,18500
14200,17940
12060,17940
12060,18500
12060,19060
14200,19060
14500,18500
" /> 
</g>
<g style="fill:#840000; fill-opacity:0.0; 
stroke:#840000; stroke-width:80; stroke-opacity:1; 
stroke-linecap:round; stroke-linejoin:round;">
<path d="M16310 16210
L16280 16240
L16190 16270
L16130 16270
L16050 16240
L15990 16190
L15960 16130
L15930 16010
L15930 15930
L15960 15810
L15990 15760
L16050 15700
L16130 15670
L16190 15670
L16280 15700
L16310 15730
" />
<path d="M16560 16270
L16560 15670
" />
<path d="M16560 15960
L16910 15960
" />
<path d="M16910 16270
L16910 15670
" />
<path d="M17510 16270
L17160 16270
" />
<path d="M17340 16270
L17340 15670
L17280 15760
L17220 15810
L17160 15840
" />
</g>
<g style="fill:#840000; fill-opacity:0.0; 
stroke:#840000; stroke-width:100; stroke-opacity:1; 
stroke-linecap:round; stroke-linejoin:round;">
<polyline fill="none;"
points="18000,16000
17700,15440
15590,15440
15590,16000
15590,16560
17700,16560
18000,16000
" /> 
</g>
<g style="fill:#840000; fill-opacity:0.0; 
stroke:#840000; stroke-width:80; stroke-opacity:1; 
stroke-linecap:round; stroke-linejoin:round;">
</g>
<g style="fill:#008400; fill-opacity:0.0; 
stroke:#008400; stroke-width:80; stroke-opacity:1; 
stroke-linecap:round; stroke-linejoin:round;">
<path d="M20500 11000
L20500 12500
" />
<path d="M20500 15500
L20500 16500
" />
<path d="M18000 16000
L20500 16000
" />
</g>
<g style="fill:#008400; fill-opacity:0.0; 
stroke:#008400; stroke-width:0; stroke-opacity:1; 
stroke-linecap:round; stroke-linejoin:round;">
</g>
<g style="fill:#008400; fill-opacity:1.0; 
stroke:#008400; stroke-width:100; stroke-opacity:1; 
stroke-linecap:round; stroke-linejoin:round;">
<circle cx="20500" cy="16000" r="200" /> 
</g>
<g style="fill:#008400; fill-opacity:1.0; 
stroke:#008400; stroke-width:80; stroke-opacity:1; 
stroke-linecap:round; stroke-linejoin:round;">
</g>
<g style="fill:#008400; fill-opacity:0.0; 
stroke:#008400; stroke-width:80; stroke-opacity:1; 
stroke-linecap:round; stroke-linejoin:round;">
<path d="M14500 18500
L17500 18500
" />
<path d="M20500 20500
L20500 21500
" />
<path d="M20500 24500
L20500 26000
" />
</g> 
</svg>
