<?xml version="1.0" encoding="UTF-8" standalone="no"?>
<svg
   xmlns:dc="http://purl.org/dc/elements/1.1/"
   xmlns:cc="http://creativecommons.org/ns#"
   xmlns:rdf="http://www.w3.org/1999/02/22-rdf-syntax-ns#"
   xmlns:svg="http://www.w3.org/2000/svg"
   xmlns="http://www.w3.org/2000/svg"
   xmlns:sodipodi="http://sodipodi.sourceforge.net/DTD/sodipodi-0.dtd"
   xmlns:inkscape="http://www.inkscape.org/namespaces/inkscape"
   version="1.1"
   width="5.7002001cm"
   height="4.1006999cm"
   viewBox="0 0 22441.748 16144.503"
   id="svg998"
   sodipodi:docname="Wein_Bridge_Oscillator.svg"
   inkscape:version="0.92.2 (5c3e80d, 2017-08-06)">
  <metadata
     id="metadata1004">
    <rdf:RDF>
      <cc:Work
         rdf:about="">
        <dc:format>image/svg+xml</dc:format>
        <dc:type
           rdf:resource="http://purl.org/dc/dcmitype/StillImage" />
        <dc:title>SVG Picture created as PSLAB.svg date 2018/02/28 17:06:28 </dc:title>
      </cc:Work>
    </rdf:RDF>
  </metadata>
  <defs
     id="defs1002" />
  <sodipodi:namedview
     pagecolor="#ffffff"
     bordercolor="#666666"
     borderopacity="1"
     objecttolerance="10"
     gridtolerance="10"
     guidetolerance="10"
     inkscape:pageopacity="0"
     inkscape:pageshadow="2"
     inkscape:window-width="1920"
     inkscape:window-height="986"
     id="namedview1000"
     showgrid="false"
     inkscape:zoom="2.3786509"
     inkscape:cx="226.10873"
     inkscape:cy="75.981132"
     inkscape:window-x="-11"
     inkscape:window-y="-11"
     inkscape:window-maximized="1"
     inkscape:current-layer="svg998" />
  <title
     id="title2">SVG Picture created as PSLAB.svg date 2018/02/28 17:06:28 </title>
  <desc
     id="desc4">Picture generated by Eeschema-SVG </desc>
  <g
     style="fill:#000000;fill-opacity:1;stroke:#000000;stroke-linecap:round;stroke-linejoin:round;stroke-opacity:1"
     id="g6"
     transform="translate(0,-66535.489)" />
  <g
     style="fill:#000000;fill-opacity:0;stroke:#000000;stroke-width:-10;stroke-linecap:round;stroke-linejoin:round;stroke-opacity:1"
     id="g8"
     transform="translate(0,-66535.489)" />
  <g
     style="fill:#840000;fill-opacity:0;stroke:#840000;stroke-width:-10;stroke-linecap:round;stroke-linejoin:round;stroke-opacity:1"
     id="g10"
     transform="translate(0,-66535.489)" />
  <g
     style="fill:#840000;fill-opacity:0;stroke:#840000;stroke-width:100;stroke-linecap:round;stroke-linejoin:round;stroke-opacity:1"
     id="g12"
     transform="translate(0,-66535.489)" />
  <g
     style="fill:#840000;fill-opacity:0;stroke:#840000;stroke-width:100;stroke-linecap:round;stroke-linejoin:round;stroke-opacity:1"
     id="g18"
     transform="translate(0,-66535.489)" />
  <g
     style="fill:#840000;fill-opacity:0;stroke:#840000;stroke-width:100;stroke-linecap:round;stroke-linejoin:round;stroke-opacity:1"
     id="g24"
     transform="translate(0,-66535.489)" />
  <g
     style="fill:#840000;fill-opacity:0;stroke:#840000;stroke-width:100;stroke-linecap:round;stroke-linejoin:round;stroke-opacity:1"
     id="g30"
     transform="translate(0,-66535.489)" />
  <g
     style="fill:#840000;fill-opacity:0;stroke:#840000;stroke-width:100;stroke-linecap:round;stroke-linejoin:round;stroke-opacity:1"
     id="g36"
     transform="translate(0,-66535.489)" />
  <g
     style="fill:#840000;fill-opacity:0;stroke:#840000;stroke-width:100;stroke-linecap:round;stroke-linejoin:round;stroke-opacity:1"
     id="g42"
     transform="translate(0,-66535.489)" />
  <g
     style="fill:#840000;fill-opacity:0;stroke:#840000;stroke-width:100;stroke-linecap:round;stroke-linejoin:round;stroke-opacity:1"
     id="g48"
     transform="translate(0,-66535.489)" />
  <g
     style="fill:#840000;fill-opacity:0;stroke:#840000;stroke-width:100;stroke-linecap:round;stroke-linejoin:round;stroke-opacity:1"
     id="g54"
     transform="translate(0,-66535.489)" />
  <g
     style="fill:#840000;fill-opacity:0;stroke:#840000;stroke-width:100;stroke-linecap:round;stroke-linejoin:round;stroke-opacity:1"
     id="g60"
     transform="translate(0,-66535.489)" />
  <g
     style="fill:#840000;fill-opacity:0;stroke:#840000;stroke-width:100;stroke-linecap:round;stroke-linejoin:round;stroke-opacity:1"
     id="g68"
     transform="translate(0,-66535.489)" />
  <g
     style="fill:#840000;fill-opacity:0;stroke:#840000;stroke-width:100;stroke-linecap:round;stroke-linejoin:round;stroke-opacity:1"
     id="g74"
     transform="translate(0,-66535.489)" />
  <g
     style="fill:#840000;fill-opacity:0;stroke:#840000;stroke-width:100;stroke-linecap:round;stroke-linejoin:round;stroke-opacity:1"
     id="g80"
     transform="translate(0,-66535.489)" />
  <g
     style="fill:#840000;fill-opacity:0;stroke:#840000;stroke-width:100;stroke-linecap:round;stroke-linejoin:round;stroke-opacity:1"
     id="g88"
     transform="translate(0,-66535.489)" />
  <g
     style="fill:#840000;fill-opacity:0;stroke:#840000;stroke-width:100;stroke-linecap:round;stroke-linejoin:round;stroke-opacity:1"
     id="g94"
     transform="translate(0,-66535.489)" />
  <g
     style="fill:#840000;fill-opacity:0;stroke:#840000;stroke-width:100;stroke-linecap:round;stroke-linejoin:round;stroke-opacity:1"
     id="g100"
     transform="translate(0,-66535.489)" />
  <g
     style="fill:#840000;fill-opacity:0;stroke:#840000;stroke-width:100;stroke-linecap:round;stroke-linejoin:round;stroke-opacity:1"
     id="g106"
     transform="translate(0,-66535.489)" />
  <g
     style="fill:#840000;fill-opacity:0;stroke:#840000;stroke-width:100;stroke-linecap:round;stroke-linejoin:round;stroke-opacity:1"
     id="g112"
     transform="translate(0,-66535.489)" />
  <g
     style="fill:#840000;fill-opacity:0;stroke:#840000;stroke-width:100;stroke-linecap:round;stroke-linejoin:round;stroke-opacity:1"
     id="g118"
     transform="translate(0,-66535.489)" />
  <g
     style="fill:#840000;fill-opacity:0;stroke:#840000;stroke-width:100;stroke-linecap:round;stroke-linejoin:round;stroke-opacity:1"
     id="g124"
     transform="translate(0,-66535.489)" />
  <g
     style="fill:#840000;fill-opacity:0;stroke:#840000;stroke-width:100;stroke-linecap:round;stroke-linejoin:round;stroke-opacity:1"
     id="g130"
     transform="translate(0,-66535.489)" />
  <g
     style="fill:#840000;fill-opacity:0;stroke:#840000;stroke-width:100;stroke-linecap:round;stroke-linejoin:round;stroke-opacity:1"
     id="g138"
     transform="translate(0,-66535.489)" />
  <g
     style="fill:#840000;fill-opacity:0;stroke:#840000;stroke-width:100;stroke-linecap:round;stroke-linejoin:round;stroke-opacity:1"
     id="g144"
     transform="translate(0,-66535.489)" />
  <g
     style="fill:#840000;fill-opacity:0;stroke:#840000;stroke-width:100;stroke-linecap:round;stroke-linejoin:round;stroke-opacity:1"
     id="g150"
     transform="translate(0,-66535.489)" />
  <g
     style="fill:#840000;fill-opacity:0;stroke:#840000;stroke-width:100;stroke-linecap:round;stroke-linejoin:round;stroke-opacity:1"
     id="g158"
     transform="translate(0,-66535.489)" />
  <g
     style="fill:#840000;fill-opacity:0;stroke:#840000;stroke-width:100;stroke-linecap:round;stroke-linejoin:round;stroke-opacity:1"
     id="g164"
     transform="translate(0,-66535.489)" />
  <g
     style="fill:#840000;fill-opacity:0;stroke:#840000;stroke-width:100;stroke-linecap:round;stroke-linejoin:round;stroke-opacity:1"
     id="g170"
     transform="translate(0,-66535.489)" />
  <g
     style="fill:#840000;fill-opacity:0;stroke:#840000;stroke-width:100;stroke-linecap:round;stroke-linejoin:round;stroke-opacity:1"
     id="g176"
     transform="translate(0,-66535.489)" />
  <g
     style="fill:#840000;fill-opacity:0;stroke:#840000;stroke-width:100;stroke-linecap:round;stroke-linejoin:round;stroke-opacity:1"
     id="g182"
     transform="translate(0,-66535.489)" />
  <g
     style="fill:#840000;fill-opacity:0;stroke:#840000;stroke-width:100;stroke-linecap:round;stroke-linejoin:round;stroke-opacity:1"
     id="g188"
     transform="translate(0,-66535.489)" />
  <g
     style="fill:#840000;fill-opacity:0;stroke:#840000;stroke-width:100;stroke-linecap:round;stroke-linejoin:round;stroke-opacity:1"
     id="g196"
     transform="translate(0,-66535.489)" />
  <g
     style="fill:#840000;fill-opacity:0;stroke:#840000;stroke-width:100;stroke-linecap:round;stroke-linejoin:round;stroke-opacity:1"
     id="g202"
     transform="translate(0,-66535.489)" />
  <g
     style="fill:#840000;fill-opacity:0;stroke:#840000;stroke-width:100;stroke-linecap:round;stroke-linejoin:round;stroke-opacity:1"
     id="g208"
     transform="translate(0,-66535.489)" />
  <g
     style="fill:#840000;fill-opacity:0;stroke:#840000;stroke-width:100;stroke-linecap:round;stroke-linejoin:round;stroke-opacity:1"
     id="g214"
     transform="translate(0,-66535.489)" />
  <g
     style="fill:#840000;fill-opacity:0;stroke:#840000;stroke-width:100;stroke-linecap:round;stroke-linejoin:round;stroke-opacity:1"
     id="g220"
     transform="translate(0,-66535.489)" />
  <g
     style="fill:#840000;fill-opacity:0;stroke:#840000;stroke-width:100;stroke-linecap:round;stroke-linejoin:round;stroke-opacity:1"
     id="g226"
     transform="translate(0,-66535.489)" />
  <g
     style="fill:#840000;fill-opacity:0;stroke:#840000;stroke-width:100;stroke-linecap:round;stroke-linejoin:round;stroke-opacity:1"
     id="g232"
     transform="translate(0,-66535.489)" />
  <g
     style="fill:#840000;fill-opacity:0;stroke:#840000;stroke-width:100;stroke-linecap:round;stroke-linejoin:round;stroke-opacity:1"
     id="g240"
     transform="translate(0,-66535.489)" />
  <g
     style="fill:#840000;fill-opacity:0;stroke:#840000;stroke-width:100;stroke-linecap:round;stroke-linejoin:round;stroke-opacity:1"
     id="g246"
     transform="translate(0,-66535.489)" />
  <g
     style="fill:#840000;fill-opacity:0;stroke:#840000;stroke-width:100;stroke-linecap:round;stroke-linejoin:round;stroke-opacity:1"
     id="g252"
     transform="translate(0,-66535.489)" />
  <g
     style="fill:#840000;fill-opacity:0;stroke:#840000;stroke-width:100;stroke-linecap:round;stroke-linejoin:round;stroke-opacity:1"
     id="g258"
     transform="translate(0,-66535.489)" />
  <g
     style="fill:#840000;fill-opacity:0;stroke:#840000;stroke-width:100;stroke-linecap:round;stroke-linejoin:round;stroke-opacity:1"
     id="g278"
     transform="translate(0,-66535.489)" />
  <g
     style="fill:#840000;fill-opacity:0;stroke:#840000;stroke-width:100;stroke-linecap:round;stroke-linejoin:round;stroke-opacity:1"
     id="g284"
     transform="translate(0,-66535.489)" />
  <g
     style="fill:#840000;fill-opacity:0;stroke:#840000;stroke-width:100;stroke-linecap:round;stroke-linejoin:round;stroke-opacity:1"
     id="g356"
     transform="translate(0,-66535.489)" />
  <g
     style="fill:#840000;fill-opacity:0;stroke:#840000;stroke-width:100;stroke-linecap:round;stroke-linejoin:round;stroke-opacity:1"
     id="g362"
     transform="translate(0,-66535.489)" />
  <g
     style="fill:#840000;fill-opacity:0;stroke:#840000;stroke-width:100;stroke-linecap:round;stroke-linejoin:round;stroke-opacity:1"
     id="g378"
     transform="translate(0,-66535.489)" />
  <g
     style="fill:#840000;fill-opacity:0;stroke:#840000;stroke-width:100;stroke-linecap:round;stroke-linejoin:round;stroke-opacity:1"
     id="g404"
     transform="translate(0,-66535.489)" />
  <g
     style="fill:#840000;fill-opacity:0;stroke:#840000;stroke-width:100;stroke-linecap:round;stroke-linejoin:round;stroke-opacity:1"
     id="g428"
     transform="translate(0,-66535.489)" />
  <g
     style="fill:#840000;fill-opacity:0;stroke:#840000;stroke-width:100;stroke-linecap:round;stroke-linejoin:round;stroke-opacity:1"
     id="g434"
     transform="translate(0,-66535.489)" />
  <g
     style="fill:#840000;fill-opacity:0;stroke:#840000;stroke-width:100;stroke-linecap:round;stroke-linejoin:round;stroke-opacity:1"
     id="g458"
     transform="translate(0,-66535.489)" />
  <g
     style="fill:#840000;fill-opacity:0;stroke:#840000;stroke-width:100;stroke-linecap:round;stroke-linejoin:round;stroke-opacity:1"
     id="g500"
     transform="translate(0,-66535.489)" />
  <g
     style="fill:#840000;fill-opacity:0;stroke:#840000;stroke-width:100;stroke-linecap:round;stroke-linejoin:round;stroke-opacity:1"
     id="g506"
     transform="translate(0,-66535.489)" />
  <g
     style="fill:#840000;fill-opacity:0;stroke:#840000;stroke-width:100;stroke-linecap:round;stroke-linejoin:round;stroke-opacity:1"
     id="g530"
     transform="translate(0,-66535.489)" />
  <g
     style="fill:#840000;fill-opacity:0;stroke:#840000;stroke-width:100;stroke-linecap:round;stroke-linejoin:round;stroke-opacity:1"
     id="g536"
     transform="translate(0,-66535.489)" />
  <g
     style="fill:#840000;fill-opacity:0;stroke:#840000;stroke-width:0;stroke-linecap:round;stroke-linejoin:round;stroke-opacity:1"
     id="g542"
     transform="translate(0,-66535.489)" />
  <g
     style="fill:#ffffc2;fill-opacity:0;stroke:#ffffc2;stroke-width:0;stroke-linecap:round;stroke-linejoin:round;stroke-opacity:1"
     id="g544"
     transform="translate(0,-66535.489)" />
  <g
     style="fill:#840000;fill-opacity:0.6;stroke:#840000;stroke-width:0;stroke-linecap:round;stroke-linejoin:round;stroke-opacity:1"
     id="g550"
     transform="translate(0,-66535.489)" />
  <g
     style="fill:#840000;fill-opacity:0;stroke:#840000;stroke-width:0;stroke-linecap:round;stroke-linejoin:round;stroke-opacity:1"
     id="g696"
     transform="translate(0,-66535.489)" />
  <g
     style="fill:#008484;fill-opacity:0;stroke:#008484;stroke-width:0;stroke-linecap:round;stroke-linejoin:round;stroke-opacity:1"
     id="g730"
     transform="translate(0,-66535.489)" />
  <g
     style="fill:#840000;fill-opacity:0;stroke:#840000;stroke-width:0;stroke-linecap:round;stroke-linejoin:round;stroke-opacity:1"
     id="g732"
     transform="translate(0,-66535.489)" />
  <g
     style="fill:#008484;fill-opacity:0;stroke:#008484;stroke-width:0;stroke-linecap:round;stroke-linejoin:round;stroke-opacity:1"
     id="g770"
     transform="translate(0,-66535.489)" />
  <g
     style="fill:#840000;fill-opacity:0;stroke:#840000;stroke-width:0;stroke-linecap:round;stroke-linejoin:round;stroke-opacity:1"
     id="g772"
     transform="translate(0,-66535.489)" />
  <g
     style="fill:#008484;fill-opacity:0;stroke:#008484;stroke-width:0;stroke-linecap:round;stroke-linejoin:round;stroke-opacity:1"
     id="g808"
     transform="translate(0,-66535.489)" />
  <g
     style="fill:#840000;fill-opacity:0;stroke:#840000;stroke-width:0;stroke-linecap:round;stroke-linejoin:round;stroke-opacity:1"
     id="g810"
     transform="translate(0,-66535.489)" />
  <g
     style="fill:#008484;fill-opacity:0;stroke:#008484;stroke-width:0;stroke-linecap:round;stroke-linejoin:round;stroke-opacity:1"
     id="g844"
     transform="translate(0,-66535.489)" />
  <g
     style="fill:#840000;fill-opacity:0;stroke:#840000;stroke-width:0;stroke-linecap:round;stroke-linejoin:round;stroke-opacity:1"
     id="g846"
     transform="translate(0,-66535.489)" />
  <g
     style="fill:#008484;fill-opacity:0;stroke:#008484;stroke-width:0;stroke-linecap:round;stroke-linejoin:round;stroke-opacity:1"
     id="g880"
     transform="translate(0,-66535.489)" />
  <g
     style="fill:#840000;fill-opacity:0;stroke:#840000;stroke-width:0;stroke-linecap:round;stroke-linejoin:round;stroke-opacity:1"
     id="g882"
     transform="translate(0,-66535.489)" />
  <g
     style="fill:#008400;fill-opacity:0;stroke:#008400;stroke-width:0;stroke-linecap:round;stroke-linejoin:round;stroke-opacity:1"
     id="g922"
     transform="translate(0,-66535.489)" />
  <g
     style="fill:#008400;fill-opacity:1;stroke:#008400;stroke-width:60;stroke-linecap:round;stroke-linejoin:round;stroke-opacity:1"
     id="g928"
     transform="translate(0,-66535.489)" />
  <g
     style="fill:#008400;fill-opacity:0;stroke:#008400;stroke-width:0;stroke-linecap:round;stroke-linejoin:round;stroke-opacity:1"
     id="g944"
     transform="translate(0,-66535.489)" />
  <g
     style="fill:#008400;fill-opacity:1;stroke:#008400;stroke-width:60;stroke-linecap:round;stroke-linejoin:round;stroke-opacity:1"
     id="g950"
     transform="translate(0,-66535.489)" />
  <g
     style="fill:#008400;fill-opacity:0;stroke:#008400;stroke-width:0;stroke-linecap:round;stroke-linejoin:round;stroke-opacity:1"
     id="g956"
     transform="translate(0,-66535.489)" />
  <g
     style="fill:#008400;fill-opacity:1;stroke:#008400;stroke-width:60;stroke-linecap:round;stroke-linejoin:round;stroke-opacity:1"
     id="g962"
     transform="translate(0,-66535.489)" />
  <g
     style="fill:#008400;fill-opacity:0;stroke:#008400;stroke-width:0;stroke-linecap:round;stroke-linejoin:round;stroke-opacity:1"
     id="g972"
     transform="translate(0,-66535.489)" />
  <g
     style="fill:#008400;fill-opacity:1;stroke:#008400;stroke-width:60;stroke-linecap:round;stroke-linejoin:round;stroke-opacity:1"
     id="g978"
     transform="translate(0,-66535.489)" />
  <g
     style="fill:#008400;fill-opacity:0;stroke:#008400;stroke-width:0;stroke-linecap:round;stroke-linejoin:round;stroke-opacity:1"
     id="g986"
     transform="translate(0,-66535.489)" />
  <g
     style="fill:#008400;fill-opacity:1;stroke:#008400;stroke-width:0;stroke-linecap:round;stroke-linejoin:round;stroke-opacity:1"
     id="g992"
     transform="translate(0,-66535.489)" />
  <g
     id="g1386"
     transform="translate(-17960.211,-18535.264)">
    <g
       id="g548"
       style="fill:#ffffc2;fill-opacity:0.6;stroke:#ffffc2;stroke-width:0;stroke-linecap:round;stroke-linejoin:round;stroke-opacity:1">
      <polyline
         id="polyline546"
         points="26500,22500 30500,24500 26500,26500 26500,22500 "
         style="fill-rule:evenodd" />
    </g>
    <g
       id="g554"
       style="fill:#840000;fill-opacity:0;stroke:#840000;stroke-width:100;stroke-linecap:round;stroke-linejoin:round;stroke-opacity:1">
      <polyline
         id="polyline552"
         points="26500,22500 30500,24500 26500,26500 26500,22500 "
         fill="none;" />
    </g>
    <g
       id="g558"
       style="fill:#840000;fill-opacity:0;stroke:#840000;stroke-width:60;stroke-linecap:round;stroke-linejoin:round;stroke-opacity:1">
      <path
         id="path556"
         d="M 27500,23000 V 21500"
         inkscape:connector-curvature="0" />
    </g>
    <g
       id="g566"
       style="fill:#008484;fill-opacity:0;stroke:#008484;stroke-width:60;stroke-linecap:round;stroke-linejoin:round;stroke-opacity:1">
      <path
         id="path560"
         d="m 27230,24200 500,-160 -500,-170"
         inkscape:connector-curvature="0" />
      <path
         id="path562"
         d="m 27540,23700 v -380"
         inkscape:connector-curvature="0" />
      <path
         id="path564"
         d="m 27730,23510 h -380"
         inkscape:connector-curvature="0" />
    </g>
    <g
       id="g572"
       style="fill:#840000;fill-opacity:0;stroke:#840000;stroke-width:60;stroke-linecap:round;stroke-linejoin:round;stroke-opacity:1">
      <path
         id="path568"
         d="m 26920,22390 -20,-20 -20,-50 v -120 l 20,-40 20,-30 50,-20 h 50 l 70,20 290,290 v -310"
         inkscape:connector-curvature="0" />
      <path
         id="path570"
         d="m 27500,26000 v 1500"
         inkscape:connector-curvature="0" />
    </g>
    <g
       id="g578"
       style="fill:#008484;fill-opacity:0;stroke:#008484;stroke-width:60;stroke-linecap:round;stroke-linejoin:round;stroke-opacity:1">
      <path
         id="path574"
         d="m 27230,25750 500,-160 -500,-170"
         inkscape:connector-curvature="0" />
      <path
         id="path576"
         d="m 27540,25250 v -380"
         inkscape:connector-curvature="0" />
    </g>
    <g
       id="g590"
       style="fill:#840000;fill-opacity:0;stroke:#840000;stroke-width:60;stroke-linecap:round;stroke-linejoin:round;stroke-opacity:1">
      <path
         id="path580"
         d="m 26880,26630 v 240 l 230,20 -20,-20 -20,-50 v -120 l 20,-40 20,-30 50,-20 h 120 l 50,20 20,30 30,40 v 120 l -30,50 -20,20"
         inkscape:connector-curvature="0" />
      <path
         id="path582"
         d="m 30500,24500 h 1000"
         inkscape:connector-curvature="0" />
      <path
         id="path584"
         d="m 31140,24380 h -280"
         inkscape:connector-curvature="0" />
      <path
         id="path586"
         d="m 31000,24380 v -500 l -50,70 -50,50 -40,20"
         inkscape:connector-curvature="0" />
      <path
         id="path588"
         d="M 26500,23500 H 25500"
         inkscape:connector-curvature="0" />
    </g>
    <g
       id="g596"
       style="fill:#008484;fill-opacity:0;stroke:#008484;stroke-width:60;stroke-linecap:round;stroke-linejoin:round;stroke-opacity:1">
      <path
         id="path592"
         d="m 26820,23540 h 380"
         inkscape:connector-curvature="0" />
      <path
         id="path594"
         d="m 27010,23730 v -380"
         inkscape:connector-curvature="0" />
    </g>
    <g
       id="g602"
       style="fill:#840000;fill-opacity:0;stroke:#840000;stroke-width:60;stroke-linecap:round;stroke-linejoin:round;stroke-opacity:1">
      <path
         id="path598"
         d="m 25830,22880 h 310 l -170,190 h 80 l 40,20 30,20 20,50 v 120 l -20,50 -30,20 -40,30 h -150 l -40,-30 -30,-20"
         inkscape:connector-curvature="0" />
      <path
         id="path600"
         d="M 26500,25500 H 25500"
         inkscape:connector-curvature="0" />
    </g>
    <g
       id="g606"
       style="fill:#008484;fill-opacity:0;stroke:#008484;stroke-width:60;stroke-linecap:round;stroke-linejoin:round;stroke-opacity:1">
      <path
         id="path604"
         d="m 26820,25540 h 380"
         inkscape:connector-curvature="0" />
    </g>
    <g
       id="g612"
       style="fill:#840000;fill-opacity:0;stroke:#840000;stroke-width:60;stroke-linecap:round;stroke-linejoin:round;stroke-opacity:1">
      <path
         id="path608"
         d="m 26090,25040 v 340"
         inkscape:connector-curvature="0" />
      <path
         id="path610"
         d="m 25970,24850 -110,360 h 300"
         inkscape:connector-curvature="0" />
    </g>
    <g
       id="g648"
       style="fill:#840000;fill-opacity:0;stroke:#840000;stroke-width:60;stroke-linecap:round;stroke-linejoin:round;stroke-opacity:1">
      <path
         id="path644"
         d="m 27170,29050 600,-200 -600,-200"
         inkscape:connector-curvature="0" />
      <path
         id="path646"
         d="m 27540,28460 v -460"
         inkscape:connector-curvature="0" />
    </g>
    <g
       id="g652"
       style="fill:#840000;fill-opacity:0;stroke:#840000;stroke-width:100;stroke-linecap:round;stroke-linejoin:round;stroke-opacity:1">
      <polyline
         id="polyline650"
         points="27500,27500 26960,27800 26960,29340 27500,29340 28040,29340 28040,27800 27500,27500 "
         fill="none;" />
    </g>
    <g
       id="g660"
       style="fill:#840000;fill-opacity:0;stroke:#840000;stroke-width:60;stroke-linecap:round;stroke-linejoin:round;stroke-opacity:1">
      <path
         id="path654"
         d="m 27170,21080 600,-200 -600,-200"
         inkscape:connector-curvature="0" />
      <path
         id="path656"
         d="m 27540,20490 v -460"
         inkscape:connector-curvature="0" />
      <path
         id="path658"
         d="m 27770,20260 h -460"
         inkscape:connector-curvature="0" />
    </g>
    <g
       id="g664"
       style="fill:#840000;fill-opacity:0;stroke:#840000;stroke-width:100;stroke-linecap:round;stroke-linejoin:round;stroke-opacity:1">
      <polyline
         id="polyline662"
         points="27500,21500 28040,21200 28040,19660 27500,19660 26960,19660 26960,21200 27500,21500 "
         fill="none;" />
    </g>
    <g
       id="g672"
       style="fill:#840000;fill-opacity:0;stroke:#840000;stroke-width:60;stroke-linecap:round;stroke-linejoin:round;stroke-opacity:1">
      <path
         id="path666"
         d="m 18700,33730 -30,60 v 90 l 30,80 60,60 50,30 120,30 h 80 l 120,-30 60,-30 50,-60 30,-80 v -60 l -30,-90 -30,-30 h -200 v 120"
         inkscape:connector-curvature="0" />
      <path
         id="path668"
         d="m 19270,33450 h -600 l 600,-350 h -600"
         inkscape:connector-curvature="0" />
      <path
         id="path670"
         d="m 19270,32820 h -600 v -150 l 30,-80 60,-60 50,-30 120,-30 h 80 l 120,30 60,30 50,60 30,80 v 150"
         inkscape:connector-curvature="0" />
    </g>
    <g
       id="g676"
       style="fill:#840000;fill-opacity:0;stroke:#840000;stroke-width:100;stroke-linecap:round;stroke-linejoin:round;stroke-opacity:1">
      <polyline
         id="polyline674"
         points="19000,32000 18460,32300 18460,34420 19000,34420 19540,34420 19540,32300 19000,32000 "
         fill="none;" />
    </g>
    <g
       id="g690"
       style="fill:#840000;fill-opacity:0;stroke:#840000;stroke-width:60;stroke-linecap:round;stroke-linejoin:round;stroke-opacity:1">
      <path
         id="path678"
         d="m 38850,24710 -30,30 -90,30 h -60 l -80,-30 -60,-50 -30,-60 -30,-120 v -80 l 30,-120 30,-50 60,-60 80,-30 h 60 l 90,30 30,30"
         inkscape:connector-curvature="0" />
      <path
         id="path680"
         d="m 39100,24770 v -600"
         inkscape:connector-curvature="0" />
      <path
         id="path682"
         d="m 39100,24460 h 350"
         inkscape:connector-curvature="0" />
      <path
         id="path684"
         d="m 39450,24770 v -600"
         inkscape:connector-curvature="0" />
      <path
         id="path686"
         d="m 40050,24770 h -350"
         inkscape:connector-curvature="0" />
      <path
         id="path688"
         d="m 39880,24770 v -600 l -60,90 -60,50 -60,30"
         inkscape:connector-curvature="0" />
    </g>
    <g
       id="g694"
       style="fill:#840000;fill-opacity:0;stroke:#840000;stroke-width:100;stroke-linecap:round;stroke-linejoin:round;stroke-opacity:1">
      <polyline
         id="polyline692"
         points="38000,24500 38300,25040 40390,25040 40390,24500 40390,23960 38300,23960 38000,24500 "
         fill="none;" />
    </g>
    <g
       id="g700"
       style="fill:#840000;fill-opacity:0;stroke:#840000;stroke-width:100;stroke-linecap:round;stroke-linejoin:round;stroke-opacity:1">
      <rect
         id="rect698"
         rx="0"
         height="800"
         width="2000"
         y="30100"
         x="26500" />
    </g>
    <g
       id="g706"
       style="fill:#840000;fill-opacity:0;stroke:#840000;stroke-width:60;stroke-linecap:round;stroke-linejoin:round;stroke-opacity:1">
      <path
         id="path702"
         d="m 28500,30500 h 500"
         inkscape:connector-curvature="0" />
      <path
         id="path704"
         d="m 26500,30500 h -500"
         inkscape:connector-curvature="0" />
    </g>
    <g
       id="g728"
       style="fill:#008484;fill-opacity:0;stroke:#008484;stroke-width:60;stroke-linecap:round;stroke-linejoin:round;stroke-opacity:1">
      <path
         id="path708"
         d="m 27510,31560 -160,-240"
         inkscape:connector-curvature="0" />
      <path
         id="path710"
         d="m 27230,31560 v -500 h 190 l 50,20 20,20 20,50 v 70 l -20,50 -20,20 -50,30 h -190"
         inkscape:connector-curvature="0" />
      <path
         id="path712"
         d="m 27660,31220 h 190"
         inkscape:connector-curvature="0" />
      <path
         id="path714"
         d="m 27730,31560 v -430 l 20,-50 50,-20 h 50"
         inkscape:connector-curvature="0" />
      <path
         id="path716"
         d="m 27100,30420 v 340"
         inkscape:connector-curvature="0" />
      <path
         id="path718"
         d="m 26980,30230 -110,360 h 300"
         inkscape:connector-curvature="0" />
      <path
         id="path720"
         d="m 27460,30260 h 50 l 50,20 20,20 30,50 20,100 v 120 l -20,90 -30,50 -20,20 -50,30 h -50 l -40,-30 -30,-20 -20,-50 -20,-90 v -120 l 20,-100 20,-50 30,-20 40,-20"
         inkscape:connector-curvature="0" />
      <path
         id="path722"
         d="m 27850,30760 v -500"
         inkscape:connector-curvature="0" />
      <path
         id="path724"
         d="m 28130,30760 -210,-290"
         inkscape:connector-curvature="0" />
      <path
         id="path726"
         d="m 28130,30260 -280,280"
         inkscape:connector-curvature="0" />
    </g>
    <g
       id="g736"
       style="fill:#840000;fill-opacity:0;stroke:#840000;stroke-width:100;stroke-linecap:round;stroke-linejoin:round;stroke-opacity:1">
      <rect
         id="rect734"
         rx="0"
         height="800"
         width="2000"
         y="30100"
         x="21000" />
    </g>
    <g
       id="g742"
       style="fill:#840000;fill-opacity:0;stroke:#840000;stroke-width:60;stroke-linecap:round;stroke-linejoin:round;stroke-opacity:1">
      <path
         id="path738"
         d="m 23000,30500 h 500"
         inkscape:connector-curvature="0" />
      <path
         id="path740"
         d="m 21000,30500 h -500"
         inkscape:connector-curvature="0" />
    </g>
    <g
       id="g768"
       style="fill:#008484;fill-opacity:0;stroke:#008484;stroke-width:60;stroke-linecap:round;stroke-linejoin:round;stroke-opacity:1">
      <path
         id="path744"
         d="m 21930,31560 -160,-240"
         inkscape:connector-curvature="0" />
      <path
         id="path746"
         d="m 21650,31560 v -500 h 190 l 50,20 20,20 20,50 v 70 l -20,50 -20,20 -50,30 h -190"
         inkscape:connector-curvature="0" />
      <path
         id="path748"
         d="m 22150,31560 v -500"
         inkscape:connector-curvature="0" />
      <path
         id="path750"
         d="m 22150,31250 50,-30 h 90 l 50,30 20,20 30,50 v 140 l -30,50 -20,20 -50,30 h -90 l -50,-30"
         inkscape:connector-curvature="0" />
      <path
         id="path752"
         d="m 21290,30760 h -280"
         inkscape:connector-curvature="0" />
      <path
         id="path754"
         d="m 21150,30760 v -500 l -50,70 -50,50 -40,20"
         inkscape:connector-curvature="0" />
      <path
         id="path756"
         d="m 21530,30760 h 100 l 50,-30 20,-20 50,-70 20,-100 v -190 l -20,-50 -30,-20 -40,-20 h -100 l -50,20 -20,20 -20,50 v 120 l 20,50 20,20 50,30 h 100 l 40,-30 30,-20 20,-50"
         inkscape:connector-curvature="0" />
      <path
         id="path758"
         d="m 21990,30710 20,20 -20,30 -20,-30 20,-20 v 50"
         inkscape:connector-curvature="0" />
      <path
         id="path760"
         d="m 22300,30470 -50,-20 -20,-30 -20,-40 v -30 l 20,-50 20,-20 50,-20 h 100 l 40,20 30,20 20,50 v 30 l -20,40 -30,30 -40,20 h -100 l -50,20 -20,30 -20,50 v 90 l 20,50 20,20 50,30 h 100 l 40,-30 30,-20 20,-50 v -90 l -20,-50 -30,-30 -40,-20"
         inkscape:connector-curvature="0" />
      <path
         id="path762"
         d="m 22710,30760 v -500"
         inkscape:connector-curvature="0" />
      <path
         id="path764"
         d="m 22990,30760 -210,-290"
         inkscape:connector-curvature="0" />
      <path
         id="path766"
         d="m 22990,30260 -280,280"
         inkscape:connector-curvature="0" />
    </g>
    <g
       id="g776"
       style="fill:#840000;fill-opacity:0;stroke:#840000;stroke-width:100;stroke-linecap:round;stroke-linejoin:round;stroke-opacity:1">
      <rect
         id="rect774"
         rx="0"
         height="800"
         width="2000"
         y="19100"
         x="21000" />
    </g>
    <g
       id="g782"
       style="fill:#840000;fill-opacity:0;stroke:#840000;stroke-width:60;stroke-linecap:round;stroke-linejoin:round;stroke-opacity:1">
      <path
         id="path778"
         d="m 23000,19500 h 500"
         inkscape:connector-curvature="0" />
      <path
         id="path780"
         d="m 21000,19500 h -500"
         inkscape:connector-curvature="0" />
    </g>
    <g
       id="g806"
       style="fill:#008484;fill-opacity:0;stroke:#008484;stroke-width:60;stroke-linecap:round;stroke-linejoin:round;stroke-opacity:1">
      <path
         id="path784"
         d="m 21910,20560 -160,-240"
         inkscape:connector-curvature="0" />
      <path
         id="path786"
         d="m 21630,20560 v -500 h 190 l 50,20 20,20 20,50 v 70 l -20,50 -20,20 -50,30 h -190"
         inkscape:connector-curvature="0" />
      <path
         id="path788"
         d="m 22390,20560 h -280"
         inkscape:connector-curvature="0" />
      <path
         id="path790"
         d="m 22250,20560 v -500 l -50,70 -50,50 -40,20"
         inkscape:connector-curvature="0" />
      <path
         id="path792"
         d="m 21530,19760 h -280"
         inkscape:connector-curvature="0" />
      <path
         id="path794"
         d="m 21390,19760 v -500 l -50,70 -50,50 -40,20"
         inkscape:connector-curvature="0" />
      <path
         id="path796"
         d="m 21750,19710 20,20 -20,30 -20,-30 20,-20 v 50"
         inkscape:connector-curvature="0" />
      <path
         id="path798"
         d="m 22200,19260 h -90 l -50,20 -20,20 -50,80 -20,90 v 190 l 20,50 20,20 50,30 h 100 l 40,-30 30,-20 20,-50 v -120 l -20,-50 -30,-20 -40,-20 h -100 l -50,20 -20,20 -20,50"
         inkscape:connector-curvature="0" />
      <path
         id="path800"
         d="m 22470,19760 v -500"
         inkscape:connector-curvature="0" />
      <path
         id="path802"
         d="m 22750,19760 -210,-290"
         inkscape:connector-curvature="0" />
      <path
         id="path804"
         d="m 22750,19260 -280,280"
         inkscape:connector-curvature="0" />
    </g>
    <g
       id="g814"
       style="fill:#840000;fill-opacity:0;stroke:#840000;stroke-width:100;stroke-linecap:round;stroke-linejoin:round;stroke-opacity:1">
      <rect
         id="rect812"
         rx="0"
         height="800"
         width="2000"
         y="19100"
         x="31000" />
    </g>
    <g
       id="g820"
       style="fill:#840000;fill-opacity:0;stroke:#840000;stroke-width:60;stroke-linecap:round;stroke-linejoin:round;stroke-opacity:1">
      <path
         id="path816"
         d="m 33000,19500 h 500"
         inkscape:connector-curvature="0" />
      <path
         id="path818"
         d="m 31000,19500 h -500"
         inkscape:connector-curvature="0" />
    </g>
    <g
       id="g842"
       style="fill:#008484;fill-opacity:0;stroke:#008484;stroke-width:60;stroke-linecap:round;stroke-linejoin:round;stroke-opacity:1">
      <path
         id="path822"
         d="m 31910,20560 -160,-240"
         inkscape:connector-curvature="0" />
      <path
         id="path824"
         d="m 31630,20560 v -500 h 190 l 50,20 20,20 20,50 v 70 l -20,50 -20,20 -50,30 h -190"
         inkscape:connector-curvature="0" />
      <path
         id="path826"
         d="m 32110,20100 20,-20 50,-20 h 120 l 40,20 30,20 20,50 v 50 l -20,70 -290,290 h 310"
         inkscape:connector-curvature="0" />
      <path
         id="path828"
         d="m 31530,19760 h -280"
         inkscape:connector-curvature="0" />
      <path
         id="path830"
         d="m 31390,19760 v -500 l -50,70 -50,50 -40,20"
         inkscape:connector-curvature="0" />
      <path
         id="path832"
         d="m 31750,19710 20,20 -20,30 -20,-30 20,-20 v 50"
         inkscape:connector-curvature="0" />
      <path
         id="path834"
         d="m 32200,19260 h -90 l -50,20 -20,20 -50,80 -20,90 v 190 l 20,50 20,20 50,30 h 100 l 40,-30 30,-20 20,-50 v -120 l -20,-50 -30,-20 -40,-20 h -100 l -50,20 -20,20 -20,50"
         inkscape:connector-curvature="0" />
      <path
         id="path836"
         d="m 32470,19760 v -500"
         inkscape:connector-curvature="0" />
      <path
         id="path838"
         d="m 32750,19760 -210,-290"
         inkscape:connector-curvature="0" />
      <path
         id="path840"
         d="m 32750,19260 -280,280"
         inkscape:connector-curvature="0" />
    </g>
    <g
       id="g852"
       style="fill:#840000;fill-opacity:0;stroke:#840000;stroke-width:200;stroke-linecap:round;stroke-linejoin:round;stroke-opacity:1">
      <polyline
         id="polyline848"
         points="21700,21200 21700,22800 "
         fill="none;" />
      <polyline
         id="polyline850"
         points="22300,21200 22300,22800 "
         fill="none;" />
    </g>
    <g
       id="g858"
       style="fill:#840000;fill-opacity:0;stroke:#840000;stroke-width:60;stroke-linecap:round;stroke-linejoin:round;stroke-opacity:1">
      <path
         id="path854"
         d="m 22400,22000 h 1100"
         inkscape:connector-curvature="0" />
      <path
         id="path856"
         d="M 21600,22000 H 20500"
         inkscape:connector-curvature="0" />
    </g>
    <g
       id="g878"
       style="fill:#008484;fill-opacity:0;stroke:#008484;stroke-width:60;stroke-linecap:round;stroke-linejoin:round;stroke-opacity:1">
      <path
         id="path860"
         d="m 23140,22830 20,20 30,70 v 50 l -30,70 -50,50 -40,20 -100,20 h -70 l -90,-20 -50,-20 -50,-50 -20,-70 v -50 l 20,-70 20,-20"
         inkscape:connector-curvature="0" />
      <path
         id="path862"
         d="m 23190,22350 v 280"
         inkscape:connector-curvature="0" />
      <path
         id="path864"
         d="m 23190,22490 h -500 l 70,50 50,50 20,40"
         inkscape:connector-curvature="0" />
      <path
         id="path866"
         d="m 21190,23230 v 280"
         inkscape:connector-curvature="0" />
      <path
         id="path868"
         d="m 21190,23370 h -500 l 70,50 50,50 20,40"
         inkscape:connector-curvature="0" />
      <path
         id="path870"
         d="m 20850,22800 h 340"
         inkscape:connector-curvature="0" />
      <path
         id="path872"
         d="m 20850,23010 h 260 l 50,-20 30,-50 v -70 l -30,-50 -20,-20"
         inkscape:connector-curvature="0" />
      <path
         id="path874"
         d="m 20920,22390 v 170"
         inkscape:connector-curvature="0" />
      <path
         id="path876"
         d="m 21190,22560 h -500 v -240"
         inkscape:connector-curvature="0" />
    </g>
    <g
       id="g888"
       style="fill:#840000;fill-opacity:0;stroke:#840000;stroke-width:200;stroke-linecap:round;stroke-linejoin:round;stroke-opacity:1">
      <polyline
         id="polyline884"
         points="35200,18700 35200,20300 "
         fill="none;" />
      <polyline
         id="polyline886"
         points="35800,18700 35800,20300 "
         fill="none;" />
    </g>
    <g
       id="g894"
       style="fill:#840000;fill-opacity:0;stroke:#840000;stroke-width:60;stroke-linecap:round;stroke-linejoin:round;stroke-opacity:1">
      <path
         id="path890"
         d="m 35900,19500 h 1100"
         inkscape:connector-curvature="0" />
      <path
         id="path892"
         d="M 35100,19500 H 34000"
         inkscape:connector-curvature="0" />
    </g>
    <g
       id="g912"
       style="fill:#008484;fill-opacity:0;stroke:#008484;stroke-width:60;stroke-linecap:round;stroke-linejoin:round;stroke-opacity:1">
      <path
         id="path896"
         d="m 36640,20330 20,20 30,70 v 50 l -30,70 -50,50 -40,20 -100,20 h -70 l -90,-20 -50,-20 -50,-50 -20,-70 v -50 l 20,-70 20,-20"
         inkscape:connector-curvature="0" />
      <path
         id="path898"
         d="m 36230,20130 -20,-20 -20,-50 v -120 l 20,-40 20,-30 50,-20 h 50 l 70,20 290,290 v -310"
         inkscape:connector-curvature="0" />
      <path
         id="path900"
         d="m 34690,20730 v 280"
         inkscape:connector-curvature="0" />
      <path
         id="path902"
         d="m 34690,20870 h -500 l 70,50 50,50 20,40"
         inkscape:connector-curvature="0" />
      <path
         id="path904"
         d="m 34350,20300 h 340"
         inkscape:connector-curvature="0" />
      <path
         id="path906"
         d="m 34350,20510 h 260 l 50,-20 30,-50 v -70 l -30,-50 -20,-20"
         inkscape:connector-curvature="0" />
      <path
         id="path908"
         d="m 34420,19890 v 170"
         inkscape:connector-curvature="0" />
      <path
         id="path910"
         d="m 34690,20060 h -500 v -240"
         inkscape:connector-curvature="0" />
    </g>
    <g
       id="g920"
       style="fill:#008400;fill-opacity:0;stroke:#008400;stroke-width:60;stroke-linecap:round;stroke-linejoin:round;stroke-opacity:1">
      <path
         id="path914"
         d="m 31500,24500 h 6500"
         inkscape:connector-curvature="0" />
      <path
         id="path916"
         d="m 25500,25500 v 5000"
         inkscape:connector-curvature="0" />
      <path
         id="path918"
         d="m 23500,30500 h 2500"
         inkscape:connector-curvature="0" />
    </g>
    <g
       id="g926"
       style="fill:#008400;fill-opacity:1;stroke:#008400;stroke-width:100;stroke-linecap:round;stroke-linejoin:round;stroke-opacity:1">
      <circle
         id="circle924"
         r="200"
         cy="30500"
         cx="25500" />
    </g>
    <g
       id="g942"
       style="fill:#008400;fill-opacity:0;stroke:#008400;stroke-width:60;stroke-linecap:round;stroke-linejoin:round;stroke-opacity:1">
      <path
         id="path930"
         d="m 29000,30500 h 2500"
         inkscape:connector-curvature="0" />
      <path
         id="path932"
         d="M 31500,30500 V 24500"
         inkscape:connector-curvature="0" />
      <path
         id="path934"
         d="m 25500,19500 v 4000"
         inkscape:connector-curvature="0" />
      <path
         id="path936"
         d="M 20500,30500 H 19000"
         inkscape:connector-curvature="0" />
      <path
         id="path938"
         d="M 19000,19500 V 32000"
         inkscape:connector-curvature="0" />
      <path
         id="path940"
         d="M 20500,19500 H 19000"
         inkscape:connector-curvature="0" />
    </g>
    <g
       id="g948"
       style="fill:#008400;fill-opacity:1;stroke:#008400;stroke-width:100;stroke-linecap:round;stroke-linejoin:round;stroke-opacity:1">
      <circle
         id="circle946"
         r="200"
         cy="30500"
         cx="19000" />
    </g>
    <g
       id="g954"
       style="fill:#008400;fill-opacity:0;stroke:#008400;stroke-width:60;stroke-linecap:round;stroke-linejoin:round;stroke-opacity:1">
      <path
         id="path952"
         d="M 20500,22000 H 19000"
         inkscape:connector-curvature="0" />
    </g>
    <g
       id="g960"
       style="fill:#008400;fill-opacity:1;stroke:#008400;stroke-width:100;stroke-linecap:round;stroke-linejoin:round;stroke-opacity:1">
      <circle
         id="circle958"
         r="200"
         cy="22000"
         cx="19000" />
    </g>
    <g
       id="g970"
       style="fill:#008400;fill-opacity:0;stroke:#008400;stroke-width:60;stroke-linecap:round;stroke-linejoin:round;stroke-opacity:1">
      <path
         id="path964"
         d="m 23500,19500 h 7000"
         inkscape:connector-curvature="0" />
      <path
         id="path966"
         d="m 33500,19500 h 500"
         inkscape:connector-curvature="0" />
      <path
         id="path968"
         d="m 37000,19500 v 5000"
         inkscape:connector-curvature="0" />
    </g>
    <g
       id="g976"
       style="fill:#008400;fill-opacity:1;stroke:#008400;stroke-width:100;stroke-linecap:round;stroke-linejoin:round;stroke-opacity:1">
      <circle
         id="circle974"
         r="200"
         cy="24500"
         cx="37000" />
    </g>
    <g
       id="g984"
       style="fill:#008400;fill-opacity:0;stroke:#008400;stroke-width:60;stroke-linecap:round;stroke-linejoin:round;stroke-opacity:1">
      <path
         id="path980"
         d="m 23500,22000 h 500"
         inkscape:connector-curvature="0" />
      <path
         id="path982"
         d="M 24000,22000 V 19500"
         inkscape:connector-curvature="0" />
    </g>
    <g
       id="g990"
       style="fill:#008400;fill-opacity:1;stroke:#008400;stroke-width:100;stroke-linecap:round;stroke-linejoin:round;stroke-opacity:1">
      <circle
         id="circle988"
         r="200"
         cy="19500"
         cx="24000" />
    </g>
    <g
       id="g996"
       style="fill:#008400;fill-opacity:1;stroke:#008400;stroke-width:100;stroke-linecap:round;stroke-linejoin:round;stroke-opacity:1">
      <circle
         id="circle994"
         r="200"
         cy="19500"
         cx="25500" />
    </g>
  </g>
</svg>
