<?xml version="1.0" encoding="UTF-8" standalone="no"?>
<svg
   xmlns:dc="http://purl.org/dc/elements/1.1/"
   xmlns:cc="http://creativecommons.org/ns#"
   xmlns:rdf="http://www.w3.org/1999/02/22-rdf-syntax-ns#"
   xmlns:svg="http://www.w3.org/2000/svg"
   xmlns="http://www.w3.org/2000/svg"
   xmlns:sodipodi="http://sodipodi.sourceforge.net/DTD/sodipodi-0.dtd"
   xmlns:inkscape="http://www.inkscape.org/namespaces/inkscape"
   version="1.1"
   width="2.2631378cm"
   height="1.4175173cm"
   viewBox="0 0 8909.9976 5580.7821"
   id="svg2"
   inkscape:version="0.91 r13725"
   sodipodi:docname="zener.svg">
  <metadata
     id="metadata1238">
    <rdf:RDF>
      <cc:Work
         rdf:about="">
        <dc:format>image/svg+xml</dc:format>
        <dc:type
           rdf:resource="http://purl.org/dc/dcmitype/StillImage" />
        <dc:title>SVG Picture created as diodes.sch.svg date 2016/06/16 13:43:08 </dc:title>
      </cc:Work>
    </rdf:RDF>
  </metadata>
  <defs
     id="defs1236" />
  <sodipodi:namedview
     pagecolor="#ffffff"
     bordercolor="#666666"
     borderopacity="1"
     objecttolerance="10"
     gridtolerance="10"
     guidetolerance="10"
     inkscape:pageopacity="0"
     inkscape:pageshadow="2"
     inkscape:window-width="1855"
     inkscape:window-height="1056"
     id="namedview1234"
     showgrid="false"
     fit-margin-top="0"
     fit-margin-left="0"
     fit-margin-right="0"
     fit-margin-bottom="0"
     inkscape:zoom="3.1929585"
     inkscape:cx="-75.054379"
     inkscape:cy="132.49155"
     inkscape:window-x="65"
     inkscape:window-y="24"
     inkscape:window-maximized="1"
     inkscape:current-layer="svg2" />
  <title
     id="title4">SVG Picture created as diodes.sch.svg date 2016/06/16 13:43:08 </title>
  <desc
     id="desc6">Picture generated by Eeschema-SVG </desc>
  <g
     style="fill:#000000;fill-opacity:1;stroke:#000000;stroke-linecap:round;stroke-linejoin:round;stroke-opacity:1"
     id="g8"
     transform="translate(-17864.523,-40988.093)" />
  <g
     style="fill:#000000;fill-opacity:0;stroke:#000000;stroke-width:60;stroke-linecap:round;stroke-linejoin:round;stroke-opacity:1"
     id="g10"
     transform="translate(-17864.523,-40988.093)" />
  <g
     style="fill:#840000;fill-opacity:0;stroke:#840000;stroke-width:0;stroke-linecap:round;stroke-linejoin:round;stroke-opacity:1"
     id="g58"
     transform="translate(-17864.523,-40988.093)" />
  <g
     style="fill:#840000;fill-opacity:0;stroke:#840000;stroke-width:0;stroke-linecap:round;stroke-linejoin:round;stroke-opacity:1"
     id="g74"
     transform="translate(-17864.523,-40988.093)" />
  <g
     style="fill:#008484;fill-opacity:0;stroke:#008484;stroke-width:0;stroke-linecap:round;stroke-linejoin:round;stroke-opacity:1"
     id="g100"
     transform="translate(-17864.523,-40988.093)" />
  <g
     style="fill:#840000;fill-opacity:0;stroke:#840000;stroke-width:0;stroke-linecap:round;stroke-linejoin:round;stroke-opacity:1"
     id="g102"
     transform="translate(-17864.523,-40988.093)" />
  <g
     style="fill:#840000;fill-opacity:0;stroke:#840000;stroke-width:60;stroke-linecap:round;stroke-linejoin:round;stroke-opacity:1"
     id="g154"
     transform="translate(-17864.523,-40988.093)" />
  <g
     style="fill:#840000;fill-opacity:0;stroke:#840000;stroke-width:0;stroke-linecap:round;stroke-linejoin:round;stroke-opacity:1"
     id="g218"
     transform="translate(-17864.523,-40988.093)" />
  <g
     style="fill:#840000;fill-opacity:0;stroke:#840000;stroke-width:0;stroke-linecap:round;stroke-linejoin:round;stroke-opacity:1"
     id="g234"
     transform="translate(-17864.523,-40988.093)" />
  <g
     style="fill:#840000;fill-opacity:0;stroke:#840000;stroke-width:60;stroke-linecap:round;stroke-linejoin:round;stroke-opacity:1"
     id="g270"
     transform="translate(-17864.523,-40988.093)" />
  <g
     style="fill:#840000;fill-opacity:0;stroke:#840000;stroke-width:0;stroke-linecap:round;stroke-linejoin:round;stroke-opacity:1"
     id="g372"
     transform="translate(-17864.523,-40988.093)" />
  <g
     style="fill:#840000;fill-opacity:0;stroke:#840000;stroke-width:60;stroke-linecap:round;stroke-linejoin:round;stroke-opacity:1"
     id="g398"
     transform="translate(-17864.523,-40988.093)" />
  <g
     style="fill:#0000c2;fill-opacity:0;stroke:#0000c2;stroke-width:0;stroke-linecap:round;stroke-linejoin:round;stroke-opacity:1"
     id="g432"
     transform="translate(-17864.523,-40988.093)" />
  <g
     style="fill:#840000;fill-opacity:0;stroke:#840000;stroke-width:0;stroke-linecap:round;stroke-linejoin:round;stroke-opacity:1"
     id="g434"
     transform="translate(-17864.523,-40988.093)" />
  <g
     style="fill:#840000;fill-opacity:0;stroke:#840000;stroke-width:0;stroke-linecap:round;stroke-linejoin:round;stroke-opacity:1"
     id="g508"
     transform="translate(-17864.523,-40988.093)" />
  <g
     style="fill:#840000;fill-opacity:0;stroke:#840000;stroke-width:0;stroke-linecap:round;stroke-linejoin:round;stroke-opacity:1"
     id="g524"
     transform="translate(-17864.523,-40988.093)" />
  <g
     style="fill:#008484;fill-opacity:0;stroke:#008484;stroke-width:0;stroke-linecap:round;stroke-linejoin:round;stroke-opacity:1"
     id="g550"
     transform="translate(-17864.523,-40988.093)" />
  <g
     style="fill:#840000;fill-opacity:0;stroke:#840000;stroke-width:0;stroke-linecap:round;stroke-linejoin:round;stroke-opacity:1"
     id="g552"
     transform="translate(-17864.523,-40988.093)" />
  <g
     style="fill:#840000;fill-opacity:0;stroke:#840000;stroke-width:60;stroke-linecap:round;stroke-linejoin:round;stroke-opacity:1"
     id="g604"
     transform="translate(-17864.523,-40988.093)" />
  <g
     style="fill:#840000;fill-opacity:0;stroke:#840000;stroke-width:0;stroke-linecap:round;stroke-linejoin:round;stroke-opacity:1"
     id="g658"
     transform="translate(-17864.523,-40988.093)" />
  <g
     style="fill:#008400;fill-opacity:0;stroke:#008400;stroke-width:0;stroke-linecap:round;stroke-linejoin:round;stroke-opacity:1"
     id="g682"
     transform="translate(-17864.523,-40988.093)" />
  <g
     style="fill:#008400;fill-opacity:1;stroke:#008400;stroke-width:60;stroke-linecap:round;stroke-linejoin:round;stroke-opacity:1"
     id="g688"
     transform="translate(-17864.523,-40988.093)" />
  <g
     style="fill:#008400;fill-opacity:0;stroke:#008400;stroke-width:0;stroke-linecap:round;stroke-linejoin:round;stroke-opacity:1"
     id="g694"
     transform="translate(-17864.523,-40988.093)" />
  <g
     style="fill:#008400;fill-opacity:1;stroke:#008400;stroke-width:60;stroke-linecap:round;stroke-linejoin:round;stroke-opacity:1"
     id="g700"
     transform="translate(-17864.523,-40988.093)" />
  <g
     style="fill:#0000c2;fill-opacity:0;stroke:#0000c2;stroke-width:60;stroke-linecap:round;stroke-linejoin:round;stroke-opacity:1"
     id="g708"
     transform="translate(-17864.523,-40988.093)" />
  <g
     style="fill:#0000c2;fill-opacity:0;stroke:#0000c2;stroke-width:60;stroke-linecap:round;stroke-linejoin:round;stroke-opacity:1"
     id="g714"
     transform="translate(-17864.523,-40988.093)" />
  <g
     style="fill:#008400;fill-opacity:0;stroke:#008400;stroke-width:0;stroke-linecap:round;stroke-linejoin:round;stroke-opacity:1"
     id="g722"
     transform="translate(-17864.523,-40988.093)" />
  <g
     style="fill:#008400;fill-opacity:1;stroke:#008400;stroke-width:60;stroke-linecap:round;stroke-linejoin:round;stroke-opacity:1"
     id="g728"
     transform="translate(-17864.523,-40988.093)" />
  <g
     style="fill:#008400;fill-opacity:0;stroke:#008400;stroke-width:0;stroke-linecap:round;stroke-linejoin:round;stroke-opacity:1"
     id="g742"
     transform="translate(-17864.523,-40988.093)" />
  <g
     style="fill:#008400;fill-opacity:1;stroke:#008400;stroke-width:60;stroke-linecap:round;stroke-linejoin:round;stroke-opacity:1"
     id="g748"
     transform="translate(-17864.523,-40988.093)" />
  <g
     style="fill:#008400;fill-opacity:0;stroke:#008400;stroke-width:0;stroke-linecap:round;stroke-linejoin:round;stroke-opacity:1"
     id="g754"
     transform="translate(-17864.523,-40988.093)" />
  <g
     style="fill:#008400;fill-opacity:1;stroke:#008400;stroke-width:60;stroke-linecap:round;stroke-linejoin:round;stroke-opacity:1"
     id="g760"
     transform="translate(-17864.523,-40988.093)" />
  <g
     style="fill:#008400;fill-opacity:0;stroke:#008400;stroke-width:0;stroke-linecap:round;stroke-linejoin:round;stroke-opacity:1"
     id="g776"
     transform="translate(-17864.523,-40988.093)" />
  <g
     style="fill:#008400;fill-opacity:1;stroke:#008400;stroke-width:60;stroke-linecap:round;stroke-linejoin:round;stroke-opacity:1"
     id="g782"
     transform="translate(-17864.523,-40988.093)" />
  <g
     style="fill:#0000c2;fill-opacity:0;stroke:#0000c2;stroke-width:60;stroke-linecap:round;stroke-linejoin:round;stroke-opacity:1"
     id="g790"
     transform="translate(-17864.523,-40988.093)" />
  <g
     style="fill:#0000c2;fill-opacity:0;stroke:#0000c2;stroke-width:60;stroke-linecap:round;stroke-linejoin:round;stroke-opacity:1"
     id="g796"
     transform="translate(-17864.523,-40988.093)" />
  <g
     style="fill:#008400;fill-opacity:0;stroke:#008400;stroke-width:0;stroke-linecap:round;stroke-linejoin:round;stroke-opacity:1"
     id="g808"
     transform="translate(-17864.523,-40988.093)" />
  <g
     style="fill:#008400;fill-opacity:1;stroke:#008400;stroke-width:60;stroke-linecap:round;stroke-linejoin:round;stroke-opacity:1"
     id="g814"
     transform="translate(-17864.523,-40988.093)" />
  <g
     style="fill:#008400;fill-opacity:0;stroke:#008400;stroke-width:0;stroke-linecap:round;stroke-linejoin:round;stroke-opacity:1"
     id="g820"
     transform="translate(-17864.523,-40988.093)" />
  <g
     style="fill:#008400;fill-opacity:1;stroke:#008400;stroke-width:60;stroke-linecap:round;stroke-linejoin:round;stroke-opacity:1"
     id="g826"
     transform="translate(-17864.523,-40988.093)" />
  <g
     style="fill:#008400;fill-opacity:0;stroke:#008400;stroke-width:0;stroke-linecap:round;stroke-linejoin:round;stroke-opacity:1"
     id="g834"
     transform="translate(-17864.523,-40988.093)" />
  <g
     style="fill:#008400;fill-opacity:1;stroke:#008400;stroke-width:60;stroke-linecap:round;stroke-linejoin:round;stroke-opacity:1"
     id="g840"
     transform="translate(-17864.523,-40988.093)" />
  <g
     style="fill:#840000;fill-opacity:0;stroke:#840000;stroke-width:0;stroke-linecap:round;stroke-linejoin:round;stroke-opacity:1"
     id="g884"
     transform="translate(-17864.523,-40988.093)" />
  <g
     style="fill:#008400;fill-opacity:0;stroke:#008400;stroke-width:0;stroke-linecap:round;stroke-linejoin:round;stroke-opacity:1"
     id="g924"
     transform="translate(-17864.523,-40988.093)" />
  <g
     style="fill:#840000;fill-opacity:0;stroke:#840000;stroke-width:0;stroke-linecap:round;stroke-linejoin:round;stroke-opacity:1"
     id="g926"
     transform="translate(-17864.523,-40988.093)" />
  <g
     style="fill:#008400;fill-opacity:0;stroke:#008400;stroke-width:0;stroke-linecap:round;stroke-linejoin:round;stroke-opacity:1"
     id="g958"
     transform="translate(-17864.523,-40988.093)" />
  <g
     style="fill:#840000;fill-opacity:0;stroke:#840000;stroke-width:0;stroke-linecap:round;stroke-linejoin:round;stroke-opacity:1"
     id="g960"
     transform="translate(-17864.523,-40988.093)" />
  <g
     style="fill:#840000;fill-opacity:0;stroke:#840000;stroke-width:60;stroke-linecap:round;stroke-linejoin:round;stroke-opacity:1"
     id="g1004"
     transform="translate(-17864.523,-40988.093)" />
  <g
     style="fill:#840000;fill-opacity:0;stroke:#840000;stroke-width:0;stroke-linecap:round;stroke-linejoin:round;stroke-opacity:1"
     id="g1024"
     transform="translate(-17864.523,-40988.093)" />
  <g
     style="fill:#840000;fill-opacity:0;stroke:#840000;stroke-width:60;stroke-linecap:round;stroke-linejoin:round;stroke-opacity:1"
     id="g1068"
     transform="translate(-17864.523,-40988.093)" />
  <g
     style="fill:#840000;fill-opacity:0;stroke:#840000;stroke-width:60;stroke-linecap:round;stroke-linejoin:round;stroke-opacity:1"
     id="g1116"
     transform="translate(-17864.523,-40988.093)" />
  <g
     style="fill:#0000c2;fill-opacity:0;stroke:#0000c2;stroke-width:0;stroke-linecap:round;stroke-linejoin:round;stroke-opacity:1"
     id="g1152"
     transform="translate(-17864.523,-40988.093)" />
  <g
     style="fill:#840000;fill-opacity:0;stroke:#840000;stroke-width:0;stroke-linecap:round;stroke-linejoin:round;stroke-opacity:1"
     id="g1154"
     transform="translate(-17864.523,-40988.093)" />
  <g
     style="fill:#008400;fill-opacity:0;stroke:#008400;stroke-width:0;stroke-linecap:round;stroke-linejoin:round;stroke-opacity:1"
     id="g1186"
     transform="translate(-17864.523,-40988.093)" />
  <g
     style="fill:#840000;fill-opacity:0;stroke:#840000;stroke-width:0;stroke-linecap:round;stroke-linejoin:round;stroke-opacity:1"
     id="g1188"
     transform="translate(-17864.523,-40988.093)" />
  <path
     style="fill:#840000;fill-opacity:0;stroke:#840000;stroke-width:59.99999619;stroke-linecap:round;stroke-linejoin:round;stroke-opacity:1"
     inkscape:connector-curvature="0"
     id="path1076-6"
     d="m 569.99825,2680.4263 0,-600 230,0 60,30 30,30 30,60 0,80 -30,60 -30,30 -60,30 -230,0" />
  <path
     style="fill:#840000;fill-opacity:0;stroke:#840000;stroke-width:59.99999619;stroke-linecap:round;stroke-linejoin:round;stroke-opacity:1"
     inkscape:connector-curvature="0"
     id="path1078-2"
     d="m 1089.9983,2080.4263 200,600 200,-600" />
  <path
     style="fill:#840000;fill-opacity:0;stroke:#840000;stroke-width:59.99999619;stroke-linecap:round;stroke-linejoin:round;stroke-opacity:1"
     inkscape:connector-curvature="0"
     id="path1080-6"
     d="m 1999.9983,2680.4263 -350,0" />
  <path
     style="fill:#840000;fill-opacity:0;stroke:#840000;stroke-width:59.99999619;stroke-linecap:round;stroke-linejoin:round;stroke-opacity:1"
     inkscape:connector-curvature="0"
     id="path1082-3"
     d="m 1829.9983,2680.4263 0,-600 -60,90 -60,50 -60,30" />
  <polyline
     transform="translate(-7530.0008,-30089.569)"
     style="fill:#840000;fill-opacity:0;stroke:#840000;stroke-width:100;stroke-linecap:round;stroke-linejoin:round;stroke-opacity:1"
     id="polyline1086-3"
     points="10000,32500 9700,31960 7730,31960 7730,32500 7730,33040 9700,33040 10000,32500 " />
  <path
     style="fill:#840000;fill-opacity:0;stroke:#840000;stroke-width:59.99999619;stroke-linecap:round;stroke-linejoin:round;stroke-opacity:1"
     inkscape:connector-curvature="0"
     id="path1090-2"
     d="m 7319.9973,2620.4263 -30,30 -90,30 -60,0 -80,-30 -60,-50 -30,-60 -30,-120 0,-80 30,-120 30,-50 60,-60 80,-30 60,0 90,30 30,30" />
  <path
     style="fill:#840000;fill-opacity:0;stroke:#840000;stroke-width:59.99999619;stroke-linecap:round;stroke-linejoin:round;stroke-opacity:1"
     inkscape:connector-curvature="0"
     id="path1092-5"
     d="m 7569.9973,2680.4263 0,-600" />
  <path
     style="fill:#840000;fill-opacity:0;stroke:#840000;stroke-width:59.99999619;stroke-linecap:round;stroke-linejoin:round;stroke-opacity:1"
     inkscape:connector-curvature="0"
     id="path1094-2"
     d="m 7569.9973,2370.4263 350,0" />
  <path
     style="fill:#840000;fill-opacity:0;stroke:#840000;stroke-width:59.99999619;stroke-linecap:round;stroke-linejoin:round;stroke-opacity:1"
     inkscape:connector-curvature="0"
     id="path1096-0"
     d="m 7919.9973,2680.4263 0,-600" />
  <path
     style="fill:#840000;fill-opacity:0;stroke:#840000;stroke-width:59.99999619;stroke-linecap:round;stroke-linejoin:round;stroke-opacity:1"
     inkscape:connector-curvature="0"
     id="path1098-5"
     d="m 8519.9973,2680.4263 -350,0" />
  <path
     style="fill:#840000;fill-opacity:0;stroke:#840000;stroke-width:59.99999619;stroke-linecap:round;stroke-linejoin:round;stroke-opacity:1"
     inkscape:connector-curvature="0"
     id="path1100"
     d="m 8349.9973,2680.4263 0,-600 -60,90 -60,50 -60,30" />
  <polyline
     transform="translate(-7530.0008,-30089.569)"
     style="fill:#840000;fill-opacity:0;stroke:#840000;stroke-width:100;stroke-linecap:round;stroke-linejoin:round;stroke-opacity:1"
     id="polyline1104"
     points="14000,32500 14300,33040 16390,33040 16390,32500 16390,31960 14300,31960 14000,32500 " />
  <path
     style="fill:#840000;fill-opacity:0;stroke:#840000;stroke-width:59.99999619;stroke-linecap:round;stroke-linejoin:round;stroke-opacity:1"
     inkscape:connector-curvature="0"
     id="path1108-7"
     d="m 739.99825,3860.4263 -60,-30 -90,0 -80,30 -60,60 -30,50 -30,120 0,80 30,120 30,60 60,50 80,30 60,0 90,-30 30,-30 0,-200 -120,0" />
  <path
     style="fill:#840000;fill-opacity:0;stroke:#840000;stroke-width:59.99999619;stroke-linecap:round;stroke-linejoin:round;stroke-opacity:1"
     inkscape:connector-curvature="0"
     id="path1110-2"
     d="m 1019.9983,4430.4263 0,-600 350,600 0,-600" />
  <path
     style="fill:#840000;fill-opacity:0;stroke:#840000;stroke-width:59.99999619;stroke-linecap:round;stroke-linejoin:round;stroke-opacity:1"
     inkscape:connector-curvature="0"
     id="path1112"
     d="m 1649.9983,4430.4263 0,-600 150,0 80,30 60,60 30,50 30,120 0,80 -30,120 -30,60 -60,50 -80,30 -150,0" />
  <polyline
     transform="translate(-7530.0008,-30089.569)"
     style="fill:#840000;fill-opacity:0;stroke:#840000;stroke-width:100;stroke-linecap:round;stroke-linejoin:round;stroke-opacity:1"
     id="polyline1116"
     points="10000,34250 9700,33710 7580,33710 7580,34250 7580,34790 9700,34790 10000,34250 " />
  <path
     style="fill:#0000c2;fill-opacity:0;stroke:#0000c2;stroke-width:59.99999619;stroke-linecap:round;stroke-linejoin:round;stroke-opacity:1"
     inkscape:connector-curvature="0"
     id="path1122-5"
     d="m 1059.9983,30.427273 400,0 -400,599.998997 400,0" />
  <path
     style="fill:#0000c2;fill-opacity:0;stroke:#0000c2;stroke-width:59.99999619;stroke-linecap:round;stroke-linejoin:round;stroke-opacity:1"
     inkscape:connector-curvature="0"
     id="path1124-3"
     d="m 1909.9983,600.42627 -60,30 -110,0 -60,-30 -30,-50 0,-229.999 30,-60 60,-30 110,0 60,30 30,60 0,50 -290,60" />
  <path
     style="fill:#0000c2;fill-opacity:0;stroke:#0000c2;stroke-width:59.99999619;stroke-linecap:round;stroke-linejoin:round;stroke-opacity:1"
     inkscape:connector-curvature="0"
     id="path1126-0"
     d="m 2189.9983,230.42727 0,399.999" />
  <path
     style="fill:#0000c2;fill-opacity:0;stroke:#0000c2;stroke-width:59.99999619;stroke-linecap:round;stroke-linejoin:round;stroke-opacity:1"
     inkscape:connector-curvature="0"
     id="path1128-4"
     d="m 2189.9983,290.42727 30,-30 60,-30 80,0 60,30 30,60 0,309.999" />
  <path
     style="fill:#0000c2;fill-opacity:0;stroke:#0000c2;stroke-width:59.99999619;stroke-linecap:round;stroke-linejoin:round;stroke-opacity:1"
     inkscape:connector-curvature="0"
     id="path1130-2"
     d="m 2959.9973,600.42627 -59.999,30 -110,0 -60,-30 -30,-50 0,-229.999 30,-60 60,-30 110,0 59.999,30 30,60 0,50 -289.999,60" />
  <path
     style="fill:#0000c2;fill-opacity:0;stroke:#0000c2;stroke-width:59.99999619;stroke-linecap:round;stroke-linejoin:round;stroke-opacity:1"
     inkscape:connector-curvature="0"
     id="path1132-4"
     d="m 3239.9983,630.42627 0,-399.999" />
  <path
     style="fill:#0000c2;fill-opacity:0;stroke:#0000c2;stroke-width:59.99999619;stroke-linecap:round;stroke-linejoin:round;stroke-opacity:1"
     inkscape:connector-curvature="0"
     id="path1134-1"
     d="m 3239.9983,350.42727 29.999,-60 30,-30 60,-30 50,0" />
  <path
     style="fill:#0000c2;fill-opacity:0;stroke:#0000c2;stroke-width:59.99999619;stroke-linecap:round;stroke-linejoin:round;stroke-opacity:1"
     inkscape:connector-curvature="0"
     id="path1136-5"
     d="m 4069.9973,630.42627 0,-599.998997 150,0 80,30 60,59.999997 30,50 30,120 0,80 -30,119.999 -30,60 -60,50 -80,30 -150,0" />
  <path
     style="fill:#0000c2;fill-opacity:0;stroke:#0000c2;stroke-width:59.99999619;stroke-linecap:round;stroke-linejoin:round;stroke-opacity:1"
     inkscape:connector-curvature="0"
     id="path1138"
     d="m 4669.9973,630.42627 0,-399.999" />
  <path
     style="fill:#0000c2;fill-opacity:0;stroke:#0000c2;stroke-width:59.99999619;stroke-linecap:round;stroke-linejoin:round;stroke-opacity:1"
     inkscape:connector-curvature="0"
     id="path1140-4"
     d="m 4669.9973,30.427273 -30,30 30,30 30,-30 -30,-30 0,60" />
  <path
     style="fill:#0000c2;fill-opacity:0;stroke:#0000c2;stroke-width:59.99999619;stroke-linecap:round;stroke-linejoin:round;stroke-opacity:1"
     inkscape:connector-curvature="0"
     id="path1142-7"
     d="m 5049.9973,630.42627 -60,-30 -30,-30 -30,-50 0,-169.999 30,-60 30,-30 60,-30 80,0 60,30 30,30 30,60 0,169.999 -30,50 -30,30 -60,30 -80,0" />
  <path
     style="fill:#0000c2;fill-opacity:0;stroke:#0000c2;stroke-width:59.99999619;stroke-linecap:round;stroke-linejoin:round;stroke-opacity:1"
     inkscape:connector-curvature="0"
     id="path1144-0"
     d="m 5759.9973,630.42627 0,-599.998997" />
  <path
     style="fill:#0000c2;fill-opacity:0;stroke:#0000c2;stroke-width:59.99999619;stroke-linecap:round;stroke-linejoin:round;stroke-opacity:1"
     inkscape:connector-curvature="0"
     id="path1146-0"
     d="m 5759.9973,600.42627 -60,30 -110,0 -60,-30 -30,-30 -30,-50 0,-169.999 30,-60 30,-30 60,-30 110,0 60,30" />
  <path
     style="fill:#0000c2;fill-opacity:0;stroke:#0000c2;stroke-width:59.99999619;stroke-linecap:round;stroke-linejoin:round;stroke-opacity:1"
     inkscape:connector-curvature="0"
     id="path1148-9"
     d="m 6269.9973,600.42627 -60,30 -110,0 -60,-30 -30,-50 0,-229.999 30,-60 60,-30 110,0 60,30 30,60 0,50 -290,60" />
  <path
     style="fill:#0000c2;fill-opacity:0;stroke:#0000c2;stroke-width:59.99999619;stroke-linecap:round;stroke-linejoin:round;stroke-opacity:1"
     inkscape:connector-curvature="0"
     id="path1150-5"
     d="m 7009.9973,630.42627 0,-599.998997" />
  <path
     style="fill:#0000c2;fill-opacity:0;stroke:#0000c2;stroke-width:59.99999619;stroke-linecap:round;stroke-linejoin:round;stroke-opacity:1"
     inkscape:connector-curvature="0"
     id="path1152"
     d="m 7219.9973,30.427273 200,599.998997 200,-599.998997" />
  <rect
     style="fill:#840000;fill-opacity:0;stroke:#840000;stroke-width:99.99999237;stroke-linecap:round;stroke-linejoin:round;stroke-opacity:1"
     id="rect1160"
     rx="0"
     height="799.99994"
     width="1999.9999"
     y="2010.4265"
     x="3469.9983" />
  <path
     style="fill:#840000;fill-opacity:0;stroke:#840000;stroke-width:59.99999619;stroke-linecap:round;stroke-linejoin:round;stroke-opacity:1"
     inkscape:connector-curvature="0"
     id="path1164-8"
     d="m 5469.9973,2410.4263 500,0" />
  <path
     style="fill:#840000;fill-opacity:0;stroke:#840000;stroke-width:59.99999619;stroke-linecap:round;stroke-linejoin:round;stroke-opacity:1"
     inkscape:connector-curvature="0"
     id="path1166"
     d="m 3469.9973,2410.4263 -500,0" />
  <path
     style="fill:#008484;fill-opacity:0;stroke:#008484;stroke-width:59.99999619;stroke-linecap:round;stroke-linejoin:round;stroke-opacity:1"
     inkscape:connector-curvature="0"
     id="path1170-9"
     d="m 4359.9973,2610.4263 -280,0" />
  <path
     style="fill:#008484;fill-opacity:0;stroke:#008484;stroke-width:59.99999619;stroke-linecap:round;stroke-linejoin:round;stroke-opacity:1"
     inkscape:connector-curvature="0"
     id="path1172-6"
     d="m 4219.9973,2610.4263 0,-500 -50,70 -50,50 -40,20" />
  <path
     style="fill:#008484;fill-opacity:0;stroke:#008484;stroke-width:59.99999619;stroke-linecap:round;stroke-linejoin:round;stroke-opacity:1"
     inkscape:connector-curvature="0"
     id="path1174-8"
     d="m 4579.9973,2610.4263 0,-500" />
  <path
     style="fill:#008484;fill-opacity:0;stroke:#008484;stroke-width:59.99999619;stroke-linecap:round;stroke-linejoin:round;stroke-opacity:1"
     inkscape:connector-curvature="0"
     id="path1176-3"
     d="m 4859.9973,2610.4263 -210,-290" />
  <path
     style="fill:#008484;fill-opacity:0;stroke:#008484;stroke-width:59.99999619;stroke-linecap:round;stroke-linejoin:round;stroke-opacity:1"
     inkscape:connector-curvature="0"
     id="path1178"
     d="m 4859.9973,2110.4263 -280,280" />
  <path
     style="fill:#008400;fill-opacity:0;stroke:#008400;stroke-width:59.99999619;stroke-linecap:round;stroke-linejoin:round;stroke-opacity:1"
     inkscape:connector-curvature="0"
     id="path1182-4"
     d="m 2469.9983,2410.4263 499.999,0" />
  <path
     style="fill:#008400;fill-opacity:0;stroke:#008400;stroke-width:59.99999619;stroke-linecap:round;stroke-linejoin:round;stroke-opacity:1"
     inkscape:connector-curvature="0"
     id="path1184-2"
     d="m 5969.9973,2410.4263 500,0" />
  <path
     style="fill:#008400;fill-opacity:0;stroke:#008400;stroke-width:59.99999619;stroke-linecap:round;stroke-linejoin:round;stroke-opacity:1"
     inkscape:connector-curvature="0"
     id="path1186"
     d="m 6469.9973,2410.4263 0,1750" />
  <polyline
     transform="translate(-7530.0008,-30089.569)"
     style="fill:#840000;fill-opacity:0;stroke:#840000;stroke-width:80;stroke-linecap:round;stroke-linejoin:round;stroke-opacity:1"
     id="polyline1194"
     points="11300,33750 11500,33950 11500,34550 11700,34750 11700,34750 " />
  <polyline
     transform="translate(-7530.0008,-30089.569)"
     id="polyline1198"
     points="11500,34250 12500,33750 12500,34750 11500,34250 11500,34250 "
     style="fill:#840000;fill-opacity:1;fill-rule:evenodd;stroke:#840000;stroke-width:60;stroke-linecap:round;stroke-linejoin:round;stroke-opacity:1" />
  <path
     style="fill:#840000;fill-opacity:0;stroke:#840000;stroke-width:59.99999619;stroke-linecap:round;stroke-linejoin:round;stroke-opacity:1"
     inkscape:connector-curvature="0"
     id="path1202-1"
     d="m 3969.9973,4160.4263 -1499.999,0" />
  <path
     style="fill:#840000;fill-opacity:0;stroke:#840000;stroke-width:59.99999619;stroke-linecap:round;stroke-linejoin:round;stroke-opacity:1"
     inkscape:connector-curvature="0"
     id="path1204"
     d="m 4969.9973,4160.4263 1500,0" />
  <path
     style="fill:#008484;fill-opacity:0;stroke:#008484;stroke-width:59.99999619;stroke-linecap:round;stroke-linejoin:round;stroke-opacity:1"
     inkscape:connector-curvature="0"
     id="path1208-7"
     d="m 2199.9983,4860.4263 330,0 -330,500 330,0" />
  <path
     style="fill:#008484;fill-opacity:0;stroke:#008484;stroke-width:59.99999619;stroke-linecap:round;stroke-linejoin:round;stroke-opacity:1"
     inkscape:connector-curvature="0"
     id="path1210-8"
     d="m 2729.9983,5090.4263 170,0" />
  <path
     style="fill:#008484;fill-opacity:0;stroke:#008484;stroke-width:59.99999619;stroke-linecap:round;stroke-linejoin:round;stroke-opacity:1"
     inkscape:connector-curvature="0"
     id="path1212-3"
     d="m 2969.9973,5360.4263 -239.999,0 0,-500 239.999,0" />
  <path
     style="fill:#008484;fill-opacity:0;stroke:#008484;stroke-width:59.99999619;stroke-linecap:round;stroke-linejoin:round;stroke-opacity:1"
     inkscape:connector-curvature="0"
     id="path1214-3"
     d="m 3179.9973,5360.4263 0,-500 280,500 0,-500" />
  <path
     style="fill:#008484;fill-opacity:0;stroke:#008484;stroke-width:59.99999619;stroke-linecap:round;stroke-linejoin:round;stroke-opacity:1"
     inkscape:connector-curvature="0"
     id="path1216-0"
     d="m 3699.9973,5090.4263 170,0" />
  <path
     style="fill:#008484;fill-opacity:0;stroke:#008484;stroke-width:59.99999619;stroke-linecap:round;stroke-linejoin:round;stroke-opacity:1"
     inkscape:connector-curvature="0"
     id="path1218-5"
     d="m 3939.9973,5360.4263 -240,0 0,-500 240,0" />
  <path
     style="fill:#008484;fill-opacity:0;stroke:#008484;stroke-width:59.99999619;stroke-linecap:round;stroke-linejoin:round;stroke-opacity:1"
     inkscape:connector-curvature="0"
     id="path1220-0"
     d="m 4429.9973,5360.4263 -160,-240" />
  <path
     style="fill:#008484;fill-opacity:0;stroke:#008484;stroke-width:59.99999619;stroke-linecap:round;stroke-linejoin:round;stroke-opacity:1"
     inkscape:connector-curvature="0"
     id="path1222-0"
     d="m 4149.9973,5360.4263 0,-500 190,0 50,20 20,20 20,50 0,70 -20,50 -20,20 -50,30 -190,0" />
  <path
     style="fill:#008484;fill-opacity:0;stroke:#008484;stroke-width:59.99999619;stroke-linecap:round;stroke-linejoin:round;stroke-opacity:1"
     inkscape:connector-curvature="0"
     id="path1224-7"
     d="m 4789.9973,5550.4263 -20,-30 -50,-70 -20,-50 -30,-70 -20,-120 0,-90 20,-120 30,-70 20,-50 50,-70 20,-30" />
  <path
     style="fill:#008484;fill-opacity:0;stroke:#008484;stroke-width:59.99999619;stroke-linecap:round;stroke-linejoin:round;stroke-opacity:1"
     inkscape:connector-curvature="0"
     id="path1226-7"
     d="m 4929.9973,4860.4263 310,0 -170,190 80,0 40,20 30,20 20,50 0,120 -20,50 -30,20 -40,30 -150,0 -40,-30 -30,-20" />
  <path
     style="fill:#008484;fill-opacity:0;stroke:#008484;stroke-width:59.99999619;stroke-linecap:round;stroke-linejoin:round;stroke-opacity:1"
     inkscape:connector-curvature="0"
     id="path1228-3"
     d="m 5459.9973,5310.4263 20,20 -20,30 -20,-30 20,-20 0,50" />
  <path
     style="fill:#008484;fill-opacity:0;stroke:#008484;stroke-width:59.99999619;stroke-linecap:round;stroke-linejoin:round;stroke-opacity:1"
     inkscape:connector-curvature="0"
     id="path1230-9"
     d="m 5649.9973,4860.4263 310,0 -170,190 80,0 40,20 30,20 20,50 0,120 -20,50 -30,20 -40,30 -150,0 -40,-30 -30,-20" />
  <path
     style="fill:#008484;fill-opacity:0;stroke:#008484;stroke-width:59.99999619;stroke-linecap:round;stroke-linejoin:round;stroke-opacity:1"
     inkscape:connector-curvature="0"
     id="path1232-2"
     d="m 6109.9973,4860.4263 160,500 170,-500" />
  <path
     style="fill:#008484;fill-opacity:0;stroke:#008484;stroke-width:59.99999619;stroke-linecap:round;stroke-linejoin:round;stroke-opacity:1"
     inkscape:connector-curvature="0"
     id="path1234"
     d="m 6559.9973,5550.4263 30,-30 40,-70 30,-50 20,-70 20,-120 0,-90 -20,-120 -20,-70 -30,-50 -40,-70 -30,-30" />
</svg>
